<svg width="96" height="96" viewBox="0 0 96 96" fill="none" xmlns="http://www.w3.org/2000/svg">
<path d="M44.8 79.3L22.8 66.4C21.882 65.838 21.169 65.0977 20.661 64.179C20.1537 63.2597 19.9 62.2667 19.9 61.2V35.5C19.9 34.4333 20.1537 33.4403 20.661 32.521C21.169 31.6023 21.882 30.862 22.8 30.3L44.9 17.2C45.8333 16.6667 46.8667 16.4 48 16.4C49.1333 16.4 50.1667 16.6667 51.1 17.2L73.2 30.3C74.1187 30.862 74.8317 31.6023 75.339 32.521C75.8463 33.4403 76.1 34.4333 76.1 35.5V61.2C76.1 62.2667 75.8377 63.2597 75.313 64.179C74.7877 65.0977 74.05 65.838 73.1 66.4L50.8 79.3C49.8447 79.8333 48.8393 80.1 47.784 80.1C46.728 80.1 45.7333 79.8333 44.8 79.3ZM45 72.4V50L26 39.1V61L45 72.4ZM51 72.4L70.1 61V39.1L51 50V72.4ZM8 26.9V14C8 12.35 8.58767 10.9373 9.763 9.762C10.9377 8.58733 12.35 8 14 8H26.9V14H14V26.9H8ZM26.9 88H14C12.35 88 10.9377 87.4123 9.763 86.237C8.58767 85.0623 8 83.65 8 82V69.1H14V82H26.9V88ZM69.1 88V82H82V69.1H88V82C88 83.65 87.4127 85.0623 86.238 86.237C85.0627 87.4123 83.65 88 82 88H69.1ZM82 26.9V14H69.1V8H82C83.65 8 85.0627 8.58733 86.238 9.762C87.4127 10.9373 88 12.35 88 14V26.9H82ZM48 44.6L67 33.6L48 22.7L29 33.6L48 44.6Z" fill="#ECE7E3"/>
</svg>
