<svg width="24" height="24" viewBox="0 0 24 24" fill="none" xmlns="http://www.w3.org/2000/svg">
<path d="M9.52489 12L16.8749 4.65C17.1249 4.4 17.2457 4.10417 17.2374 3.7625C17.2291 3.42083 17.0999 3.125 16.8499 2.875C16.5999 2.625 16.3041 2.5 15.9624 2.5C15.6207 2.5 15.3249 2.625 15.0749 2.875L7.39989 10.575C7.19989 10.775 7.04989 11 6.94989 11.25C6.84989 11.5 6.79989 11.75 6.79989 12C6.79989 12.25 6.84989 12.5 6.94989 12.75C7.04989 13 7.19989 13.225 7.39989 13.425L15.0999 21.125C15.3499 21.375 15.6416 21.4958 15.9749 21.4875C16.3082 21.4792 16.5999 21.35 16.8499 21.1C17.0999 20.85 17.2249 20.5542 17.2249 20.2125C17.2249 19.8708 17.0999 19.575 16.8499 19.325L9.52489 12Z" fill="white"/>
</svg>
