<svg width="48" height="48" viewBox="0 0 48 48" fill="none" xmlns="http://www.w3.org/2000/svg">
<g clip-path="url(#clip0_8063_3488)">
<path d="M1 20.9998H47L46.0739 9.32346C45.8652 7.23666 44.1092 5.64746 42.012 5.64746H6.0496C3.9524 5.64746 2.1964 7.23666 1.9877 9.32346L1 20.9998Z" fill="#D58F56"/>
<path d="M47 21L46.3856 40.4112C46.2911 42.5496 44.53 44.2346 42.3895 44.2346H5.6722C3.5317 44.2346 1.7706 42.5496 1.6761 40.4112L1 21H47Z" fill="#D58F56"/>
<path d="M2 9.32373H46.1649" stroke="#F9B27D" stroke-width="1.5" stroke-miterlimit="10"/>
<path d="M2 15.5981H46.1649" stroke="#F9B27D" stroke-width="1.5" stroke-miterlimit="10"/>
<path d="M1.10791 29.4038H46.9999" stroke="#F9B27D" stroke-width="1.5" stroke-miterlimit="10"/>
<path d="M1.61816 37.5884H46" stroke="#F9B27D" stroke-width="1.5" stroke-miterlimit="10"/>
<path d="M1.1001 20.9998H47.0001L46.074 9.32346C45.8653 7.23666 44.1093 5.64746 42.0121 5.64746H6.0497C3.9525 5.64746 2.1965 7.23666 1.9878 9.32346L1.1001 20.9998Z" stroke="#863911" stroke-width="2" stroke-miterlimit="10"/>
<path d="M47.0001 21L46.3857 40.4112C46.2912 42.5496 44.5301 44.2346 42.3896 44.2346H5.6723C3.5318 44.2346 1.7707 42.5496 1.6762 40.4112L1.1001 21H47.0001Z" stroke="#863911" stroke-width="2" stroke-miterlimit="10"/>
<path d="M3.17578 19L3.98048 9.49216C4.08398 8.45306 4.97558 7.64746 6.04978 7.64746H42.0117" stroke="#FFDA88" stroke-miterlimit="10" stroke-linecap="round"/>
<path d="M7.5 21.5L8.2013 44.1543C8.2135 45.0363 8.932 45.7448 9.814 45.7448H14.2305C15.1344 45.7448 15.8618 45.0021 15.8431 44.0984L15.5 21.5H7.5Z" fill="#AFA79C" stroke="#665C4F" stroke-width="1.5" stroke-miterlimit="10"/>
<path d="M16.5 4.50024C16.5 4.50024 15.3296 4.30954 14.5341 4.26424C12.9605 4.17474 10.4763 4.16034 9.7542 4.88254C7.7131 6.92364 7.5 21.5002 7.5 21.5002H15.5C15.5 21.5002 14.8568 8.45444 15.6222 5.64794C15.6595 5.51124 16.5 4.50024 16.5 4.50024Z" fill="#AFA79C" stroke="#665C4F" stroke-width="1.5" stroke-miterlimit="10"/>
<path d="M14 29C14 30.1046 13.1046 31 12 31C10.8954 31 10 30.1046 10 29C10 27.8954 10.8954 27 12 27C13.1046 27 14 27.8954 14 29Z" fill="#544B44"/>
<path d="M14 9C14 9.8284 13.1046 10.5 12 10.5C10.8954 10.5 10 9.8284 10 9C10 8.1716 10.8954 7.5 12 7.5C13.1046 7.5 14 8.1716 14 9Z" fill="#544B44"/>
<path d="M14 16.5C14 17.3284 13.1046 18 12 18C10.8954 18 10 17.3284 10 16.5C10 15.6716 10.8954 15 12 15C13.1046 15 14 15.6716 14 16.5Z" fill="#544B44"/>
<path d="M14 41C14 42.1046 13.1046 43 12 43C10.8954 43 10 42.1046 10 41C10 39.8954 10.8954 39 12 39C13.1046 39 14 39.8954 14 41Z" fill="#544B44"/>
<path d="M14 28C14 29.1046 13.1046 30 12 30C10.8954 30 10 29.1046 10 28C10 26.8954 10.8954 26 12 26C13.1046 26 14 26.8954 14 28Z" fill="#B46422"/>
<path d="M14 8C14 8.8284 13.1046 9.5 12 9.5C10.8954 9.5 10 8.8284 10 8C10 7.1716 10.8954 6.5 12 6.5C13.1046 6.5 14 7.1716 14 8Z" fill="#B46422"/>
<path d="M14 15.5C14 16.3284 13.1046 17 12 17C10.8954 17 10 16.3284 10 15.5C10 14.6716 10.8954 14 12 14C13.1046 14 14 14.6716 14 15.5Z" fill="#B46422"/>
<path d="M14 40C14 41.1046 13.1046 42 12 42C10.8954 42 10 41.1046 10 40C10 38.8954 10.8954 38 12 38C13.1046 38 14 38.8954 14 40Z" fill="#B46422"/>
<path d="M40.5002 21.5L39.7989 44.1543C39.7867 45.0363 39.0682 45.7448 38.1862 45.7448H33.7697C32.8658 45.7448 32.1384 45.0021 32.1571 44.0984L32.5002 21.5H40.5002Z" fill="#AFA79C" stroke="#665C4F" stroke-width="1.5" stroke-miterlimit="10"/>
<path d="M31.5 4.50024C31.5 4.50024 32.6704 4.30954 33.4659 4.26424C35.0395 4.17474 37.5237 4.16034 38.2458 4.88254C40.2869 6.92364 40.5 21.5002 40.5 21.5002H32.5C32.5 21.5002 33.1432 8.45444 32.3778 5.64794C32.3405 5.51124 31.5 4.50024 31.5 4.50024Z" fill="#AFA79C" stroke="#665C4F" stroke-width="1.5" stroke-miterlimit="10"/>
<path d="M36 31C37.1046 31 38 30.1046 38 29C38 27.8954 37.1046 27 36 27C34.8954 27 34 27.8954 34 29C34 30.1046 34.8954 31 36 31Z" fill="#544B44"/>
<path d="M36 10.5C37.1046 10.5 38 9.82843 38 9C38 8.17157 37.1046 7.5 36 7.5C34.8954 7.5 34 8.17157 34 9C34 9.82843 34.8954 10.5 36 10.5Z" fill="#544B44"/>
<path d="M36 18C37.1046 18 38 17.3284 38 16.5C38 15.6716 37.1046 15 36 15C34.8954 15 34 15.6716 34 16.5C34 17.3284 34.8954 18 36 18Z" fill="#544B44"/>
<path d="M36 43C37.1046 43 38 42.1046 38 41C38 39.8954 37.1046 39 36 39C34.8954 39 34 39.8954 34 41C34 42.1046 34.8954 43 36 43Z" fill="#544B44"/>
<path d="M36 30C37.1046 30 38 29.1046 38 28C38 26.8954 37.1046 26 36 26C34.8954 26 34 26.8954 34 28C34 29.1046 34.8954 30 36 30Z" fill="#B46422"/>
<path d="M36 9.5C37.1046 9.5 38 8.82843 38 8C38 7.17157 37.1046 6.5 36 6.5C34.8954 6.5 34 7.17157 34 8C34 8.82843 34.8954 9.5 36 9.5Z" fill="#B46422"/>
<path d="M36 17C37.1046 17 38 16.3284 38 15.5C38 14.6716 37.1046 14 36 14C34.8954 14 34 14.6716 34 15.5C34 16.3284 34.8954 17 36 17Z" fill="#B46422"/>
<path d="M36 42C37.1046 42 38 41.1046 38 40C38 38.8954 37.1046 38 36 38C34.8954 38 34 38.8954 34 40C34 41.1046 34.8954 42 36 42Z" fill="#B46422"/>
<path d="M23.9795 31.7224C28.4005 31.7224 31.9844 28.1347 31.9844 23.7091C31.9844 19.2835 28.4005 15.6958 23.9795 15.6958C19.5585 15.6958 15.9746 19.2835 15.9746 23.7091C15.9746 28.1347 19.5585 31.7224 23.9795 31.7224Z" fill="#684C2E"/>
<path d="M3 23L3.5 39.5" stroke="#FFDA88" stroke-miterlimit="10" stroke-linecap="round"/>
<path d="M11.5 8C11.7761 8 12 7.77614 12 7.5C12 7.22386 11.7761 7 11.5 7C11.2239 7 11 7.22386 11 7.5C11 7.77614 11.2239 8 11.5 8Z" fill="#FFDA88"/>
<path d="M11.1562 15.646C11.4324 15.646 11.6562 15.4221 11.6562 15.146C11.6562 14.8699 11.4324 14.646 11.1562 14.646C10.8801 14.646 10.6562 14.8699 10.6562 15.146C10.6562 15.4221 10.8801 15.646 11.1562 15.646Z" fill="#FFDA88"/>
<path d="M11.1562 27.8125C11.4324 27.8125 11.6562 27.5886 11.6562 27.3125C11.6562 27.0364 11.4324 26.8125 11.1562 26.8125C10.8801 26.8125 10.6562 27.0364 10.6562 27.3125C10.6562 27.5886 10.8801 27.8125 11.1562 27.8125Z" fill="#FFDA88"/>
<path d="M11.0449 39.8125C11.3211 39.8125 11.5449 39.5886 11.5449 39.3125C11.5449 39.0364 11.3211 38.8125 11.0449 38.8125C10.7688 38.8125 10.5449 39.0364 10.5449 39.3125C10.5449 39.5886 10.7688 39.8125 11.0449 39.8125Z" fill="#FFDA88"/>
<path d="M35.5 8C35.7761 8 36 7.77614 36 7.5C36 7.22386 35.7761 7 35.5 7C35.2239 7 35 7.22386 35 7.5C35 7.77614 35.2239 8 35.5 8Z" fill="#FFDA88"/>
<path d="M35.1562 15.646C35.4324 15.646 35.6562 15.4221 35.6562 15.146C35.6562 14.8699 35.4324 14.646 35.1562 14.646C34.8801 14.646 34.6562 14.8699 34.6562 15.146C34.6562 15.4221 34.8801 15.646 35.1562 15.646Z" fill="#FFDA88"/>
<path d="M35.1562 27.8125C35.4324 27.8125 35.6562 27.5886 35.6562 27.3125C35.6562 27.0364 35.4324 26.8125 35.1562 26.8125C34.8801 26.8125 34.6562 27.0364 34.6562 27.3125C34.6562 27.5886 34.8801 27.8125 35.1562 27.8125Z" fill="#FFDA88"/>
<path d="M35.0449 39.8125C35.3211 39.8125 35.5449 39.5886 35.5449 39.3125C35.5449 39.0364 35.3211 38.8125 35.0449 38.8125C34.7688 38.8125 34.5449 39.0364 34.5449 39.3125C34.5449 39.5886 34.7688 39.8125 35.0449 39.8125Z" fill="#FFDA88"/>
<path d="M23.9793 28.4488C27.8204 28.4488 30.9342 25.3317 30.9342 21.4866C30.9342 17.6415 27.8204 14.5244 23.9793 14.5244C20.1382 14.5244 17.0244 17.6415 17.0244 21.4866C17.0244 25.3317 20.1382 28.4488 23.9793 28.4488Z" fill="#E29335" stroke="#9B6B40" stroke-width="2" stroke-miterlimit="10"/>
<path d="M25.5 20C25.5 19.1716 24.8284 18.5 24 18.5C23.1716 18.5 22.5 19.1716 22.5 20C22.5 20.5303 22.7767 20.9937 23.192 21.2605L23 23.5H25L24.808 21.2605C25.2232 20.9937 25.5 20.5303 25.5 20Z" fill="#3D1400"/>
<path d="M25.9409 15.9558C25.3266 15.7373 24.6682 15.6123 23.9792 15.6123C20.7382 15.6123 18.1108 18.2422 18.1108 21.4868C18.1108 22.1765 18.2358 22.8357 18.4541 23.4507C19.4001 19.7832 22.2773 16.9028 25.9409 15.9558Z" fill="#FFDA88"/>
</g>
<defs>
<clipPath id="clip0_8063_3488">
<rect width="48" height="48" fill="white"/>
</clipPath>
</defs>
</svg>
