<svg width="48" height="48" viewBox="0 0 48 48" fill="none" xmlns="http://www.w3.org/2000/svg">
<g clip-path="url(#clip0_8063_3561)">
<path d="M10.8438 46.6221C10.0967 46.6221 9.4073 46.2403 8.9991 45.6006C8.5977 44.9727 8.545 44.1944 8.8585 43.5186C9.7726 41.5479 10.255 38.9639 10.4991 37.1426C10.5098 37.0664 10.4737 36.9932 10.4083 36.9551C4.4287 33.5176 1 27.6328 1 20.8096C1 11.1377 8.1113 1.37793 24 1.37793C39.8887 1.37793 47 11.1377 47 20.8095C47 32.2509 37.542 40.2411 24 40.2411C23.0889 40.2411 22.1514 40.202 21.2139 40.1249C21.2119 40.1249 21.21 40.1239 21.209 40.1239C21.1367 40.1239 21.0879 40.1444 21.0518 40.1796C18.7579 42.4208 15.2403 45.3407 11.5069 46.5194C11.2901 46.5878 11.0674 46.6221 10.8438 46.6221Z" fill="#EFDFD0"/>
<path d="M24 2.37793C38.3328 2.37793 46 10.6299 46 20.8093C46 30.9887 37.9561 39.2407 24 39.2407C23.0707 39.2407 22.1707 39.2004 21.2955 39.1277C21.2617 39.125 21.2279 39.1235 21.1942 39.1235C20.8811 39.1235 20.5796 39.2434 20.3536 39.4643C18.4177 41.3557 14.8853 44.4045 11.2058 45.5651C11.0829 45.6039 10.9614 45.622 10.8436 45.622C10.0248 45.622 9.389 44.7514 9.766 43.9389C10.7421 41.8347 11.2449 39.1061 11.4901 37.2756C11.5542 36.7973 11.324 36.3281 10.9055 36.0876C5.1439 32.7753 2 27.1699 2 20.8093C2 10.6299 9.6672 2.37793 24 2.37793ZM24 0.37793C7.421 0.37793 0 10.6396 0 20.8093C0 27.8176 3.4297 33.885 9.4327 37.5398C9.0957 39.7952 8.5749 41.7537 7.9516 43.0974C7.4937 44.0845 7.5699 45.2212 8.1553 46.1382C8.7486 47.0672 9.7534 47.6221 10.8435 47.6221C11.1688 47.6221 11.4932 47.5718 11.8075 47.4724C15.5853 46.2807 19.1141 43.4292 21.489 41.1489C22.3275 41.2097 23.1706 41.2407 23.9999 41.2407C38.1308 41.2407 47.9999 32.8391 47.9999 20.8093C48 10.6396 40.579 0.37793 24 0.37793Z" fill="#49763A"/>
<path opacity="0.45" d="M12.7661 43.939C13.7419 41.8348 14.2449 39.106 14.4902 37.2757C14.5542 36.7974 14.3239 36.3282 13.9055 36.0877C8.144 32.7754 5 27.17 5 20.8094C5 11.1655 11.8918 3.26423 24.8032 2.45803C24.8491 2.44383 24.8911 2.42603 24.9372 2.41213C24.622 2.40383 24.3217 2.37793 23.9999 2.37793C9.6672 2.37803 2 10.6299 2 20.8093C2 27.1699 5.144 32.7754 10.9055 36.0876C11.324 36.3281 11.5542 36.7973 11.4902 37.2756C11.2448 39.1059 10.7419 41.8347 9.7661 43.9389C9.3349 44.8683 10.2285 45.8735 11.2058 45.5651C11.7351 45.3981 12.2583 45.1818 12.7764 44.9462C12.6294 44.6488 12.6038 44.2888 12.7661 43.939Z" fill="white"/>
<path d="M25.8327 27.7344L21.5097 27.6797C21.4909 27.4251 21.4774 27.1014 21.4685 26.7088C21.4586 26.317 21.4551 25.9288 21.4551 25.546C21.4551 24.4514 21.5734 23.5396 21.8101 22.8098C22.0468 22.0809 22.5085 21.474 23.1925 20.9908C23.8756 20.5076 24.9022 20.0925 26.2702 19.7455C27.0538 19.5447 27.7019 19.3672 28.213 19.2121C28.7231 19.057 29.1248 18.8795 29.417 18.6787C29.7084 18.4779 29.9137 18.2 30.032 17.844C30.1503 17.488 30.2104 17.0004 30.2104 16.38C30.2104 15.0666 29.6904 14.2732 28.6505 13.9997C28.1395 13.8536 27.4644 13.7442 26.6262 13.6716C25.7871 13.599 24.9658 13.5622 24.1635 13.5622C23.4884 13.5622 22.7676 13.5846 22.002 13.6303C21.2355 13.676 20.5147 13.763 19.8405 13.8903C19.1654 14.0185 18.6185 14.2184 18.199 14.4919C17.7794 14.7662 17.5696 15.1401 17.5696 15.6143C17.5696 16.0339 17.7104 16.4848 17.9937 16.968C18.2761 17.4521 18.6275 17.8762 19.0471 18.2402L15.08 20.5111C14.4596 19.8737 13.9576 19.1072 13.5747 18.2133C13.1918 17.3194 13 16.371 13 15.3678C13 14.7115 13.1416 14.0365 13.4241 13.3435C13.7074 12.6505 14.1808 12.0068 14.8469 11.4142C15.513 10.8216 16.4203 10.3608 17.5696 10.0327C18.4078 9.77716 19.403 9.58086 20.5514 9.44456C21.7007 9.30736 22.9048 9.23926 24.1635 9.23926C25.2393 9.23926 26.325 9.30296 27.4197 9.43026C28.5135 9.55846 29.5355 9.78616 30.484 10.1143C32.0708 10.6621 33.1511 11.46 33.7258 12.5089C34.3005 13.5578 34.5883 14.7932 34.5883 16.216C34.5883 18.0951 34.2001 19.6273 33.4255 20.8124C32.6491 21.9985 31.3321 22.8009 29.4719 23.2204C29.0335 23.3118 28.5682 23.3934 28.076 23.466C27.5838 23.5395 27.1454 23.6579 26.7626 23.8219C26.3798 23.9859 26.1243 24.2693 25.997 24.67C25.8509 25.1263 25.7782 25.7835 25.7782 26.6405C25.7782 26.8225 25.7818 27.0054 25.7916 27.1874C25.8006 27.3703 25.8139 27.5524 25.8327 27.7344ZM23.6981 34.0002C22.8778 34.0002 22.2431 33.7447 21.7966 33.2346C21.3492 32.7236 21.126 32.1211 21.126 31.4281C21.126 30.6804 21.3725 30.0564 21.8647 29.5544C22.3578 29.0532 22.9773 28.8022 23.7259 28.8022C24.5095 28.8022 25.1343 29.0389 25.5996 29.5131C26.0649 29.9873 26.2971 30.6167 26.2971 31.4012C26.2971 32.1848 26.0649 32.8141 25.5996 33.2893C25.1343 33.7636 24.5005 34.0002 23.6981 34.0002Z" fill="#333333"/>
</g>
<defs>
<clipPath id="clip0_8063_3561">
<rect width="48" height="48" fill="white"/>
</clipPath>
</defs>
</svg>
