<svg width="48" height="48" viewBox="0 0 48 48" fill="none" xmlns="http://www.w3.org/2000/svg">
<path d="M14 7H8C7.44772 7 7 7.44772 7 8V14C7 14.5523 7.44772 15 8 15H14C14.5523 15 15 14.5523 15 14V8C15 7.44772 14.5523 7 14 7Z" fill="#6EAF56"/>
<path d="M14 8V14H8V8H14ZM14 6H8C6.8954 6 6 6.8955 6 8V14C6 15.1045 6.8954 16 8 16H14C15.1046 16 16 15.1045 16 14V8C16 6.8955 15.1046 6 14 6Z" fill="#2C7013"/>
<path d="M14 20H8C7.44772 20 7 20.4477 7 21V27C7 27.5523 7.44772 28 8 28H14C14.5523 28 15 27.5523 15 27V21C15 20.4477 14.5523 20 14 20Z" fill="#6EAF56"/>
<path d="M14 21V27H8V21H14ZM14 19H8C6.8954 19 6 19.8955 6 21V27C6 28.1045 6.8954 29 8 29H14C15.1046 29 16 28.1045 16 27V21C16 19.8955 15.1046 19 14 19Z" fill="#2C7013"/>
<path d="M14 33H8C7.44772 33 7 33.4477 7 34V40C7 40.5523 7.44772 41 8 41H14C14.5523 41 15 40.5523 15 40V34C15 33.4477 14.5523 33 14 33Z" fill="#6EAF56"/>
<path d="M14 34V40H8V34H14ZM14 32H8C6.8954 32 6 32.8955 6 34V40C6 41.1045 6.8954 42 8 42H14C15.1046 42 16 41.1045 16 40V34C16 32.8955 15.1046 32 14 32Z" fill="#2C7013"/>
<path d="M40 7H21C20.4477 7 20 7.44772 20 8V14C20 14.5523 20.4477 15 21 15H40C40.5523 15 41 14.5523 41 14V8C41 7.44772 40.5523 7 40 7Z" fill="#EFDFD5"/>
<path d="M40 8V14H21V8H40ZM40 6H21C19.8954 6 19 6.8955 19 8V14C19 15.1045 19.8954 16 21 16H40C41.1046 16 42 15.1045 42 14V8C42 6.8955 41.1046 6 40 6Z" fill="#6B5047"/>
<path d="M40 20H21C20.4477 20 20 20.4477 20 21V27C20 27.5523 20.4477 28 21 28H40C40.5523 28 41 27.5523 41 27V21C41 20.4477 40.5523 20 40 20Z" fill="#EFDFD5"/>
<path d="M40 21V27H21V21H40ZM40 19H21C19.8954 19 19 19.8955 19 21V27C19 28.1045 19.8954 29 21 29H40C41.1046 29 42 28.1045 42 27V21C42 19.8955 41.1046 19 40 19Z" fill="#6B5047"/>
<path d="M40 33H21C20.4477 33 20 33.4477 20 34V40C20 40.5523 20.4477 41 21 41H40C40.5523 41 41 40.5523 41 40V34C41 33.4477 40.5523 33 40 33Z" fill="#EFDFD5"/>
<path d="M40 34V40H21V34H40ZM40 32H21C19.8954 32 19 32.8955 19 34V40C19 41.1045 19.8954 42 21 42H40C41.1046 42 42 41.1045 42 40V34C42 32.8955 41.1046 32 40 32Z" fill="#6B5047"/>
<path d="M14 12H8V14H14V12Z" fill="#0F3D07"/>
<path d="M40 12H21V14H40V12Z" fill="#B56745"/>
<path d="M14 25H8V27H14V25Z" fill="#0F3D07"/>
<path d="M40 25H21V27H40V25Z" fill="#B56745"/>
<path d="M14 38H8V40H14V38Z" fill="#0F3D07"/>
<path d="M40 38H21V40H40V38Z" fill="#B56745"/>
</svg>
