<svg width="48" height="48" viewBox="0 0 48 48" fill="none" xmlns="http://www.w3.org/2000/svg">
<g clip-path="url(#clip0_8063_3475)">
<path d="M24 47C11.3174 47 1 36.6826 1 24C1 11.3174 11.3174 1 24 1C36.6826 1 47 11.3174 47 24C47 36.6826 36.6826 47 24 47Z" fill="#EFDFD0"/>
<path d="M24 2C36.1503 2 46 11.8499 46 24C46 36.1501 36.1503 46 24 46C11.8497 46 2 36.1501 2 24C2 11.8499 11.8497 2 24 2ZM24 0C10.7664 0 0 10.7664 0 24C0 37.2336 10.7664 48 24 48C37.2336 48 48 37.2336 48 24C48 10.7664 37.2336 0 24 0Z" fill="#49763A"/>
<path d="M24 26.5C18.7617 26.5 14.5 22.2383 14.5 17C14.5 11.7617 18.7617 7.5 24 7.5C29.2383 7.5 33.5 11.7617 33.5 17C33.5 22.2383 29.2383 26.5 24 26.5Z" fill="#FFBC85"/>
<path d="M24 8.5C28.6945 8.5 32.5 12.3057 32.5 17C32.5 21.6943 28.6945 25.5 24 25.5C19.3055 25.5 15.5 21.6943 15.5 17C15.5 12.3057 19.3055 8.5 24 8.5ZM24 6.5C18.2103 6.5 13.5 11.2102 13.5 17C13.5 22.7898 18.2103 27.5 24 27.5C29.7897 27.5 34.5 22.7898 34.5 17C34.5 11.2102 29.7897 6.5 24 6.5Z" fill="#C98461"/>
<path d="M24 41.4912L20.5664 41.5C15.3789 41.5 9.5 41.5 9.5 37.1094C9.5 32.5235 16.2754 28.5 24 28.5C31.7246 28.5 38.5 32.5234 38.5 37.1094C38.5 39.0498 37.2842 40.3428 34.8857 40.9522C33.0878 41.4083 30.7011 41.5001 27.4345 41.5001L24 41.4912Z" fill="#6EAF56"/>
<path d="M24 29.5C31.4558 29.5 37.5 33.3738 37.5 37.1091C37.5 40.25 33.2281 40.5 27.4357 40.5C26.3391 40.5 25.1868 40.491 24 40.491C22.8132 40.491 21.6613 40.5 20.5643 40.5C14.7724 40.5 10.5 40.2498 10.5 37.1091C10.5 33.3737 16.5442 29.5 24 29.5ZM24 27.5C15.743 27.5 8.5 31.9902 8.5 37.1091C8.5 42.5 15.1893 42.5 20.5643 42.5C21.1045 42.5 21.6578 42.4978 22.2221 42.4956C22.8038 42.4934 23.3973 42.491 23.9999 42.491C24.6025 42.491 25.1959 42.4934 25.7777 42.4956C26.3422 42.4978 26.8955 42.5 27.4355 42.5C32.8105 42.5 39.4998 42.5 39.4998 37.1091C39.4998 31.9902 32.257 27.5 24 27.5Z" fill="#2C7013"/>
<path opacity="0.45" d="M24 25.5C24.1929 25.5 24.3818 25.4839 24.5715 25.4712C21.3222 24.2766 19 21.1636 19 17.5C19 12.9985 22.502 9.3242 26.9285 9.0288C26.0142 8.6929 25.0308 8.5 24 8.5C19.3057 8.5 15.5 12.3057 15.5 17C15.5 21.6943 19.3057 25.5 24 25.5Z" fill="white"/>
<path opacity="0.45" d="M14 37.6091C14 33.8735 20.0442 30 27.5 30C27.9067 30 28.3071 30.0164 28.7048 30.0388C27.2378 29.6999 25.6572 29.5 24 29.5C16.5442 29.5 10.5 33.3735 10.5 37.1091C10.5 39.4846 12.9495 40.2046 16.6465 40.4153C14.991 39.9468 14 39.1123 14 37.6091Z" fill="white"/>
</g>
<defs>
<clipPath id="clip0_8063_3475">
<rect width="48" height="48" fill="white"/>
</clipPath>
</defs>
</svg>
