<svg width="48" height="48" viewBox="0 0 48 48" fill="none" xmlns="http://www.w3.org/2000/svg">
<path d="M24.0586 46.0001C23.0205 46.0001 21.9815 45.8829 20.9697 45.6505L15.7148 44.4464C14.8505 44.2482 13.9619 44.1476 13.0742 44.1476C12.1953 44.1476 11.3144 44.2462 10.458 44.4415L4.6631 45.755C4.4434 45.8048 4.2188 45.8292 3.9961 45.8292C2.3438 45.8292 1 44.4835 1 42.8282V6.7823C1 5.3721 1.9609 4.168 3.3359 3.8555L10.0156 2.3418C11.0156 2.1152 12.0439 2 13.0713 2C14.1094 2 15.1494 2.1172 16.1621 2.3496L21.417 3.5537C22.2822 3.7519 23.1709 3.8516 24.0586 3.8516C24.9463 3.8516 25.835 3.752 26.7012 3.5537L31.9405 2.3525C32.9522 2.1211 33.9913 2.0039 35.0294 2.0039C36.0675 2.0039 37.1065 2.1211 38.1173 2.3525L44.67 3.8535C46.0421 4.1689 47.0001 5.3711 47.0001 6.7783V42.8222C47.0001 43.6327 46.6827 44.3915 46.1065 44.9589C45.5401 45.5155 44.794 45.8232 44.0049 45.8232C43.7793 45.8232 43.5518 45.7968 43.3301 45.7461L37.6709 44.4502C36.8057 44.252 35.917 44.1523 35.0293 44.1523C34.1416 44.1523 33.2529 44.2519 32.3867 44.4502L27.1474 45.6504C26.1357 45.8828 25.0967 46.0001 24.0586 46.0001Z" fill="#F2E1D1"/>
<path d="M13.0727 3.0001C14.034 3.0001 14.9954 3.108 15.9384 3.3241L21.1935 4.528C22.1364 4.7441 23.0976 4.852 24.0587 4.852C25.0198 4.852 25.9812 4.7441 26.9241 4.528L32.1641 3.3276C33.107 3.1115 34.0682 3.0036 35.0293 3.0036C35.9904 3.0036 36.9518 3.1115 37.8947 3.3276L44.4466 4.8288C45.3555 5.0368 45.9999 5.8456 45.9999 6.7783V42.8227C45.9999 43.9519 45.0777 44.8234 44.0041 44.8234C43.856 44.8234 43.705 44.8068 43.5533 44.7721L37.8947 43.4757C36.9518 43.2596 35.9906 43.1515 35.0293 43.1515C34.068 43.1515 33.1069 43.2597 32.1641 43.4757L26.9241 44.6761C25.9812 44.8922 25.02 45.0003 24.0587 45.0003C23.0974 45.0003 22.1363 44.8921 21.1935 44.6761L15.9384 43.4722C14.9954 43.2561 14.0345 43.148 13.0732 43.148C12.1219 43.148 11.1704 43.254 10.2368 43.4656L4.4421 44.7788C4.2917 44.813 4.1423 44.8291 3.9957 44.8291C2.922 44.8291 2 43.957 2 42.8284V6.7818C2 5.8477 2.6467 5.0379 3.5579 4.8314L10.2369 3.3175C11.1705 3.1058 12.1216 3.0001 13.0727 3.0001ZM13.0728 1.0001C11.9715 1.0001 10.8685 1.1234 9.7945 1.367L3.1157 2.8809C1.2812 3.2967 0 4.9009 0 6.7818V42.8284C0 45.0345 1.7925 46.8291 3.9957 46.8291C4.2931 46.8291 4.592 46.7957 4.8842 46.7292L10.6788 45.416C11.4635 45.2383 12.269 45.1479 13.0732 45.1479C13.8859 45.1479 14.6995 45.2399 15.4917 45.4216L20.7469 46.6255C21.8316 46.874 22.946 47.0003 24.0589 47.0003C25.1718 47.0003 26.2861 46.8741 27.3709 46.6255L32.6108 45.4251C33.403 45.2437 34.2168 45.1514 35.0294 45.1514C35.842 45.1514 36.6559 45.2437 37.448 45.4251L43.1067 46.7215C43.4019 46.7891 43.7037 46.8233 44.0042 46.8233C46.2076 46.8233 48 45.0286 48 42.8226V6.7782C48 4.9012 46.7223 3.2977 44.8928 2.879L38.3414 1.378C37.2566 1.1295 36.1423 1.0035 35.0294 1.0035C33.9165 1.0035 32.8023 1.1295 31.7176 1.378L26.4775 2.5784C25.6853 2.7598 24.8715 2.8518 24.0589 2.8518C23.2463 2.8518 22.4324 2.7598 21.6402 2.5784L16.3851 1.3745C15.3 1.126 14.1856 1.0001 13.0728 1.0001Z" fill="#A59586"/>
<path d="M20.9462 36.7646C20.5986 36.7646 20.2326 36.7435 19.8463 36.6992C18.949 36.5965 15.9075 36.0447 14.431 33.2692C13.2163 30.9863 13.5267 28.0439 15.3536 24.5231C15.7181 23.8201 15.8666 22.1768 15.1798 21.0473C14.7336 20.314 13.9926 19.9572 12.9145 19.9572C10.5499 19.9572 9.6421 21.0937 8.2417 23.1029C6.9834 24.908 5.3386 27.1543 2 27.1543V23.5511C3.3962 23.5511 4.1044 22.7369 5.2859 21.0423C6.6652 19.0634 8.5548 16.354 12.9145 16.354C15.2551 16.354 17.1531 17.3561 18.2587 19.176C19.65 21.4646 19.4593 24.4329 18.5515 26.1824C17.3214 28.554 16.9962 30.4196 17.612 31.5766C18.1307 32.5513 19.3608 33.0172 20.2567 33.1199C22.6572 33.3908 23.2244 32.3592 24.3806 29.7835C25.5615 27.1536 27.1787 23.5512 32.5468 23.5512C33.5419 23.5512 34.3484 24.3577 34.3484 25.3528C34.3484 26.3479 33.5419 27.1544 32.5468 27.1544C29.646 27.1544 28.8789 28.5619 27.6678 31.2593C26.6122 33.6105 25.1961 36.7646 20.9462 36.7646Z" fill="#16C5D8"/>
<path d="M34.185 38.391C33.3933 38.391 32.667 37.8639 32.4482 37.063C32.1864 36.1031 32.7522 35.1122 33.7121 34.8504C34.8571 34.5379 35.0886 33.925 35.4004 31.6533C35.646 29.8651 35.9521 27.6399 37.855 26.1085C40.0408 24.3491 41.9909 25.1226 43.416 25.687C44.2774 26.0283 44.9502 26.3506 46.0002 26.3506V29.9538C44.2627 29.9538 43.0655 29.4239 42.0895 29.0368C40.7158 28.4935 40.6011 28.5224 40.1141 28.9151C39.3794 29.5062 39.1922 30.5295 38.9705 32.1439C38.6855 34.2157 38.2555 37.346 34.6608 38.327C34.5018 38.3699 34.3419 38.391 34.185 38.391Z" fill="#16C5D8"/>
<path d="M17 10.5937L14.5 8.09375L12 10.5937L14.5 13.0937L17 10.5937Z" fill="#8C3AAA"/>
<path d="M23.5 20.0938L21 22.5938L23.5 25.0937L26 22.5938L23.5 20.0938Z" fill="#8C3AAA"/>
<path d="M43 38.5937L40.5 36.0938L38 38.5937L40.5 41.0937L43 38.5937Z" fill="#8C3AAA"/>
<path d="M9.49998 34.0938L7 36.5938L9.49998 39.0937L12 36.5937L9.49998 34.0938Z" fill="#8C3AAA"/>
<g opacity="0.45">
<path d="M34.9999 3.00488C34.0485 3.00708 33.0973 3.11348 32.164 3.32738L26.9243 4.52778C25.9619 4.74828 24.9809 4.85298 24 4.84838V44.9966C24.981 45.001 25.9619 44.8963 26.9243 44.676L32.164 43.4753C33.0973 43.2614 34.0485 43.1552 34.9999 43.153V3.00488Z" fill="white"/>
<path d="M4.4422 44.779L10.2369 43.4655C11.1466 43.2592 12.0731 43.1581 13.0001 43.1528V3.00488C12.0731 3.01028 11.1466 3.11128 10.2369 3.31738L3.5579 4.83128C2.6468 5.03778 2 5.84768 2 6.78168V42.8286C2 44.1113 3.191 45.0625 4.4422 44.779Z" fill="white"/>
</g>
<path d="M33 8.59375C29.4102 8.59375 26.5 11.504 26.5 15.0938C26.5 19.2625 31.1055 23.5408 32.5632 24.7906C32.8152 25.0067 33.1848 25.0067 33.4367 24.7906C34.8945 23.5408 39.4999 19.2625 39.4999 15.0938C39.4999 11.504 36.5898 8.59375 33 8.59375ZM33 17.5937C31.6191 17.5937 30.5 16.4743 30.5 15.0938C30.5 13.7132 31.6191 12.5938 33 12.5938C34.3809 12.5938 35.5 13.7129 35.5 15.0938C35.5 16.4746 34.3809 17.5937 33 17.5937Z" fill="#6EAF56" stroke="#2C7013" stroke-width="2" stroke-miterlimit="10"/>
</svg>
