<svg width="48" height="48" viewBox="0 0 48 48" fill="none" xmlns="http://www.w3.org/2000/svg">
<g clip-path="url(#clip0_8063_3568)">
<path d="M24 44.8639C24 44.8639 47 34.4984 47 17.0843C47 12.9798 43.6847 4.23096 35.8108 4.23096C27.9369 4.23096 24 11.6942 24 11.6942C24 11.6942 20.0631 4.23096 12.1892 4.23096C4.3153 4.23096 1 12.9797 1 17.0842C1 34.4983 24 44.8639 24 44.8639Z" fill="#ED1C24"/>
<path d="M38.6969 11.1216C40.08 13.4491 40.7192 16.0619 40.7192 17.7835C40.7192 27.3581 33.129 34.6019 27.061 38.8655C27.2389 38.9513 27.3452 39.0001 27.3452 39.0001C27.3452 39.0001 43.5348 31.7037 43.5348 19.4461C43.5348 17.1571 42.0621 12.8262 38.6969 11.1216Z" fill="#C1272D"/>
<path d="M39.8515 8.27307C41.6858 8.27307 43.2629 8.76137 44.6182 9.54177C42.8178 6.65217 39.9497 4.23047 35.811 4.23047C29.0619 4.23047 25.2147 9.70117 24.2505 11.2677C26.7755 13.3438 31.9776 8.27307 39.8515 8.27307Z" fill="#FF7B85"/>
<path d="M5.0406 21.1263C5.0406 17.0218 8.356 8.27297 16.2298 8.27297C19.0984 8.27297 21.4378 9.26737 23.2613 10.5265C21.7846 8.42727 18.094 4.23047 12.1893 4.23047C4.3154 4.23037 1 12.9793 1 17.0837C1 25.2892 6.1072 31.928 11.508 36.6565C7.8529 32.4341 5.0406 27.2124 5.0406 21.1263Z" fill="#FF7B85"/>
<path d="M24 44.8639C24 44.8639 47 34.4984 47 17.0843C47 12.9798 43.6847 4.23096 35.8108 4.23096C27.9369 4.23096 24 11.6942 24 11.6942C24 11.6942 20.0631 4.23096 12.1892 4.23096C4.3153 4.23096 1 12.9797 1 17.0842C1 34.4983 24 44.8639 24 44.8639Z" stroke="#A31620" stroke-width="2.0208" stroke-linecap="round" stroke-linejoin="round"/>
</g>
<defs>
<clipPath id="clip0_8063_3568">
<rect width="48" height="48" fill="white"/>
</clipPath>
</defs>
</svg>
