<svg width="380" height="410" viewBox="0 0 380 410" fill="none" xmlns="http://www.w3.org/2000/svg">
<circle cx="190.442" cy="243.465" r="165.698" fill="url(#paint0_radial_8063_2417)"/>
<path d="M241.698 87.4883L246.853 96.9144L256.279 102.07L246.853 107.225L241.698 116.651L236.542 107.225L227.116 102.07L236.542 96.9144L241.698 87.4883Z" fill="#D1E795"/>
<path d="M76.6047 122L80.354 128.855L87.2093 132.605L80.354 136.354L76.6047 143.209L72.8553 136.354L66 132.605L72.8553 128.855L76.6047 122Z" fill="#FFDA88"/>
<path d="M315.489 164.372L318.301 169.514L323.442 172.326L318.301 175.138L315.489 180.279L312.677 175.138L307.535 172.326L312.677 169.514L315.489 164.372Z" fill="#FFB9C4"/>
<path d="M40.9535 260L43.7655 264.57L48.907 267.07L43.7655 269.569L40.9535 274.14L38.1415 269.569L33 267.07L38.1415 264.57L40.9535 260Z" fill="#FFB9C4"/>
<circle cx="107.814" cy="107.814" r="6.18605" fill="#D1E795"/>
<circle cx="55.6743" cy="230.651" r="6.18605" fill="#FFDA88"/>
<circle cx="335.186" cy="207.186" r="6.18605" fill="#FFDA88"/>
<circle cx="319.186" cy="274.186" r="6.18605" fill="#D1E795"/>
<circle cx="320.791" cy="135.209" r="4.4186" fill="#B8E5E6"/>
<path d="M187.345 107.498L188.929 89.804L168.968 95.0169C168.719 96.4616 168.495 97.9181 168.335 99.3765C167.697 105.215 168.082 112.14 167.1 117.744C166.464 121.376 164.948 122.791 161.335 123.278C157.6 123.781 152.974 122.233 153.021 117.817C153.081 112.164 159.874 112.867 163.541 114.472C163.927 114.64 165.31 115.692 165.555 115.343C165.855 113.038 166.127 110.726 166.327 108.41C166.731 103.743 166.612 90.3328 168.316 86.9263C168.716 86.1278 169.218 85.2989 170.083 84.9422C174.751 83.6694 179.486 82.6116 184.149 81.322C185.44 80.9648 188.717 79.5549 189.864 79.8296C191.499 80.2212 191.106 83.1303 191.045 84.4929C190.784 90.2958 189.936 96.3687 189.451 102.19C189.166 105.606 189.643 110.907 187.4 113.59C183.957 117.708 172.479 114.222 174.869 108.749C177.056 103.74 183.585 105.15 187.345 107.498Z" fill="#FFB9C4"/>
<path d="M70.873 299.313L63.918 286.928L53.1107 299.39C53.599 300.455 54.1101 301.517 54.6641 302.551C56.8822 306.69 60.267 311.083 62.153 315.223C63.3753 317.905 63.0157 319.524 60.8527 321.479C58.6171 323.499 54.8663 324.569 52.9012 321.636C50.3853 317.881 55.1825 315.273 58.3267 314.674C58.657 314.611 60.0448 314.679 60.0485 314.338C59.2047 312.682 58.3385 311.035 57.4238 309.417C55.58 306.156 49.4393 297.366 49.023 294.349C48.9254 293.642 48.8817 292.868 49.2915 292.241C51.7945 289.292 54.439 286.454 56.9308 283.495C57.6209 282.676 59.145 280.264 60.0255 279.927C61.2807 279.446 62.3369 281.542 62.9125 282.469C65.3639 286.414 67.5502 290.802 69.8617 294.861C71.2182 297.243 73.9294 300.522 73.6629 303.306C73.2537 307.578 64.108 310.468 63.2101 305.778C62.3883 301.486 67.3318 299.465 70.873 299.313Z" fill="#D1E795"/>
<path d="M307.949 120.615C308.192 118.326 309.622 116.173 309.834 113.875C310.318 108.603 304.949 103.024 299.726 102.904C298.082 108.181 295.873 113.251 293.977 118.432C292.708 121.898 291.593 127.928 288.616 130.17C282.608 134.695 269.76 126.19 276.025 120.324C279.137 117.411 283.323 118.619 286.522 120.667C287.817 121.496 288.851 122.701 290.147 123.403L299.729 96.7628C300.684 93.4769 305.631 96.3787 307.432 97.5362C316.493 103.36 315.939 114.184 307.949 120.615Z" fill="#FFDA88"/>
<path d="M68.8051 163.59C68.4044 163.491 68.0036 162.853 67.7569 162.528C66.5899 160.993 65.7675 159.298 64.1702 158.104C61.174 155.864 55.9758 156.376 52.9296 158.381C52.2816 158.808 50.7896 159.824 51.2284 160.628C51.8298 161.73 53.2491 163.276 54.0346 164.446C56.014 167.393 57.8494 170.438 59.8287 173.385C61.6288 176.065 64.7768 179.254 65.148 182.504C66.0213 190.15 50.0523 195.572 50.9233 185.663C51.3232 181.114 57.0876 179.177 60.9155 178.445C61.0195 178.213 58.9469 175.082 58.6157 174.57C55.2815 169.416 51.6547 164.415 48.2329 159.31C47.0008 157.472 44.6678 155.762 47.0858 153.811C49.5268 151.841 53.8148 150.446 56.9432 150.537C64.2383 150.749 68.2946 156.856 68.8051 163.59Z" fill="#B8E5E6"/>
<path d="M329.948 318.844C329.827 318.45 330.168 317.778 330.32 317.4C331.039 315.61 332.071 314.034 332.275 312.05C332.659 308.329 329.551 304.131 326.266 302.547C325.567 302.21 323.929 301.451 323.465 302.241C322.828 303.322 322.229 305.334 321.629 306.609C320.117 309.821 318.446 312.959 316.933 316.171C315.558 319.092 314.438 323.43 311.84 325.417C305.727 330.093 292.875 319.174 301.825 314.833C305.933 312.841 310.556 316.793 313.149 319.702C313.402 319.672 315.024 316.286 315.293 315.739C318.004 310.231 320.434 304.551 323.057 298.994C324.002 296.992 324.271 294.113 327.187 295.185C330.131 296.268 333.529 299.232 335.058 301.963C338.622 308.332 335.464 314.949 329.948 318.844Z" fill="#FFB9C4"/>
<path d="M114.788 276.726C114.788 276.726 166.844 314.261 186.011 287.68C199.647 268.769 192.934 248.705 183.279 233.744C181.809 231.467 177.424 231.5 175.635 229.695C169.788 223.795 175.401 223.114 173.803 221.296C167.768 214.436 162.706 210.271 162.706 210.271L159.383 207.875C159.383 207.875 153.832 204.387 145.418 200.829C143.188 199.886 144.314 205.427 136.87 201.743C134.592 200.615 133.239 196.444 130.614 195.769C113.369 191.334 92.2121 191.302 78.5764 210.212C59.4091 236.794 111.465 274.33 111.465 274.33L114.788 276.726Z" fill="#C58948"/>
<path d="M114.788 276.726C114.788 276.726 166.844 314.261 186.011 287.68C199.647 268.769 192.934 248.705 183.279 233.744C181.809 231.467 177.424 231.5 175.635 229.695C169.788 223.795 175.401 223.114 173.803 221.296C167.768 214.436 162.706 210.271 162.706 210.271L159.383 207.875C159.383 207.875 153.832 204.387 145.418 200.829C143.188 199.886 144.314 205.427 136.87 201.743C134.592 200.615 133.239 196.444 130.614 195.769C113.369 191.334 92.2121 191.302 78.5764 210.212C59.4091 236.794 111.465 274.33 111.465 274.33L114.788 276.726Z" stroke="#7C5125" stroke-width="3.6587" stroke-miterlimit="10"/>
<path d="M125.38 204.744C127.826 205.534 129.394 209.22 131.56 210.37C138.639 214.128 137.168 209.284 139.275 210.272C147.229 214 152.566 217.437 152.566 217.437L155.786 219.759C155.786 219.759 160.733 223.738 166.782 230.106C168.385 231.794 163.325 231.928 169.126 237.458C170.901 239.15 174.894 239.473 176.416 241.544C185.278 253.607 192.345 268.923 186.241 282.783C187.37 281.911 188.399 280.865 189.302 279.613C200.21 264.485 192.484 246.736 182.485 233.127C180.963 231.056 176.971 230.733 175.195 229.041C169.394 223.511 174.454 223.377 172.852 221.689C166.803 215.32 161.856 211.341 161.856 211.341L158.636 209.02C158.636 209.02 153.298 205.582 145.345 201.855C143.237 200.867 144.708 205.71 137.629 201.953C135.463 200.803 133.895 197.117 131.45 196.327C115.379 191.138 96.0983 189.414 85.1902 204.541C84.2871 205.794 83.6199 207.1 83.1494 208.447C94.3721 198.278 111.135 200.145 125.38 204.744Z" fill="#DB9B4F"/>
<path d="M183.002 233.384C181.323 231.467 177.324 231.399 175.635 229.695C169.788 223.795 175.401 223.114 173.802 221.296C173.743 221.228 173.685 221.165 173.625 221.097C157.158 251.778 148.193 260.411 148.193 260.411C148.193 260.411 169.94 253.181 183.002 233.384Z" fill="#FCDC8D" stroke="#EABC54" stroke-width="1.2196" stroke-linecap="round" stroke-linejoin="round"/>
<path d="M145.417 200.829C143.188 199.886 144.314 205.427 136.87 201.742C134.661 200.649 133.318 196.704 130.846 195.849C116.225 214.487 116.233 237.365 116.233 237.365C116.233 237.365 121.589 226.143 145.471 200.852C145.452 200.844 145.435 200.836 145.417 200.829Z" fill="#FCDC8D" stroke="#EABC54" stroke-width="1.2196" stroke-linecap="round" stroke-linejoin="round"/>
<path d="M114.788 276.726C114.788 276.726 166.844 314.261 186.011 287.68C199.647 268.769 192.934 248.705 183.279 233.744C181.809 231.467 177.424 231.5 175.635 229.695C169.788 223.795 175.401 223.114 173.803 221.296C172.815 220.174 171.809 219.091 170.817 218.066C164.653 211.693 157.419 206.477 149.425 202.641C148.139 202.024 146.794 201.411 145.418 200.829C143.188 199.886 144.314 205.427 136.87 201.743C134.592 200.615 133.239 196.444 130.614 195.769C113.369 191.334 92.2121 191.302 78.5764 210.212C59.4091 236.794 111.465 274.33 111.465 274.33L114.788 276.726Z" stroke="#7C5125" stroke-width="3.6587" stroke-miterlimit="10"/>
<path d="M127.718 259.261L123.952 256.545C123.952 256.545 93.0755 234.277 82.2959 213.225C68.4986 236.278 114.935 269.767 114.935 269.767L118.021 271.993C118.021 271.993 164.462 305.474 181.978 285.102C158.599 281.523 127.718 259.261 127.718 259.261Z" fill="#AA7139"/>
<path d="M288.48 279.887C288.48 279.887 340.823 242.752 321.86 216.024C308.37 197.009 287.214 196.879 269.935 201.182C267.305 201.836 265.92 205.997 263.633 207.107C256.161 210.734 257.33 205.202 255.093 206.127C246.651 209.621 241.074 213.066 241.074 213.066L237.733 215.437C237.733 215.437 232.639 219.563 226.552 226.376C224.939 228.182 230.547 228.906 224.655 234.76C222.852 236.552 218.467 236.485 216.98 238.75C207.21 253.637 200.344 273.649 213.834 292.664C232.796 319.392 285.139 282.257 285.139 282.257L288.48 279.887Z" fill="#C58948"/>
<path d="M288.48 279.887C288.48 279.887 340.823 242.752 321.86 216.024C308.37 197.009 287.214 196.879 269.935 201.182C267.305 201.836 265.92 205.997 263.633 207.107C256.161 210.734 257.33 205.202 255.093 206.127C246.651 209.621 241.074 213.066 241.074 213.066L237.733 215.437C237.733 215.437 232.639 219.563 226.552 226.376C224.939 228.182 230.547 228.906 224.655 234.76C222.852 236.552 218.467 236.485 216.98 238.75C207.21 253.637 200.344 273.649 213.834 292.664C232.796 319.392 285.139 282.257 285.139 282.257L288.48 279.887Z" stroke="#7C5125" stroke-width="3.6587" stroke-miterlimit="10"/>
<path d="M223.783 246.604C225.32 244.544 229.315 244.252 231.103 242.573C236.947 237.089 231.888 236.915 233.504 235.24C239.601 228.918 244.579 224.977 244.579 224.977L247.817 222.68C247.817 222.68 253.18 219.284 261.162 215.618C263.277 214.646 261.769 219.478 268.877 215.775C271.051 214.642 272.648 210.968 275.099 210.197C289.379 205.707 306.157 203.969 317.301 214.224C316.841 212.874 316.183 211.562 315.29 210.303C304.498 195.092 285.204 196.668 269.095 201.733C266.643 202.504 265.047 206.178 262.872 207.312C255.765 211.015 257.273 206.183 255.158 207.154C247.176 210.821 241.812 214.217 241.812 214.217L238.574 216.514C238.574 216.514 233.597 220.455 227.499 226.777C225.884 228.452 230.942 228.625 225.099 234.11C223.311 235.788 219.316 236.081 217.778 238.14C207.675 251.672 199.813 269.361 210.604 284.572C211.498 285.832 212.518 286.885 213.641 287.766C207.643 273.859 214.827 258.598 223.783 246.604Z" fill="#DB9B4F"/>
<path d="M269.504 201.327C267.147 202.297 265.79 206.059 263.632 207.107C256.16 210.734 257.329 205.202 255.092 206.128C255.009 206.162 254.93 206.197 254.847 206.231C278.56 231.728 283.833 243.002 283.833 243.002C283.833 243.002 284.019 220.086 269.504 201.327Z" fill="#FCDC8D" stroke="#EABC54" stroke-width="1.2196" stroke-linecap="round" stroke-linejoin="round"/>
<path d="M226.551 226.377C224.939 228.182 230.546 228.907 224.654 234.761C222.906 236.498 218.738 236.494 217.131 238.557C230.045 258.416 251.698 265.801 251.698 265.801C251.698 265.801 242.808 257.106 226.591 226.333C226.577 226.348 226.564 226.362 226.551 226.377Z" fill="#FCDC8D" stroke="#EABC54" stroke-width="1.2196" stroke-linecap="round" stroke-linejoin="round"/>
<path d="M288.48 279.887C288.48 279.887 340.823 242.752 321.86 216.024C308.37 197.009 287.214 196.879 269.935 201.182C267.305 201.837 265.92 205.997 263.633 207.107C256.161 210.734 257.33 205.202 255.093 206.128C253.712 206.699 252.362 207.302 251.072 207.909C243.049 211.683 235.775 216.844 229.562 223.169C228.562 224.187 227.548 225.262 226.552 226.376C224.939 228.182 230.547 228.906 224.655 234.76C222.852 236.552 218.467 236.485 216.98 238.751C207.21 253.638 200.344 273.649 213.834 292.664C232.796 319.392 285.139 282.257 285.139 282.257L288.48 279.887Z" stroke="#7C5125" stroke-width="3.6587" stroke-miterlimit="10"/>
<path d="M276.13 262.007L272.343 264.694C272.343 264.694 241.292 286.719 217.887 290.118C235.245 310.624 281.942 277.5 281.942 277.5L285.046 275.298C285.046 275.298 331.737 242.167 318.118 219.009C307.177 239.977 276.13 262.007 276.13 262.007Z" fill="#AA7139"/>
<path d="M99.8369 162.414C99.1797 160.176 100.465 157.821 102.704 157.164L118.219 152.603C118.607 152.489 119.009 152.43 119.413 152.43C121.277 152.43 122.945 153.68 123.47 155.469L126.382 165.374L102.748 172.321L99.8369 162.414Z" fill="#D8AD23"/>
<path d="M119.413 154.11C120.516 154.11 121.532 154.831 121.859 155.942L124.297 164.237L103.887 170.236L101.449 161.941C101.052 160.589 101.826 159.172 103.177 158.775L118.693 154.214C118.933 154.144 119.175 154.11 119.413 154.11ZM119.413 150.751C118.85 150.751 118.289 150.832 117.746 150.992L102.23 155.552C99.1038 156.471 97.308 159.762 98.2267 162.888L100.665 171.183L101.612 174.406L104.835 173.458L125.244 167.46L128.467 166.513L127.52 163.29L125.082 154.995C124.347 152.496 122.016 150.751 119.413 150.751Z" fill="#5B3F1D"/>
<path d="M105.26 159.912L103.594 160.402C103.164 160.528 102.918 160.979 103.044 161.409L104.797 167.372C104.923 167.802 105.374 168.048 105.804 167.921L107.47 167.432C107.9 167.305 108.146 166.855 108.019 166.425L106.267 160.462C106.14 160.032 105.69 159.786 105.26 159.912Z" fill="#A37236"/>
<path d="M119.224 155.807L117.559 156.297C117.129 156.423 116.883 156.874 117.009 157.304L118.762 163.267C118.888 163.697 119.339 163.943 119.769 163.817L121.435 163.327C121.864 163.201 122.111 162.75 121.984 162.32L120.232 156.357C120.105 155.927 119.654 155.681 119.224 155.807Z" fill="#63421E"/>
<path d="M129.312 299.446C125.417 299.446 121.921 296.814 120.815 293.046L100.603 224.28C100.098 223.12 95.7365 211.985 107.02 196.876C109.868 193.062 108.813 190.572 108.766 190.468L108.737 190.401L105.693 180.053C105.613 180.059 105.534 180.062 105.454 180.062C104.222 180.062 103.118 179.236 102.77 178.052L101.824 174.831C101.612 174.113 101.693 173.357 102.052 172.701C102.409 172.044 103.002 171.566 103.72 171.355L125.139 165.06C125.397 164.983 125.663 164.945 125.929 164.945C127.163 164.945 128.267 165.773 128.615 166.957L129.56 170.178C129.942 171.475 129.336 172.832 128.186 173.441L131.227 183.79L131.239 183.882C131.253 183.977 131.713 186.641 136.173 188.308C153.837 194.909 156.193 206.633 156.397 207.882L176.608 276.646C177.851 280.876 175.884 285.305 171.933 287.178L171.828 287.222C158.381 291.995 144.518 296.072 130.622 299.337L130.445 299.371C130.064 299.422 129.686 299.446 129.312 299.446Z" fill="#394524"/>
<path d="M125.929 166.065C126.655 166.065 127.324 166.539 127.54 167.271L128.487 170.494C128.748 171.384 128.239 172.317 127.349 172.579L126.812 172.736L130.127 184.015C130.127 184.015 130.537 187.396 135.781 189.356C153.641 196.03 155.301 208.125 155.301 208.125L175.534 276.962C176.607 280.615 174.893 284.534 171.453 286.166C157.99 290.946 144.273 294.979 130.366 298.246L130.3 298.261C129.969 298.304 129.639 298.325 129.312 298.325C125.918 298.325 122.868 296.062 121.888 292.729L101.656 223.892C101.656 223.892 96.508 212.822 107.916 197.545C111.266 193.06 109.781 189.995 109.781 189.995L106.467 178.716L105.929 178.874C105.771 178.92 105.612 178.942 105.455 178.942C104.729 178.942 104.06 178.468 103.844 177.736L102.897 174.514C102.636 173.624 103.145 172.69 104.035 172.429L125.454 166.133C125.612 166.087 125.772 166.065 125.929 166.065ZM125.929 163.825C125.555 163.825 125.183 163.879 124.823 163.985L103.404 170.28C102.4 170.576 101.57 171.244 101.069 172.163C100.568 173.082 100.454 174.141 100.749 175.145L101.696 178.368C102.125 179.826 103.374 180.897 104.843 181.133L107.633 190.627L107.708 190.881L107.751 190.948C107.858 191.272 108.354 193.218 106.122 196.206C94.7067 211.492 98.865 223.026 99.5466 224.655L119.74 293.361C120.987 297.602 124.923 300.565 129.313 300.565C129.737 300.565 130.166 300.537 130.588 300.482L130.701 300.467L130.812 300.441L130.877 300.426C144.811 297.153 158.715 293.065 172.202 288.276L172.31 288.238L172.413 288.189C176.865 286.078 179.081 281.09 177.682 276.331L157.489 207.625C157.18 205.886 154.436 193.937 136.565 187.258C133.045 185.943 132.426 184.02 132.348 183.71L132.337 183.481L132.275 183.384L129.486 173.893C129.816 173.598 130.097 173.245 130.315 172.845C130.817 171.926 130.93 170.867 130.635 169.862L129.688 166.64C129.201 164.983 127.655 163.825 125.929 163.825Z" fill="#2B3516"/>
<path d="M136.811 296.352L136.746 296.367C132.97 296.856 129.408 294.488 128.334 290.835L108.102 221.998C108.102 221.998 102.953 210.928 114.362 195.651C117.712 191.166 116.227 188.101 116.227 188.101L112.912 176.822L112.375 176.98C111.485 177.241 110.552 176.732 110.29 175.842L109.343 172.619C109.081 171.729 109.591 170.796 110.481 170.534L104.036 172.429C103.146 172.69 102.636 173.624 102.898 174.514L103.845 177.736C104.107 178.626 105.04 179.136 105.93 178.874L106.467 178.716L109.782 189.995C109.782 189.995 111.266 193.06 107.917 197.545C96.5083 212.822 101.657 223.892 101.657 223.892L121.889 292.729C122.963 296.383 126.524 298.751 130.301 298.261L130.366 298.246C138.396 296.36 146.36 294.209 154.251 291.816C148.474 293.46 142.661 294.977 136.811 296.352Z" fill="#566624"/>
<path d="M118.171 234.21L147.009 225.734C149.119 225.114 151.332 226.321 151.952 228.431L159.178 253.017C159.798 255.127 158.591 257.339 156.481 257.96L127.721 266.413C125.622 267.029 123.42 265.841 122.788 263.747C120.921 257.559 117.245 245.336 115.465 239.121C114.862 237.017 116.071 234.827 118.171 234.21Z" fill="#BA9F7E"/>
<path d="M118.171 234.21L147.009 225.734C149.119 225.114 151.332 226.321 151.952 228.431L159.178 253.017C159.798 255.127 158.591 257.339 156.481 257.96L127.721 266.413C125.622 267.029 123.42 265.841 122.788 263.747C120.921 257.559 117.245 245.336 115.465 239.121C114.862 237.017 116.071 234.827 118.171 234.21Z" stroke="#8C7862" stroke-miterlimit="10"/>
<path d="M132.544 259.744C131.452 260.065 130.507 260.086 129.709 259.808C128.91 259.53 128.226 258.963 127.657 258.108C127.086 257.254 126.595 256.123 126.181 254.713L123.351 245.088C122.988 243.851 122.814 242.74 122.83 241.757C122.848 240.776 123.113 239.941 123.628 239.254C124.142 238.567 124.974 238.056 126.122 237.718C126.985 237.465 127.742 237.395 128.39 237.509C129.039 237.625 129.603 237.897 130.083 238.326C130.563 238.756 130.98 239.32 131.331 240.022C131.683 240.724 131.996 241.539 132.269 242.467L135.098 252.092C135.512 253.502 135.717 254.718 135.713 255.74C135.708 256.764 135.452 257.607 134.943 258.27C134.434 258.932 133.634 259.424 132.544 259.744ZM131.822 257.289C132.261 257.16 132.558 256.936 132.711 256.616C132.865 256.297 132.9 255.839 132.814 255.245C132.727 254.652 132.547 253.887 132.271 252.95L129.392 243.154C129.057 242.013 128.707 241.185 128.343 240.668C127.979 240.151 127.479 239.986 126.844 240.173C126.184 240.367 125.819 240.78 125.748 241.411C125.678 242.042 125.812 242.937 126.151 244.093L129.034 253.902C129.312 254.847 129.576 255.59 129.823 256.132C130.07 256.675 130.351 257.036 130.666 257.218C130.98 257.4 131.365 257.423 131.822 257.289Z" fill="#534741"/>
<path d="M140.046 257.274L133.727 235.775L136.561 234.942L142.179 254.059L146.222 252.87L146.923 255.253L140.046 257.274Z" fill="#534741"/>
<path d="M148.853 254.685L142.534 233.186L145.381 232.349L151.7 253.849L148.853 254.685Z" fill="#534741"/>
<path d="M164.903 288.095L164.966 288.073C168.407 286.441 170.121 282.522 169.047 278.869L148.815 210.032C148.815 210.032 147.154 197.937 129.294 191.262C124.05 189.303 123.64 185.922 123.64 185.922L120.325 174.643L120.862 174.485C121.752 174.224 122.261 173.29 122 172.4L121.053 169.178C120.791 168.288 119.858 167.778 118.968 168.04L125.413 166.146C126.303 165.884 127.236 166.394 127.498 167.283L128.445 170.506C128.707 171.396 128.197 172.329 127.307 172.591L126.77 172.749L130.085 184.028C130.085 184.028 130.496 187.408 135.739 189.368C153.6 196.042 155.26 208.138 155.26 208.138L175.492 276.975C176.566 280.628 174.852 284.547 171.412 286.178L171.348 286.201C163.574 288.96 155.714 291.46 147.783 293.717C153.53 291.974 159.24 290.104 164.903 288.095Z" fill="#3B4C1C"/>
<path d="M110.466 170.539L105.148 172.102C104.54 172.28 104.192 172.918 104.37 173.526L105.618 177.77C105.796 178.378 106.434 178.726 107.042 178.547L112.36 176.984C112.968 176.805 113.316 176.168 113.137 175.56L111.89 171.316C111.711 170.708 111.073 170.36 110.466 170.539Z" fill="#798E20"/>
<path d="M114.974 215.894L108.859 217.691C107.44 218.108 105.953 217.296 105.536 215.878C103.511 208.991 107.454 201.767 114.341 199.742L116.847 199.006C118.266 198.589 119.754 199.401 120.171 200.819L121.231 204.427C116.337 205.866 113.535 211 114.974 215.894Z" fill="#798E20"/>
<path d="M161.395 269.936L167.51 268.138C168.928 267.721 170.416 268.533 170.833 269.952C172.857 276.839 168.915 284.063 162.028 286.087L159.521 286.824C158.103 287.241 156.615 286.429 156.198 285.011L155.138 281.402C160.032 279.964 162.834 274.83 161.395 269.936Z" fill="#303D12"/>
<path d="M127.424 172.556L105.94 178.87L106.572 181.019L128.056 174.704L127.424 172.556Z" fill="#2B3516"/>
<path d="M107.857 271.171C104.397 271.171 101.672 270.467 99.9932 269.876C98.4515 269.334 97.6097 267.732 98.0362 266.151C99.1329 262.083 102.558 254.501 113.171 249.433C114.643 248.731 116.156 248.375 117.669 248.375C122.674 248.375 126.328 252.124 127.455 254.486C129.759 259.31 125.038 265.71 121.801 267.449C117.204 269.919 112.513 271.171 107.857 271.171Z" fill="#77351E"/>
<path d="M117.67 248.935C122.262 248.934 125.836 252.393 126.95 254.727C129.138 259.309 124.482 265.374 121.537 266.956C116.328 269.754 111.642 270.611 107.857 270.611C104.503 270.611 101.857 269.939 100.18 269.348C98.9234 268.906 98.2297 267.582 98.5766 266.296C99.5758 262.591 102.856 254.978 113.412 249.939C114.894 249.231 116.326 248.935 117.67 248.935ZM117.67 247.815C116.072 247.815 114.477 248.19 112.93 248.928C102.115 254.091 98.6178 261.843 97.4956 266.005C96.992 267.872 97.9863 269.763 99.8081 270.404C101.527 271.009 104.319 271.731 107.857 271.731C112.607 271.731 117.388 270.456 122.067 267.942C125.555 266.068 130.443 259.444 127.961 254.245C126.774 251.759 122.931 247.815 117.67 247.815Z" fill="#592A15"/>
<path d="M99.9248 266.431C99.9248 266.431 100.727 258.011 113.818 251.761C120.363 248.637 124.797 254.557 124.797 254.557" stroke="#BE6E3D" stroke-width="1.2956" stroke-linecap="round" stroke-linejoin="round"/>
<path d="M99.9248 266.431C99.9248 266.431 101.977 260.629 115.067 254.379C121.613 251.255 124.797 254.557 124.797 254.557" stroke="#B56133" stroke-width="1.2956" stroke-linecap="round" stroke-linejoin="round"/>
<path d="M99.9248 266.431C99.9248 266.431 103.07 263.991 116.161 257.742C122.706 254.617 124.797 254.557 124.797 254.557" stroke="#BE6E3D" stroke-width="1.2956" stroke-linecap="round" stroke-linejoin="round"/>
<path d="M99.8975 266.372C99.8975 266.372 106.407 269.906 119.497 263.656C126.042 260.532 124.769 254.498 124.769 254.498" stroke="#BE6E3D" stroke-width="1.2956" stroke-linecap="round" stroke-linejoin="round"/>
<path d="M99.8672 266.311C99.8672 266.311 105.183 267.344 118.273 261.095C124.818 257.97 124.739 254.437 124.739 254.437" stroke="#B56133" stroke-width="1.2956" stroke-linecap="round" stroke-linejoin="round"/>
<path d="M100.292 266.991C100.292 266.991 101.094 258.571 114.185 252.322C120.73 249.197 125.164 255.117 125.164 255.117" stroke="#B56133" stroke-width="1.2956" stroke-linecap="round" stroke-linejoin="round"/>
<path d="M100.292 266.991C100.292 266.991 102.344 261.189 115.435 254.94C121.98 251.815 125.164 255.118 125.164 255.118" stroke="#BE6E3D" stroke-width="1.2956" stroke-linecap="round" stroke-linejoin="round"/>
<path d="M100.292 266.991C100.292 266.991 103.438 264.552 116.528 258.302C123.073 255.178 125.164 255.117 125.164 255.117" stroke="#B56133" stroke-width="1.2956" stroke-linecap="round" stroke-linejoin="round"/>
<path d="M100.265 266.933C100.265 266.933 106.774 270.466 119.864 264.217C126.409 261.092 125.136 255.059 125.136 255.059" stroke="#B56133" stroke-width="1.2956" stroke-linecap="round" stroke-linejoin="round"/>
<path d="M100.235 266.872C100.235 266.872 105.551 267.905 118.641 261.656C125.186 258.531 125.107 254.998 125.107 254.998" stroke="#BE6E3D" stroke-width="1.2956" stroke-linecap="round" stroke-linejoin="round"/>
<path d="M100.355 267.75C101.036 267.75 101.587 267.198 101.587 266.518C101.587 265.838 101.036 265.287 100.355 265.287C99.6753 265.287 99.124 265.838 99.124 266.518C99.124 267.198 99.6753 267.75 100.355 267.75Z" fill="#BE6E3D"/>
<path d="M124.572 256.188C125.252 256.188 125.804 255.637 125.804 254.957C125.804 254.276 125.252 253.725 124.572 253.725C123.892 253.725 123.341 254.276 123.341 254.957C123.341 255.637 123.892 256.188 124.572 256.188Z" fill="#BE6E3D"/>
<path d="M95.0131 259.519C87.8623 259.519 83.2252 257.759 81.0975 256.711C80.4305 256.382 80.0151 255.869 79.9243 255.266C79.8368 254.681 80.0697 254.094 80.5803 253.613C83.0689 251.265 88.9787 247.128 100.604 245.815C101.252 245.742 101.894 245.705 102.51 245.705C108.556 245.705 111.774 249.262 112.046 251.665C112.478 255.49 105.276 258.532 102.108 258.989C99.6719 259.34 97.2852 259.519 95.0131 259.519Z" fill="#77351E"/>
<path d="M102.511 246.265C108.453 246.264 111.269 249.78 111.489 251.727C111.856 254.975 105.335 257.958 102.028 258.435C99.4616 258.804 97.1238 258.958 95.0119 258.958C88.0468 258.958 83.5351 257.289 81.3441 256.209C80.3388 255.713 80.1753 254.764 80.9639 254.02C83.2354 251.876 89.0422 247.685 100.666 246.372C101.311 246.299 101.926 246.265 102.511 246.265ZM102.512 245.145C101.873 245.145 101.21 245.183 100.54 245.259C88.7538 246.59 82.7345 250.809 80.1955 253.205C79.5568 253.808 79.2562 254.59 79.3705 255.35C79.4874 256.128 80.0262 256.807 80.849 257.213C83.0188 258.283 87.7439 260.078 95.012 260.078C97.3112 260.078 99.7255 259.898 102.188 259.543C105.253 259.101 113.098 255.99 112.602 251.602C112.308 248.998 108.898 245.145 102.512 245.145Z" fill="#592A15"/>
<path d="M82.2803 254.57C82.2803 254.57 86.0805 249.441 100.494 247.813C107.701 246.999 109.667 251.476 109.667 251.476" stroke="#BE6E3D" stroke-width="1.0395" stroke-linecap="round" stroke-linejoin="round"/>
<path d="M82.2803 254.57C82.2803 254.57 86.29 251.297 100.704 249.669C107.911 248.855 109.667 251.476 109.667 251.476" stroke="#B56133" stroke-width="1.0395" stroke-linecap="round" stroke-linejoin="round"/>
<path d="M82.2803 254.569C82.2803 254.569 86.0844 253.591 100.498 251.963C107.705 251.149 109.667 251.476 109.667 251.476" stroke="#BE6E3D" stroke-width="1.0395" stroke-linecap="round" stroke-linejoin="round"/>
<path d="M82.2754 254.528C82.2754 254.528 87.0326 257.874 101.447 256.245C108.654 255.431 109.662 251.435 109.662 251.435" stroke="#BE6E3D" stroke-width="1.0395" stroke-linecap="round" stroke-linejoin="round"/>
<path d="M82.2705 254.484C82.2705 254.484 86.8275 256.057 101.242 254.429C108.449 253.615 109.657 251.391 109.657 251.391" stroke="#B56133" stroke-width="1.0395" stroke-linecap="round" stroke-linejoin="round"/>
<path d="M82.418 254.985C82.418 254.985 86.2182 249.857 100.632 248.228C107.839 247.414 109.805 251.891 109.805 251.891" stroke="#B56133" stroke-width="1.0395" stroke-linecap="round" stroke-linejoin="round"/>
<path d="M82.418 254.985C82.418 254.985 86.4277 251.712 100.842 250.084C108.049 249.27 109.805 251.891 109.805 251.891" stroke="#BE6E3D" stroke-width="1.0395" stroke-linecap="round" stroke-linejoin="round"/>
<path d="M82.418 254.984C82.418 254.984 86.222 254.006 100.636 252.378C107.843 251.564 109.805 251.891 109.805 251.891" stroke="#B56133" stroke-width="1.0395" stroke-linecap="round" stroke-linejoin="round"/>
<path d="M82.4131 254.943C82.4131 254.943 87.1703 258.289 101.584 256.66C108.791 255.846 109.8 251.85 109.8 251.85" stroke="#B56133" stroke-width="1.0395" stroke-linecap="round" stroke-linejoin="round"/>
<path d="M82.4082 254.9C82.4082 254.9 86.9652 256.472 101.379 254.844C108.586 254.03 109.795 251.806 109.795 251.806" stroke="#BE6E3D" stroke-width="1.0395" stroke-linecap="round" stroke-linejoin="round"/>
<path d="M82.7376 255.486C83.4134 255.41 83.9215 254.996 83.8724 254.56C83.8232 254.125 83.2354 253.835 82.5596 253.911C81.8838 253.987 81.3758 254.402 81.4249 254.837C81.4741 255.272 82.0617 255.563 82.7376 255.486Z" fill="#BE6E3D"/>
<path d="M109.404 252.474C110.08 252.397 110.588 251.983 110.538 251.548C110.489 251.113 109.902 250.822 109.226 250.898C108.55 250.974 108.042 251.389 108.091 251.824C108.14 252.259 108.728 252.55 109.404 252.474Z" fill="#BE6E3D"/>
<path d="M87.7548 276.568C82.6596 276.568 78.8393 275.151 76.5312 273.961C75.078 273.211 74.4635 271.51 75.1043 270.002C76.7477 266.123 81.1792 259.083 92.3876 255.518C93.4799 255.171 94.5777 254.994 95.6491 254.994C101.04 254.994 104.856 259.373 105.844 262.482C107.463 267.574 101.91 273.268 98.4659 274.548C94.8544 275.888 91.2505 276.568 87.7548 276.568Z" fill="#8E492B"/>
<path d="M95.6494 255.554C100.891 255.554 104.457 259.964 105.311 262.651C106.849 267.489 101.406 272.858 98.272 274.022C94.346 275.479 90.813 276.008 87.754 276.008C82.6662 276.008 78.8891 274.546 76.7889 273.463C75.6049 272.853 75.0991 271.447 75.6191 270.22C77.1167 266.687 81.41 259.596 92.5574 256.051C93.6411 255.707 94.6747 255.554 95.6494 255.554ZM95.6502 254.434C94.5203 254.434 93.3656 254.619 92.2182 254.984C80.7977 258.616 76.2704 265.815 74.5883 269.783C73.8335 271.564 74.5591 273.574 76.2758 274.459C78.6377 275.676 82.5463 277.128 87.754 277.128C91.3165 277.128 94.9864 276.436 98.6617 275.072C102.374 273.693 108.124 267.802 106.378 262.311C105.338 259.041 101.322 254.434 95.6502 254.434Z" fill="#592A15"/>
<path d="M77.1328 270.871C77.1328 270.871 79.082 262.64 92.9057 258.245C99.8175 256.047 103.398 262.519 103.398 262.519" stroke="#BE6E3D" stroke-width="1.2956" stroke-linecap="round" stroke-linejoin="round"/>
<path d="M77.1328 270.871C77.1328 270.871 79.9611 265.405 93.7848 261.009C100.697 258.811 103.398 262.519 103.398 262.519" stroke="#B56133" stroke-width="1.2956" stroke-linecap="round" stroke-linejoin="round"/>
<path d="M77.1328 270.871C77.1328 270.871 80.5832 268.885 94.4068 264.49C101.319 262.292 103.398 262.519 103.398 262.519" stroke="#BE6E3D" stroke-width="1.2956" stroke-linecap="round" stroke-linejoin="round"/>
<path d="M77.1133 270.81C77.1133 270.81 83.0764 275.202 96.9 270.806C103.812 268.609 103.378 262.458 103.378 262.458" stroke="#BE6E3D" stroke-width="1.2956" stroke-linecap="round" stroke-linejoin="round"/>
<path d="M77.0928 270.744C77.0928 270.744 82.2163 272.496 96.0399 268.101C102.952 265.903 103.358 262.392 103.358 262.392" stroke="#B56133" stroke-width="1.2956" stroke-linecap="round" stroke-linejoin="round"/>
<path d="M77.4219 271.478C77.4219 271.478 79.3711 263.247 93.1948 258.852C100.107 256.654 103.687 263.126 103.687 263.126" stroke="#B56133" stroke-width="1.2956" stroke-linecap="round" stroke-linejoin="round"/>
<path d="M77.4219 271.478C77.4219 271.478 80.2503 266.012 94.074 261.616C100.986 259.418 103.687 263.126 103.687 263.126" stroke="#BE6E3D" stroke-width="1.2956" stroke-linecap="round" stroke-linejoin="round"/>
<path d="M77.4219 271.478C77.4219 271.478 80.8723 269.492 94.6958 265.097C101.608 262.899 103.687 263.126 103.687 263.126" stroke="#B56133" stroke-width="1.2956" stroke-linecap="round" stroke-linejoin="round"/>
<path d="M77.4014 271.416C77.4014 271.416 83.3645 275.808 97.1881 271.412C104.1 269.215 103.666 263.064 103.666 263.064" stroke="#B56133" stroke-width="1.2956" stroke-linecap="round" stroke-linejoin="round"/>
<path d="M77.3809 271.351C77.3809 271.351 82.5044 273.103 96.328 268.707C103.24 266.509 103.646 262.999 103.646 262.999" stroke="#BE6E3D" stroke-width="1.2956" stroke-linecap="round" stroke-linejoin="round"/>
<path d="M77.5478 272.248C78.228 272.248 78.7793 271.697 78.7793 271.016C78.7793 270.336 78.228 269.785 77.5478 269.785C76.8677 269.785 76.3164 270.336 76.3164 271.016C76.3164 271.697 76.8677 272.248 77.5478 272.248Z" fill="#BE6E3D"/>
<path d="M103.122 264.116C103.802 264.116 104.354 263.565 104.354 262.885C104.354 262.204 103.802 261.653 103.122 261.653C102.442 261.653 101.891 262.204 101.891 262.885C101.891 263.565 102.442 264.116 103.122 264.116Z" fill="#BE6E3D"/>
<path d="M122.476 283.59C122.229 283.59 121.983 283.561 121.745 283.504C117.791 282.564 110.491 279.532 106.039 269.784C104.424 266.249 105.453 263.186 106.601 261.237C108.066 258.748 110.275 257.095 111.719 256.434C112.626 256.02 113.616 255.81 114.662 255.81C118.905 255.81 122.993 259.15 124.197 261.458C128.929 270.528 127.028 277.995 125.473 281.639C124.974 282.806 123.77 283.59 122.476 283.59Z" fill="#8E492B"/>
<path d="M114.662 256.37C118.586 256.37 122.562 259.534 123.7 261.717C128.388 270.701 126.376 278.095 124.958 281.419C124.538 282.402 123.527 283.029 122.476 283.029C122.275 283.029 122.074 283.007 121.874 282.959C118.282 282.106 110.963 279.217 106.548 269.552C103.811 263.559 108.91 258.332 111.952 256.943C112.828 256.543 113.744 256.37 114.662 256.37ZM114.662 255.25C113.535 255.25 112.467 255.477 111.486 255.925C109.967 256.619 107.65 258.352 106.118 260.953C104.903 263.016 103.815 266.263 105.529 270.017C110.081 279.982 117.561 283.086 121.615 284.049C121.896 284.115 122.185 284.149 122.476 284.149C123.991 284.149 125.403 283.229 125.987 281.858C127.581 278.124 129.532 270.475 124.693 261.199C123.425 258.768 119.123 255.25 114.662 255.25Z" fill="#592A15"/>
<path d="M122.384 281.482C122.384 281.482 114.145 280.9 108.67 268.914C105.933 262.922 111.982 258.709 111.982 258.709" stroke="#BE6E3D" stroke-width="1.2348" stroke-linecap="round" stroke-linejoin="round"/>
<path d="M122.384 281.482C122.384 281.482 116.783 279.694 111.309 267.709C108.571 261.716 111.982 258.709 111.982 258.709" stroke="#B56133" stroke-width="1.2348" stroke-linecap="round" stroke-linejoin="round"/>
<path d="M122.384 281.482C122.384 281.482 120.146 278.619 114.672 266.634C111.934 260.641 111.982 258.709 111.982 258.709" stroke="#BE6E3D" stroke-width="1.2348" stroke-linecap="round" stroke-linejoin="round"/>
<path d="M122.326 281.508C122.326 281.508 126.135 275.423 120.66 263.437C117.923 257.445 111.924 258.736 111.924 258.736" stroke="#BE6E3D" stroke-width="1.2348" stroke-linecap="round" stroke-linejoin="round"/>
<path d="M122.263 281.537C122.263 281.537 123.552 276.602 118.077 264.617C115.34 258.624 111.861 258.765 111.861 258.765" stroke="#B56133" stroke-width="1.2348" stroke-linecap="round" stroke-linejoin="round"/>
<path d="M122.956 281.13C122.956 281.13 114.716 280.548 109.241 268.563C106.504 262.57 112.554 258.358 112.554 258.358" stroke="#B56133" stroke-width="1.2348" stroke-linecap="round" stroke-linejoin="round"/>
<path d="M122.955 281.13C122.955 281.13 117.355 279.343 111.88 267.357C109.143 261.365 112.554 258.358 112.554 258.358" stroke="#BE6E3D" stroke-width="1.2348" stroke-linecap="round" stroke-linejoin="round"/>
<path d="M122.956 281.13C122.956 281.13 120.718 278.268 115.243 266.282C112.506 260.29 112.554 258.358 112.554 258.358" stroke="#B56133" stroke-width="1.2348" stroke-linecap="round" stroke-linejoin="round"/>
<path d="M122.896 281.157C122.896 281.157 126.705 275.071 121.23 263.086C118.493 257.093 112.494 258.385 112.494 258.385" stroke="#B56133" stroke-width="1.2348" stroke-linecap="round" stroke-linejoin="round"/>
<path d="M122.835 281.185C122.835 281.185 124.123 276.251 118.649 264.265C115.911 258.273 112.433 258.413 112.433 258.413" stroke="#BE6E3D" stroke-width="1.2348" stroke-linecap="round" stroke-linejoin="round"/>
<path d="M122.957 282.097C123.576 281.815 123.869 281.13 123.612 280.568C123.356 280.006 122.646 279.78 122.027 280.062C121.409 280.345 121.115 281.03 121.372 281.592C121.629 282.153 122.338 282.38 122.957 282.097Z" fill="#BE6E3D"/>
<path d="M112.829 259.924C113.448 259.642 113.741 258.957 113.484 258.395C113.228 257.833 112.518 257.607 111.899 257.889C111.281 258.172 110.987 258.857 111.244 259.419C111.501 259.981 112.21 260.207 112.829 259.924Z" fill="#BE6E3D"/>
<path d="M104.276 289.536C103.329 289.536 102.464 289.435 101.773 289.246C90.9509 286.279 86.1815 279.655 84.3019 275.971C83.5595 274.515 84.0537 272.774 85.4511 271.922C87.9549 270.399 92.1667 268.583 98.0174 268.583C101.219 268.583 104.557 269.143 107.941 270.246C115.138 272.593 115.963 280.202 114.805 283.754C113.51 287.726 108.44 289.536 104.276 289.536Z" fill="#8E492B"/>
<path d="M98.0172 269.143C100.875 269.143 104.133 269.593 107.767 270.778C114.662 273.026 115.309 280.401 114.273 283.58C113.012 287.447 107.911 288.976 104.275 288.976C103.373 288.976 102.562 288.882 101.921 288.706C91.165 285.757 86.5199 279.087 84.8007 275.716C84.1954 274.53 84.6054 273.093 85.7432 272.4C87.9501 271.057 92.129 269.143 98.0172 269.143ZM98.0189 268.023H98.0171C92.0355 268.024 87.7243 269.884 85.161 271.444C83.5092 272.449 82.9255 274.505 83.8032 276.225C85.7244 279.991 90.5947 286.761 101.625 289.786C102.363 289.988 103.279 290.095 104.275 290.095C108.634 290.095 113.955 288.165 115.337 283.926C115.859 282.326 116.097 279.41 115.049 276.456C114.23 274.144 112.362 271.098 108.114 269.713C104.674 268.592 101.278 268.023 98.0189 268.023Z" fill="#592A15"/>
<path d="M86.5928 273.812C86.5928 273.812 92.9785 268.265 106.77 272.762C113.665 275.011 112.796 282.356 112.796 282.356" stroke="#BE6E3D" stroke-width="1.2956" stroke-linecap="round" stroke-linejoin="round"/>
<path d="M86.5928 273.812C86.5928 273.812 92.0793 271.024 105.87 275.521C112.766 277.769 112.796 282.356 112.796 282.356" stroke="#B56133" stroke-width="1.2956" stroke-linecap="round" stroke-linejoin="round"/>
<path d="M86.5928 273.812C86.5928 273.812 90.5533 274.213 104.344 278.71C111.24 280.959 112.796 282.356 112.796 282.356" stroke="#BE6E3D" stroke-width="1.2956" stroke-linecap="round" stroke-linejoin="round"/>
<path d="M86.6133 273.75C86.6133 273.75 88.8926 280.797 102.684 285.294C109.579 287.542 112.816 282.294 112.816 282.294" stroke="#BE6E3D" stroke-width="1.2956" stroke-linecap="round" stroke-linejoin="round"/>
<path d="M86.6338 273.685C86.6338 273.685 89.7722 278.098 103.563 282.595C110.459 284.843 112.837 282.23 112.837 282.23" stroke="#B56133" stroke-width="1.2956" stroke-linecap="round" stroke-linejoin="round"/>
<path d="M86.4736 274.472C86.4736 274.472 92.8593 268.926 106.65 273.423C113.546 275.671 112.677 283.017 112.677 283.017" stroke="#B56133" stroke-width="1.2956" stroke-linecap="round" stroke-linejoin="round"/>
<path d="M86.4736 274.473C86.4736 274.473 91.96 271.685 105.751 276.182C112.646 278.43 112.677 283.017 112.677 283.017" stroke="#BE6E3D" stroke-width="1.2956" stroke-linecap="round" stroke-linejoin="round"/>
<path d="M86.4736 274.472C86.4736 274.472 90.4342 274.873 104.225 279.37C111.121 281.619 112.677 283.016 112.677 283.016" stroke="#B56133" stroke-width="1.2956" stroke-linecap="round" stroke-linejoin="round"/>
<path d="M86.4941 274.411C86.4941 274.411 88.7736 281.458 102.565 285.954C109.46 288.203 112.697 282.955 112.697 282.955" stroke="#B56133" stroke-width="1.2956" stroke-linecap="round" stroke-linejoin="round"/>
<path d="M86.5146 274.346C86.5146 274.346 89.6529 278.759 103.444 283.256C110.339 285.504 112.718 282.89 112.718 282.89" stroke="#BE6E3D" stroke-width="1.2956" stroke-linecap="round" stroke-linejoin="round"/>
<path d="M86.8458 275.404C87.526 275.404 88.0773 274.852 88.0773 274.172C88.0773 273.492 87.526 272.941 86.8458 272.941C86.1657 272.941 85.6143 273.492 85.6143 274.172C85.6143 274.852 86.1657 275.404 86.8458 275.404Z" fill="#BE6E3D"/>
<path d="M112.358 283.723C113.039 283.723 113.59 283.172 113.59 282.492C113.59 281.812 113.039 281.26 112.358 281.26C111.678 281.26 111.127 281.812 111.127 282.492C111.127 283.172 111.678 283.723 112.358 283.723Z" fill="#BE6E3D"/>
<path d="M259.899 279.55C255.215 279.55 250.497 278.291 245.875 275.808C242.591 274.045 237.806 267.539 240.15 262.629C241.295 260.23 245.005 256.424 250.086 256.424C251.624 256.424 253.161 256.784 254.655 257.497C265.326 262.593 268.774 270.224 269.878 274.32C270.328 275.987 269.441 277.674 267.817 278.247C266.127 278.841 263.381 279.55 259.899 279.55Z" fill="#77351E"/>
<path d="M250.086 257.149C251.43 257.149 252.862 257.445 254.343 258.152C264.899 263.192 268.18 270.805 269.179 274.51C269.526 275.796 268.832 277.12 267.576 277.562C265.899 278.152 263.253 278.825 259.898 278.825C256.114 278.825 251.428 277.968 246.219 275.17C243.274 273.587 238.618 267.523 240.805 262.941C241.92 260.607 245.494 257.149 250.086 257.149ZM250.086 255.698C244.673 255.698 240.718 259.757 239.496 262.316C236.93 267.692 241.946 274.521 245.533 276.448C250.26 278.988 255.094 280.275 259.898 280.275C263.483 280.275 266.314 279.544 268.058 278.93C270.044 278.231 271.129 276.168 270.58 274.132C269.443 269.916 265.902 262.063 254.968 256.843C253.376 256.083 251.734 255.698 250.086 255.698Z" fill="#592A15"/>
<path d="M267.832 274.644C267.832 274.644 267.029 266.224 253.939 259.975C247.394 256.85 242.96 262.77 242.96 262.77" stroke="#BE6E3D" stroke-width="1.2956" stroke-linecap="round" stroke-linejoin="round"/>
<path d="M267.832 274.644C267.832 274.644 265.78 268.842 252.689 262.593C246.144 259.468 242.96 262.77 242.96 262.77" stroke="#B56133" stroke-width="1.2956" stroke-linecap="round" stroke-linejoin="round"/>
<path d="M267.832 274.644C267.832 274.644 264.686 272.204 251.596 265.955C245.051 262.83 242.96 262.77 242.96 262.77" stroke="#BE6E3D" stroke-width="1.2956" stroke-linecap="round" stroke-linejoin="round"/>
<path d="M267.859 274.586C267.859 274.586 261.35 278.119 248.26 271.87C241.715 268.745 242.988 262.712 242.988 262.712" stroke="#BE6E3D" stroke-width="1.2956" stroke-linecap="round" stroke-linejoin="round"/>
<path d="M267.889 274.524C267.889 274.524 262.574 275.557 249.484 269.308C242.938 266.183 243.018 262.65 243.018 262.65" stroke="#B56133" stroke-width="1.2956" stroke-linecap="round" stroke-linejoin="round"/>
<path d="M267.466 275.205C267.466 275.205 266.663 266.785 253.573 260.536C247.027 257.411 242.594 263.331 242.594 263.331" stroke="#B56133" stroke-width="1.2956" stroke-linecap="round" stroke-linejoin="round"/>
<path d="M267.466 275.205C267.466 275.205 265.413 269.403 252.323 263.154C245.778 260.029 242.594 263.331 242.594 263.331" stroke="#BE6E3D" stroke-width="1.2956" stroke-linecap="round" stroke-linejoin="round"/>
<path d="M267.466 275.205C267.466 275.205 264.32 272.765 251.23 266.516C244.684 263.391 242.594 263.331 242.594 263.331" stroke="#B56133" stroke-width="1.2956" stroke-linecap="round" stroke-linejoin="round"/>
<path d="M267.493 275.147C267.493 275.147 260.984 278.68 247.894 272.431C241.348 269.306 242.621 263.273 242.621 263.273" stroke="#B56133" stroke-width="1.2956" stroke-linecap="round" stroke-linejoin="round"/>
<path d="M267.521 275.085C267.521 275.085 262.206 276.118 249.116 269.869C242.57 266.744 242.649 263.211 242.649 263.211" stroke="#BE6E3D" stroke-width="1.2956" stroke-linecap="round" stroke-linejoin="round"/>
<path d="M267.401 275.963C268.081 275.963 268.633 275.411 268.633 274.731C268.633 274.051 268.081 273.5 267.401 273.5C266.721 273.5 266.17 274.051 266.17 274.731C266.17 275.411 266.721 275.963 267.401 275.963Z" fill="#BE6E3D"/>
<path d="M243.184 264.401C243.864 264.401 244.415 263.85 244.415 263.17C244.415 262.49 243.864 261.938 243.184 261.938C242.504 261.938 241.952 262.49 241.952 263.17C241.952 263.85 242.504 264.401 243.184 264.401Z" fill="#BE6E3D"/>
<path d="M272.746 267.897C270.465 267.897 268.07 267.719 265.626 267.367C261.977 266.84 255.112 263.714 255.548 259.859C255.826 257.397 259.101 253.754 265.245 253.754C265.87 253.754 266.518 253.791 267.173 253.865C278.842 255.183 284.787 259.343 287.292 261.705C287.844 262.227 288.094 262.866 287.997 263.506C287.898 264.164 287.45 264.72 286.734 265.073C284.595 266.128 279.932 267.897 272.746 267.897Z" fill="#77351E"/>
<path d="M265.246 254.478C265.831 254.478 266.446 254.512 267.092 254.585C278.715 255.898 284.522 260.09 286.794 262.233C287.582 262.977 287.419 263.927 286.413 264.422C284.222 265.503 279.711 267.172 272.746 267.172C270.634 267.172 268.296 267.018 265.729 266.648C262.422 266.172 255.901 263.189 256.268 259.941C256.488 257.994 259.304 254.478 265.246 254.478ZM265.246 253.028C258.658 253.028 255.134 257.056 254.827 259.778C254.299 264.454 262.264 267.615 265.522 268.084C268 268.441 270.431 268.622 272.746 268.622C280.081 268.622 284.859 266.806 287.055 265.723C287.976 265.269 288.581 264.5 288.714 263.614C288.845 262.744 288.508 261.857 287.789 261.178C285.22 258.754 279.136 254.486 267.255 253.144C266.572 253.067 265.896 253.028 265.246 253.028Z" fill="#592A15"/>
<path d="M285.476 262.784C285.476 262.784 281.676 257.656 267.262 256.027C260.055 255.213 258.09 259.69 258.09 259.69" stroke="#BE6E3D" stroke-width="1.0395" stroke-linecap="round" stroke-linejoin="round"/>
<path d="M285.476 262.784C285.476 262.784 281.467 259.511 267.053 257.883C259.846 257.069 258.09 259.69 258.09 259.69" stroke="#B56133" stroke-width="1.0395" stroke-linecap="round" stroke-linejoin="round"/>
<path d="M285.476 262.784C285.476 262.784 281.672 261.806 267.258 260.178C260.051 259.363 258.09 259.69 258.09 259.69" stroke="#BE6E3D" stroke-width="1.0395" stroke-linecap="round" stroke-linejoin="round"/>
<path d="M285.481 262.742C285.481 262.742 280.724 266.088 266.31 264.46C259.103 263.645 258.095 259.649 258.095 259.649" stroke="#BE6E3D" stroke-width="1.0395" stroke-linecap="round" stroke-linejoin="round"/>
<path d="M285.487 262.699C285.487 262.699 280.93 264.272 266.516 262.643C259.309 261.829 258.101 259.605 258.101 259.605" stroke="#B56133" stroke-width="1.0395" stroke-linecap="round" stroke-linejoin="round"/>
<path d="M285.339 263.198C285.339 263.198 281.539 258.07 267.125 256.442C259.918 255.628 257.952 260.105 257.952 260.105" stroke="#B56133" stroke-width="1.0395" stroke-linecap="round" stroke-linejoin="round"/>
<path d="M285.339 263.199C285.339 263.199 281.329 259.926 266.915 258.298C259.708 257.484 257.952 260.105 257.952 260.105" stroke="#BE6E3D" stroke-width="1.0395" stroke-linecap="round" stroke-linejoin="round"/>
<path d="M285.339 263.198C285.339 263.198 281.535 262.22 267.121 260.592C259.914 259.778 257.952 260.105 257.952 260.105" stroke="#B56133" stroke-width="1.0395" stroke-linecap="round" stroke-linejoin="round"/>
<path d="M285.344 263.157C285.344 263.157 280.586 266.502 266.172 264.874C258.965 264.06 257.957 260.063 257.957 260.063" stroke="#B56133" stroke-width="1.0395" stroke-linecap="round" stroke-linejoin="round"/>
<path d="M285.349 263.113C285.349 263.113 280.792 264.686 266.377 263.058C259.171 262.244 257.962 260.02 257.962 260.02" stroke="#BE6E3D" stroke-width="1.0395" stroke-linecap="round" stroke-linejoin="round"/>
<path d="M286.333 263.052C286.382 262.617 285.874 262.203 285.199 262.126C284.523 262.05 283.935 262.341 283.886 262.776C283.837 263.211 284.345 263.625 285.021 263.702C285.696 263.778 286.284 263.487 286.333 263.052Z" fill="#BE6E3D"/>
<path d="M259.667 260.04C259.716 259.605 259.208 259.19 258.533 259.114C257.857 259.037 257.269 259.328 257.22 259.763C257.171 260.199 257.679 260.613 258.355 260.689C259.03 260.766 259.618 260.475 259.667 260.04Z" fill="#BE6E3D"/>
<path d="M280.003 284.947C276.488 284.947 272.864 284.263 269.233 282.915C265.739 281.618 260.107 275.83 261.755 270.644C262.758 267.487 266.633 263.042 272.108 263.042C273.197 263.042 274.311 263.22 275.42 263.573C286.691 267.157 291.15 274.244 292.806 278.15C293.479 279.738 292.832 281.531 291.301 282.321C288.978 283.518 285.131 284.947 280.003 284.947Z" fill="#8E492B"/>
<path d="M272.107 263.767C273.082 263.767 274.115 263.92 275.199 264.265C286.347 267.809 290.64 274.901 292.138 278.434C292.657 279.66 292.152 281.066 290.968 281.677C288.868 282.759 285.09 284.221 280.003 284.221C276.943 284.221 273.411 283.693 269.485 282.235C266.35 281.072 260.907 275.702 262.446 270.864C263.3 268.177 266.866 263.767 272.107 263.767ZM272.107 262.317C266.268 262.317 262.134 267.058 261.063 270.425C259.258 276.101 265.163 282.178 268.98 283.595C272.692 284.973 276.401 285.672 280.003 285.672C285.277 285.672 289.238 284.201 291.632 282.966C293.505 282.001 294.296 279.809 293.473 277.868C291.769 273.847 287.185 266.554 275.639 262.882C274.458 262.507 273.27 262.317 272.107 262.317Z" fill="#592A15"/>
<path d="M290.624 279.085C290.624 279.085 288.675 270.854 274.851 266.459C267.939 264.261 264.359 270.733 264.359 270.733" stroke="#BE6E3D" stroke-width="1.2956" stroke-linecap="round" stroke-linejoin="round"/>
<path d="M290.624 279.084C290.624 279.084 287.796 273.619 273.972 269.223C267.06 267.025 264.359 270.733 264.359 270.733" stroke="#B56133" stroke-width="1.2956" stroke-linecap="round" stroke-linejoin="round"/>
<path d="M290.624 279.085C290.624 279.085 287.174 277.099 273.35 272.704C266.438 270.506 264.359 270.733 264.359 270.733" stroke="#BE6E3D" stroke-width="1.2956" stroke-linecap="round" stroke-linejoin="round"/>
<path d="M290.643 279.023C290.643 279.023 284.68 283.415 270.857 279.019C263.945 276.821 264.378 270.671 264.378 270.671" stroke="#BE6E3D" stroke-width="1.2956" stroke-linecap="round" stroke-linejoin="round"/>
<path d="M290.665 278.958C290.665 278.958 285.542 280.71 271.718 276.315C264.806 274.117 264.4 270.606 264.4 270.606" stroke="#B56133" stroke-width="1.2956" stroke-linecap="round" stroke-linejoin="round"/>
<path d="M290.337 279.691C290.337 279.691 288.388 271.46 274.564 267.064C267.652 264.867 264.072 271.339 264.072 271.339" stroke="#B56133" stroke-width="1.2956" stroke-linecap="round" stroke-linejoin="round"/>
<path d="M290.337 279.69C290.337 279.69 287.509 274.225 273.685 269.829C266.773 267.631 264.072 271.339 264.072 271.339" stroke="#BE6E3D" stroke-width="1.2956" stroke-linecap="round" stroke-linejoin="round"/>
<path d="M290.337 279.691C290.337 279.691 286.887 277.705 273.063 273.309C266.151 271.112 264.072 271.339 264.072 271.339" stroke="#B56133" stroke-width="1.2956" stroke-linecap="round" stroke-linejoin="round"/>
<path d="M290.356 279.629C290.356 279.629 284.393 284.021 270.569 279.626C263.658 277.428 264.091 271.277 264.091 271.277" stroke="#B56133" stroke-width="1.2956" stroke-linecap="round" stroke-linejoin="round"/>
<path d="M290.376 279.563C290.376 279.563 285.253 281.316 271.429 276.92C264.517 274.722 264.111 271.211 264.111 271.211" stroke="#BE6E3D" stroke-width="1.2956" stroke-linecap="round" stroke-linejoin="round"/>
<path d="M290.208 280.461C290.888 280.461 291.439 279.91 291.439 279.23C291.439 278.55 290.888 277.998 290.208 277.998C289.528 277.998 288.977 278.55 288.977 279.23C288.977 279.91 289.528 280.461 290.208 280.461Z" fill="#BE6E3D"/>
<path d="M264.636 272.329C265.316 272.329 265.867 271.778 265.867 271.098C265.867 270.418 265.316 269.866 264.636 269.866C263.956 269.866 263.404 270.418 263.404 271.098C263.404 271.778 263.956 272.329 264.636 272.329Z" fill="#BE6E3D"/>
<path d="M245.282 291.934C243.935 291.934 242.683 291.119 242.164 289.904C240.6 286.239 238.687 278.729 243.444 269.612C244.664 267.274 248.802 263.892 253.095 263.892C254.16 263.892 255.169 264.106 256.093 264.528C259.533 266.1 264.749 271.68 261.838 278.054C257.361 287.855 250.02 290.902 246.043 291.846C245.794 291.905 245.539 291.934 245.282 291.934Z" fill="#8E492B"/>
<path d="M253.094 264.584C254.013 264.584 254.929 264.757 255.805 265.157C258.846 266.547 263.946 271.773 261.208 277.766C256.794 287.431 249.475 290.32 245.882 291.173C245.683 291.221 245.481 291.243 245.281 291.243C244.229 291.243 243.218 290.616 242.799 289.633C241.38 286.309 239.369 278.915 244.056 269.931C245.195 267.749 249.17 264.584 253.094 264.584ZM253.094 263.201C248.531 263.201 244.129 266.802 242.83 269.292C237.941 278.663 239.915 286.399 241.527 290.176C242.153 291.641 243.661 292.626 245.281 292.626C245.592 292.626 245.901 292.59 246.202 292.518C250.302 291.544 257.868 288.407 262.466 278.34C265.58 271.523 260.038 265.571 256.379 263.9C255.364 263.436 254.259 263.201 253.094 263.201Z" fill="#592A15"/>
<path d="M245.372 289.695C245.372 289.695 253.612 289.113 259.086 277.128C261.824 271.135 255.774 266.923 255.774 266.923" stroke="#BE6E3D" stroke-width="1.2348" stroke-linecap="round" stroke-linejoin="round"/>
<path d="M245.372 289.695C245.372 289.695 250.973 287.908 256.448 275.923C259.185 269.93 255.774 266.923 255.774 266.923" stroke="#B56133" stroke-width="1.2348" stroke-linecap="round" stroke-linejoin="round"/>
<path d="M245.372 289.695C245.372 289.695 247.61 286.833 253.085 274.848C255.822 268.855 255.774 266.923 255.774 266.923" stroke="#BE6E3D" stroke-width="1.2348" stroke-linecap="round" stroke-linejoin="round"/>
<path d="M245.431 289.722C245.431 289.722 241.622 283.637 247.097 271.651C249.834 265.659 255.833 266.95 255.833 266.95" stroke="#BE6E3D" stroke-width="1.2348" stroke-linecap="round" stroke-linejoin="round"/>
<path d="M245.492 289.751C245.492 289.751 244.204 284.817 249.678 272.831C252.416 266.839 255.894 266.979 255.894 266.979" stroke="#B56133" stroke-width="1.2348" stroke-linecap="round" stroke-linejoin="round"/>
<path d="M244.801 289.345C244.801 289.345 253.04 288.762 258.515 276.777C261.252 270.785 255.203 266.573 255.203 266.573" stroke="#B56133" stroke-width="1.2348" stroke-linecap="round" stroke-linejoin="round"/>
<path d="M244.801 289.345C244.801 289.345 250.401 287.557 255.876 275.572C258.614 269.579 255.203 266.573 255.203 266.573" stroke="#BE6E3D" stroke-width="1.2348" stroke-linecap="round" stroke-linejoin="round"/>
<path d="M244.801 289.345C244.801 289.345 247.039 286.482 252.513 274.497C255.251 268.504 255.203 266.573 255.203 266.573" stroke="#B56133" stroke-width="1.2348" stroke-linecap="round" stroke-linejoin="round"/>
<path d="M244.86 289.372C244.86 289.372 241.051 283.286 246.526 271.301C249.263 265.308 255.262 266.6 255.262 266.6" stroke="#B56133" stroke-width="1.2348" stroke-linecap="round" stroke-linejoin="round"/>
<path d="M244.922 289.401C244.922 289.401 243.633 284.466 249.108 272.481C251.846 266.488 255.324 266.628 255.324 266.628" stroke="#BE6E3D" stroke-width="1.2348" stroke-linecap="round" stroke-linejoin="round"/>
<path d="M246.385 289.808C246.641 289.246 246.348 288.562 245.729 288.279C245.111 287.996 244.401 288.223 244.144 288.785C243.888 289.347 244.181 290.031 244.8 290.314C245.419 290.597 246.128 290.37 246.385 289.808Z" fill="#BE6E3D"/>
<path d="M256.513 267.635C256.769 267.073 256.476 266.389 255.857 266.106C255.239 265.823 254.529 266.05 254.272 266.612C254.016 267.174 254.309 267.858 254.928 268.141C255.546 268.424 256.256 268.197 256.513 267.635Z" fill="#BE6E3D"/>
<path d="M263.482 297.915C259.261 297.915 254.116 296.069 252.795 292.018C252.294 290.477 252.066 287.662 253.081 284.801C253.87 282.573 255.671 279.637 259.766 278.302C263.166 277.193 266.522 276.631 269.741 276.631C275.631 276.631 279.872 278.46 282.392 279.994C283.865 280.891 284.386 282.724 283.604 284.26C281.711 287.968 276.91 294.636 266.029 297.62C265.323 297.813 264.442 297.915 263.482 297.915Z" fill="#8E492B"/>
<path d="M269.741 277.357C275.63 277.357 279.808 279.271 282.015 280.614C283.153 281.306 283.563 282.744 282.957 283.93C281.238 287.3 276.593 293.971 265.837 296.92C265.196 297.096 264.385 297.19 263.483 297.19C259.847 297.19 254.746 295.661 253.485 291.793C252.449 288.615 253.096 281.24 259.991 278.992C263.624 277.807 266.884 277.357 269.741 277.357ZM269.741 275.906C266.446 275.906 263.014 276.48 259.542 277.612C255.166 279.039 253.241 282.178 252.397 284.559C251.322 287.591 251.568 290.593 252.106 292.243C253.539 296.638 259.008 298.64 263.483 298.64C264.507 298.64 265.454 298.529 266.221 298.319C277.373 295.261 282.303 288.404 284.249 284.589C285.207 282.713 284.57 280.471 282.769 279.375C280.169 277.792 275.798 275.906 269.741 275.906Z" fill="#592A15"/>
<path d="M281.165 282.026C281.165 282.026 274.779 276.48 260.988 280.977C254.093 283.225 254.962 290.57 254.962 290.57" stroke="#BE6E3D" stroke-width="1.2956" stroke-linecap="round" stroke-linejoin="round"/>
<path d="M281.164 282.026C281.164 282.026 275.677 279.238 261.886 283.735C254.991 285.983 254.961 290.57 254.961 290.57" stroke="#B56133" stroke-width="1.2956" stroke-linecap="round" stroke-linejoin="round"/>
<path d="M281.164 282.026C281.164 282.026 277.203 282.428 263.412 286.924C256.517 289.173 254.961 290.57 254.961 290.57" stroke="#BE6E3D" stroke-width="1.2956" stroke-linecap="round" stroke-linejoin="round"/>
<path d="M281.143 281.964C281.143 281.964 278.864 289.011 265.073 293.508C258.178 295.757 254.94 290.509 254.94 290.509" stroke="#BE6E3D" stroke-width="1.2956" stroke-linecap="round" stroke-linejoin="round"/>
<path d="M281.123 281.899C281.123 281.899 277.985 286.312 264.194 290.809C257.298 293.058 254.92 290.444 254.92 290.444" stroke="#B56133" stroke-width="1.2956" stroke-linecap="round" stroke-linejoin="round"/>
<path d="M281.283 282.685C281.283 282.685 274.897 277.139 261.106 281.636C254.211 283.884 255.08 291.23 255.08 291.23" stroke="#B56133" stroke-width="1.2956" stroke-linecap="round" stroke-linejoin="round"/>
<path d="M281.285 282.686C281.285 282.686 275.799 279.898 262.008 284.394C255.112 286.643 255.082 291.23 255.082 291.23" stroke="#BE6E3D" stroke-width="1.2956" stroke-linecap="round" stroke-linejoin="round"/>
<path d="M281.285 282.686C281.285 282.686 277.324 283.087 263.533 287.584C256.638 289.832 255.082 291.23 255.082 291.23" stroke="#B56133" stroke-width="1.2956" stroke-linecap="round" stroke-linejoin="round"/>
<path d="M281.264 282.624C281.264 282.624 278.985 289.671 265.194 294.168C258.299 296.416 255.062 291.168 255.062 291.168" stroke="#B56133" stroke-width="1.2956" stroke-linecap="round" stroke-linejoin="round"/>
<path d="M281.243 282.559C281.243 282.559 278.105 286.972 264.314 291.469C257.418 293.717 255.04 291.103 255.04 291.103" stroke="#BE6E3D" stroke-width="1.2956" stroke-linecap="round" stroke-linejoin="round"/>
<path d="M280.912 283.617C281.592 283.617 282.144 283.066 282.144 282.385C282.144 281.705 281.592 281.154 280.912 281.154C280.232 281.154 279.681 281.705 279.681 282.385C279.681 283.066 280.232 283.617 280.912 283.617Z" fill="#BE6E3D"/>
<path d="M255.399 291.937C256.079 291.937 256.63 291.386 256.63 290.705C256.63 290.025 256.079 289.474 255.399 289.474C254.718 289.474 254.167 290.025 254.167 290.705C254.167 291.386 254.718 291.937 255.399 291.937Z" fill="#BE6E3D"/>
<path d="M191.62 368.969C154.086 368.969 127.945 367.253 113.921 363.871C103.916 361.457 99.4792 358.086 99.0855 352.599C98.9226 350.322 99.6836 348.188 101.049 346.565C97.0867 344.802 95.2695 342.425 94.912 338.89C94.6748 336.521 95.4336 334.277 96.8473 332.578C93.9466 331.366 91.2972 329.238 90.7526 325.224C90.4432 322.941 91.0402 320.673 92.4365 318.84C92.5535 318.686 92.6748 318.537 92.8006 318.393C90.195 317.181 87.8038 315.104 87.2658 311.347C86.9377 309.054 87.5228 306.77 88.9124 304.915C89.5039 304.128 90.2092 303.458 91.0019 302.923L87.4134 290.959H87.8355L87.4167 289.561H292.415L291.995 290.959H292.415L288.813 302.959C291.812 305.013 293.31 308.826 292.26 312.503C291.421 315.434 289.573 317.205 286.964 318.382C287.335 318.807 287.666 319.272 287.953 319.773C289.1 321.77 289.399 324.096 288.796 326.32C288.008 329.234 286.297 331.1 282.834 332.462C283.063 332.728 283.276 333.01 283.474 333.307C284.736 335.205 285.184 337.481 284.735 339.716C284.108 342.825 282.318 344.958 278.738 346.576C278.835 346.693 278.931 346.813 279.023 346.937C280.374 348.741 280.942 350.964 280.622 353.195C279.861 358.492 275.589 361.617 265.876 363.983C252.292 367.292 227.309 368.969 191.62 368.969Z" fill="#875A1E"/>
<path d="M189.913 294.04H93.4316L110.211 349.97C110.211 349.97 114.406 362.555 189.913 362.555C265.419 362.555 269.614 349.97 269.614 349.97L286.393 294.04H189.913Z" fill="#B97939"/>
<path d="M189.913 294.04H93.4316L110.211 349.97C110.211 349.97 114.406 362.555 189.913 362.555C265.419 362.555 269.614 349.97 269.614 349.97L286.393 294.04H189.913Z" stroke="#875A1E" stroke-width="3.7466" stroke-linecap="round" stroke-linejoin="round"/>
<path d="M191.707 344.569C124.192 344.569 109.54 340.736 106.68 339.599L109.374 348.58C120.262 350.835 143.191 352.679 191.707 352.679C238 352.679 259.943 350.82 270.441 348.611L273.157 339.559C270.517 340.668 256.612 344.569 191.707 344.569Z" fill="#9E5E25"/>
<path d="M191.62 360.764C147.572 360.764 127.312 358.39 118.09 356.429C127.314 359.927 147.203 363.953 189.913 363.953C232.965 363.953 252.828 359.862 261.954 356.345C253.06 358.316 233.575 360.764 191.62 360.764Z" fill="#9E5E25"/>
<path d="M281.386 310.97C279.418 311.683 266.226 315.014 191.867 315.014C114.303 315.014 100.514 311.723 98.4142 310.993C98.2931 310.9 98.1562 310.83 98.0254 310.75L100.825 320.082C102.725 320.383 104.977 320.659 107.693 320.934C123.877 322.573 152.196 323.403 191.867 323.403C229.608 323.403 256.679 322.572 272.325 320.933C274.994 320.654 277.177 320.37 279.003 320.071L281.809 310.72C281.667 310.803 281.517 310.871 281.386 310.97Z" fill="#9E5E25"/>
<path d="M191.793 329.081C121.453 329.081 105.621 326.121 102.352 325.17L105.049 334.163C106.666 334.409 108.527 334.64 110.675 334.869C126.276 336.534 153.568 337.377 191.793 337.377C241.338 337.377 264.152 335.929 274.797 334.093L277.482 325.143C274.411 326.079 259.293 329.081 191.793 329.081Z" fill="#9E5E25"/>
<path d="M282.074 309.835L286.393 295.438H93.4316L97.2934 308.31C104.111 311.367 112.293 311.547 121.564 310.306C155.278 305.791 173.056 312.783 190.235 312.783C215.404 312.783 226.59 305.791 254.712 310.705C265.201 312.538 274.479 312.959 282.074 309.835Z" fill="#9E5E25"/>
<path d="M189.912 364.543C187.274 364.543 185.128 362.396 185.128 359.758V299.632C185.128 296.994 187.274 294.849 189.912 294.849C192.55 294.849 194.697 296.994 194.697 299.632V359.758C194.697 362.396 192.55 364.543 189.912 364.543ZM233.58 361.748C232.972 361.748 232.374 361.632 231.804 361.405C230.618 360.93 229.686 360.021 229.183 358.847C228.679 357.672 228.664 356.372 229.139 355.184C229.466 354.348 237.187 334.162 237.187 299.632C237.187 296.994 239.332 294.849 241.971 294.849C244.609 294.849 246.755 296.994 246.755 299.632C246.755 336.486 238.381 357.847 238.025 358.738C237.292 360.567 235.548 361.748 233.58 361.748ZM146.887 361.746C144.918 361.746 143.175 360.565 142.446 358.738C142.089 357.85 133.715 336.552 133.715 299.632C133.715 296.994 135.86 294.849 138.498 294.849C141.137 294.849 143.283 296.994 143.283 299.632C143.283 334.471 151.254 354.988 151.334 355.191C152.307 357.642 151.107 360.429 148.659 361.405C148.088 361.631 147.493 361.746 146.887 361.746Z" fill="#D89651"/>
<path d="M241.971 295.547C244.228 295.547 246.056 297.375 246.056 299.633C246.056 336.352 237.73 357.593 237.374 358.479C236.736 360.076 235.202 361.049 233.58 361.049C233.075 361.049 232.561 360.954 232.064 360.755C229.968 359.918 228.949 357.539 229.788 355.445C229.866 355.245 237.885 334.636 237.885 299.633C237.885 297.375 239.714 295.547 241.971 295.547ZM189.912 295.547C192.17 295.547 193.998 297.375 193.998 299.633V359.758C193.998 362.015 192.17 363.844 189.912 363.844C187.655 363.844 185.827 362.015 185.827 359.758V299.633C185.827 297.375 187.655 295.547 189.912 295.547ZM138.499 295.547C140.756 295.547 142.584 297.375 142.584 299.633C142.584 334.636 150.604 355.245 150.684 355.449C151.516 357.545 150.494 359.921 148.4 360.755C147.903 360.953 147.391 361.047 146.887 361.047C145.266 361.047 143.732 360.077 143.095 358.479C142.74 357.593 134.413 336.352 134.413 299.633C134.413 297.375 136.241 295.547 138.499 295.547ZM241.971 294.149C238.947 294.149 236.487 296.609 236.487 299.633C236.487 334.032 228.812 354.099 228.485 354.937C227.945 356.285 227.963 357.776 228.54 359.122C229.118 360.469 230.185 361.51 231.546 362.054C232.196 362.314 232.881 362.447 233.58 362.447C235.836 362.447 237.835 361.093 238.673 358.998C239.031 358.104 247.455 336.655 247.455 299.633C247.455 296.609 244.995 294.149 241.971 294.149ZM189.912 294.149C186.889 294.149 184.429 296.609 184.429 299.633V359.758C184.429 362.782 186.889 365.242 189.912 365.242C192.936 365.242 195.396 362.782 195.396 359.758V299.633C195.396 296.609 192.936 294.149 189.912 294.149ZM138.499 294.149C135.475 294.149 133.015 296.609 133.015 299.633C133.015 336.655 141.438 358.104 141.797 358.999C142.632 361.092 144.631 362.446 146.887 362.446C147.582 362.446 148.265 362.314 148.917 362.054C151.723 360.937 153.099 357.742 151.984 354.933C151.905 354.732 143.982 334.191 143.982 299.633C143.982 296.609 141.522 294.149 138.499 294.149Z" fill="#875A1E"/>
<path d="M188.514 361.047C187.803 361.047 187.225 360.469 187.225 359.758V299.632C187.225 298.921 187.803 298.343 188.514 298.343C189.226 298.343 189.803 298.921 189.803 299.632V359.758C189.803 360.469 189.226 361.047 188.514 361.047ZM232.182 358.252C232.021 358.252 231.861 358.22 231.707 358.159C231.272 357.986 231.077 357.652 230.998 357.47C230.92 357.287 230.814 356.915 230.985 356.484C231.334 355.595 239.284 334.828 239.284 299.632C239.284 298.921 239.861 298.343 240.573 298.343C241.284 298.343 241.862 298.921 241.862 299.632C241.862 335.852 233.726 356.574 233.381 357.438C233.183 357.934 232.713 358.252 232.182 358.252ZM145.489 358.251C144.959 358.251 144.491 357.934 144.294 357.442C143.947 356.574 135.812 335.852 135.812 299.632C135.812 298.921 136.389 298.343 137.101 298.343C137.812 298.343 138.39 298.921 138.39 299.632C138.39 335.118 146.603 356.269 146.686 356.478C146.95 357.142 146.626 357.894 145.967 358.156C145.811 358.219 145.65 358.251 145.489 358.251Z" fill="#EDA861"/>
<path d="M191.867 319.208C152.196 319.208 123.877 318.378 107.693 316.739C95.495 315.505 92.2069 314.266 91.699 310.712C91.3712 308.419 92.9648 306.294 95.2588 305.967C96.418 305.804 97.5473 306.129 98.4144 306.798C100.515 307.528 114.303 310.818 191.867 310.818C266.226 310.818 279.418 307.488 281.386 306.775C282.402 306.006 283.754 305.711 285.072 306.086C287.299 306.722 288.589 309.045 287.953 311.272C287.157 314.056 284.81 315.431 272.325 316.738C256.679 318.376 229.608 319.208 191.867 319.208ZM191.793 333.181C153.568 333.181 126.276 332.339 110.675 330.673C98.9944 329.428 95.6658 328.127 95.1903 324.622C94.8825 322.351 96.4727 320.262 98.7436 319.954C99.9122 319.789 101.042 320.143 101.899 320.83C103.966 321.572 117.376 324.885 191.793 324.885C263.133 324.885 275.964 321.532 277.899 320.808C278.896 320.023 280.238 319.706 281.554 320.061C283.766 320.66 285.072 322.937 284.473 325.149C283.607 328.348 282.298 333.181 191.793 333.181ZM191.707 348.484C100.378 348.484 99.7214 341.95 99.3675 338.438C99.144 336.21 100.769 334.222 102.998 333.997C104.304 333.861 105.541 334.376 106.376 335.274C108.398 336.211 121.351 340.373 191.707 340.373C259.142 340.373 271.526 336.162 273.419 335.246C274.348 334.267 275.747 333.77 277.166 334.057C279.363 334.498 280.784 336.637 280.343 338.833C279.713 341.965 278.401 348.484 191.707 348.484ZM272.398 337.202C272.396 337.205 272.396 337.206 272.396 337.209C272.396 337.207 272.396 337.205 272.398 337.202ZM191.62 364.489C104.429 364.489 103.769 355.298 103.552 352.279C103.397 350.098 105.037 348.202 107.219 348.045C108.709 347.93 110.111 348.695 110.864 349.901C112.678 351.088 124.686 356.569 191.62 356.569C255.822 356.569 267.422 350.835 268.936 349.853C269.75 348.592 271.254 347.845 272.831 348.075C274.996 348.387 276.499 350.394 276.188 352.558C275.764 355.509 274.475 364.489 191.62 364.489Z" fill="#875A1E"/>
<path d="M100.002 309.516V309.517M100.001 309.503V309.506M99.9997 309.492V309.498M279.888 308.957C279.888 308.96 279.887 308.964 279.885 308.967M279.891 308.948C279.891 308.949 279.89 308.952 279.89 308.955M279.893 308.937C279.893 308.939 279.894 308.942 279.892 308.944M279.898 308.926C279.898 308.927 279.896 308.93 279.896 308.933M279.9 308.916C279.9 308.918 279.899 308.919 279.899 308.92M103.41 323.496V323.499M103.409 323.485V323.488M103.407 323.474V323.48M276.468 322.969C276.467 322.973 276.466 322.976 276.466 322.98M276.471 322.96C276.47 322.962 276.47 322.965 276.468 322.967M276.474 322.949C276.473 322.951 276.473 322.954 276.471 322.957M276.477 322.938C276.477 322.94 276.475 322.943 276.474 322.947M276.48 322.928C276.48 322.931 276.478 322.932 276.478 322.935M276.482 322.919C276.482 322.921 276.481 322.922 276.481 322.924M107.438 337.618V337.62M107.437 337.61V337.611M272.394 337.223C272.392 337.227 272.392 337.23 272.391 337.234M272.395 337.212C272.395 337.214 272.394 337.217 272.394 337.221M272.4 337.189C272.399 337.192 272.399 337.195 272.398 337.198M272.402 337.18C272.402 337.183 272.402 337.184 272.4 337.185M111.451 351.704V351.705M111.451 351.698V351.699M191.867 319.208C152.196 319.208 123.877 318.378 107.693 316.739C95.495 315.505 92.2069 314.266 91.699 310.712C91.3712 308.419 92.9648 306.294 95.2588 305.967C96.418 305.804 97.5473 306.129 98.4144 306.798C100.515 307.528 114.303 310.818 191.867 310.818C266.226 310.818 279.418 307.488 281.386 306.775C282.402 306.006 283.754 305.711 285.072 306.086C287.299 306.722 288.589 309.045 287.953 311.272C287.157 314.056 284.81 315.431 272.325 316.738C256.679 318.376 229.608 319.208 191.867 319.208ZM191.793 333.181C153.568 333.181 126.276 332.339 110.675 330.673C98.9944 329.428 95.6658 328.127 95.1903 324.622C94.8825 322.351 96.4727 320.262 98.7436 319.954C99.9122 319.789 101.042 320.143 101.899 320.83C103.966 321.572 117.376 324.885 191.793 324.885C263.133 324.885 275.964 321.532 277.899 320.808C278.896 320.023 280.238 319.706 281.554 320.061C283.766 320.66 285.072 322.937 284.473 325.149C283.607 328.348 282.298 333.181 191.793 333.181ZM191.707 348.484C100.378 348.484 99.7214 341.95 99.3675 338.438C99.144 336.21 100.769 334.222 102.998 333.997C104.304 333.861 105.541 334.376 106.376 335.274C108.398 336.211 121.351 340.373 191.707 340.373C259.142 340.373 271.526 336.162 273.419 335.246C274.348 334.267 275.747 333.77 277.166 334.057C279.363 334.498 280.784 336.637 280.343 338.833C279.713 341.965 278.401 348.484 191.707 348.484ZM272.398 337.202C272.396 337.205 272.396 337.206 272.396 337.209C272.396 337.207 272.396 337.205 272.398 337.202ZM191.62 364.489C104.429 364.489 103.769 355.298 103.552 352.279C103.397 350.098 105.037 348.202 107.219 348.045C108.709 347.93 110.111 348.695 110.864 349.901C112.678 351.088 124.686 356.569 191.62 356.569C255.822 356.569 267.422 350.835 268.936 349.853C269.75 348.592 271.254 347.845 272.831 348.075C274.996 348.387 276.499 350.394 276.188 352.558C275.764 355.509 274.475 364.489 191.62 364.489Z" stroke="#875A1E" stroke-width="3.7466" stroke-linecap="round" stroke-linejoin="round"/>
<path d="M191.867 319.208C152.196 319.208 123.877 318.378 107.693 316.739C95.495 315.505 92.2069 314.266 91.699 310.712C91.3712 308.419 92.9648 306.294 95.2588 305.967C96.418 305.804 97.5473 306.129 98.4144 306.798C100.515 307.528 114.303 310.818 191.867 310.818C266.226 310.818 279.418 307.488 281.386 306.775C282.402 306.006 283.754 305.711 285.072 306.086C287.299 306.722 288.589 309.045 287.953 311.272C287.157 314.056 284.81 315.431 272.325 316.738C256.679 318.376 229.608 319.208 191.867 319.208Z" fill="#EDA861"/>
<path d="M191.793 333.182C153.568 333.182 126.276 332.339 110.675 330.674C98.9946 329.429 95.666 328.127 95.1905 324.623C94.8827 322.352 96.4729 320.262 98.7437 319.955C99.9124 319.79 101.042 320.143 101.899 320.831C103.966 321.573 117.377 324.886 191.793 324.886C263.133 324.886 275.964 321.532 277.899 320.809C278.896 320.024 280.238 319.707 281.554 320.061C283.766 320.66 285.072 322.938 284.473 325.149C283.607 328.349 282.298 333.182 191.793 333.182Z" fill="#EDA861"/>
<path d="M191.707 348.484C100.378 348.484 99.7211 341.95 99.3672 338.438C99.1437 336.21 100.769 334.222 102.998 333.997C104.304 333.861 105.541 334.376 106.376 335.274C108.398 336.211 121.351 340.373 191.707 340.373C259.142 340.373 271.526 336.162 273.419 335.246C274.347 334.266 275.746 333.77 277.166 334.057C279.363 334.498 280.784 336.637 280.343 338.832C279.713 341.965 278.401 348.484 191.707 348.484ZM272.397 337.202C272.396 337.205 272.396 337.206 272.396 337.209C272.396 337.207 272.396 337.205 272.397 337.202Z" fill="#EDA861"/>
<path d="M191.62 364.489C104.429 364.489 103.769 355.298 103.552 352.279C103.397 350.098 105.037 348.202 107.219 348.045C108.709 347.93 110.111 348.695 110.864 349.901C112.678 351.088 124.686 356.569 191.62 356.569C255.823 356.569 267.422 350.835 268.936 349.853C269.75 348.592 271.254 347.845 272.831 348.076C274.996 348.387 276.499 350.394 276.188 352.558C275.764 355.509 274.475 364.489 191.62 364.489Z" fill="#EDA861"/>
<path d="M191.867 319.208C152.196 319.208 123.877 318.378 107.693 316.739C95.495 315.505 92.2069 314.266 91.699 310.712C91.3712 308.419 92.9648 306.294 95.2588 305.967C96.418 305.804 97.5473 306.129 98.4144 306.798C100.515 307.528 114.303 310.818 191.867 310.818C266.226 310.818 279.418 307.488 281.386 306.775C282.402 306.006 283.754 305.711 285.072 306.086C287.299 306.722 288.589 309.045 287.953 311.272C287.157 314.056 284.81 315.431 272.325 316.738C256.679 318.376 229.608 319.208 191.867 319.208ZM191.793 333.181C153.568 333.181 126.276 332.339 110.675 330.673C98.9944 329.428 95.6658 328.127 95.1903 324.622C94.8825 322.351 96.4727 320.262 98.7436 319.954C99.9122 319.789 101.042 320.143 101.899 320.83C103.966 321.572 117.376 324.885 191.793 324.885C263.133 324.885 275.964 321.532 277.899 320.808C278.896 320.023 280.238 319.706 281.554 320.061C283.766 320.66 285.072 322.937 284.473 325.149C283.607 328.348 282.298 333.181 191.793 333.181ZM191.707 348.484C100.378 348.484 99.7214 341.95 99.3675 338.438C99.144 336.21 100.769 334.222 102.998 333.997C104.304 333.861 105.541 334.376 106.376 335.274C108.398 336.211 121.351 340.373 191.707 340.373C259.142 340.373 271.526 336.162 273.419 335.246C274.348 334.267 275.747 333.77 277.166 334.057C279.363 334.498 280.784 336.637 280.343 338.833C279.713 341.965 278.401 348.484 191.707 348.484ZM272.398 337.202C272.396 337.205 272.396 337.206 272.396 337.209C272.396 337.207 272.396 337.205 272.398 337.202ZM191.62 364.489C104.429 364.489 103.769 355.298 103.552 352.279C103.397 350.098 105.037 348.202 107.219 348.045C108.709 347.93 110.111 348.695 110.864 349.901C112.678 351.088 124.686 356.569 191.62 356.569C255.822 356.569 267.422 350.835 268.936 349.853C269.75 348.592 271.254 347.845 272.831 348.075C274.996 348.387 276.499 350.394 276.188 352.558C275.764 355.509 274.475 364.489 191.62 364.489Z" fill="#EDA861"/>
<path d="M191.62 360.295C111.112 360.295 106.457 352.286 106.342 350.681C106.297 350.041 106.78 349.482 107.421 349.436H107.434C107.907 349.436 108.285 349.651 108.493 349.983L108.818 350.506L109.332 350.842C112.606 352.985 127.175 357.968 191.62 357.968C254.526 357.968 267.869 352.483 270.459 350.802L270.961 350.476L271.287 349.972C271.501 349.64 271.875 349.434 272.261 349.434C272.316 349.434 272.372 349.437 272.427 349.445C272.85 349.506 273.093 349.756 273.201 349.899C273.309 350.044 273.481 350.347 273.421 350.761C273.1 352.999 266.253 360.295 191.62 360.295ZM191.708 344.29C114.446 344.29 102.434 339.572 102.151 336.761C102.081 336.07 102.587 335.452 103.279 335.383H103.315C103.773 335.383 104.096 335.529 104.329 335.781L104.703 336.183L105.202 336.414C107.915 337.671 122.174 341.772 191.708 341.772C244.631 341.772 264.161 339.158 271.263 337.448C272.578 337.131 273.854 336.687 275.093 336.146L275.45 335.772C275.69 335.519 276.023 335.375 276.365 335.375C276.447 335.375 276.53 335.383 276.615 335.399C277.296 335.537 277.738 336.203 277.602 336.885C277.154 339.111 267.889 344.29 191.708 344.29ZM191.794 328.987C153.654 328.987 126.461 328.148 110.972 326.495C100.398 325.368 98.1543 324.265 97.9617 322.849C97.8621 322.11 98.3823 321.427 99.121 321.326C99.1961 321.317 99.2562 321.313 99.315 321.313C99.6113 321.313 99.9076 321.419 100.149 321.613L100.515 321.907L100.956 322.065C103.716 323.055 118.424 326.285 191.794 326.285C262.045 326.285 276.21 323.028 278.878 322.03L279.287 321.877L279.63 321.608C279.87 321.419 280.168 321.315 280.471 321.315C280.59 321.315 280.711 321.33 280.83 321.363C281.294 321.489 281.539 321.812 281.644 321.994C281.747 322.174 281.903 322.55 281.775 323.02C281.038 325.742 264.827 328.987 191.794 328.987ZM191.867 315.014C152.287 315.014 124.062 314.187 107.975 312.559C96.954 311.444 94.6765 310.379 94.4675 308.918C94.3966 308.42 94.6041 308.055 94.7338 307.883C94.8635 307.71 95.1558 307.409 95.6555 307.337C95.7156 307.329 95.7837 307.325 95.8507 307.325C96.1593 307.325 96.4639 307.427 96.7069 307.614L97.0675 307.893L97.4976 308.043C100.319 309.022 115.459 312.217 191.867 312.217C265.03 312.217 279.613 308.995 282.34 308.008L282.737 307.863L283.075 307.607C283.316 307.424 283.617 307.323 283.918 307.323C284.048 307.323 284.179 307.341 284.309 307.378C284.788 307.516 285.037 307.853 285.142 308.043C285.247 308.231 285.403 308.622 285.265 309.105C284.97 310.138 283.68 311.339 272.035 312.559C256.48 314.188 229.507 315.014 191.867 315.014Z" fill="#FFC794"/>
<path d="M120.489 304.146C108.026 305.789 94.6981 304.95 86.7627 298.234C89.3137 292.648 85.1405 277.26 95.9305 277.98C101.562 278.356 100.683 279.108 102.339 277.997C107.025 274.853 114.209 278.881 117.092 278.191C128.173 275.536 130.788 279.603 135.082 278.167C143.605 275.317 146.727 278.731 150.515 277.947C162.875 275.391 165.124 279.33 169.784 278.022C175.666 276.37 183.34 276.958 188.97 279.49L190.786 279.495C196.405 276.992 204.077 276.444 209.965 278.125C214.631 279.458 216.863 275.53 229.235 278.15C233.026 278.953 236.133 275.555 244.668 278.45C248.969 279.908 251.566 275.855 262.659 278.566C265.545 279.271 272.711 275.281 277.411 278.449C279.073 279.569 278.199 278.358 283.82 278.465C293.921 278.658 290.487 294.033 293.063 299.632C284.405 306.943 269.727 306.953 255.732 304.545C227.168 299.632 215.806 306.623 190.241 306.623C172.792 306.623 154.734 299.632 120.489 304.146Z" fill="#DDD3C7"/>
<path d="M120.489 304.146C108.026 305.789 94.6981 304.95 86.7627 298.234C89.3137 292.648 85.1405 277.26 95.9305 277.98C101.562 278.356 100.683 279.108 102.339 277.997C107.025 274.853 114.209 278.881 117.092 278.191C128.173 275.536 130.788 279.603 135.082 278.167C143.605 275.317 146.727 278.731 150.515 277.947C162.875 275.391 165.124 279.33 169.784 278.022C175.666 276.37 183.34 276.958 188.97 279.49L190.786 279.495C196.405 276.992 204.077 276.444 209.965 278.125C214.631 279.458 216.863 275.53 229.235 278.15C233.026 278.953 236.133 275.555 244.668 278.45C248.969 279.908 251.566 275.855 262.659 278.566C265.545 279.271 272.711 275.281 277.411 278.449C279.073 279.569 278.199 278.358 283.82 278.465C293.921 278.658 290.487 294.033 293.063 299.632C284.405 306.943 269.727 306.953 255.732 304.545C227.168 299.632 215.806 306.623 190.241 306.623C172.792 306.623 154.734 299.632 120.489 304.146Z" stroke="#9E9080" stroke-width="4" stroke-linecap="round" stroke-linejoin="round"/>
<path d="M95.9307 285.538C101.563 285.914 100.683 286.666 102.339 285.555C107.025 282.411 114.209 286.439 117.092 285.748C128.173 283.094 130.788 287.161 135.082 285.725C143.605 282.875 146.727 286.289 150.515 285.505C162.875 282.949 165.125 286.888 169.784 285.579C175.666 283.928 183.34 284.516 188.97 287.048L190.786 287.053C196.405 284.549 204.077 284.001 209.966 285.683C214.631 287.015 216.863 283.088 229.235 285.708C233.026 286.511 236.133 283.113 244.669 286.007C248.969 287.466 251.566 283.413 262.659 286.124C265.545 286.829 272.711 282.838 277.411 286.006C279.073 287.127 278.199 285.916 283.82 286.023" stroke="white" stroke-width="2.4977" stroke-linecap="round" stroke-linejoin="round"/>
<defs>
<radialGradient id="paint0_radial_8063_2417" cx="0" cy="0" r="1" gradientUnits="userSpaceOnUse" gradientTransform="translate(190.442 243.465) rotate(90) scale(165.698)">
<stop stop-color="#FFE100"/>
<stop offset="1" stop-color="#FFCC00" stop-opacity="0"/>
</radialGradient>
</defs>
</svg>
