<svg width="222" height="271" viewBox="0 0 222 271" fill="none" xmlns="http://www.w3.org/2000/svg">
<circle cx="111.329" cy="143.5" r="87.5" fill="url(#paint0_radial_8059_5414)"/>
<path d="M124.41 0L129.565 9.42609L138.991 14.5814L129.565 19.7367L124.41 29.1628L119.255 19.7367L109.829 14.5814L119.255 9.42609L124.41 0Z" fill="#FFB9C4"/>
<path d="M30.4333 23L34.1826 29.8553L41.0379 33.6047L34.1826 37.354L30.4333 44.2093L26.684 37.354L19.8286 33.6047L26.684 29.8553L30.4333 23Z" fill="#FFDA88"/>
<path d="M119.782 109L122.594 113.57L127.736 116.07L122.594 118.569L119.782 123.14L116.97 118.569L111.829 116.07L116.97 113.57L119.782 109Z" fill="white"/>
<circle cx="68.0147" cy="23.186" r="6.18605" fill="#D1E795"/>
<circle cx="101.015" cy="63.186" r="6.18605" fill="#FFDA88"/>
<circle cx="189.247" cy="94.4186" r="4.4186" fill="#B8E5E6"/>
<circle cx="152.247" cy="34.4186" r="4.4186" fill="#B8E5E6"/>
<path d="M162.47 83.3007L164.054 65.6062L144.093 70.8192C143.844 72.2638 143.62 73.7204 143.46 75.1787C142.822 81.0171 143.207 87.9423 142.225 93.546C141.589 97.1778 140.073 98.5935 136.46 99.0802C132.725 99.5832 128.099 98.035 128.146 93.6196C128.206 87.9666 134.999 88.6692 138.666 90.2739C139.052 90.4425 140.435 91.494 140.68 91.145C140.98 88.8404 141.252 86.5285 141.452 84.2127C141.856 79.545 141.737 66.135 143.441 62.7285C143.841 61.9301 144.343 61.1011 145.208 60.7445C149.876 59.4716 154.611 58.4139 159.274 57.1242C160.565 56.767 163.842 55.3572 164.989 55.6319C166.624 56.0234 166.231 58.9325 166.17 60.2952C165.909 66.0981 165.061 72.1709 164.576 77.9924C164.291 81.4086 164.768 86.709 162.525 89.3918C159.082 93.5098 147.604 90.0241 149.994 84.5509C152.181 79.5424 158.71 80.9526 162.47 83.3007Z" fill="#FFB9C4"/>
<path d="M33.6338 77.5897C33.233 77.4906 32.8322 76.8528 32.5855 76.5282C31.4186 74.9926 30.5961 73.2981 28.9988 72.1039C26.0026 69.8639 20.8044 70.3753 17.7582 72.381C17.1102 72.8077 15.6182 73.8241 16.057 74.6277C16.6584 75.7293 18.0777 77.2762 18.8632 78.4457C20.8426 81.3925 22.678 84.4382 24.6573 87.3851C26.4574 90.0652 29.6054 93.2538 29.9766 96.5035C30.8499 104.149 14.8809 109.572 15.7519 99.6632C16.1518 95.1142 21.9162 93.1769 25.7441 92.445C25.8481 92.2127 23.7755 89.0821 23.4443 88.5702C20.1102 83.4162 16.4833 78.4147 13.0615 73.31C11.8294 71.4718 9.49641 69.7622 11.9144 67.8106C14.3554 65.8404 18.6434 64.4462 21.7718 64.537C29.0669 64.7488 33.1232 70.8561 33.6338 77.5897Z" fill="#B8E5E6"/>
<path d="M42.3598 203.033C42.3598 203.033 94.5203 240.587 113.726 213.993C127.389 195.073 120.663 175 110.988 160.032C109.516 157.754 105.122 157.787 103.329 155.981C97.4708 150.079 103.095 149.397 101.493 147.579C95.4466 140.715 90.3742 136.548 90.3742 136.548L87.0447 134.151C87.0447 134.151 81.4828 130.662 73.051 127.102C70.817 126.159 71.9456 131.702 64.4866 128.016C62.2041 126.888 60.8479 122.715 58.2181 122.04C40.9381 117.602 19.7387 117.57 6.0756 136.489C-13.1302 163.083 39.0304 200.636 39.0304 200.636L42.3598 203.033Z" fill="#C58948"/>
<path d="M42.3598 203.033C42.3598 203.033 94.5203 240.587 113.726 213.993C127.389 195.073 120.663 175 110.988 160.032C109.516 157.754 105.122 157.787 103.329 155.981C97.4708 150.079 103.095 149.397 101.493 147.579C95.4466 140.715 90.3742 136.548 90.3742 136.548L87.0447 134.151C87.0447 134.151 81.4828 130.662 73.051 127.102C70.817 126.159 71.9456 131.702 64.4866 128.016C62.2041 126.888 60.8479 122.715 58.2181 122.04C40.9381 117.602 19.7387 117.57 6.0756 136.489C-13.1302 163.083 39.0304 200.636 39.0304 200.636L42.3598 203.033Z" stroke="#7C5125" stroke-width="3.6587" stroke-miterlimit="10"/>
<path d="M52.9734 131.019C55.424 131.809 56.9952 135.497 59.1655 136.648C66.2585 140.407 64.7848 135.562 66.8964 136.55C74.8657 140.279 80.2141 143.718 80.2141 143.718L83.4405 146.041C83.4405 146.041 88.3976 150.021 94.4585 156.393C96.0644 158.081 90.9944 158.216 96.8071 163.748C98.5857 165.441 102.587 165.764 104.111 167.836C112.992 179.905 120.073 195.228 113.956 209.094C115.088 208.222 116.119 207.176 117.023 205.923C127.953 190.788 120.212 173.03 110.193 159.415C108.668 157.343 104.667 157.02 102.889 155.327C97.076 149.795 102.146 149.66 100.54 147.972C94.4792 141.6 89.5221 137.62 89.5221 137.62L86.2957 135.297C86.2957 135.297 80.9473 131.858 72.9781 128.129C70.8665 127.141 72.3401 131.986 65.2471 128.227C63.0768 127.076 61.5056 123.388 59.055 122.598C42.9525 117.407 23.6325 115.682 12.7026 130.816C11.7977 132.069 11.1291 133.376 10.6577 134.724C21.9029 124.55 38.6999 126.418 52.9734 131.019Z" fill="#DB9B4F"/>
<path d="M110.711 159.672C109.028 157.754 105.021 157.686 103.329 155.981C97.4703 150.079 103.094 149.397 101.493 147.579C101.433 147.511 101.375 147.447 101.315 147.38C84.8147 178.074 75.832 186.711 75.832 186.711C75.832 186.711 97.622 179.479 110.711 159.672Z" fill="#FCDC8D" stroke="#EABC54" stroke-width="1.2196" stroke-linecap="round" stroke-linejoin="round"/>
<path d="M73.0506 127.102C70.8164 126.159 71.9449 131.702 64.4859 128.016C62.2727 126.922 60.9269 122.975 58.4501 122.12C43.7998 140.767 43.8081 163.655 43.8081 163.655C43.8081 163.655 49.174 152.427 73.104 127.125C73.0857 127.117 73.0687 127.109 73.0506 127.102Z" fill="#FCDC8D" stroke="#EABC54" stroke-width="1.2196" stroke-linecap="round" stroke-linejoin="round"/>
<path d="M42.3598 203.033C42.3598 203.033 94.5203 240.587 113.726 213.993C127.389 195.073 120.663 175 110.988 160.032C109.516 157.754 105.122 157.787 103.329 155.981C97.4708 150.079 103.095 149.397 101.493 147.579C100.504 146.456 99.4958 145.373 98.502 144.347C92.3255 137.971 85.0766 132.752 77.0669 128.915C75.7781 128.297 74.4307 127.684 73.051 127.102C70.817 126.159 71.9456 131.702 64.4866 128.016C62.2041 126.888 60.8479 122.715 58.2181 122.04C40.9381 117.602 19.7387 117.57 6.0756 136.489C-13.1302 163.083 39.0304 200.636 39.0304 200.636L42.3598 203.033Z" stroke="#7C5125" stroke-width="3.6587" stroke-miterlimit="10"/>
<path d="M55.3163 185.56L51.5424 182.843C51.5424 182.843 20.6038 160.565 9.80254 139.503C-4.02254 162.567 42.5067 196.071 42.5067 196.071L45.5998 198.298C45.5998 198.298 92.1338 231.795 109.685 211.414C86.2587 207.833 55.3163 185.56 55.3163 185.56Z" fill="#AA7139"/>
<path d="M181.726 193.304C181.726 193.304 234.174 156.152 215.173 129.412C201.656 110.388 180.457 110.258 163.144 114.562C160.509 115.218 159.121 119.38 156.829 120.49C149.342 124.119 150.513 118.585 148.272 119.511C139.813 123.006 134.225 126.453 134.225 126.453L130.877 128.824C130.877 128.824 125.773 132.952 119.674 139.769C118.058 141.575 123.676 142.3 117.773 148.157C115.966 149.949 111.573 149.882 110.083 152.149C100.293 167.043 93.4127 187.063 106.93 206.087C125.93 232.827 178.378 195.676 178.378 195.676L181.726 193.304Z" fill="#C58948"/>
<path d="M181.726 193.304C181.726 193.304 234.174 156.152 215.173 129.412C201.656 110.388 180.457 110.258 163.144 114.562C160.509 115.218 159.121 119.38 156.829 120.49C149.342 124.119 150.513 118.585 148.272 119.511C139.813 123.006 134.225 126.453 134.225 126.453L130.877 128.824C130.877 128.824 125.773 132.952 119.674 139.769C118.058 141.575 123.676 142.3 117.773 148.157C115.966 149.949 111.573 149.882 110.083 152.149C100.293 167.043 93.4127 187.063 106.93 206.087C125.93 232.827 178.378 195.676 178.378 195.676L181.726 193.304Z" stroke="#7C5125" stroke-width="3.6587" stroke-miterlimit="10"/>
<path d="M116.899 160.005C118.44 157.945 122.443 157.652 124.234 155.973C130.09 150.486 125.021 150.313 126.64 148.637C132.749 142.312 137.737 138.369 137.737 138.369L140.981 136.071C140.981 136.071 146.356 132.673 154.354 129.005C156.473 128.033 154.962 132.867 162.084 129.163C164.263 128.029 165.862 124.353 168.319 123.582C182.627 119.09 199.438 117.351 210.605 127.611C210.144 126.26 209.485 124.948 208.59 123.688C197.777 108.47 178.444 110.047 162.302 115.114C159.846 115.886 158.246 119.561 156.067 120.695C148.945 124.4 150.456 119.566 148.337 120.538C140.339 124.206 134.965 127.604 134.965 127.604L131.721 129.902C131.721 129.902 126.733 133.844 120.623 140.169C119.004 141.845 124.073 142.018 118.218 147.506C116.426 149.185 112.423 149.478 110.882 151.538C100.759 165.076 92.881 182.774 103.694 197.992C104.589 199.252 105.612 200.306 106.737 201.186C100.727 187.274 107.926 172.006 116.899 160.005Z" fill="#DB9B4F"/>
<path d="M162.713 114.708C160.351 115.678 158.992 119.442 156.829 120.49C149.342 124.119 150.513 118.585 148.272 119.51C148.188 119.545 148.109 119.579 148.026 119.614C171.787 145.123 177.071 156.402 177.071 156.402C177.071 156.402 177.256 133.475 162.713 114.708Z" fill="#FCDC8D" stroke="#EABC54" stroke-width="1.2196" stroke-linecap="round" stroke-linejoin="round"/>
<path d="M119.673 139.769C118.057 141.575 123.676 142.3 117.772 148.157C116.02 149.895 111.845 149.891 110.234 151.955C123.174 171.823 144.871 179.211 144.871 179.211C144.871 179.211 135.962 170.513 119.713 139.726C119.699 139.74 119.686 139.754 119.673 139.769Z" fill="#FCDC8D" stroke="#EABC54" stroke-width="1.2196" stroke-linecap="round" stroke-linejoin="round"/>
<path d="M181.726 193.304C181.726 193.304 234.174 156.152 215.173 129.412C201.656 110.388 180.457 110.258 163.143 114.562C160.508 115.218 159.12 119.38 156.829 120.49C149.342 124.119 150.513 118.585 148.272 119.511C146.888 120.083 145.536 120.685 144.242 121.293C136.203 125.069 128.914 130.232 122.689 136.56C121.687 137.578 120.671 138.653 119.673 139.769C118.057 141.575 123.676 142.3 117.772 148.157C115.966 149.949 111.572 149.882 110.082 152.149C100.293 167.043 93.4122 187.063 106.929 206.087C125.93 232.827 178.378 195.676 178.378 195.676L181.726 193.304Z" stroke="#7C5125" stroke-width="3.6587" stroke-miterlimit="10"/>
<path d="M169.351 175.415L165.556 178.103C165.556 178.103 134.443 200.138 110.991 203.539C128.384 224.055 175.174 190.915 175.174 190.915L178.285 188.712C178.285 188.712 225.07 155.566 211.423 132.397C200.46 153.375 169.351 175.415 169.351 175.415Z" fill="#AA7139"/>
<path d="M42.8323 62.6685C42.5129 61.5844 42.6357 60.4407 43.178 59.4481C43.7203 58.4559 44.6171 57.7339 45.7034 57.4151L61.2509 52.8529C61.641 52.7386 62.043 52.6807 62.4467 52.6807C64.3136 52.6807 65.9849 53.9299 66.5119 55.719L69.4289 65.6302L45.75 72.5797L42.8323 62.6685Z" fill="#D8AD23"/>
<path d="M62.4471 54.3605C63.5517 54.3605 64.5704 55.0813 64.8977 56.1931L67.3406 64.4921L46.89 70.4936L44.4469 62.1947C44.049 60.8428 44.824 59.4247 46.178 59.0273L61.7254 54.4647C61.9659 54.3942 62.2086 54.3605 62.4471 54.3605ZM62.4473 51C61.8825 51 61.3204 51.0809 60.7764 51.2406L45.229 55.8032C42.0966 56.7225 40.2973 60.0148 41.218 63.1423L43.661 71.4413L44.61 74.6653L47.8389 73.7177L68.2897 67.7162L71.5188 66.7686L70.5697 63.5445L68.1267 55.2455C67.3908 52.7459 65.0554 51 62.4473 51Z" fill="#5B3F1D"/>
<path d="M48.2641 60.1656L46.5949 60.6554C46.1641 60.7818 45.9176 61.2329 46.0442 61.663L47.8002 67.6284C47.9268 68.0585 48.3786 68.3047 48.8094 68.1782L50.4786 67.6884C50.9093 67.562 51.1559 67.1109 51.0293 66.6808L49.2732 60.7154C49.1466 60.2853 48.6948 60.0391 48.2641 60.1656Z" fill="#A37236"/>
<path d="M62.2572 56.0591L60.588 56.549C60.1573 56.6754 59.9107 57.1265 60.0373 57.5566L61.7934 63.522C61.92 63.952 62.3718 64.1982 62.8025 64.0718L64.4717 63.582C64.9025 63.4555 65.149 63.0044 65.0224 62.5743L63.2664 56.6089C63.1398 56.1789 62.688 55.9327 62.2572 56.0591Z" fill="#63421E"/>
<path d="M72.366 199.763C68.4624 199.763 64.9609 197.13 63.8511 193.36L43.5997 124.563C43.0935 123.403 38.7226 112.262 50.0286 97.1463C52.8831 93.3297 51.8259 90.8388 51.7793 90.735L51.7491 90.6666L48.6985 80.3145C48.6196 80.3212 48.5402 80.325 48.4608 80.325C47.2255 80.325 46.1195 79.4974 45.7711 78.3133L44.8217 75.0902C44.6108 74.372 44.6919 73.615 45.0507 72.9587C45.4095 72.3019 46.0033 71.8238 46.722 71.6132L68.184 65.3151C68.4421 65.2396 68.7089 65.2007 68.9762 65.2007C70.2115 65.2007 71.3175 66.0283 71.6659 67.2124L72.6153 70.4355C72.997 71.734 72.3906 73.0915 71.237 73.7007L74.2849 84.0528L74.296 84.1447C74.3113 84.2403 74.772 86.9056 79.2409 88.5733C96.9402 95.1772 99.3022 106.908 99.5055 108.157L119.757 176.954C121.002 181.184 119.032 185.615 115.072 187.489L114.967 187.533C101.493 192.31 87.6019 196.387 73.6781 199.653L73.5006 199.688C73.1204 199.738 72.7411 199.763 72.366 199.763Z" fill="#394524"/>
<path d="M68.9766 66.321C69.704 66.321 70.3748 66.7956 70.5904 67.5278L71.5394 70.7518C71.8014 71.6421 71.291 72.576 70.3993 72.8377L69.8612 72.9956L73.183 84.2799C73.183 84.2799 73.5938 87.662 78.8484 89.6226C96.7446 96.3001 98.4082 108.401 98.4082 108.401L118.681 177.269C119.757 180.925 118.039 184.845 114.592 186.478C101.102 191.26 87.358 195.294 73.4225 198.563L73.3569 198.578C73.025 198.621 72.6942 198.642 72.3672 198.642C68.9656 198.642 65.9096 196.378 64.928 193.044L44.6552 124.175C44.6552 124.175 39.4966 113.1 50.9279 97.8162C54.2842 93.3286 52.797 90.2625 52.797 90.2625L49.4752 78.9782L48.937 79.1362C48.7786 79.1827 48.6189 79.2048 48.4618 79.2048C47.7343 79.2048 47.0635 78.7301 46.848 77.998L45.8989 74.774C45.6369 73.8837 46.1472 72.9498 47.0389 72.6881L68.5014 66.3898C68.6598 66.3433 68.8195 66.321 68.9766 66.321ZM68.9766 64.0806C68.6021 64.0806 68.229 64.1343 67.8684 64.2402L46.4061 70.5385C45.3997 70.8338 44.5689 71.5027 44.0665 72.4219C43.5641 73.3412 43.4503 74.4007 43.7461 75.4055L44.6951 78.6295C45.1244 80.0883 46.3752 81.16 47.8481 81.3961L50.6441 90.8941L50.7191 91.1488L50.762 91.2151C50.8691 91.5398 51.3659 93.486 49.1299 96.4756C37.6913 111.769 41.8579 123.308 42.5408 124.938L62.775 193.676C64.024 197.919 67.9685 200.883 72.3668 200.883C72.7919 200.883 73.2219 200.855 73.645 200.8L73.7585 200.785L73.8699 200.759L73.9355 200.744C87.8963 197.469 101.828 193.38 115.342 188.589L115.45 188.551L115.553 188.502C120.015 186.389 122.235 181.4 120.834 176.638L100.599 107.9C100.29 106.16 97.5412 94.2058 79.6337 87.5239C76.1069 86.208 75.487 84.2842 75.4084 83.9747L75.3969 83.745L75.3355 83.6481L72.5396 74.1501C73.6331 73.1722 74.1326 71.6176 73.6919 70.1202L72.7429 66.8961C72.2547 65.2384 70.7061 64.0806 68.9766 64.0806Z" fill="#2B3516"/>
<path d="M79.8804 196.668L79.8147 196.683C76.0308 197.173 72.4619 194.804 71.386 191.148L51.1132 122.28C51.1132 122.28 45.9545 111.205 57.386 95.9207C60.7423 91.4332 59.255 88.367 59.255 88.367L55.9332 77.0827L55.3951 77.2406C54.5033 77.5023 53.5681 76.9926 53.306 76.1024L52.3569 72.8783C52.0948 71.988 52.6052 71.0541 53.4968 70.7925L47.0387 72.6877C46.147 72.9493 45.6367 73.8833 45.8988 74.7735L46.8479 77.9976C47.11 78.8879 48.0451 79.3976 48.9369 79.1358L49.4751 78.9779L52.7969 90.2622C52.7969 90.2622 54.2841 93.3284 50.9278 97.8159C39.4964 113.1 44.6551 124.175 44.6551 124.175L64.9279 193.044C66.0039 196.699 69.5729 199.068 73.3566 198.578L73.4222 198.563C81.4686 196.676 89.4484 194.524 97.3549 192.13C91.5663 193.774 85.7415 195.293 79.8804 196.668Z" fill="#566624"/>
<path d="M61.2015 134.497L90.0981 126.017C92.2119 125.397 94.4292 126.605 95.0505 128.716L102.291 153.313C102.913 155.424 101.703 157.638 99.5887 158.258L70.7708 166.715C68.6676 167.332 66.461 166.143 65.8277 164.048C63.9568 157.857 60.274 145.628 58.4898 139.411C57.8856 137.306 59.0975 135.115 61.2015 134.497Z" fill="#BA9F7E"/>
<path d="M61.2015 134.497L90.0981 126.017C92.2119 125.397 94.4292 126.605 95.0505 128.716L102.291 153.313C102.913 155.424 101.703 157.638 99.5887 158.258L70.7708 166.715C68.6676 167.332 66.461 166.143 65.8277 164.048C63.9568 157.857 60.274 145.628 58.4898 139.411C57.8856 137.306 59.0975 135.115 61.2015 134.497Z" stroke="#8C7862" stroke-miterlimit="10"/>
<path d="M75.6027 160.043C74.5086 160.364 73.5622 160.385 72.7619 160.107C71.9617 159.829 71.2764 159.261 70.7059 158.406C70.1344 157.552 69.642 156.419 69.2269 155.009L66.3921 145.38C66.0278 144.142 65.8538 143.03 65.8696 142.048C65.8871 141.066 66.1534 140.23 66.6695 139.543C67.1841 138.856 68.0178 138.345 69.1685 138.007C70.0331 137.753 70.791 137.684 71.4406 137.798C72.0906 137.913 72.656 138.185 73.137 138.614C73.6182 139.045 74.0355 139.609 74.388 140.312C74.7405 141.014 75.0541 141.829 75.3273 142.758L78.1621 152.387C78.5772 153.797 78.782 155.014 78.7781 156.037C78.7731 157.062 78.5166 157.905 78.0069 158.568C77.4973 159.23 76.6953 159.722 75.6027 160.043ZM74.8794 157.586C75.3193 157.457 75.617 157.233 75.7709 156.913C75.9248 156.594 75.9598 156.136 75.8735 155.542C75.7859 154.948 75.6058 154.183 75.3298 153.246L72.4446 143.445C72.1088 142.304 71.7582 141.475 71.394 140.958C71.0285 140.441 70.5276 140.276 69.8913 140.463C69.2302 140.657 68.8649 141.07 68.7939 141.701C68.7229 142.333 68.8572 143.228 69.1974 144.384L72.0863 154.197C72.3647 155.143 72.6286 155.887 72.8769 156.429C73.1238 156.972 73.406 157.333 73.721 157.515C74.036 157.697 74.4216 157.72 74.8794 157.586Z" fill="#534741"/>
<path d="M83.1188 157.572L76.7871 136.062L79.6267 135.229L85.2568 154.355L89.308 153.166L90.0096 155.55L83.1188 157.572Z" fill="#534741"/>
<path d="M91.945 154.982L85.6133 133.472L88.4653 132.635L94.797 154.145L91.945 154.982Z" fill="#534741"/>
<path d="M108.028 188.407L108.092 188.385C111.539 186.752 113.257 182.832 112.181 179.177L91.908 110.308C91.908 110.308 90.2444 98.2073 72.3482 91.5299C67.0937 89.5693 66.6828 86.1872 66.6828 86.1872L63.361 74.9029L63.8992 74.745C64.791 74.4833 65.3013 73.5493 65.0392 72.6591L64.0901 69.435C63.828 68.5447 62.8928 68.035 62.001 68.2968L68.4591 66.4016C69.3509 66.14 70.2861 66.6496 70.5481 67.5398L71.4973 70.7639C71.7593 71.6542 71.249 72.5881 70.3573 72.8498L69.8192 73.0077L73.1409 84.292C73.1409 84.292 73.5519 87.674 78.8064 89.6347C96.7025 96.3121 98.3662 108.413 98.3662 108.413L118.639 177.282C119.715 180.937 117.998 184.857 114.55 186.49L114.486 186.512C106.697 189.272 98.8206 191.774 90.874 194.032C96.6331 192.288 102.354 190.418 108.028 188.407Z" fill="#3B4C1C"/>
<path d="M53.4804 70.7967L48.1518 72.3604C47.5427 72.5392 47.194 73.1771 47.373 73.7853L48.6228 78.031C48.8018 78.6392 49.4408 78.9873 50.0499 78.8086L55.3786 77.2448C55.9877 77.0661 56.3363 76.4281 56.1573 75.8199L54.9075 71.5742C54.7285 70.966 54.0896 70.6179 53.4804 70.7967Z" fill="#798E20"/>
<path d="M57.9991 116.173L51.8721 117.971C50.4508 118.388 48.9599 117.576 48.5422 116.157C46.5138 109.266 50.464 102.039 57.3651 100.013L59.8766 99.2764C61.2979 98.8593 62.7888 99.6716 63.2065 101.091L64.2691 104.701C59.3649 106.14 56.5577 111.276 57.9991 116.173Z" fill="#798E20"/>
<path d="M104.513 170.24L110.64 168.441C112.061 168.024 113.552 168.837 113.97 170.256C115.998 177.146 112.048 184.374 105.147 186.399L102.635 187.136C101.214 187.553 99.723 186.741 99.3053 185.322L98.2427 181.712C103.147 180.272 105.954 175.136 104.513 170.24Z" fill="#303D12"/>
<path d="M70.4739 72.8149L48.9468 79.1323L49.5795 81.2817L71.1066 74.9643L70.4739 72.8149Z" fill="#2B3516"/>
<path d="M112.122 270.16C74.5128 270.16 48.3184 268.444 34.2663 265.06C24.2417 262.645 19.7958 259.272 19.4014 253.783C19.2381 251.505 20.0007 249.369 21.369 247.746C17.3986 245.983 15.5777 243.605 15.2195 240.068C14.9818 237.698 15.7421 235.453 17.1587 233.753C14.2521 232.54 11.5975 230.411 11.0518 226.395C10.7417 224.111 11.3399 221.842 12.739 220.008C12.8562 219.854 12.9779 219.705 13.1038 219.561C10.4931 218.349 8.09703 216.27 7.55797 212.512C7.22925 210.218 7.81544 207.933 9.20792 206.077C9.80062 205.29 10.5072 204.619 11.3015 204.084L7.7058 192.115H8.12877L7.70916 190.716H213.119L212.698 192.115H213.119L209.51 204.12C212.515 206.175 214.016 209.989 212.964 213.668C212.123 216.601 210.272 218.373 207.658 219.55C208.029 219.975 208.361 220.44 208.648 220.941C209.797 222.94 210.097 225.267 209.493 227.492C208.704 230.407 206.989 232.274 203.519 233.636C203.748 233.903 203.962 234.185 204.16 234.482C205.425 236.381 205.874 238.658 205.424 240.894C204.796 244.004 203.002 246.138 199.414 247.757C199.512 247.874 199.608 247.995 199.7 248.118C201.055 249.923 201.623 252.147 201.302 254.379C200.54 259.679 196.259 262.805 186.527 265.172C172.915 268.482 147.882 270.16 112.122 270.16Z" fill="#875A1E"/>
<path d="M110.412 195.196H13.7368L30.5498 251.153C30.5498 251.153 34.7531 263.743 110.412 263.743C186.07 263.743 190.273 251.153 190.273 251.153L207.086 195.196H110.412Z" fill="#B97939"/>
<path d="M110.412 195.196H13.7368L30.5498 251.153C30.5498 251.153 34.7531 263.743 110.412 263.743C186.07 263.743 190.273 251.153 190.273 251.153L207.086 195.196H110.412Z" stroke="#875A1E" stroke-width="3.7466" stroke-linecap="round" stroke-linejoin="round"/>
<path d="M112.21 245.748C44.5598 245.748 29.8779 241.914 27.0117 240.776L29.7117 249.762C40.6218 252.018 63.5966 253.862 112.21 253.862C158.596 253.862 180.583 252.003 191.102 249.792L193.823 240.736C191.178 241.846 177.245 245.748 112.21 245.748Z" fill="#9E5E25"/>
<path d="M112.122 261.952C67.985 261.952 47.6849 259.577 38.4438 257.615C47.6864 261.114 67.6159 265.142 110.411 265.142C153.55 265.142 173.452 261.049 182.597 257.531C173.686 259.503 154.161 261.952 112.122 261.952Z" fill="#9E5E25"/>
<path d="M202.068 212.135C200.097 212.848 186.878 216.18 112.369 216.18C34.6499 216.18 20.8334 212.887 18.729 212.158C18.6077 212.064 18.4704 211.994 18.3394 211.915L21.1447 221.251C23.0486 221.552 25.3052 221.828 28.0263 222.103C44.2427 223.743 72.6187 224.573 112.369 224.573C150.186 224.573 177.311 223.741 192.989 222.102C195.664 221.823 197.851 221.538 199.681 221.24L202.492 211.884C202.35 211.967 202.2 212.036 202.068 212.135Z" fill="#9E5E25"/>
<path d="M112.295 230.253C41.8136 230.253 25.9502 227.292 22.6743 226.341L25.3776 235.338C26.998 235.584 28.8622 235.815 31.0143 236.044C46.6465 237.71 73.9934 238.553 112.295 238.553C161.94 238.553 184.8 237.104 195.467 235.268L198.157 226.313C195.079 227.25 179.931 230.253 112.295 230.253Z" fill="#9E5E25"/>
<path d="M202.758 210.999L207.086 196.595H13.7368L17.6062 209.473C24.4374 212.531 32.6365 212.712 41.9259 211.47C75.7079 206.953 93.5216 213.948 110.735 213.948C135.954 213.948 147.163 206.953 175.341 211.869C185.851 213.703 195.148 214.124 202.758 210.999Z" fill="#9E5E25"/>
<path d="M110.411 265.732C107.768 265.732 105.617 263.585 105.617 260.945V200.792C105.617 198.152 107.768 196.004 110.411 196.004C113.055 196.004 115.205 198.152 115.205 200.792V260.945C115.205 263.585 113.055 265.732 110.411 265.732ZM154.166 262.936C153.556 262.936 152.956 262.82 152.387 262.592C151.198 262.117 150.264 261.209 149.761 260.034C149.255 258.858 149.24 257.556 149.716 256.37C150.043 255.532 157.78 235.336 157.78 200.792C157.78 198.152 159.931 196.004 162.575 196.004C165.218 196.004 167.368 198.152 167.368 200.792C167.368 237.715 158.977 259.036 158.618 259.925C157.886 261.754 156.138 262.936 154.166 262.936ZM67.2987 262.935C65.3256 262.935 63.5792 261.753 62.8484 259.924C62.4912 259.036 54.1001 237.715 54.1001 200.792C54.1001 198.152 56.2497 196.004 58.8934 196.004C61.5371 196.004 63.6876 198.152 63.6876 200.792C63.6876 235.456 71.6755 256.173 71.7555 256.378C72.7295 258.828 71.5277 261.617 69.0747 262.592C68.5027 262.819 67.9045 262.935 67.2987 262.935Z" fill="#D89651"/>
<path d="M162.574 196.704C164.836 196.704 166.668 198.533 166.668 200.792C166.668 237.528 158.324 258.778 157.968 259.665C157.328 261.263 155.791 262.236 154.166 262.236C153.66 262.236 153.145 262.142 152.647 261.942C150.547 261.105 149.526 258.725 150.366 256.63C150.444 256.43 158.48 235.811 158.48 200.792C158.48 198.533 160.312 196.704 162.574 196.704ZM110.411 196.704C112.673 196.704 114.505 198.533 114.505 200.792V260.945C114.505 263.203 112.673 265.033 110.411 265.033C108.149 265.033 106.317 263.203 106.317 260.945V200.792C106.317 198.533 108.149 196.704 110.411 196.704ZM58.8938 196.704C61.1555 196.704 62.9875 198.533 62.9875 200.792C62.9875 235.811 71.0231 256.43 71.1039 256.634C71.9371 258.731 70.9136 261.108 68.8148 261.942C68.3167 262.14 67.8038 262.235 67.2988 262.235C65.6748 262.235 64.1381 261.263 63.4992 259.665C63.1435 258.778 54.7999 237.528 54.7999 200.792C54.7999 198.533 56.6322 196.704 58.8938 196.704ZM162.574 195.305C159.544 195.305 157.079 197.766 157.079 200.792C157.079 235.237 149.141 255.915 149.061 256.12C148.52 257.47 148.538 258.962 149.116 260.309C149.695 261.656 150.764 262.698 152.128 263.242C152.779 263.502 153.465 263.635 154.166 263.635C156.426 263.635 158.43 262.281 159.269 260.185C159.628 259.289 168.069 237.822 168.069 200.792C168.069 197.766 165.604 195.305 162.574 195.305ZM110.411 195.305C107.381 195.305 104.916 197.766 104.916 200.792V260.945C104.916 263.97 107.381 266.432 110.411 266.432C113.441 266.432 115.906 263.97 115.906 260.945V200.792C115.906 197.766 113.441 195.305 110.411 195.305ZM58.8938 195.305C55.8639 195.305 53.3989 197.766 53.3989 200.792C53.3989 237.83 61.8393 259.29 62.1988 260.185C63.0359 262.279 65.0382 263.634 67.2989 263.634C67.9954 263.634 68.68 263.502 69.3335 263.242C72.1444 262.124 73.5231 258.928 72.4064 256.118C72.3269 255.916 64.3886 235.377 64.3886 200.792C64.3886 197.766 61.9237 195.305 58.8938 195.305Z" fill="#875A1E"/>
<path d="M109.01 262.235C108.297 262.235 107.719 261.657 107.719 260.945V200.792C107.719 200.08 108.297 199.502 109.01 199.502C109.723 199.502 110.302 200.08 110.302 200.792V260.945C110.302 261.657 109.723 262.235 109.01 262.235ZM152.765 259.438C152.604 259.438 152.444 259.407 152.289 259.345C151.854 259.172 151.659 258.839 151.579 258.656C151.501 258.473 151.395 258.101 151.567 257.669C151.916 256.78 159.882 236.004 159.882 200.792C159.882 200.08 160.46 199.502 161.173 199.502C161.886 199.502 162.465 200.08 162.465 200.792C162.465 237.028 154.313 257.759 153.967 258.624C153.768 259.12 153.298 259.438 152.765 259.438ZM65.8983 259.437C65.3674 259.437 64.8982 259.12 64.7012 258.628C64.3536 257.759 56.2017 237.028 56.2017 200.792C56.2017 200.08 56.7804 199.502 57.4933 199.502C58.2061 199.502 58.7849 200.08 58.7849 200.792C58.7849 236.293 67.0149 257.455 67.0984 257.664C67.3625 258.328 67.0381 259.08 66.3774 259.343C66.2214 259.406 66.0599 259.437 65.8983 259.437Z" fill="#EDA861"/>
<path d="M112.369 220.376C72.6189 220.376 44.2429 219.546 28.0265 217.907C15.8041 216.672 12.5093 215.432 12.0003 211.876C11.6719 209.583 13.2687 207.457 15.5674 207.129C16.729 206.967 17.8605 207.292 18.7294 207.961C20.8337 208.691 34.6503 211.983 112.369 211.983C186.878 211.983 200.097 208.651 202.069 207.938C203.087 207.169 204.441 206.874 205.762 207.248C207.993 207.885 209.286 210.208 208.649 212.437C207.851 215.222 205.499 216.598 192.989 217.905C177.312 219.544 150.186 220.376 112.369 220.376ZM112.295 234.356C73.9935 234.356 46.6464 233.513 31.0142 231.847C19.3105 230.602 15.9751 229.299 15.4987 225.793C15.1903 223.521 16.7837 221.431 19.0591 221.123C20.2302 220.958 21.3623 221.311 22.2208 221.999C24.292 222.742 37.7294 226.056 112.295 226.056C183.779 226.056 196.635 222.701 198.575 221.977C199.573 221.192 200.918 220.874 202.236 221.23C204.453 221.829 205.762 224.108 205.162 226.32C204.294 229.521 202.982 234.356 112.295 234.356ZM112.21 249.666C20.6969 249.666 20.0391 243.129 19.6844 239.616C19.4605 237.386 21.089 235.397 23.3223 235.173C24.6309 235.036 25.8701 235.552 26.7072 236.45C28.7334 237.387 41.7123 241.551 112.21 241.551C179.78 241.551 192.189 237.339 194.086 236.422C195.016 235.442 196.418 234.945 197.84 235.232C200.042 235.674 201.466 237.814 201.024 240.01C200.392 243.144 199.078 249.666 112.21 249.666ZM193.062 238.379C193.061 238.381 193.061 238.383 193.061 238.386C193.061 238.384 193.061 238.381 193.062 238.379ZM112.122 265.679C24.7556 265.679 24.0945 256.483 23.8774 253.462C23.7216 251.281 25.3652 249.384 27.5517 249.227C29.045 249.111 30.4494 249.877 31.2037 251.083C33.0214 252.271 45.0534 257.755 112.122 257.755C176.454 257.755 188.076 252.018 189.593 251.036C190.409 249.774 191.916 249.026 193.496 249.257C195.666 249.569 197.172 251.576 196.86 253.742C196.435 256.695 195.144 265.679 112.122 265.679Z" fill="#875A1E"/>
<path d="M20.3206 210.68V210.681M20.3192 210.667V210.67M20.3178 210.656V210.662M200.568 210.121C200.568 210.124 200.566 210.128 200.565 210.13M200.57 210.111C200.57 210.113 200.569 210.115 200.569 210.118M200.573 210.1C200.573 210.103 200.573 210.106 200.572 210.107M200.577 210.089C200.577 210.091 200.576 210.094 200.576 210.096M200.58 210.08C200.58 210.081 200.579 210.083 200.579 210.084M23.7351 224.667V224.669M23.7337 224.655V224.658M23.7323 224.644V224.65M197.141 224.14C197.14 224.144 197.138 224.146 197.138 224.151M197.144 224.13C197.142 224.133 197.143 224.135 197.141 224.137M197.147 224.119C197.145 224.121 197.145 224.124 197.144 224.127M197.149 224.108C197.149 224.11 197.148 224.113 197.147 224.117M197.152 224.098C197.152 224.101 197.151 224.102 197.151 224.105M197.155 224.09C197.155 224.091 197.154 224.092 197.154 224.094M27.7711 238.795V238.796M27.7696 238.787V238.788M193.058 238.399C193.057 238.404 193.057 238.406 193.055 238.41M193.059 238.388C193.059 238.391 193.058 238.394 193.058 238.398M193.065 238.366C193.064 238.369 193.064 238.372 193.062 238.374M193.066 238.356C193.066 238.359 193.066 238.36 193.065 238.362M31.7923 252.887V252.888M31.7923 252.881V252.883M112.369 220.376C72.6189 220.376 44.2429 219.546 28.0265 217.907C15.8041 216.672 12.5093 215.432 12.0003 211.876C11.6719 209.583 13.2687 207.457 15.5674 207.129C16.729 206.967 17.8605 207.292 18.7294 207.961C20.8337 208.691 34.6503 211.983 112.369 211.983C186.878 211.983 200.097 208.651 202.069 207.938C203.087 207.169 204.441 206.874 205.762 207.248C207.993 207.885 209.286 210.208 208.649 212.437C207.851 215.222 205.499 216.598 192.989 217.905C177.312 219.544 150.186 220.376 112.369 220.376ZM112.295 234.356C73.9935 234.356 46.6464 233.513 31.0142 231.847C19.3105 230.602 15.9751 229.299 15.4987 225.793C15.1903 223.521 16.7837 221.431 19.0591 221.123C20.2302 220.958 21.3623 221.311 22.2208 221.999C24.292 222.742 37.7294 226.056 112.295 226.056C183.779 226.056 196.635 222.701 198.575 221.977C199.573 221.192 200.918 220.874 202.236 221.23C204.453 221.829 205.762 224.108 205.162 226.32C204.294 229.521 202.982 234.356 112.295 234.356ZM112.21 249.666C20.6969 249.666 20.0391 243.129 19.6844 239.616C19.4605 237.386 21.089 235.397 23.3223 235.173C24.6309 235.036 25.8701 235.552 26.7072 236.45C28.7334 237.387 41.7123 241.551 112.21 241.551C179.78 241.551 192.189 237.339 194.086 236.422C195.016 235.442 196.418 234.945 197.84 235.232C200.042 235.674 201.466 237.814 201.024 240.01C200.392 243.144 199.078 249.666 112.21 249.666ZM193.062 238.379C193.061 238.381 193.061 238.383 193.061 238.386C193.061 238.384 193.061 238.381 193.062 238.379ZM112.122 265.679C24.7556 265.679 24.0945 256.483 23.8774 253.462C23.7216 251.281 25.3652 249.384 27.5517 249.227C29.045 249.111 30.4494 249.877 31.2037 251.083C33.0214 252.271 45.0534 257.755 112.122 257.755C176.454 257.755 188.076 252.018 189.593 251.036C190.409 249.774 191.916 249.026 193.496 249.257C195.666 249.569 197.172 251.576 196.86 253.742C196.435 256.695 195.144 265.679 112.122 265.679Z" stroke="#875A1E" stroke-width="3.7466" stroke-linecap="round" stroke-linejoin="round"/>
<path d="M112.369 220.376C72.6189 220.376 44.2429 219.546 28.0265 217.907C15.8041 216.672 12.5093 215.432 12.0003 211.876C11.6719 209.583 13.2687 207.457 15.5674 207.129C16.729 206.967 17.8605 207.292 18.7294 207.961C20.8337 208.691 34.6503 211.983 112.369 211.983C186.878 211.983 200.097 208.651 202.069 207.938C203.087 207.169 204.441 206.874 205.762 207.248C207.993 207.885 209.286 210.208 208.649 212.437C207.851 215.222 205.499 216.598 192.989 217.905C177.312 219.544 150.186 220.376 112.369 220.376Z" fill="#EDA861"/>
<path d="M112.295 234.357C73.9934 234.357 46.6464 233.513 31.0142 231.848C19.3105 230.602 15.9751 229.3 15.4986 225.793C15.1902 223.521 16.7837 221.431 19.0591 221.123C20.2301 220.958 21.3623 221.312 22.2208 222C24.292 222.742 37.7293 226.057 112.295 226.057C183.779 226.057 196.635 222.702 198.575 221.978C199.573 221.193 200.918 220.875 202.236 221.23C204.453 221.829 205.762 224.108 205.162 226.32C204.294 229.522 202.982 234.357 112.295 234.357Z" fill="#EDA861"/>
<path d="M112.21 249.666C20.6966 249.666 20.0388 243.129 19.6842 239.616C19.4602 237.386 21.0887 235.397 23.3221 235.173C24.6306 235.036 25.8698 235.552 26.707 236.45C28.7331 237.387 41.712 241.551 112.21 241.551C179.78 241.551 192.189 237.339 194.085 236.422C195.016 235.442 196.418 234.945 197.84 235.232C200.042 235.674 201.466 237.813 201.023 240.01C200.392 243.144 199.078 249.666 112.21 249.666ZM193.062 238.379C193.061 238.381 193.061 238.383 193.061 238.386C193.061 238.384 193.061 238.381 193.062 238.379Z" fill="#EDA861"/>
<path d="M112.122 265.679C24.7556 265.679 24.0945 256.484 23.8774 253.462C23.7216 251.281 25.3652 249.384 27.5517 249.227C29.045 249.111 30.4494 249.877 31.2038 251.083C33.0214 252.271 45.0534 257.755 112.122 257.755C176.454 257.755 188.076 252.019 189.593 251.036C190.409 249.774 191.916 249.027 193.496 249.257C195.666 249.569 197.172 251.577 196.86 253.742C196.435 256.695 195.144 265.679 112.122 265.679Z" fill="#EDA861"/>
<path d="M112.369 220.376C72.6189 220.376 44.2429 219.546 28.0265 217.907C15.8041 216.672 12.5093 215.432 12.0003 211.876C11.6719 209.583 13.2687 207.457 15.5674 207.129C16.729 206.967 17.8605 207.292 18.7294 207.961C20.8337 208.691 34.6503 211.983 112.369 211.983C186.878 211.983 200.097 208.651 202.069 207.938C203.087 207.169 204.441 206.874 205.762 207.248C207.993 207.885 209.286 210.208 208.649 212.437C207.851 215.222 205.499 216.598 192.989 217.905C177.312 219.544 150.186 220.376 112.369 220.376ZM112.295 234.356C73.9935 234.356 46.6464 233.513 31.0142 231.847C19.3105 230.602 15.9751 229.299 15.4987 225.793C15.1903 223.521 16.7837 221.431 19.0591 221.123C20.2302 220.958 21.3623 221.311 22.2208 221.999C24.292 222.742 37.7294 226.056 112.295 226.056C183.779 226.056 196.635 222.701 198.575 221.977C199.573 221.192 200.918 220.874 202.236 221.23C204.453 221.829 205.762 224.108 205.162 226.32C204.294 229.521 202.982 234.356 112.295 234.356ZM112.21 249.666C20.6969 249.666 20.0391 243.129 19.6844 239.616C19.4605 237.386 21.089 235.397 23.3223 235.173C24.6309 235.036 25.8701 235.552 26.7072 236.45C28.7334 237.387 41.7123 241.551 112.21 241.551C179.78 241.551 192.189 237.339 194.086 236.422C195.016 235.442 196.418 234.945 197.84 235.232C200.042 235.674 201.466 237.814 201.024 240.01C200.392 243.144 199.078 249.666 112.21 249.666ZM193.062 238.379C193.061 238.381 193.061 238.383 193.061 238.386C193.061 238.384 193.061 238.381 193.062 238.379ZM112.122 265.679C24.7556 265.679 24.0945 256.483 23.8774 253.462C23.7216 251.281 25.3652 249.384 27.5517 249.227C29.045 249.111 30.4494 249.877 31.2037 251.083C33.0214 252.271 45.0534 257.755 112.122 257.755C176.454 257.755 188.076 252.018 189.593 251.036C190.409 249.774 191.916 249.026 193.496 249.257C195.666 249.569 197.172 251.576 196.86 253.742C196.435 256.695 195.144 265.679 112.122 265.679Z" fill="#EDA861"/>
<path d="M112.122 261.482C31.4513 261.482 26.7868 253.47 26.672 251.863C26.6269 251.224 27.1112 250.664 27.7529 250.619H27.7666C28.24 250.619 28.619 250.833 28.827 251.165L29.1526 251.688L29.6685 252.024C32.9482 254.169 47.5474 259.154 112.122 259.154C175.154 259.154 188.523 253.666 191.119 251.985L191.622 251.658L191.948 251.154C192.163 250.822 192.538 250.616 192.925 250.616C192.98 250.616 193.036 250.619 193.09 250.627C193.515 250.688 193.758 250.938 193.866 251.082C193.974 251.227 194.147 251.53 194.087 251.944C193.765 254.183 186.904 261.482 112.122 261.482ZM112.209 245.47C34.7925 245.47 22.7561 240.75 22.4728 237.937C22.4031 237.245 22.9094 236.628 23.6031 236.558H23.6386C24.0984 236.558 24.4212 236.704 24.6553 236.957L25.0302 237.359L25.5297 237.59C28.2483 238.848 42.5356 242.95 112.209 242.95C165.239 242.95 184.809 240.335 191.925 238.624C193.242 238.308 194.521 237.863 195.763 237.322L196.12 236.948C196.36 236.695 196.694 236.55 197.036 236.55C197.119 236.55 197.202 236.558 197.287 236.575C197.97 236.713 198.413 237.379 198.276 238.061C197.827 240.288 188.544 245.47 112.209 245.47ZM112.295 230.159C74.079 230.159 46.8316 229.321 31.3117 227.666C20.7161 226.539 18.4681 225.435 18.2751 224.019C18.1752 223.28 18.6965 222.597 19.4367 222.495C19.512 222.486 19.5721 222.482 19.631 222.482C19.928 222.482 20.2248 222.588 20.467 222.782L20.8338 223.076L21.2757 223.235C24.0409 224.225 38.7783 227.456 112.295 227.456C182.688 227.456 196.882 224.198 199.555 223.199L199.964 223.046L200.308 222.777C200.549 222.588 200.847 222.484 201.151 222.484C201.27 222.484 201.391 222.499 201.511 222.532C201.976 222.658 202.221 222.982 202.326 223.164C202.43 223.344 202.586 223.72 202.457 224.189C201.719 226.914 185.476 230.159 112.295 230.159ZM112.369 216.18C72.7092 216.18 44.4277 215.353 28.3084 213.724C17.2652 212.609 14.9831 211.543 14.7737 210.081C14.7026 209.583 14.9106 209.218 15.0405 209.046C15.1705 208.872 15.4633 208.572 15.964 208.5C16.0243 208.491 16.0926 208.487 16.1597 208.487C16.4689 208.487 16.7741 208.59 17.0176 208.777L17.3788 209.056L17.8099 209.206C20.6367 210.185 35.8078 213.382 112.369 213.382C185.678 213.382 200.291 210.158 203.024 209.17L203.422 209.026L203.76 208.77C204.002 208.587 204.303 208.486 204.605 208.486C204.735 208.486 204.867 208.504 204.997 208.541C205.477 208.679 205.726 209.016 205.831 209.206C205.937 209.394 206.093 209.785 205.954 210.269C205.659 211.301 204.366 212.504 192.698 213.724C177.112 215.353 150.085 216.18 112.369 216.18Z" fill="#FFC794"/>
<path d="M40.8485 205.308C28.3605 206.952 15.0055 206.112 7.0542 199.393C9.6103 193.805 5.42867 178.409 16.2404 179.13C21.8836 179.506 21.0022 180.258 22.6622 179.146C27.3574 176.001 34.5557 180.031 37.4442 179.34C48.5476 176.685 51.1678 180.753 55.4708 179.316C64.0109 176.465 67.1389 179.881 70.9343 179.097C83.3193 176.539 85.5733 180.48 90.2425 179.171C96.1355 177.519 103.825 178.107 109.467 180.641L111.286 180.645C116.917 178.141 124.604 177.592 130.504 179.275C135.179 180.608 137.416 176.679 149.813 179.3C153.611 180.103 156.724 176.704 165.277 179.599C169.587 181.058 172.189 177.003 183.304 179.716C186.196 180.422 193.376 176.429 198.085 179.598C199.75 180.719 198.875 179.507 204.507 179.615C214.628 179.808 211.188 195.19 213.769 200.791C205.094 208.106 190.386 208.116 176.363 205.707C147.742 200.792 136.357 207.786 110.74 207.786C93.2559 207.786 75.162 200.792 40.8485 205.308Z" fill="#DDD3C7"/>
<path d="M40.8485 205.308C28.3605 206.952 15.0055 206.112 7.0542 199.393C9.6103 193.805 5.42867 178.409 16.2404 179.13C21.8836 179.506 21.0022 180.258 22.6622 179.146C27.3574 176.001 34.5557 180.031 37.4442 179.34C48.5476 176.685 51.1678 180.753 55.4708 179.316C64.0109 176.465 67.1389 179.881 70.9343 179.097C83.3193 176.539 85.5733 180.48 90.2425 179.171C96.1355 177.519 103.825 178.107 109.467 180.641L111.286 180.645C116.917 178.141 124.604 177.592 130.504 179.275C135.179 180.608 137.416 176.679 149.813 179.3C153.611 180.103 156.724 176.704 165.277 179.599C169.587 181.058 172.189 177.003 183.304 179.716C186.196 180.422 193.376 176.429 198.085 179.598C199.75 180.719 198.875 179.507 204.507 179.615C214.628 179.808 211.188 195.19 213.769 200.791C205.094 208.106 190.386 208.116 176.363 205.707C147.742 200.792 136.357 207.786 110.74 207.786C93.2559 207.786 75.162 200.792 40.8485 205.308Z" stroke="#9E9080" stroke-width="4" stroke-linecap="round" stroke-linejoin="round"/>
<path d="M16.2402 186.691C21.8834 187.067 21.0021 187.819 22.662 186.708C27.3572 183.562 34.5556 187.592 37.4441 186.901C48.5475 184.246 51.1677 188.314 55.4707 186.877C64.0108 184.026 67.1388 187.442 70.9341 186.658C83.3192 184.1 85.5732 188.041 90.2424 186.732C96.1354 185.08 103.825 185.668 109.467 188.202L111.286 188.206C116.916 185.702 124.604 185.153 130.504 186.836C135.179 188.169 137.416 184.24 149.812 186.861C153.611 187.664 156.724 184.265 165.277 187.16C169.586 188.619 172.189 184.564 183.304 187.277C186.196 187.983 193.376 183.99 198.085 187.159C199.75 188.28 198.875 187.069 204.507 187.176" stroke="white" stroke-width="2.4977" stroke-linecap="round" stroke-linejoin="round"/>
<defs>
<radialGradient id="paint0_radial_8059_5414" cx="0" cy="0" r="1" gradientUnits="userSpaceOnUse" gradientTransform="translate(111.329 143.5) rotate(90) scale(87.5)">
<stop stop-color="#FFE100"/>
<stop offset="1" stop-color="#FFCC00" stop-opacity="0"/>
</radialGradient>
</defs>
</svg>
