<svg width="222" height="269" viewBox="0 0 222 269" fill="none" xmlns="http://www.w3.org/2000/svg">
<circle cx="111.329" cy="163.5" r="84.5" fill="url(#paint0_radial_8059_5353)"/>
<path d="M174.41 57L179.565 66.4261L188.991 71.5814L179.565 76.7367L174.41 86.1628L169.255 76.7367L159.829 71.5814L169.255 66.4261L174.41 57Z" fill="#D1E795"/>
<path d="M83.4333 36L87.1826 42.8553L94.0379 46.6047L87.1826 50.354L83.4333 57.2093L79.684 50.354L72.8286 46.6047L79.684 42.8553L83.4333 36Z" fill="#FFDA88"/>
<path d="M135.782 20L138.594 25.1415L143.736 27.9535L138.594 30.7655L135.782 35.907L132.97 30.7655L127.829 27.9535L132.97 25.1415L135.782 20Z" fill="#B8E5E6"/>
<path d="M109.782 118L112.594 122.57L117.736 125.07L112.594 127.569L109.782 132.14L106.97 127.569L101.829 125.07L106.97 122.57L109.782 118Z" fill="white"/>
<circle cx="65.0147" cy="105.186" r="6.18605" fill="#D1E795"/>
<circle cx="104.015" cy="6.18605" r="6.18605" fill="#D1E795"/>
<circle cx="48.2472" cy="76.4186" r="4.4186" fill="#B8E5E6"/>
<path d="M128.47 87.3007L130.054 69.6062L110.093 74.8192C109.844 76.2638 109.62 77.7204 109.46 79.1787C108.822 85.0171 109.207 91.9423 108.225 97.546C107.589 101.178 106.073 102.593 102.46 103.08C98.7251 103.583 94.0992 102.035 94.1462 97.6196C94.2063 91.9666 100.999 92.6692 104.666 94.2739C105.052 94.4425 106.435 95.494 106.68 95.145C106.98 92.8404 107.252 90.5285 107.452 88.2127C107.856 83.545 107.737 70.135 109.441 66.7285C109.841 65.9301 110.343 65.1011 111.208 64.7445C115.876 63.4716 120.611 62.4139 125.274 61.1242C126.565 60.767 129.842 59.3572 130.989 59.6319C132.624 60.0234 132.231 62.9325 132.17 64.2952C131.909 70.0981 131.061 76.1709 130.576 81.9924C130.291 85.4086 130.768 90.709 128.525 93.3918C125.082 97.5098 113.604 94.0241 115.994 88.5509C118.181 83.5424 124.71 84.9526 128.47 87.3007Z" fill="#FFB9C4"/>
<path d="M42.3598 201.475C42.3598 201.475 94.5203 239.028 113.726 212.434C127.389 193.515 120.663 173.442 110.988 158.473C109.516 156.195 105.122 156.228 103.329 154.422C97.4709 148.52 103.095 147.839 101.493 146.02C95.4467 139.157 90.3742 134.99 90.3742 134.99L87.0448 132.593C87.0448 132.593 81.4828 129.104 73.051 125.543C70.817 124.6 71.9456 130.143 64.4866 126.457C62.2041 125.329 60.8479 121.156 58.2181 120.481C40.9381 116.044 19.7387 116.012 6.0756 134.931C-13.1302 161.525 39.0304 199.078 39.0304 199.078L42.3598 201.475Z" fill="#C58948"/>
<path d="M42.3598 201.475C42.3598 201.475 94.5203 239.028 113.726 212.434C127.389 193.515 120.663 173.442 110.988 158.473C109.516 156.195 105.122 156.228 103.329 154.422C97.4709 148.52 103.095 147.839 101.493 146.02C95.4467 139.157 90.3742 134.99 90.3742 134.99L87.0448 132.593C87.0448 132.593 81.4828 129.104 73.051 125.543C70.817 124.6 71.9456 130.143 64.4866 126.457C62.2041 125.329 60.8479 121.156 58.2181 120.481C40.9381 116.044 19.7387 116.012 6.0756 134.931C-13.1302 161.525 39.0304 199.078 39.0304 199.078L42.3598 201.475Z" stroke="#7C5125" stroke-width="3.6587" stroke-miterlimit="10"/>
<path d="M52.9734 129.461C55.4239 130.251 56.9952 133.939 59.1655 135.089C66.2585 138.848 64.7848 134.003 66.8964 134.991C74.8657 138.72 80.2141 142.159 80.2141 142.159L83.4405 144.482C83.4405 144.482 88.3975 148.463 94.4585 154.835C96.0644 156.523 90.9944 156.657 96.8071 162.189C98.5857 163.882 102.587 164.206 104.111 166.278C112.992 178.346 120.073 193.669 113.956 207.535C115.088 206.663 116.119 205.617 117.024 204.364C127.953 189.229 120.212 171.472 110.193 157.857C108.668 155.785 104.667 155.461 102.889 153.768C97.076 148.236 102.146 148.102 100.54 146.413C94.4791 140.042 89.5221 136.061 89.5221 136.061L86.2957 133.738C86.2957 133.738 80.9472 130.299 72.978 126.57C70.8664 125.582 72.3401 130.427 65.2471 126.668C63.0769 125.518 61.5055 121.83 59.055 121.04C42.9525 115.849 23.6326 114.123 12.7026 129.258C11.7977 130.511 11.1291 131.818 10.6577 133.165C21.9029 122.991 38.6999 124.86 52.9734 129.461Z" fill="#DB9B4F"/>
<path d="M110.711 158.114C109.028 156.196 105.021 156.127 103.329 154.423C97.4704 148.521 103.094 147.839 101.493 146.02C101.433 145.952 101.375 145.889 101.315 145.821C84.8147 176.516 75.832 185.153 75.832 185.153C75.832 185.153 97.622 177.92 110.711 158.114Z" fill="#FCDC8D" stroke="#EABC54" stroke-width="1.2196" stroke-linecap="round" stroke-linejoin="round"/>
<path d="M73.0506 125.543C70.8165 124.6 71.945 130.143 64.4859 126.457C62.2727 125.363 60.9269 121.417 58.4501 120.562C43.7998 139.208 43.8081 162.097 43.8081 162.097C43.8081 162.097 49.1741 150.869 73.1041 125.566C73.0858 125.559 73.0688 125.551 73.0506 125.543Z" fill="#FCDC8D" stroke="#EABC54" stroke-width="1.2196" stroke-linecap="round" stroke-linejoin="round"/>
<path d="M42.3598 201.475C42.3598 201.475 94.5203 239.028 113.726 212.434C127.389 193.515 120.663 173.442 110.988 158.473C109.516 156.195 105.122 156.228 103.329 154.422C97.4709 148.52 103.095 147.839 101.493 146.02C100.504 144.897 99.4958 143.814 98.502 142.788C92.3255 136.412 85.0766 131.194 77.067 127.356C75.7781 126.739 74.4307 126.126 73.051 125.543C70.817 124.6 71.9456 130.143 64.4866 126.457C62.2041 125.329 60.8479 121.156 58.2181 120.481C40.9381 116.044 19.7387 116.012 6.0756 134.931C-13.1302 161.525 39.0304 199.078 39.0304 199.078L42.3598 201.475Z" stroke="#7C5125" stroke-width="3.6587" stroke-miterlimit="10"/>
<path d="M55.3162 184.002L51.5424 181.285C51.5424 181.285 20.6038 159.006 9.80254 137.945C-4.02254 161.009 42.5067 194.513 42.5067 194.513L45.5998 196.74C45.5998 196.74 92.1338 230.237 109.685 209.855C86.2587 206.275 55.3162 184.002 55.3162 184.002Z" fill="#AA7139"/>
<path d="M181.726 191.746C181.726 191.746 234.174 154.594 215.173 127.853C201.656 108.83 180.457 108.699 163.143 113.004C160.508 113.659 159.12 117.821 156.829 118.932C149.342 122.56 150.513 117.026 148.272 117.952C139.813 121.448 134.224 124.894 134.224 124.894L130.877 127.266C130.877 127.266 125.772 131.394 119.673 138.21C118.057 140.016 123.676 140.741 117.772 146.598C115.965 148.39 111.572 148.323 110.082 150.59C100.293 165.484 93.4122 185.505 106.929 204.528C125.93 231.269 178.378 194.117 178.378 194.117L181.726 191.746Z" fill="#C58948"/>
<path d="M181.726 191.746C181.726 191.746 234.174 154.594 215.173 127.853C201.656 108.83 180.457 108.699 163.143 113.004C160.508 113.659 159.12 117.821 156.829 118.932C149.342 122.56 150.513 117.026 148.272 117.952C139.813 121.448 134.224 124.894 134.224 124.894L130.877 127.266C130.877 127.266 125.772 131.394 119.673 138.21C118.057 140.016 123.676 140.741 117.772 146.598C115.965 148.39 111.572 148.323 110.082 150.59C100.293 165.484 93.4122 185.505 106.929 204.528C125.93 231.269 178.378 194.117 178.378 194.117L181.726 191.746Z" stroke="#7C5125" stroke-width="3.6587" stroke-miterlimit="10"/>
<path d="M116.899 158.447C118.44 156.387 122.443 156.094 124.235 154.415C130.09 148.927 125.021 148.754 126.64 147.078C132.749 140.753 137.737 136.81 137.737 136.81L140.981 134.512C140.981 134.512 146.356 131.115 154.354 127.447C156.473 126.475 154.962 131.309 162.084 127.604C164.263 126.47 165.862 122.794 168.319 122.023C182.627 117.532 199.438 115.792 210.605 126.052C210.144 124.701 209.485 123.389 208.59 122.129C197.777 106.911 178.444 108.488 162.302 113.556C159.846 114.327 158.246 118.003 156.067 119.137C148.945 122.841 150.456 118.007 148.337 118.979C140.339 122.647 134.965 126.045 134.965 126.045L131.72 128.343C131.72 128.343 126.733 132.286 120.623 138.611C119.004 140.287 124.073 140.46 118.218 145.947C116.426 147.626 112.423 147.919 110.882 149.979C100.759 163.517 92.881 181.215 103.694 196.433C104.589 197.693 105.612 198.747 106.737 199.628C100.727 185.715 107.926 170.447 116.899 158.447Z" fill="#DB9B4F"/>
<path d="M162.713 113.149C160.351 114.12 158.992 117.884 156.829 118.932C149.342 122.56 150.513 117.026 148.272 117.952C148.188 117.986 148.109 118.021 148.026 118.055C171.787 143.564 177.071 154.843 177.071 154.843C177.071 154.843 177.256 131.917 162.713 113.149Z" fill="#FCDC8D" stroke="#EABC54" stroke-width="1.2196" stroke-linecap="round" stroke-linejoin="round"/>
<path d="M119.673 138.21C118.057 140.016 123.676 140.741 117.772 146.598C116.02 148.336 111.845 148.332 110.234 150.396C123.174 170.264 144.871 177.652 144.871 177.652C144.871 177.652 135.962 168.954 119.713 138.167C119.699 138.182 119.687 138.195 119.673 138.21Z" fill="#FCDC8D" stroke="#EABC54" stroke-width="1.2196" stroke-linecap="round" stroke-linejoin="round"/>
<path d="M181.726 191.746C181.726 191.746 234.174 154.594 215.173 127.853C201.656 108.83 180.457 108.699 163.143 113.004C160.508 113.659 159.12 117.821 156.829 118.932C149.342 122.56 150.513 117.026 148.272 117.952C146.888 118.524 145.536 119.127 144.242 119.734C136.203 123.51 128.914 128.673 122.689 135.001C121.687 136.02 120.671 137.095 119.673 138.21C118.057 140.016 123.676 140.741 117.772 146.598C115.965 148.39 111.572 148.323 110.082 150.59C100.293 165.484 93.4122 185.505 106.929 204.528C125.93 231.269 178.378 194.117 178.378 194.117L181.726 191.746Z" stroke="#7C5125" stroke-width="3.6587" stroke-miterlimit="10"/>
<path d="M169.351 173.857L165.556 176.545C165.556 176.545 134.443 198.58 110.991 201.98C128.384 222.496 175.174 189.357 175.174 189.357L178.285 187.154C178.285 187.154 225.07 154.008 211.423 130.838C200.46 151.816 169.351 173.857 169.351 173.857Z" fill="#AA7139"/>
<path d="M112.122 268.601C74.5129 268.601 48.3184 266.885 34.2663 263.502C24.2417 261.086 19.7958 257.714 19.4014 252.225C19.2381 249.946 20.0007 247.811 21.369 246.187C17.3986 244.424 15.5778 242.046 15.2196 238.509C14.9818 236.139 15.7421 233.894 17.1587 232.194C14.2521 230.981 11.5976 228.852 11.0519 224.837C10.7418 222.553 11.34 220.284 12.7391 218.45C12.8563 218.295 12.9779 218.147 13.1039 218.002C10.4932 216.79 8.09703 214.712 7.55797 210.953C7.22925 208.659 7.81544 206.374 9.20792 204.519C9.80062 203.731 10.5073 203.061 11.3016 202.526L7.70584 190.556H8.1288L7.70923 189.157H213.119L212.698 190.556H213.119L209.51 202.562C212.515 204.616 214.016 208.431 212.963 212.109C212.123 215.042 210.272 216.814 207.657 217.991C208.029 218.417 208.361 218.882 208.648 219.383C209.797 221.381 210.097 223.708 209.493 225.933C208.704 228.848 206.989 230.715 203.519 232.077C203.748 232.344 203.962 232.627 204.16 232.923C205.425 234.822 205.874 237.1 205.424 239.335C204.796 242.445 203.002 244.58 199.414 246.199C199.512 246.316 199.608 246.436 199.7 246.56C201.054 248.365 201.623 250.589 201.302 252.82C200.539 258.12 196.259 261.246 186.527 263.614C172.915 266.924 147.882 268.601 112.122 268.601Z" fill="#875A1E"/>
<path d="M110.412 193.638H13.7368L30.5498 249.594C30.5498 249.594 34.7531 262.185 110.412 262.185C186.07 262.185 190.273 249.594 190.273 249.594L207.086 193.638H110.412Z" fill="#B97939"/>
<path d="M110.412 193.638H13.7368L30.5498 249.594C30.5498 249.594 34.7531 262.185 110.412 262.185C186.07 262.185 190.273 249.594 190.273 249.594L207.086 193.638H110.412Z" stroke="#875A1E" stroke-width="3.7466" stroke-linecap="round" stroke-linejoin="round"/>
<path d="M112.209 244.19C44.5593 244.19 29.8774 240.356 27.0112 239.218L29.7112 248.203C40.6213 250.459 63.5961 252.304 112.209 252.304C158.595 252.304 180.583 250.444 191.102 248.234L193.823 239.178C191.178 240.287 177.245 244.19 112.209 244.19Z" fill="#9E5E25"/>
<path d="M112.122 260.393C67.985 260.393 47.6849 258.019 38.4438 256.056C47.6864 259.556 67.6159 263.584 110.411 263.584C153.55 263.584 173.452 259.491 182.597 255.972C173.686 257.944 154.161 260.393 112.122 260.393Z" fill="#9E5E25"/>
<path d="M202.068 210.576C200.097 211.289 186.878 214.621 112.369 214.621C34.6499 214.621 20.8333 211.329 18.729 210.599C18.6076 210.506 18.4704 210.436 18.3394 210.356L21.1446 219.692C23.0486 219.993 25.3051 220.27 28.0262 220.545C44.2426 222.184 72.6187 223.015 112.369 223.015C150.186 223.015 177.311 222.183 192.989 220.543C195.664 220.264 197.851 219.98 199.681 219.681L202.492 210.326C202.35 210.409 202.2 210.477 202.068 210.576Z" fill="#9E5E25"/>
<path d="M112.295 228.695C41.8136 228.695 25.9502 225.734 22.6743 224.782L25.3776 233.78C26.998 234.025 28.8622 234.257 31.0143 234.486C46.6465 236.151 73.9934 236.995 112.295 236.995C161.94 236.995 184.8 235.546 195.467 233.709L198.157 224.755C195.079 225.692 179.931 228.695 112.295 228.695Z" fill="#9E5E25"/>
<path d="M202.758 209.44L207.086 195.036H13.7368L17.6062 207.914C24.4373 210.973 32.6365 211.153 41.926 209.911C75.7079 205.395 93.5216 212.389 110.735 212.389C135.954 212.389 147.163 205.395 175.341 210.31C185.851 212.144 195.148 212.566 202.758 209.44Z" fill="#9E5E25"/>
<path d="M110.412 264.174C107.768 264.174 105.617 262.026 105.617 259.387V199.233C105.617 196.594 107.768 194.446 110.412 194.446C113.055 194.446 115.206 196.594 115.206 199.233V259.387C115.206 262.026 113.055 264.174 110.412 264.174ZM154.166 261.377C153.555 261.377 152.956 261.261 152.387 261.033C151.198 260.559 150.265 259.65 149.761 258.475C149.256 257.3 149.241 255.998 149.717 254.811C149.795 254.61 157.781 233.918 157.781 199.233C157.781 196.594 159.931 194.446 162.575 194.446C165.218 194.446 167.368 196.594 167.368 199.233C167.368 236.156 158.977 257.477 158.619 258.367C157.887 260.195 156.139 261.377 154.166 261.377ZM67.2991 261.376C65.3271 261.376 63.5802 260.194 62.8489 258.366C62.4922 257.475 54.1001 236.123 54.1001 199.233C54.1001 196.594 56.2507 194.446 58.8943 194.446C61.5379 194.446 63.6886 196.594 63.6886 199.233C63.6886 234.086 71.6749 254.613 71.7554 254.817C72.73 257.269 71.5275 260.058 69.0745 261.034C68.5037 261.26 67.9061 261.376 67.2991 261.376Z" fill="#D89651"/>
<path d="M162.574 195.146C164.836 195.146 166.668 196.975 166.668 199.233C166.668 235.97 158.324 257.22 157.969 258.106C157.328 259.705 155.792 260.678 154.166 260.678C153.66 260.678 153.146 260.583 152.648 260.384C150.547 259.546 149.527 257.167 150.367 255.071C150.445 254.871 158.48 234.252 158.48 199.233C158.48 196.975 160.313 195.146 162.574 195.146ZM110.411 195.146C112.673 195.146 114.505 196.975 114.505 199.233V259.387C114.505 261.645 112.673 263.474 110.411 263.474C108.15 263.474 106.318 261.645 106.318 259.387V199.233C106.318 196.975 108.15 195.146 110.411 195.146ZM58.8943 195.146C61.156 195.146 62.988 196.975 62.988 199.233C62.988 234.252 71.0238 254.871 71.1044 255.075C71.9376 257.172 70.9143 259.549 68.8155 260.384C68.3173 260.582 67.8043 260.676 67.2994 260.676C65.6753 260.676 64.1387 259.705 63.4998 258.106C63.1441 257.22 54.8005 235.97 54.8005 199.233C54.8005 196.975 56.6327 195.146 58.8943 195.146ZM162.574 193.747C159.544 193.747 157.08 196.208 157.08 199.233C157.08 233.66 149.142 254.357 149.062 254.562C148.521 255.912 148.539 257.403 149.117 258.75C149.695 260.098 150.765 261.139 152.128 261.683C152.779 261.944 153.466 262.076 154.167 262.076C156.427 262.076 158.43 260.722 159.27 258.626C159.629 257.731 168.069 236.268 168.069 199.233C168.069 196.208 165.604 193.747 162.574 193.747ZM110.411 193.747C107.382 193.747 104.917 196.208 104.917 199.233V259.387C104.917 262.412 107.381 264.873 110.411 264.873C113.441 264.873 115.906 262.412 115.906 259.387V199.233C115.906 196.208 113.441 193.747 110.411 193.747ZM58.8943 193.747C55.8644 193.747 53.3994 196.208 53.3994 199.233C53.3994 236.267 61.8398 257.731 62.1993 258.627C63.0365 260.721 65.0386 262.075 67.2994 262.075C67.9959 262.075 68.6805 261.943 69.334 261.683C72.1451 260.565 73.5235 257.369 72.4068 254.559C72.3274 254.358 64.3892 233.813 64.3892 199.233C64.3892 196.208 61.9243 193.747 58.8943 193.747Z" fill="#875A1E"/>
<path d="M109.01 260.676C108.297 260.676 107.719 260.098 107.719 259.387V199.233C107.719 198.521 108.297 197.943 109.01 197.943C109.723 197.943 110.302 198.521 110.302 199.233V259.387C110.302 260.098 109.723 260.676 109.01 260.676ZM152.765 257.88C152.604 257.88 152.444 257.848 152.289 257.787C151.854 257.613 151.659 257.28 151.579 257.097C151.501 256.914 151.394 256.542 151.567 256.111C151.916 255.221 159.882 234.445 159.882 199.233C159.882 198.521 160.46 197.943 161.173 197.943C161.886 197.943 162.465 198.521 162.465 199.233C162.465 235.47 154.313 256.201 153.967 257.065C153.768 257.561 153.298 257.88 152.765 257.88ZM65.8983 257.878C65.3674 257.878 64.8981 257.561 64.7011 257.07C64.3536 256.201 56.2017 235.47 56.2017 199.233C56.2017 198.521 56.7804 197.943 57.4933 197.943C58.2061 197.943 58.7849 198.521 58.7849 199.233C58.7849 234.735 67.0149 255.896 67.0984 256.105C67.3625 256.769 67.0381 257.522 66.3774 257.784C66.2214 257.847 66.0599 257.878 65.8983 257.878Z" fill="#EDA861"/>
<path d="M112.369 218.818C72.6189 218.818 44.2429 217.987 28.0265 216.348C15.8041 215.113 12.5093 213.874 12.0003 210.318C11.6719 208.024 13.2687 205.898 15.5674 205.571C16.729 205.408 17.8605 205.733 18.7294 206.402C20.8337 207.132 34.6502 210.424 112.369 210.424C186.878 210.424 200.097 207.092 202.069 206.379C203.087 205.61 204.441 205.315 205.762 205.689C207.993 206.326 209.286 208.65 208.649 210.878C207.851 213.664 205.499 215.039 192.989 216.347C177.312 217.986 150.186 218.818 112.369 218.818ZM112.295 232.798C73.9935 232.798 46.6465 231.954 31.0142 230.289C19.3105 229.043 15.9752 227.741 15.4987 224.234C15.1903 221.962 16.7837 219.872 19.0591 219.564C20.2301 219.399 21.3623 219.753 22.2208 220.441C24.292 221.183 37.7294 224.498 112.295 224.498C183.779 224.498 196.635 221.143 198.575 220.419C199.573 219.634 200.918 219.316 202.236 219.671C204.453 220.27 205.762 222.549 205.162 224.761C204.294 227.963 202.982 232.798 112.295 232.798ZM112.21 248.107C20.6968 248.107 20.0391 241.57 19.6844 238.057C19.4605 235.827 21.089 233.839 23.3224 233.614C24.6309 233.478 25.8701 233.993 26.7072 234.891C28.7333 235.829 41.7123 239.993 112.21 239.993C179.78 239.993 192.189 235.78 194.086 234.864C195.016 233.883 196.418 233.386 197.84 233.674C200.042 234.115 201.466 236.255 201.024 238.451C200.392 241.585 199.078 248.107 112.21 248.107ZM193.062 236.82C193.061 236.823 193.061 236.824 193.061 236.827C193.061 236.826 193.061 236.823 193.062 236.82ZM112.122 264.12C24.7556 264.12 24.0944 254.925 23.8774 251.904C23.7215 249.722 25.3652 247.825 27.5517 247.668C29.045 247.553 30.4494 248.318 31.2037 249.525C33.0214 250.713 45.0534 256.196 112.122 256.196C176.454 256.196 188.076 250.46 189.593 249.477C190.409 248.216 191.916 247.468 193.496 247.699C195.666 248.01 197.172 250.018 196.86 252.183C196.435 255.136 195.144 264.12 112.122 264.12Z" fill="#875A1E"/>
<path d="M20.3205 209.121V209.122M20.3192 209.109V209.111M20.3179 209.098V209.103M200.568 208.562C200.568 208.565 200.566 208.569 200.565 208.572M200.57 208.553C200.57 208.554 200.569 208.557 200.569 208.56M200.573 208.542C200.573 208.545 200.573 208.547 200.572 208.549M200.577 208.531C200.577 208.532 200.576 208.535 200.576 208.538M200.58 208.521C200.58 208.523 200.579 208.524 200.579 208.525M23.7351 223.108V223.111M23.7337 223.097V223.1M23.7323 223.086V223.091M197.141 222.581C197.14 222.585 197.138 222.588 197.138 222.592M197.144 222.571C197.142 222.574 197.143 222.577 197.141 222.578M197.147 222.56C197.145 222.563 197.145 222.566 197.144 222.568M197.149 222.549C197.149 222.552 197.148 222.555 197.147 222.559M197.152 222.539C197.152 222.542 197.151 222.543 197.151 222.546M197.155 222.531C197.155 222.532 197.154 222.534 197.154 222.535M27.7711 237.237V237.238M27.7696 237.228V237.23M193.058 236.841C193.057 236.845 193.057 236.848 193.055 236.852M193.059 236.83C193.059 236.832 193.058 236.835 193.058 236.839M193.065 236.808C193.064 236.81 193.064 236.813 193.062 236.816M193.066 236.798C193.066 236.801 193.066 236.802 193.065 236.803M31.7924 251.328V251.33M31.7924 251.323V251.324M112.369 218.818C72.6189 218.818 44.2429 217.987 28.0265 216.348C15.8041 215.113 12.5093 213.874 12.0003 210.318C11.6719 208.024 13.2687 205.898 15.5674 205.571C16.729 205.408 17.8605 205.733 18.7294 206.402C20.8337 207.132 34.6502 210.424 112.369 210.424C186.878 210.424 200.097 207.092 202.069 206.379C203.087 205.61 204.441 205.315 205.762 205.689C207.993 206.326 209.286 208.65 208.649 210.878C207.851 213.664 205.499 215.039 192.989 216.347C177.312 217.986 150.186 218.818 112.369 218.818ZM112.295 232.798C73.9935 232.798 46.6465 231.954 31.0142 230.289C19.3105 229.043 15.9752 227.741 15.4987 224.234C15.1903 221.962 16.7837 219.872 19.0591 219.564C20.2301 219.399 21.3623 219.753 22.2208 220.441C24.292 221.183 37.7294 224.498 112.295 224.498C183.779 224.498 196.635 221.143 198.575 220.419C199.573 219.634 200.918 219.316 202.236 219.671C204.453 220.27 205.762 222.549 205.162 224.761C204.294 227.963 202.982 232.798 112.295 232.798ZM112.21 248.107C20.6968 248.107 20.0391 241.57 19.6844 238.057C19.4605 235.827 21.089 233.839 23.3224 233.614C24.6309 233.478 25.8701 233.993 26.7072 234.891C28.7333 235.829 41.7123 239.993 112.21 239.993C179.78 239.993 192.189 235.78 194.086 234.864C195.016 233.883 196.418 233.386 197.84 233.674C200.042 234.115 201.466 236.255 201.024 238.451C200.392 241.585 199.078 248.107 112.21 248.107ZM193.062 236.82C193.061 236.823 193.061 236.824 193.061 236.827C193.061 236.826 193.061 236.823 193.062 236.82ZM112.122 264.12C24.7556 264.12 24.0944 254.925 23.8774 251.904C23.7215 249.722 25.3652 247.825 27.5517 247.668C29.045 247.553 30.4494 248.318 31.2037 249.525C33.0214 250.713 45.0534 256.196 112.122 256.196C176.454 256.196 188.076 250.46 189.593 249.477C190.409 248.216 191.916 247.468 193.496 247.699C195.666 248.01 197.172 250.018 196.86 252.183C196.435 255.136 195.144 264.12 112.122 264.12Z" stroke="#875A1E" stroke-width="3.7466" stroke-linecap="round" stroke-linejoin="round"/>
<path d="M112.369 218.818C72.6189 218.818 44.2429 217.987 28.0265 216.348C15.8041 215.113 12.5093 213.874 12.0003 210.318C11.6719 208.024 13.2687 205.898 15.5674 205.571C16.729 205.408 17.8605 205.733 18.7294 206.402C20.8337 207.132 34.6502 210.424 112.369 210.424C186.878 210.424 200.097 207.092 202.069 206.379C203.087 205.61 204.441 205.315 205.762 205.689C207.993 206.326 209.286 208.65 208.649 210.878C207.851 213.664 205.499 215.039 192.989 216.347C177.312 217.986 150.186 218.818 112.369 218.818Z" fill="#EDA861"/>
<path d="M112.295 232.798C73.9934 232.798 46.6464 231.955 31.0142 230.289C19.3105 229.043 15.9751 227.741 15.4986 224.235C15.1902 221.963 16.7836 219.872 19.059 219.565C20.23 219.399 21.3623 219.753 22.2207 220.441C24.2919 221.183 37.7293 224.498 112.295 224.498C183.779 224.498 196.635 221.143 198.575 220.419C199.573 219.634 200.918 219.316 202.236 219.671C204.453 220.271 205.762 222.549 205.162 224.762C204.294 227.963 202.982 232.798 112.295 232.798Z" fill="#EDA861"/>
<path d="M112.21 248.107C20.697 248.107 20.0393 241.57 19.6846 238.057C19.4607 235.827 21.0893 233.839 23.3226 233.614C24.6312 233.478 25.8703 233.993 26.7074 234.891C28.7335 235.829 41.7125 239.993 112.21 239.993C179.78 239.993 192.189 235.78 194.086 234.864C195.016 233.883 196.418 233.386 197.841 233.674C200.042 234.115 201.466 236.255 201.024 238.451C200.392 241.585 199.078 248.107 112.21 248.107ZM193.062 236.82C193.061 236.823 193.061 236.824 193.061 236.827C193.061 236.826 193.061 236.823 193.062 236.82Z" fill="#EDA861"/>
<path d="M112.122 264.12C24.7556 264.12 24.0945 254.925 23.8774 251.904C23.7216 249.722 25.3653 247.825 27.5517 247.668C29.0451 247.553 30.4494 248.319 31.2038 249.525C33.0214 250.713 45.0534 256.196 112.122 256.196C176.454 256.196 188.076 250.46 189.593 249.477C190.409 248.216 191.916 247.468 193.496 247.699C195.666 248.01 197.172 250.018 196.86 252.183C196.435 255.136 195.144 264.12 112.122 264.12Z" fill="#EDA861"/>
<path d="M112.369 218.818C72.6189 218.818 44.2429 217.987 28.0265 216.348C15.8041 215.113 12.5093 213.874 12.0003 210.318C11.6719 208.024 13.2687 205.898 15.5674 205.571C16.729 205.408 17.8605 205.733 18.7294 206.402C20.8337 207.132 34.6502 210.424 112.369 210.424C186.878 210.424 200.097 207.092 202.069 206.379C203.087 205.61 204.441 205.315 205.762 205.689C207.993 206.326 209.286 208.65 208.649 210.878C207.851 213.664 205.499 215.039 192.989 216.347C177.312 217.986 150.186 218.818 112.369 218.818ZM112.295 232.798C73.9935 232.798 46.6465 231.954 31.0142 230.289C19.3105 229.043 15.9752 227.741 15.4987 224.234C15.1903 221.962 16.7837 219.872 19.0591 219.564C20.2301 219.399 21.3623 219.753 22.2208 220.441C24.292 221.183 37.7294 224.498 112.295 224.498C183.779 224.498 196.635 221.143 198.575 220.419C199.573 219.634 200.918 219.316 202.236 219.671C204.453 220.27 205.762 222.549 205.162 224.761C204.294 227.963 202.982 232.798 112.295 232.798ZM112.21 248.107C20.6968 248.107 20.0391 241.57 19.6844 238.057C19.4605 235.827 21.089 233.839 23.3224 233.614C24.6309 233.478 25.8701 233.993 26.7072 234.891C28.7333 235.829 41.7123 239.993 112.21 239.993C179.78 239.993 192.189 235.78 194.086 234.864C195.016 233.883 196.418 233.386 197.84 233.674C200.042 234.115 201.466 236.255 201.024 238.451C200.392 241.585 199.078 248.107 112.21 248.107ZM193.062 236.82C193.061 236.823 193.061 236.824 193.061 236.827C193.061 236.826 193.061 236.823 193.062 236.82ZM112.122 264.12C24.7556 264.12 24.0944 254.925 23.8774 251.904C23.7215 249.722 25.3652 247.825 27.5517 247.668C29.045 247.553 30.4494 248.318 31.2037 249.525C33.0214 250.713 45.0534 256.196 112.122 256.196C176.454 256.196 188.076 250.46 189.593 249.477C190.409 248.216 191.916 247.468 193.496 247.699C195.666 248.01 197.172 250.018 196.86 252.183C196.435 255.136 195.144 264.12 112.122 264.12Z" fill="#EDA861"/>
<path d="M112.122 259.923C31.4513 259.923 26.7868 251.911 26.672 250.305C26.6269 249.665 27.1112 249.105 27.7529 249.06H27.7666C28.24 249.06 28.619 249.274 28.827 249.606L29.1527 250.13L29.6685 250.466C32.9482 252.61 47.5474 257.595 112.122 257.595C175.154 257.595 188.523 252.108 191.119 250.426L191.622 250.1L191.948 249.595C192.163 249.263 192.538 249.057 192.925 249.057C192.98 249.057 193.036 249.06 193.09 249.068C193.515 249.13 193.758 249.38 193.866 249.523C193.974 249.668 194.147 249.971 194.087 250.385C193.765 252.624 186.904 259.923 112.122 259.923ZM112.209 243.911C34.7925 243.911 22.7561 239.191 22.4729 236.378C22.4031 235.687 22.9094 235.069 23.603 235H23.6386C24.0984 235 24.4212 235.146 24.6553 235.399L25.0302 235.8L25.5297 236.031C28.2483 237.289 42.5356 241.392 112.209 241.392C165.239 241.392 184.809 238.776 191.925 237.066C193.242 236.749 194.521 236.304 195.763 235.763L196.12 235.389C196.36 235.136 196.694 234.992 197.036 234.992C197.119 234.992 197.202 235 197.287 235.016C197.97 235.154 198.413 235.821 198.276 236.502C197.827 238.729 188.543 243.911 112.209 243.911ZM112.295 228.601C74.079 228.601 46.8317 227.762 31.3117 226.108C20.7161 224.98 18.4681 223.877 18.2751 222.46C18.1753 221.721 18.6965 221.038 19.4367 220.937C19.512 220.927 19.5721 220.923 19.631 220.923C19.928 220.923 20.2248 221.03 20.4671 221.224L20.8338 221.517L21.2757 221.676C24.0409 222.666 38.7783 225.897 112.295 225.897C182.687 225.897 196.882 222.639 199.555 221.64L199.964 221.487L200.308 221.218C200.549 221.03 200.847 220.926 201.151 220.926C201.27 220.926 201.391 220.941 201.511 220.974C201.976 221.099 202.221 221.423 202.326 221.605C202.43 221.785 202.586 222.161 202.457 222.631C201.719 225.355 185.476 228.601 112.295 228.601ZM112.369 214.621C72.7092 214.621 44.4277 213.795 28.3084 212.165C17.2652 211.05 14.9831 209.985 14.7737 208.523C14.7026 208.024 14.9106 207.659 15.0405 207.487C15.1705 207.314 15.4633 207.013 15.964 206.941C16.0243 206.933 16.0926 206.929 16.1597 206.929C16.4689 206.929 16.774 207.031 17.0176 207.218L17.3788 207.497L17.8099 207.647C20.6367 208.627 35.8078 211.824 112.369 211.824C185.678 211.824 200.291 208.6 203.024 207.612L203.422 207.467L203.76 207.211C204.002 207.028 204.303 206.927 204.605 206.927C204.735 206.927 204.867 206.945 204.997 206.982C205.477 207.12 205.726 207.457 205.831 207.647C205.937 207.836 206.093 208.226 205.954 208.71C205.659 209.743 204.366 210.945 192.698 212.165C177.112 213.795 150.085 214.621 112.369 214.621Z" fill="#FFC794"/>
<path d="M40.8485 203.749C28.3605 205.393 15.0055 204.554 7.0542 197.834C9.6103 192.246 5.4287 176.85 16.2404 177.571C21.8836 177.948 21.0023 178.7 22.6622 177.588C27.3574 174.443 34.5557 178.472 37.4442 177.782C48.5476 175.126 51.1679 179.195 55.4709 177.758C64.011 174.906 67.1389 178.322 70.9343 177.538C83.3193 174.981 85.5734 178.921 90.2425 177.612C96.1356 175.96 103.825 176.548 109.467 179.082L111.286 179.087C116.917 176.582 124.604 176.034 130.504 177.716C135.179 179.049 137.416 175.12 149.813 177.741C153.611 178.545 156.724 175.145 165.277 178.041C169.587 179.5 172.189 175.445 183.304 178.157C186.196 178.863 193.376 174.87 198.086 178.04C199.751 179.16 198.875 177.949 204.507 178.056C214.629 178.249 211.188 193.631 213.769 199.233C205.094 206.547 190.386 206.557 176.363 204.149C147.742 199.233 136.357 206.228 110.74 206.228C93.2559 206.228 75.162 199.233 40.8485 203.749Z" fill="#DDD3C7"/>
<path d="M40.8485 203.749C28.3605 205.393 15.0055 204.554 7.0542 197.834C9.6103 192.246 5.4287 176.85 16.2404 177.571C21.8836 177.948 21.0023 178.7 22.6622 177.588C27.3574 174.443 34.5557 178.472 37.4442 177.782C48.5476 175.126 51.1679 179.195 55.4709 177.758C64.011 174.906 67.1389 178.322 70.9343 177.538C83.3193 174.981 85.5734 178.921 90.2425 177.612C96.1356 175.96 103.825 176.548 109.467 179.082L111.286 179.087C116.917 176.582 124.604 176.034 130.504 177.716C135.179 179.049 137.416 175.12 149.813 177.741C153.611 178.545 156.724 175.145 165.277 178.041C169.587 179.5 172.189 175.445 183.304 178.157C186.196 178.863 193.376 174.87 198.086 178.04C199.751 179.16 198.875 177.949 204.507 178.056C214.629 178.249 211.188 193.631 213.769 199.233C205.094 206.547 190.386 206.557 176.363 204.149C147.742 199.233 136.357 206.228 110.74 206.228C93.2559 206.228 75.162 199.233 40.8485 203.749Z" stroke="#9E9080" stroke-width="4" stroke-linecap="round" stroke-linejoin="round"/>
<path d="M16.2402 185.132C21.8834 185.509 21.0021 186.261 22.662 185.149C27.3572 182.004 34.5556 186.033 37.4441 185.343C48.5475 182.687 51.1677 186.756 55.4707 185.319C64.0108 182.467 67.1387 185.883 70.9341 185.099C83.3191 182.542 85.5732 186.482 90.2424 185.173C96.1354 183.521 103.825 184.109 109.467 186.643L111.286 186.648C116.916 184.143 124.604 183.595 130.504 185.277C135.179 186.61 137.416 182.681 149.812 185.302C153.611 186.106 156.724 182.706 165.277 185.602C169.586 187.061 172.189 183.006 183.304 185.718C186.196 186.424 193.376 182.431 198.085 185.601C199.75 186.721 198.875 185.51 204.507 185.617" stroke="white" stroke-width="2.4977" stroke-linecap="round" stroke-linejoin="round"/>
<defs>
<radialGradient id="paint0_radial_8059_5353" cx="0" cy="0" r="1" gradientUnits="userSpaceOnUse" gradientTransform="translate(111.329 163.5) rotate(90) scale(84.5)">
<stop stop-color="#FFE100"/>
<stop offset="1" stop-color="#FFCC00" stop-opacity="0"/>
</radialGradient>
</defs>
</svg>
