<svg width="262" height="278" viewBox="0 0 262 278" fill="none" xmlns="http://www.w3.org/2000/svg">
<circle cx="133.5" cy="150.5" r="121.5" fill="url(#paint0_radial_8059_5498)"/>
<path d="M84.5814 0L89.7367 9.42609L99.1628 14.5814L89.7367 19.7367L84.5814 29.1628L79.4261 19.7367L70 14.5814L79.4261 9.42609L84.5814 0Z" fill="#D1E795"/>
<path d="M216.953 87L219.765 92.1415L224.907 94.9535L219.765 97.7655L216.953 102.907L214.142 97.7655L209 94.9535L214.142 92.1415L216.953 87Z" fill="#FFB9C4"/>
<path d="M40.9535 44L43.7655 48.5702L48.907 51.0698L43.7655 53.5693L40.9535 58.1395L38.1415 53.5693L33 51.0698L38.1415 48.5702L40.9535 44Z" fill="#FFB9C4"/>
<circle cx="189.186" cy="22.186" r="6.18605" fill="#D1E795"/>
<circle cx="49.186" cy="96.1861" r="6.18605" fill="#B8E5E6"/>
<circle cx="255.186" cy="121.186" r="6.18605" fill="#FFDA88"/>
<circle cx="9.18605" cy="136.186" r="6.18605" fill="#D1E795"/>
<circle cx="243.419" cy="83.4186" r="4.4186" fill="#B8E5E6"/>
<path d="M148.642 38.3007L150.225 20.6062L130.265 25.8192C130.015 27.2638 129.791 28.7204 129.632 30.1787C128.993 36.0171 129.378 42.9423 128.396 48.546C127.76 52.1778 126.245 53.5935 122.631 54.0802C118.896 54.5832 114.271 53.035 114.318 48.6196C114.378 42.9666 121.17 43.6692 124.838 45.2739C125.223 45.4425 126.607 46.494 126.851 46.145C127.152 43.8404 127.423 41.5285 127.623 39.2127C128.027 34.545 127.909 21.135 129.613 17.7285C130.012 16.9301 130.514 16.1011 131.38 15.7445C136.048 14.4716 140.783 13.4139 145.445 12.1242C146.736 11.767 150.014 10.3572 151.16 10.6319C152.795 11.0234 152.403 13.9325 152.341 15.2952C152.081 21.0981 151.233 27.1709 150.747 32.9924C150.462 36.4086 150.94 41.709 148.697 44.3918C145.253 48.5098 133.775 45.0241 136.165 39.5509C138.353 34.5424 144.882 35.9526 148.642 38.3007Z" fill="#FFB9C4"/>
<path d="M232.949 54.6155C233.192 52.3258 234.622 50.1728 234.834 47.8745C235.318 42.6027 229.949 37.0236 224.726 36.9042C223.082 42.1809 220.873 47.2507 218.977 52.4319C217.708 55.8981 216.593 61.9278 213.616 64.1698C207.608 68.6946 194.76 60.1896 201.025 54.3237C204.137 51.4106 208.323 52.619 211.522 54.6666C212.817 55.4957 213.851 56.7012 215.147 57.4028L224.729 30.7628C225.684 27.4769 230.631 30.3787 232.432 31.5362C241.493 37.3596 240.939 48.1842 232.949 54.6155Z" fill="#FFDA88"/>
<path d="M29.8051 75.5897C29.4044 75.4906 29.0036 74.8528 28.7569 74.5282C27.5899 72.9926 26.7675 71.2981 25.1702 70.1039C22.174 67.8639 16.9758 68.3753 13.9296 70.381C13.2816 70.8077 11.7896 71.8241 12.2284 72.6277C12.8298 73.7293 14.2491 75.2762 15.0346 76.4457C17.014 79.3925 18.8494 82.4382 20.8287 85.3851C22.6288 88.0652 25.7768 91.2538 26.148 94.5035C27.0213 102.149 11.0523 107.572 11.9233 97.6632C12.3232 93.1142 18.0876 91.1769 21.9155 90.445C22.0195 90.2127 19.9469 87.0821 19.6157 86.5702C16.2815 81.4162 12.6547 76.4147 9.23293 71.31C8.00075 69.4718 5.6678 67.7622 8.08577 65.8106C10.5268 63.8404 14.8148 62.4462 17.9432 62.537C25.2383 62.7488 29.2946 68.8561 29.8051 75.5897Z" fill="#B8E5E6"/>
<path d="M122.404 96.5353C121.605 96.5353 120.909 96.1596 120.495 95.5054C115.138 87.0381 105.903 80.6995 100.874 77.6743C99.622 76.9211 98.7565 75.7201 98.4388 74.2926C98.1243 72.8787 98.4082 71.3774 99.2177 70.174L99.4752 69.7906C100.467 68.3171 102.12 67.437 103.897 67.437C105.023 67.437 106.1 67.7876 107.013 68.4511C112.324 72.3158 122.092 80.1563 127.843 89.2439C128.224 89.8483 128.501 90.8935 127.645 92.443C126.721 94.1156 124.324 96.5353 122.404 96.5353Z" fill="#5A3A1E"/>
<path d="M103.898 69.1173C104.635 69.1173 105.379 69.3413 106.022 69.8097C110.988 73.4226 120.764 81.2017 126.42 90.1415C127.159 91.3094 123.83 94.8549 122.404 94.8549C122.195 94.8549 122.027 94.7786 121.918 94.6072C116.348 85.8034 106.778 79.2641 101.744 76.2356C99.9675 75.1671 99.4593 72.8296 100.615 71.1106L100.873 70.7284C101.577 69.6812 102.728 69.1173 103.898 69.1173ZM103.898 65.7568C101.558 65.7568 99.3829 66.9152 98.0782 68.8552L97.8214 69.237C96.7562 70.8208 96.383 72.7961 96.7968 74.6565C97.2092 76.5102 98.3792 78.1348 100.007 79.1139C104.908 82.062 113.901 88.2281 119.073 96.4019C119.791 97.5374 121.036 98.2153 122.404 98.2153C125.409 98.2153 128.226 94.8729 129.12 93.2543C130.438 90.8664 129.777 89.1545 129.266 88.3468C123.367 79.0226 113.413 71.0288 108.005 67.0937C106.802 66.2191 105.382 65.7568 103.898 65.7568Z" fill="#3F240F"/>
<path d="M194.698 111.773C194.719 105.616 189.964 100.609 184.078 100.59C183.259 100.587 182.465 100.69 181.699 100.87C182.505 99.3077 182.967 97.5227 182.974 95.6241C182.994 89.4669 178.239 84.46 172.353 84.4405C171.607 84.4381 170.88 84.5171 170.177 84.6672C172.205 82.645 173.479 79.8011 173.489 76.639C173.51 70.4821 168.755 65.475 162.869 65.4556C156.982 65.4359 152.194 70.4115 152.174 76.5683C152.171 77.2972 152.241 78.0081 152.366 78.6984C152.258 78.7542 152.146 78.8014 152.041 78.8607C150.313 75.1734 146.705 72.6236 142.513 72.6098C136.627 72.5901 131.839 77.5657 131.818 83.7225C131.81 86.1264 132.537 88.349 133.768 90.1739C132.391 89.4871 130.856 89.0894 129.229 89.084C123.342 89.0644 118.554 94.0399 118.534 100.197C118.531 100.986 118.61 101.756 118.756 102.5C116.978 101.088 114.768 100.237 112.363 100.23C106.813 100.211 102.243 104.635 101.722 110.303C96.0736 110.565 91.5579 115.414 91.5377 121.39C91.5265 124.816 92.9969 127.883 95.315 129.936C92.3485 131.907 90.3696 135.361 90.3565 139.309C90.336 145.466 95.091 150.473 100.977 150.492C104.165 150.503 107.022 149.041 108.983 146.728C110.889 149.697 114.124 151.656 117.801 151.668C120.475 151.677 122.916 150.648 124.793 148.953C126.46 152.805 130.153 155.495 134.46 155.509C138.457 155.522 141.944 153.229 143.779 149.829C145.707 152.619 148.832 154.446 152.376 154.458C154.601 154.466 156.668 153.757 158.382 152.542C158.437 158.632 163.157 163.561 168.996 163.58C171.169 163.587 173.191 162.91 174.88 161.747C176.197 165.81 179.686 168.825 183.911 169.258C182.841 170.99 182.209 173.046 182.202 175.261C182.181 181.418 186.936 186.425 192.822 186.444C198.709 186.464 203.497 181.489 203.517 175.332C203.523 173.61 203.145 171.985 202.483 170.527C202.775 170.553 203.068 170.576 203.366 170.577C209.252 170.596 214.041 165.621 214.061 159.464C214.078 154.37 210.822 150.072 206.365 148.726C207.689 146.875 208.486 144.586 208.495 142.097C208.515 135.94 203.76 130.933 197.874 130.913C197.149 130.911 196.44 130.986 195.755 131.128C195.465 126.773 192.789 123.111 189.076 121.563C192.411 119.688 194.684 116.011 194.698 111.773ZM194.529 153.265C194.408 153.006 194.277 152.754 194.138 152.507C194.381 152.601 194.625 152.689 194.876 152.765C194.758 152.93 194.638 153.093 194.529 153.265Z" fill="#325105"/>
<path d="M194.698 111.773C194.719 105.616 189.964 100.609 184.078 100.59C183.259 100.587 182.465 100.69 181.699 100.87C182.505 99.3077 182.967 97.5227 182.974 95.6241C182.994 89.4669 178.239 84.46 172.353 84.4405C171.607 84.4381 170.88 84.5171 170.177 84.6672C172.205 82.645 173.479 79.8011 173.489 76.639C173.51 70.4821 168.755 65.475 162.869 65.4556C156.982 65.4359 152.194 70.4115 152.174 76.5683C152.171 77.2972 152.241 78.0081 152.366 78.6984C152.258 78.7542 152.146 78.8014 152.041 78.8607C150.313 75.1734 146.705 72.6236 142.513 72.6098C136.627 72.5901 131.839 77.5657 131.818 83.7225C131.81 86.1264 132.537 88.349 133.768 90.1739C132.391 89.4871 130.856 89.0894 129.229 89.084C123.342 89.0644 118.554 94.0399 118.534 100.197C118.531 100.986 118.61 101.756 118.756 102.5C116.978 101.088 114.768 100.237 112.363 100.23C106.813 100.211 102.243 104.635 101.722 110.303C96.0736 110.565 91.5579 115.414 91.5377 121.39C91.5265 124.816 92.9969 127.883 95.315 129.936C92.3485 131.907 90.3696 135.361 90.3565 139.309C90.336 145.466 95.091 150.473 100.977 150.492C104.165 150.503 107.022 149.041 108.983 146.728C110.889 149.697 114.124 151.656 117.801 151.668C120.475 151.677 122.916 150.648 124.793 148.953C126.46 152.805 130.153 155.495 134.46 155.509C138.457 155.522 141.944 153.229 143.779 149.829C145.707 152.619 148.832 154.446 152.376 154.458C154.601 154.466 156.668 153.757 158.382 152.542C158.437 158.632 163.157 163.561 168.996 163.58C171.169 163.587 173.191 162.91 174.88 161.747C176.197 165.81 179.686 168.825 183.911 169.258C182.841 170.99 182.209 173.046 182.202 175.261C182.181 181.418 186.936 186.425 192.822 186.444C198.709 186.464 203.497 181.489 203.517 175.332C203.523 173.61 203.145 171.985 202.483 170.527C202.775 170.553 203.068 170.576 203.366 170.577C209.252 170.596 214.041 165.621 214.061 159.464C214.078 154.37 210.822 150.072 206.365 148.726C207.689 146.875 208.486 144.586 208.495 142.097C208.515 135.94 203.76 130.933 197.874 130.913C197.149 130.911 196.44 130.986 195.755 131.128C195.465 126.773 192.789 123.111 189.076 121.563C192.411 119.688 194.684 116.011 194.698 111.773ZM194.529 153.265C194.408 153.006 194.277 152.754 194.138 152.507C194.381 152.601 194.625 152.689 194.876 152.765C194.758 152.93 194.638 153.093 194.529 153.265Z" stroke="#325105" stroke-width="5" stroke-miterlimit="10"/>
<path d="M112.853 121.461C112.874 115.304 108.119 110.297 102.232 110.278C96.3463 110.258 91.5581 115.234 91.5376 121.39C91.5171 127.547 96.2722 132.554 102.158 132.574C108.044 132.593 112.833 127.618 112.853 121.461Z" fill="#8FA62F"/>
<path d="M102.156 133.134C99.1541 133.124 96.3385 131.893 94.2251 129.669C92.1204 127.452 90.9656 124.511 90.9766 121.389C90.9985 114.953 96.0317 109.717 102.198 109.717C105.236 109.727 108.053 110.958 110.165 113.182C112.271 115.4 113.425 118.341 113.414 121.462C113.393 127.898 108.358 133.134 102.192 133.134H102.156Z" fill="#7E9632"/>
<path d="M102.198 110.277C102.21 110.277 102.22 110.277 102.232 110.277C108.119 110.297 112.874 115.304 112.853 121.461C112.833 127.605 108.063 132.574 102.193 132.574C102.181 132.574 102.17 132.574 102.158 132.574C96.2721 132.554 91.517 127.547 91.5375 121.39C91.5579 115.246 96.3279 110.278 102.198 110.277ZM102.198 109.157C95.7234 109.158 90.4379 114.644 90.4156 121.386C90.4046 124.654 91.6133 127.732 93.8187 130.054C96.0377 132.391 98.9981 133.683 102.155 133.694C108.667 133.694 113.952 128.208 113.975 121.465C113.997 114.7 108.731 109.179 102.236 109.157L102.198 109.157Z" fill="#325105"/>
<path d="M106.181 117.24C106.719 116.444 106.273 115.205 105.185 114.471C104.097 113.738 102.779 113.788 102.241 114.583C101.703 115.378 102.149 116.618 103.237 117.351C104.325 118.085 105.643 118.035 106.181 117.24Z" fill="#D1E795"/>
<path d="M93.7015 116.778C93.7018 116.687 93.7136 116.6 93.7154 116.51C93.0515 117.882 92.6662 119.427 92.6607 121.069C92.642 126.702 96.9926 131.284 102.378 131.301C103.177 131.304 103.95 131.195 104.693 131.008C98.3964 129.625 93.6781 123.773 93.7015 116.778Z" fill="#5B7717"/>
<path d="M111.672 139.38C111.693 133.223 106.937 128.216 101.051 128.197C95.1652 128.177 90.3769 133.152 90.3564 139.309C90.3359 145.466 95.091 150.473 100.977 150.493C106.863 150.512 111.652 145.537 111.672 139.38Z" fill="#8FA62F"/>
<path d="M100.975 151.053C97.9734 151.043 95.1578 149.812 93.0444 147.588C90.9397 145.37 89.785 142.43 89.796 139.308C89.8168 132.872 94.8499 127.636 101.016 127.636C104.055 127.646 106.871 128.877 108.984 131.101C111.089 133.319 112.244 136.26 112.233 139.381C112.212 145.817 107.179 151.053 101.011 151.053H100.975Z" fill="#91B437"/>
<path d="M101.017 128.196C101.028 128.196 101.04 128.196 101.051 128.196C106.937 128.216 111.692 133.223 111.672 139.38C111.651 145.524 106.882 150.493 101.012 150.493C101 150.493 100.989 150.493 100.977 150.493C95.0909 150.473 90.3358 145.466 90.3563 139.309C90.3768 133.164 95.1464 128.196 101.017 128.196ZM101.017 127.076C94.5423 127.076 89.2568 132.562 89.2344 139.305C89.2235 142.573 90.4322 145.651 92.6376 147.973C94.8565 150.31 97.8169 151.602 100.973 151.613C107.486 151.613 112.771 146.127 112.794 139.384C112.816 132.619 107.55 127.098 101.055 127.076L101.017 127.076Z" fill="#325105"/>
<path d="M103.025 136.223C103.563 135.428 103.117 134.188 102.029 133.455C100.941 132.721 99.6232 132.771 99.0853 133.566C98.5474 134.362 98.9933 135.601 100.081 136.335C101.169 137.068 102.487 137.018 103.025 136.223Z" fill="#D1E795"/>
<path d="M92.5198 134.697C92.5202 134.606 92.532 134.519 92.5337 134.429C91.8698 135.801 91.4846 137.346 91.4791 138.988C91.4603 144.621 95.811 149.203 101.196 149.22C101.995 149.223 102.768 149.114 103.512 148.927C97.2148 147.544 92.4965 141.692 92.5198 134.697Z" fill="#759B25"/>
<path d="M128.497 140.556C128.517 134.399 123.762 129.392 117.876 129.372C111.99 129.353 107.202 134.328 107.181 140.485C107.161 146.642 111.916 151.649 117.802 151.669C123.688 151.688 128.476 146.713 128.497 140.556Z" fill="#8FA62F"/>
<path d="M117.799 152.229C114.798 152.219 111.982 150.988 109.869 148.764C107.763 146.546 106.609 143.605 106.62 140.483C106.642 134.047 111.675 128.812 117.841 128.812C120.879 128.822 123.696 130.052 125.808 132.277C127.914 134.494 129.068 137.435 129.057 140.557C129.036 146.993 124.001 152.229 117.835 152.229H117.799Z" fill="#7E9632"/>
<path d="M117.841 129.372C117.853 129.372 117.864 129.372 117.876 129.372C123.762 129.392 128.517 134.399 128.497 140.556C128.476 146.7 123.706 151.668 117.836 151.668C117.824 151.668 117.814 151.668 117.802 151.668C111.916 151.649 107.161 146.642 107.181 140.485C107.201 134.34 111.971 129.372 117.841 129.372ZM117.841 128.252C111.367 128.252 106.081 133.738 106.059 140.481C106.048 143.748 107.257 146.827 109.462 149.149C111.681 151.485 114.642 152.778 117.798 152.789C124.311 152.789 129.596 147.303 129.619 140.559C129.641 133.795 124.375 128.274 117.88 128.252L117.841 128.252Z" fill="#325105"/>
<path d="M121.824 136.334C122.362 135.539 121.916 134.3 120.828 133.566C119.74 132.832 118.422 132.882 117.884 133.678C117.346 134.473 117.792 135.712 118.88 136.446C119.968 137.18 121.286 137.13 121.824 136.334Z" fill="#D1E795"/>
<path d="M109.345 135.873C109.345 135.782 109.357 135.695 109.358 135.604C108.695 136.976 108.309 138.522 108.304 140.164C108.285 145.797 112.636 150.378 118.021 150.396C118.82 150.399 119.593 150.29 120.336 150.103C114.04 148.72 109.321 142.868 109.345 135.873Z" fill="#5B7717"/>
<path d="M143.107 132.763C143.128 126.606 138.373 121.599 132.486 121.58C126.6 121.56 121.812 126.536 121.791 132.693C121.771 138.85 126.526 143.857 132.412 143.876C138.298 143.896 143.087 138.92 143.107 132.763Z" fill="#8FA62F"/>
<path d="M132.41 144.436C129.408 144.426 126.592 143.196 124.479 140.971C122.374 138.754 121.22 135.813 121.231 132.691C121.252 126.255 126.287 121.02 132.453 121.02C138.673 121.04 143.689 126.309 143.668 132.765C143.646 139.201 138.612 144.436 132.447 144.436H132.41Z" fill="#7E9632"/>
<path d="M132.452 121.58C132.464 121.58 132.475 121.58 132.487 121.58C138.373 121.599 143.128 126.606 143.107 132.763C143.087 138.908 138.317 143.876 132.447 143.876C132.435 143.876 132.424 143.876 132.412 143.876C126.526 143.856 121.771 138.849 121.792 132.692C121.812 126.548 126.582 121.58 132.452 121.58ZM132.452 120.459C125.977 120.46 120.692 125.946 120.67 132.689C120.647 139.453 125.913 144.974 132.408 144.996C138.921 144.996 144.207 139.51 144.229 132.767C144.251 126.002 138.985 120.481 132.49 120.459H132.452Z" fill="#325105"/>
<path d="M136.435 128.542C136.973 127.747 136.527 126.507 135.439 125.774C134.351 125.04 133.033 125.09 132.495 125.885C131.957 126.681 132.403 127.92 133.491 128.654C134.579 129.387 135.897 129.337 136.435 128.542Z" fill="#D1E795"/>
<path d="M123.955 128.08C123.955 127.99 123.967 127.902 123.969 127.812C123.305 129.184 122.92 130.729 122.914 132.372C122.895 138.005 127.246 142.586 132.631 142.604C133.43 142.606 134.203 142.497 134.947 142.31C128.65 140.928 123.932 135.075 123.955 128.08Z" fill="#5B7717"/>
<path d="M162.194 128.346C162.214 122.189 157.459 117.182 151.573 117.162C145.687 117.143 140.898 122.118 140.878 128.275C140.857 134.432 145.612 139.439 151.499 139.459C157.385 139.478 162.173 134.503 162.194 128.346Z" fill="#8FA62F"/>
<path d="M151.496 140.019C145.311 139.998 140.296 134.729 140.316 128.273C140.338 121.837 145.373 116.602 151.538 116.602C154.577 116.612 157.392 117.842 159.506 120.067C161.61 122.284 162.765 125.225 162.754 128.347C162.733 134.783 157.7 140.019 151.533 140.019H151.496Z" fill="#7E9632"/>
<path d="M151.538 117.162C151.55 117.162 151.561 117.162 151.573 117.162C157.459 117.182 162.214 122.189 162.193 128.346C162.173 134.491 157.403 139.458 151.533 139.458C151.521 139.458 151.51 139.458 151.498 139.458C145.612 139.439 140.857 134.432 140.878 128.275C140.898 122.13 145.668 117.162 151.538 117.162ZM151.538 116.042C145.064 116.042 139.778 121.528 139.756 128.271C139.745 131.538 140.954 134.617 143.159 136.939C145.378 139.276 148.338 140.568 151.495 140.579C158.007 140.579 163.293 135.093 163.315 128.35C163.338 121.585 158.072 116.064 151.576 116.042L151.538 116.042Z" fill="#325105"/>
<path d="M155.521 124.124C156.059 123.329 155.613 122.09 154.525 121.356C153.437 120.623 152.119 120.673 151.581 121.468C151.043 122.263 151.489 123.502 152.577 124.236C153.665 124.97 154.983 124.92 155.521 124.124Z" fill="#D1E795"/>
<path d="M143.042 123.663C143.042 123.572 143.054 123.485 143.056 123.395C142.392 124.766 142.007 126.312 142.001 127.954C141.982 133.587 146.333 138.168 151.718 138.186C152.517 138.189 153.29 138.08 154.034 137.893C147.737 136.51 143.018 130.658 143.042 123.663Z" fill="#5B7717"/>
<path d="M145.155 144.397C145.175 138.24 140.42 133.233 134.534 133.213C128.648 133.194 123.86 138.169 123.839 144.326C123.819 150.483 128.574 155.49 134.46 155.509C140.346 155.529 145.135 150.554 145.155 144.397Z" fill="#8FA62F"/>
<path d="M134.458 156.069C128.273 156.049 123.258 150.78 123.278 144.324C123.3 137.889 128.333 132.653 134.499 132.653C137.539 132.663 140.354 133.894 142.468 136.118C144.572 138.336 145.727 141.276 145.716 144.399C145.694 150.834 140.661 156.069 134.495 156.069H134.458Z" fill="#91B437"/>
<path d="M134.5 133.213C134.512 133.213 134.523 133.213 134.535 133.213C140.421 133.232 145.176 138.239 145.155 144.396C145.135 150.541 140.365 155.509 134.495 155.509C134.483 155.509 134.472 155.509 134.46 155.509C128.574 155.49 123.819 150.483 123.84 144.326C123.86 138.181 128.63 133.213 134.5 133.213ZM134.5 132.093C128.026 132.093 122.74 137.579 122.718 144.322C122.707 147.589 123.916 150.667 126.121 152.99C128.34 155.326 131.3 156.619 134.457 156.629C140.969 156.629 146.255 151.143 146.277 144.4C146.3 137.635 141.034 132.114 134.538 132.093H134.5Z" fill="#325105"/>
<path d="M138.483 140.175C139.021 139.38 138.575 138.141 137.487 137.407C136.399 136.673 135.081 136.723 134.543 137.519C134.005 138.314 134.451 139.553 135.539 140.287C136.627 141.02 137.945 140.97 138.483 140.175Z" fill="#D1E795"/>
<path d="M126.003 139.714C126.004 139.623 126.015 139.535 126.017 139.445C125.353 140.817 124.968 142.362 124.962 144.005C124.944 149.638 129.294 154.219 134.68 154.237C135.479 154.24 136.252 154.13 136.995 153.943C130.698 152.561 125.98 146.709 126.003 139.714Z" fill="#759B25"/>
<path d="M163.071 143.346C163.091 137.189 158.336 132.182 152.45 132.162C146.564 132.143 141.776 137.118 141.755 143.275C141.735 149.432 146.49 154.439 152.376 154.459C158.262 154.478 163.051 149.503 163.071 143.346Z" fill="#8FA62F"/>
<path d="M152.373 155.018C149.373 155.008 146.556 153.778 144.443 151.553C142.338 149.336 141.183 146.395 141.194 143.273C141.216 136.837 146.249 131.602 152.415 131.602C155.453 131.612 158.27 132.843 160.382 135.067C162.488 137.284 163.643 140.225 163.632 143.347C163.61 149.783 158.577 155.018 152.411 155.018H152.373Z" fill="#91B437"/>
<path d="M152.416 132.162C152.428 132.162 152.438 132.162 152.45 132.162C158.336 132.182 163.091 137.189 163.071 143.346C163.051 149.491 158.281 154.458 152.411 154.458C152.399 154.458 152.388 154.458 152.376 154.458C146.49 154.439 141.735 149.432 141.755 143.275C141.776 137.13 146.546 132.163 152.416 132.162ZM152.416 131.042C145.941 131.043 140.656 136.529 140.633 143.271C140.611 150.036 145.877 155.557 152.372 155.579C158.885 155.579 164.17 150.093 164.193 143.349C164.204 140.082 162.995 137.004 160.79 134.682C158.571 132.345 155.61 131.052 152.454 131.042H152.416Z" fill="#325105"/>
<path d="M156.399 139.124C156.937 138.329 156.491 137.09 155.403 136.356C154.315 135.623 152.997 135.672 152.459 136.468C151.921 137.263 152.367 138.502 153.455 139.236C154.543 139.97 155.861 139.92 156.399 139.124Z" fill="#D1E795"/>
<path d="M143.919 138.663C143.919 138.572 143.931 138.485 143.933 138.395C143.269 139.766 142.883 141.312 142.878 142.954C142.859 148.587 147.21 153.168 152.595 153.186C153.394 153.189 154.167 153.08 154.911 152.893C148.614 151.51 143.895 145.658 143.919 138.663Z" fill="#759B25"/>
<path d="M124.035 132.7C124.055 126.543 119.3 121.536 113.414 121.516C107.528 121.497 102.74 126.472 102.719 132.629C102.699 138.786 107.454 143.793 113.34 143.813C119.226 143.832 124.014 138.857 124.035 132.7Z" fill="#8FA62F"/>
<path d="M113.338 144.373C110.336 144.363 107.52 143.133 105.407 140.908C103.302 138.691 102.147 135.75 102.158 132.628C102.18 126.192 107.213 120.957 113.379 120.957C119.601 120.977 124.617 126.246 124.596 132.702C124.574 139.138 119.54 144.373 113.374 144.373H113.338Z" fill="#91B437"/>
<path d="M113.38 121.516C113.391 121.516 113.402 121.516 113.414 121.516C119.3 121.536 124.055 126.543 124.035 132.7C124.014 138.844 119.244 143.812 113.375 143.812C113.363 143.812 113.352 143.812 113.34 143.812C107.454 143.793 102.699 138.786 102.719 132.629C102.74 126.484 107.51 121.517 113.38 121.516ZM113.379 120.396C106.905 120.397 101.62 125.883 101.597 132.625C101.575 139.39 106.841 144.911 113.336 144.932C119.849 144.932 125.134 139.447 125.157 132.703C125.168 129.436 123.959 126.358 121.754 124.036C119.535 121.699 116.574 120.406 113.418 120.396H113.379Z" fill="#325105"/>
<path d="M116.376 129.011C116.914 128.215 116.468 126.976 115.38 126.242C114.292 125.509 112.974 125.559 112.436 126.354C111.898 127.149 112.344 128.389 113.432 129.122C114.52 129.856 115.838 129.806 116.376 129.011Z" fill="#D1E795"/>
<path d="M104.883 128.017C104.883 127.926 104.895 127.839 104.897 127.749C104.233 129.12 103.847 130.666 103.842 132.308C103.823 137.941 108.174 142.522 113.559 142.54C114.358 142.543 115.131 142.434 115.875 142.247C109.578 140.864 104.859 135.012 104.883 128.017Z" fill="#759B25"/>
<path d="M149.894 115.983C149.914 109.826 145.159 104.819 139.273 104.8C133.387 104.78 128.599 109.755 128.578 115.912C128.558 122.069 133.313 127.076 139.199 127.096C145.085 127.115 149.873 122.14 149.894 115.983Z" fill="#8FA62F"/>
<path d="M139.197 127.656C136.195 127.646 133.379 126.415 131.266 124.191C129.161 121.973 128.007 119.032 128.018 115.911C128.039 109.475 133.073 104.239 139.24 104.239C145.46 104.26 150.476 109.529 150.455 115.984C150.433 122.42 145.4 127.656 139.234 127.656H139.197Z" fill="#91B437"/>
<path d="M139.239 104.799C139.25 104.799 139.261 104.799 139.273 104.799C145.159 104.819 149.914 109.826 149.894 115.983C149.873 122.127 145.103 127.096 139.233 127.096C139.222 127.096 139.211 127.096 139.199 127.096C133.313 127.076 128.558 122.069 128.578 115.912C128.599 109.768 133.369 104.8 139.239 104.799ZM139.238 103.679C132.764 103.68 127.479 109.166 127.456 115.908C127.434 122.673 132.7 128.194 139.195 128.216C145.708 128.216 150.993 122.73 151.016 115.987C151.027 112.719 149.818 109.641 147.612 107.319C145.393 104.982 142.433 103.69 139.277 103.679L139.238 103.679Z" fill="#325105"/>
<path d="M143.221 111.762C143.759 110.966 143.313 109.727 142.225 108.993C141.138 108.26 139.82 108.31 139.282 109.105C138.744 109.9 139.19 111.14 140.278 111.873C141.365 112.607 142.683 112.557 143.221 111.762Z" fill="#D1E795"/>
<path d="M130.742 111.3C130.742 111.209 130.754 111.122 130.756 111.032C130.092 112.404 129.707 113.949 129.701 115.591C129.682 121.224 134.033 125.806 139.418 125.823C140.217 125.826 140.99 125.717 141.734 125.53C135.437 124.147 130.719 118.295 130.742 111.3Z" fill="#759B25"/>
<path d="M160.051 98.0944C160.071 91.9375 155.316 86.9305 149.43 86.911C143.544 86.8914 138.755 91.8668 138.735 98.0237C138.714 104.181 143.469 109.188 149.356 109.207C155.242 109.227 160.03 104.251 160.051 98.0944Z" fill="#8FA62F"/>
<path d="M149.353 109.767C146.353 109.757 143.536 108.527 141.423 106.302C139.318 104.084 138.163 101.144 138.174 98.0219C138.196 91.5859 143.229 86.3506 149.395 86.3506C152.434 86.3604 155.25 87.591 157.363 89.8155C159.468 92.0329 160.623 94.9733 160.612 98.0958C160.59 104.532 155.555 109.767 149.389 109.767H149.353Z" fill="#7E9632"/>
<path d="M149.395 86.9107C149.407 86.9107 149.418 86.9107 149.43 86.9107C155.316 86.9302 160.071 91.9371 160.051 98.0941C160.03 104.239 155.26 109.207 149.39 109.207C149.378 109.207 149.368 109.207 149.356 109.207C143.469 109.187 138.714 104.181 138.735 98.0235C138.755 91.879 143.525 86.9112 149.395 86.9107ZM149.395 85.7905C142.921 85.7912 137.635 91.2772 137.613 98.0198C137.59 104.785 142.857 110.306 149.352 110.327C155.864 110.327 161.15 104.841 161.172 98.098C161.183 94.8308 159.975 91.7525 157.769 89.4302C155.55 87.0937 152.59 85.8012 149.433 85.7906L149.395 85.7905Z" fill="#325105"/>
<path d="M153.378 93.8729C153.916 93.0777 153.47 91.8383 152.382 91.1047C151.294 90.3711 149.976 90.421 149.438 91.2163C148.9 92.0116 149.346 93.251 150.434 93.9846C151.522 94.7182 152.84 94.6682 153.378 93.8729Z" fill="#D1E795"/>
<path d="M140.899 93.4115C140.899 93.3207 140.911 93.2332 140.913 93.1431C140.249 94.5149 139.863 96.0602 139.858 97.7027C139.839 103.336 144.19 107.917 149.575 107.935C150.374 107.937 151.147 107.828 151.891 107.641C145.594 106.259 140.875 100.406 140.899 93.4115Z" fill="#5B7717"/>
<path d="M122.984 111.413C123.005 105.256 118.25 100.249 112.363 100.23C106.477 100.21 101.689 105.186 101.668 111.343C101.648 117.5 106.403 122.507 112.289 122.526C118.175 122.546 122.964 117.57 122.984 111.413Z" fill="#8FA62F"/>
<path d="M112.287 123.086C109.285 123.076 106.47 121.845 104.356 119.621C102.252 117.404 101.097 114.463 101.108 111.341C101.129 104.905 106.162 99.6694 112.329 99.6694C115.367 99.6793 118.183 100.91 120.296 103.134C122.401 105.352 123.556 108.292 123.545 111.415C123.524 117.851 118.491 123.086 112.325 123.086H112.287Z" fill="#91B437"/>
<path d="M112.329 100.23C112.34 100.23 112.352 100.23 112.363 100.23C118.249 100.249 123.005 105.256 122.984 111.413C122.964 117.557 118.194 122.526 112.324 122.526C112.312 122.526 112.301 122.526 112.289 122.526C106.403 122.506 101.648 117.499 101.668 111.342C101.689 105.198 106.459 100.23 112.329 100.23ZM112.329 99.1094C105.855 99.1094 100.569 104.595 100.546 111.339C100.524 118.103 105.79 123.624 112.285 123.646C118.798 123.646 124.084 118.16 124.106 111.417C124.117 108.15 122.908 105.071 120.703 102.749C118.484 100.412 115.523 99.1198 112.367 99.1094H112.329Z" fill="#325105"/>
<path d="M116.312 107.192C116.85 106.397 116.404 105.157 115.316 104.424C114.228 103.69 112.91 103.74 112.372 104.535C111.834 105.33 112.28 106.57 113.368 107.303C114.456 108.037 115.774 107.987 116.312 107.192Z" fill="#D1E795"/>
<path d="M103.832 106.73C103.832 106.64 103.844 106.552 103.846 106.462C103.182 107.834 102.797 109.379 102.791 111.021C102.772 116.654 107.123 121.236 112.508 121.253C113.307 121.256 114.08 121.147 114.824 120.96C108.527 119.577 103.809 113.725 103.832 106.73Z" fill="#759B25"/>
<path d="M170.106 110.449C170.127 104.292 165.372 99.2855 159.485 99.2659C153.599 99.2464 148.811 104.222 148.791 110.379C148.77 116.536 153.525 121.543 159.411 121.562C165.297 121.582 170.086 116.606 170.106 110.449Z" fill="#8FA62F"/>
<path d="M159.409 122.122C156.407 122.112 153.592 120.882 151.478 118.657C149.374 116.44 148.219 113.499 148.23 110.377C148.251 103.941 153.284 98.7056 159.45 98.7056C165.673 98.7264 170.689 103.995 170.668 110.451C170.646 116.887 165.612 122.122 159.446 122.122H159.409Z" fill="#91B437"/>
<path d="M159.451 99.2657C159.463 99.2657 159.473 99.2657 159.485 99.2657C165.372 99.2851 170.127 104.292 170.106 110.449C170.086 116.594 165.316 121.562 159.446 121.562C159.434 121.562 159.423 121.562 159.411 121.562C153.525 121.542 148.77 116.535 148.79 110.378C148.811 104.234 153.581 99.2662 159.451 99.2657ZM159.451 98.1455C152.976 98.1462 147.691 103.632 147.669 110.375C147.658 113.642 148.866 116.72 151.072 119.042C153.291 121.379 156.251 122.672 159.407 122.682C165.92 122.682 171.206 117.196 171.228 110.453C171.25 103.688 165.984 98.1672 159.489 98.1456L159.451 98.1455Z" fill="#325105"/>
<path d="M163.434 106.228C163.972 105.433 163.526 104.193 162.438 103.46C161.35 102.726 160.032 102.776 159.494 103.571C158.956 104.367 159.402 105.606 160.49 106.34C161.578 107.073 162.896 107.023 163.434 106.228Z" fill="#D1E795"/>
<path d="M150.954 105.766C150.955 105.676 150.967 105.588 150.968 105.498C150.304 106.87 149.919 108.415 149.914 110.058C149.895 115.691 154.246 120.272 159.631 120.29C160.43 120.292 161.203 120.183 161.946 119.996C155.649 118.614 150.931 112.761 150.954 105.766Z" fill="#759B25"/>
<path d="M178.682 135.812C178.703 129.655 173.948 124.648 168.062 124.628C162.175 124.609 157.387 129.584 157.367 135.741C157.346 141.898 162.101 146.905 167.987 146.925C173.874 146.944 178.662 141.969 178.682 135.812Z" fill="#8FA62F"/>
<path d="M167.986 147.484C164.984 147.475 162.168 146.244 160.055 144.019C157.95 141.802 156.795 138.862 156.806 135.739C156.827 129.303 161.86 124.068 168.026 124.068C171.065 124.078 173.881 125.308 175.994 127.533C178.099 129.75 179.254 132.691 179.243 135.813C179.222 142.249 174.189 147.484 168.022 147.484H167.986Z" fill="#7E9632"/>
<path d="M168.027 124.628C168.039 124.628 168.05 124.628 168.062 124.628C173.948 124.647 178.703 129.654 178.682 135.811C178.662 141.956 173.892 146.924 168.022 146.924C168.01 146.924 167.999 146.924 167.987 146.924C162.101 146.905 157.346 141.898 157.367 135.741C157.387 129.596 162.157 124.629 168.027 124.628ZM168.027 123.508C161.553 123.508 156.267 128.995 156.245 135.737C156.222 142.502 161.488 148.023 167.984 148.044C174.496 148.044 179.782 142.558 179.804 135.815C179.815 132.548 178.606 129.47 176.401 127.147C174.182 124.811 171.222 123.518 168.065 123.508H168.027Z" fill="#325105"/>
<path d="M171.556 133.108C172.094 132.313 171.648 131.074 170.56 130.34C169.472 129.606 168.154 129.656 167.616 130.452C167.078 131.247 167.524 132.486 168.612 133.22C169.7 133.954 171.018 133.904 171.556 133.108Z" fill="#D1E795"/>
<path d="M159.531 131.129C159.531 131.038 159.543 130.951 159.544 130.86C158.881 132.232 158.495 133.777 158.49 135.42C158.471 141.053 162.822 145.634 168.207 145.652C169.006 145.655 169.779 145.546 170.522 145.358C164.226 143.976 159.507 138.124 159.531 131.129Z" fill="#5B7717"/>
<path d="M179.691 152.467C179.711 146.311 174.956 141.304 169.07 141.284C163.184 141.264 158.395 146.24 158.375 152.397C158.354 158.554 163.11 163.561 168.996 163.58C174.882 163.6 179.67 158.624 179.691 152.467Z" fill="#8FA62F"/>
<path d="M168.994 164.14C165.992 164.13 163.176 162.9 161.063 160.675C158.958 158.458 157.804 155.517 157.815 152.395C157.835 145.959 162.87 140.724 169.037 140.724C175.257 140.744 180.273 146.013 180.252 152.469C180.23 158.905 175.196 164.14 169.031 164.14H168.994Z" fill="#91B437"/>
<path d="M169.035 141.284C169.047 141.284 169.058 141.284 169.07 141.284C174.956 141.303 179.711 146.31 179.691 152.467C179.67 158.612 174.9 163.58 169.03 163.58C169.018 163.58 169.008 163.58 168.996 163.58C163.109 163.56 158.354 158.553 158.375 152.397C158.395 146.252 163.165 141.284 169.035 141.284ZM169.035 140.164C162.561 140.164 157.275 145.65 157.253 152.393C157.231 159.158 162.497 164.679 168.992 164.7C175.505 164.7 180.79 159.214 180.812 152.471C180.823 149.204 179.615 146.125 177.409 143.803C175.19 141.467 172.23 140.174 169.074 140.164H169.035Z" fill="#325105"/>
<path d="M173.018 148.246C173.556 147.451 173.11 146.211 172.022 145.478C170.934 144.744 169.616 144.794 169.078 145.589C168.541 146.385 168.986 147.624 170.074 148.358C171.162 149.091 172.48 149.041 173.018 148.246Z" fill="#D1E795"/>
<path d="M160.538 147.785C160.539 147.694 160.55 147.606 160.552 147.516C159.888 148.888 159.503 150.433 159.498 152.076C159.479 157.709 163.83 162.29 169.215 162.308C170.014 162.31 170.787 162.201 171.53 162.014C165.233 160.632 160.515 154.78 160.538 147.785Z" fill="#759B25"/>
<path d="M167.742 88.718C167.763 82.561 163.008 77.554 157.122 77.5345C151.235 77.515 146.447 82.4903 146.427 88.6473C146.406 94.8042 151.161 99.8112 157.047 99.8308C162.934 99.8503 167.722 94.8749 167.742 88.718Z" fill="#8FA62F"/>
<path d="M157.046 100.391C154.044 100.381 151.228 99.1502 149.115 96.9257C147.01 94.7083 145.855 91.7674 145.866 88.6454C145.887 82.2095 150.92 76.9741 157.087 76.9741C163.309 76.995 168.325 82.2637 168.304 88.7193C168.282 95.1553 163.248 100.391 157.083 100.391H157.046Z" fill="#91B437"/>
<path d="M157.087 77.5342C157.099 77.5342 157.11 77.5342 157.122 77.5342C163.008 77.5537 167.763 82.5608 167.742 88.7177C167.722 94.8622 162.952 99.8305 157.082 99.8305C157.07 99.8305 157.059 99.8305 157.047 99.8305C151.161 99.811 146.406 94.8039 146.427 88.647C146.447 82.5021 151.217 77.5343 157.087 77.5342ZM157.087 76.4141C150.613 76.4141 145.327 81.9001 145.305 88.6433C145.294 91.9105 146.502 94.9888 148.708 97.3111C150.927 99.6476 153.887 100.94 157.044 100.951C163.556 100.951 168.842 95.4647 168.864 88.7215C168.887 81.9567 163.621 76.4357 157.125 76.4142L157.087 76.4141Z" fill="#325105"/>
<path d="M161.07 84.4969C161.608 83.7017 161.162 82.4623 160.074 81.7287C158.986 80.9951 157.668 81.045 157.13 81.8403C156.592 82.6356 157.038 83.875 158.126 84.6086C159.214 85.3422 160.532 85.2922 161.07 84.4969Z" fill="#D1E795"/>
<path d="M148.59 84.035C148.59 83.9443 148.602 83.8568 148.604 83.7666C147.94 85.1385 147.555 86.6837 147.549 88.3262C147.531 93.9592 151.881 98.5404 157.267 98.5582C158.065 98.5609 158.838 98.4518 159.582 98.2647C153.285 96.8821 148.567 91.03 148.59 84.035Z" fill="#759B25"/>
<path d="M181.126 119.591C181.147 113.434 176.392 108.427 170.505 108.407C164.619 108.388 159.831 113.363 159.811 119.52C159.79 125.677 164.545 130.684 170.431 130.703C176.317 130.723 181.106 125.747 181.126 119.591Z" fill="#8FA62F"/>
<path d="M170.429 131.263C167.428 131.253 164.612 130.023 162.499 127.798C160.393 125.581 159.239 122.64 159.25 119.518C159.271 113.083 164.305 107.847 170.471 107.847C173.51 107.857 176.326 109.088 178.439 111.312C180.544 113.529 181.698 116.47 181.687 119.592C181.665 126.028 176.632 131.263 170.466 131.263H170.429Z" fill="#91B437"/>
<path d="M170.471 108.407C170.483 108.407 170.493 108.407 170.505 108.407C176.392 108.426 181.147 113.433 181.126 119.59C181.106 125.735 176.336 130.703 170.466 130.703C170.454 130.703 170.443 130.703 170.431 130.703C164.545 130.684 159.79 125.677 159.811 119.52C159.831 113.375 164.601 108.407 170.471 108.407ZM170.471 107.287C163.997 107.287 158.711 112.773 158.689 119.516C158.678 122.783 159.886 125.861 162.092 128.184C164.311 130.52 167.271 131.813 170.427 131.823C176.94 131.823 182.226 126.337 182.248 119.594C182.259 116.327 181.05 113.249 178.845 110.926C176.626 108.59 173.665 107.297 170.509 107.287L170.471 107.287Z" fill="#325105"/>
<path d="M174.454 115.369C174.992 114.574 174.546 113.334 173.458 112.601C172.37 111.867 171.052 111.917 170.515 112.712C169.977 113.508 170.422 114.747 171.51 115.481C172.598 116.214 173.916 116.164 174.454 115.369Z" fill="#D1E795"/>
<path d="M161.974 114.908C161.975 114.817 161.987 114.729 161.988 114.639C161.324 116.011 160.939 117.556 160.934 119.199C160.915 124.832 165.266 129.413 170.651 129.431C171.45 129.433 172.223 129.324 172.966 129.137C166.669 127.755 161.951 121.903 161.974 114.908Z" fill="#759B25"/>
<path d="M182.974 95.6242C182.994 89.4673 178.239 84.4603 172.353 84.4407C166.467 84.4212 161.679 89.3966 161.658 95.5535C161.638 101.71 166.393 106.717 172.279 106.737C178.165 106.757 182.953 101.781 182.974 95.6242Z" fill="#8FA62F"/>
<path d="M172.276 107.297C169.275 107.287 166.459 106.056 164.346 103.832C162.241 101.615 161.086 98.6736 161.097 95.5516C161.119 89.1162 166.152 83.8809 172.318 83.8809C175.356 83.8907 178.173 85.1213 180.285 87.3458C182.391 89.5632 183.545 92.5035 183.535 95.6255C183.513 102.061 178.479 107.297 172.313 107.297H172.276Z" fill="#91B437"/>
<path d="M172.319 84.4405C172.33 84.4405 172.341 84.4405 172.353 84.4405C178.239 84.46 182.994 89.467 182.974 95.6239C182.953 101.768 178.183 106.737 172.314 106.737C172.302 106.737 172.291 106.737 172.279 106.737C166.393 106.717 161.638 101.71 161.658 95.5533C161.679 89.4088 166.449 84.441 172.319 84.4405ZM172.318 83.3203C165.844 83.321 160.559 88.807 160.536 95.5495C160.525 98.8167 161.734 101.895 163.939 104.217C166.158 106.554 169.119 107.846 172.275 107.857C178.788 107.857 184.073 102.371 184.096 95.6278C184.107 92.3606 182.898 89.2823 180.693 86.96C178.474 84.6235 175.513 83.3308 172.357 83.3204L172.318 83.3203Z" fill="#325105"/>
<path d="M176.301 91.4027C176.839 90.6075 176.393 89.3681 175.305 88.6344C174.217 87.9008 172.899 87.9508 172.361 88.7461C171.823 89.5414 172.269 90.7807 173.357 91.5144C174.445 92.248 175.763 92.198 176.301 91.4027Z" fill="#D1E795"/>
<path d="M163.822 90.9412C163.822 90.8505 163.834 90.763 163.835 90.6729C163.172 92.0447 162.786 93.5899 162.781 95.2324C162.762 100.865 167.113 105.447 172.498 105.464C173.297 105.467 174.07 105.358 174.813 105.171C168.517 103.788 163.798 97.9362 163.822 90.9412Z" fill="#759B25"/>
<path d="M195.792 131.95C195.812 125.793 191.057 120.786 185.171 120.766C179.285 120.747 174.497 125.722 174.476 131.879C174.456 138.036 179.211 143.043 185.097 143.063C190.983 143.082 195.771 138.107 195.792 131.95Z" fill="#8FA62F"/>
<path d="M185.094 143.623C182.093 143.613 179.277 142.382 177.164 140.158C175.059 137.94 173.904 135 173.915 131.877C173.937 125.442 178.97 120.207 185.136 120.207C188.174 120.216 190.991 121.447 193.103 123.671C195.209 125.889 196.364 128.83 196.353 131.952C196.331 138.387 191.298 143.623 185.132 143.623H185.094Z" fill="#91B437"/>
<path d="M185.136 120.766C185.148 120.766 185.159 120.766 185.171 120.766C191.057 120.786 195.812 125.793 195.792 131.95C195.771 138.095 191.002 143.062 185.131 143.062C185.12 143.062 185.108 143.062 185.097 143.062C179.211 143.043 174.456 138.036 174.476 131.879C174.496 125.734 179.267 120.767 185.136 120.766ZM185.136 119.646C178.662 119.647 173.377 125.133 173.354 131.875C173.332 138.64 178.598 144.161 185.093 144.183C191.605 144.183 196.891 138.697 196.914 131.953C196.936 125.189 191.67 119.668 185.175 119.646L185.136 119.646Z" fill="#325105"/>
<path d="M189.119 127.728C189.657 126.933 189.211 125.694 188.123 124.96C187.035 124.227 185.717 124.277 185.179 125.072C184.641 125.867 185.087 127.106 186.175 127.84C187.263 128.574 188.581 128.524 189.119 127.728Z" fill="#D1E795"/>
<path d="M176.639 127.267C176.64 127.176 176.652 127.089 176.653 126.999C175.989 128.37 175.604 129.916 175.599 131.558C175.58 137.191 179.931 141.772 185.316 141.79C186.115 141.793 186.888 141.684 187.631 141.497C181.334 140.114 176.616 134.262 176.639 127.267Z" fill="#759B25"/>
<path d="M195.624 158.203C195.645 152.046 190.89 147.039 185.003 147.02C179.117 147 174.329 151.976 174.309 158.133C174.288 164.29 179.043 169.297 184.929 169.316C190.815 169.336 195.604 164.36 195.624 158.203Z" fill="#8FA62F"/>
<path d="M184.927 169.875C181.926 169.866 179.109 168.636 176.997 166.411C174.891 164.194 173.736 161.253 173.747 158.131C173.769 151.695 178.802 146.459 184.968 146.459C188.006 146.469 190.823 147.7 192.935 149.924C195.041 152.142 196.196 155.083 196.185 158.205C196.163 164.64 191.13 169.875 184.964 169.875H184.927Z" fill="#7E9632"/>
<path d="M184.969 147.02C184.981 147.02 184.992 147.02 185.004 147.02C190.89 147.039 195.645 152.046 195.624 158.203C195.604 164.348 190.834 169.316 184.964 169.316C184.952 169.316 184.941 169.316 184.929 169.316C179.043 169.296 174.288 164.289 174.308 158.132C174.329 151.987 179.099 147.02 184.969 147.02ZM184.969 145.899C178.495 145.899 173.209 151.385 173.187 158.129C173.164 164.893 178.43 170.415 184.926 170.436C191.438 170.436 196.724 164.95 196.746 158.207C196.769 151.442 191.502 145.921 185.007 145.899H184.969Z" fill="#325105"/>
<path d="M188.952 153.982C189.49 153.187 189.044 151.947 187.956 151.214C186.868 150.48 185.55 150.53 185.012 151.325C184.474 152.12 184.92 153.36 186.008 154.093C187.096 154.827 188.414 154.777 188.952 153.982Z" fill="#D1E795"/>
<path d="M176.472 153.52C176.472 153.43 176.484 153.342 176.486 153.252C175.822 154.624 175.437 156.169 175.431 157.812C175.412 163.445 179.763 168.026 185.148 168.044C185.947 168.046 186.72 167.937 187.464 167.75C181.167 166.367 176.449 160.515 176.472 153.52Z" fill="#5B7717"/>
<path d="M193.789 147.736C193.809 141.579 189.054 136.572 183.168 136.552C177.282 136.533 172.494 141.508 172.473 147.665C172.453 153.822 177.208 158.829 183.094 158.848C188.98 158.868 193.768 153.892 193.789 147.736Z" fill="#8FA62F"/>
<path d="M183.092 159.408C180.09 159.398 177.274 158.168 175.161 155.943C173.056 153.726 171.901 150.786 171.912 147.663C171.934 141.227 176.967 135.992 183.133 135.992C189.355 136.013 194.371 141.281 194.35 147.737C194.328 154.173 189.294 159.408 183.128 159.408H183.092Z" fill="#91B437"/>
<path d="M183.133 136.552C183.145 136.552 183.156 136.552 183.168 136.552C189.054 136.571 193.809 141.578 193.789 147.735C193.768 153.88 188.998 158.848 183.128 158.848C183.117 158.848 183.106 158.848 183.094 158.848C177.208 158.828 172.453 153.822 172.473 147.665C172.493 141.52 177.263 136.552 183.133 136.552ZM183.133 135.432C176.659 135.432 171.373 140.918 171.351 147.661C171.34 150.928 172.549 154.006 174.754 156.329C176.973 158.665 179.934 159.958 183.09 159.968C189.603 159.968 194.888 154.482 194.911 147.739C194.933 140.974 189.667 135.453 183.172 135.432H183.133Z" fill="#325105"/>
<path d="M187.116 143.514C187.654 142.719 187.208 141.479 186.12 140.746C185.033 140.012 183.715 140.062 183.177 140.857C182.639 141.653 183.085 142.892 184.173 143.626C185.26 144.359 186.578 144.309 187.116 143.514Z" fill="#D1E795"/>
<path d="M174.637 143.053C174.637 142.962 174.649 142.874 174.651 142.784C173.987 144.156 173.602 145.701 173.596 147.344C173.578 152.977 177.928 157.558 183.313 157.576C184.112 157.578 184.885 157.469 185.629 157.282C179.332 155.9 174.614 150.048 174.637 143.053Z" fill="#759B25"/>
<path d="M194.698 111.773C194.718 105.616 189.963 100.609 184.077 100.59C178.191 100.57 173.403 105.546 173.382 111.702C173.362 117.859 178.117 122.866 184.003 122.886C189.889 122.905 194.677 117.93 194.698 111.773Z" fill="#8FA62F"/>
<path d="M184.001 123.446C180.999 123.436 178.183 122.205 176.07 119.981C173.965 117.764 172.81 114.823 172.821 111.701C172.842 105.265 177.876 100.029 184.043 100.029C190.264 100.05 195.28 105.319 195.259 111.775C195.237 118.21 190.203 123.446 184.038 123.446H184.001Z" fill="#ABCE3E"/>
<path d="M184.043 100.589C184.054 100.589 184.065 100.589 184.077 100.589C189.963 100.609 194.719 105.616 194.698 111.773C194.678 117.917 189.908 122.886 184.038 122.886C184.026 122.886 184.015 122.886 184.003 122.886C178.117 122.866 173.362 117.859 173.382 111.702C173.403 105.558 178.173 100.59 184.043 100.589ZM184.042 99.4692C177.568 99.4699 172.283 104.956 172.26 111.698C172.238 118.463 177.504 123.984 183.999 124.006C190.512 124.006 195.797 118.52 195.82 111.777C195.831 108.509 194.622 105.431 192.417 103.109C190.198 100.772 187.237 99.4798 184.081 99.4693L184.042 99.4692Z" fill="#325105"/>
<path d="M188.026 107.552C188.563 106.756 188.118 105.517 187.03 104.783C185.942 104.05 184.624 104.1 184.086 104.895C183.548 105.69 183.994 106.93 185.082 107.663C186.17 108.397 187.488 108.347 188.026 107.552Z" fill="#DDEF9C"/>
<path d="M175.546 107.09C175.547 106.999 175.558 106.912 175.56 106.822C174.896 108.194 174.511 109.739 174.505 111.381C174.487 117.014 178.837 121.596 184.223 121.613C185.022 121.616 185.795 121.507 186.538 121.32C180.241 119.937 175.523 114.085 175.546 107.09Z" fill="#759B25"/>
<path d="M203.517 175.332C203.538 169.175 198.783 164.168 192.897 164.149C187.01 164.129 182.222 169.105 182.202 175.262C182.181 181.418 186.936 186.425 192.822 186.445C198.709 186.465 203.497 181.489 203.517 175.332Z" fill="#8FA62F"/>
<path d="M192.82 187.005C186.635 186.984 181.619 181.716 181.64 175.26C181.662 168.824 186.695 163.589 192.861 163.589C195.9 163.599 198.716 164.829 200.829 167.053C202.934 169.271 204.089 172.211 204.078 175.334C204.057 181.769 199.024 187.005 192.857 187.005H192.82Z" fill="#91B437"/>
<path d="M192.862 164.148C192.874 164.148 192.885 164.148 192.896 164.148C198.783 164.168 203.538 169.175 203.517 175.332C203.497 181.477 198.727 186.445 192.857 186.445C192.845 186.445 192.834 186.445 192.822 186.445C186.936 186.425 182.181 181.418 182.202 175.261C182.222 169.117 186.992 164.149 192.862 164.148ZM192.862 163.028C186.388 163.029 181.102 168.515 181.08 175.258C181.069 178.525 182.277 181.603 184.483 183.925C186.702 186.262 189.662 187.554 192.819 187.565C199.331 187.565 204.617 182.079 204.639 175.336C204.65 172.069 203.441 168.99 201.236 166.668C199.017 164.331 196.057 163.039 192.9 163.028H192.862Z" fill="#325105"/>
<path d="M196.844 171.111C197.382 170.315 196.936 169.076 195.849 168.342C194.761 167.609 193.443 167.659 192.905 168.454C192.367 169.249 192.813 170.489 193.901 171.222C194.988 171.956 196.307 171.906 196.844 171.111Z" fill="#D1E795"/>
<path d="M184.365 170.649C184.365 170.559 184.377 170.471 184.379 170.381C183.715 171.753 183.33 173.298 183.324 174.94C183.306 180.573 187.656 185.155 193.041 185.172C193.84 185.175 194.613 185.066 195.357 184.879C189.06 183.496 184.342 177.644 184.365 170.649Z" fill="#759B25"/>
<path d="M214.061 159.465C214.082 153.308 209.327 148.301 203.44 148.281C197.554 148.262 192.766 153.237 192.746 159.394C192.725 165.551 197.48 170.558 203.366 170.577C209.252 170.597 214.041 165.622 214.061 159.465Z" fill="#8FA62F"/>
<path d="M203.364 171.137C200.363 171.127 197.546 169.897 195.434 167.672C193.328 165.455 192.174 162.515 192.184 159.392C192.206 152.956 197.239 147.721 203.405 147.721C206.444 147.731 209.26 148.961 211.373 151.186C213.478 153.403 214.633 156.344 214.622 159.466C214.601 165.901 209.568 171.137 203.401 171.137H203.364Z" fill="#91B437"/>
<path d="M203.406 148.281C203.417 148.281 203.429 148.281 203.44 148.281C209.327 148.3 214.082 153.307 214.061 159.464C214.041 165.609 209.271 170.577 203.401 170.577C203.389 170.577 203.378 170.577 203.366 170.577C197.48 170.558 192.725 165.551 192.745 159.394C192.766 153.249 197.536 148.281 203.406 148.281ZM203.406 147.161C196.931 147.161 191.646 152.647 191.624 159.39C191.613 162.657 192.821 165.735 195.027 168.058C197.246 170.394 200.206 171.687 203.363 171.697C209.875 171.697 215.16 166.211 215.183 159.468C215.194 156.201 213.985 153.123 211.78 150.8C209.561 148.464 206.601 147.171 203.444 147.161L203.406 147.161Z" fill="#325105"/>
<path d="M207.389 155.243C207.927 154.448 207.481 153.208 206.393 152.475C205.305 151.741 203.987 151.791 203.449 152.586C202.911 153.382 203.357 154.621 204.445 155.355C205.533 156.088 206.851 156.038 207.389 155.243Z" fill="#D1E795"/>
<path d="M194.909 154.782C194.909 154.691 194.921 154.603 194.923 154.513C194.259 155.885 193.874 157.43 193.868 159.073C193.849 164.706 198.2 169.287 203.585 169.305C204.384 169.307 205.157 169.198 205.901 169.011C199.604 167.629 194.886 161.777 194.909 154.782Z" fill="#759B25"/>
<path d="M208.495 142.097C208.515 135.94 203.76 130.933 197.874 130.914C191.988 130.894 187.2 135.87 187.179 142.027C187.159 148.184 191.914 153.191 197.8 153.21C203.686 153.23 208.474 148.254 208.495 142.097Z" fill="#8FA62F"/>
<path d="M197.798 153.77C194.796 153.76 191.98 152.53 189.867 150.305C187.762 148.088 186.607 145.147 186.618 142.025C186.639 135.589 191.673 130.354 197.84 130.354C204.061 130.374 209.077 135.643 209.056 142.099C209.034 148.535 204.001 153.77 197.835 153.77H197.798Z" fill="#ABCE3E"/>
<path d="M197.839 130.914C197.851 130.914 197.862 130.914 197.874 130.914C203.76 130.933 208.515 135.94 208.495 142.097C208.474 148.242 203.705 153.21 197.834 153.21C197.823 153.21 197.811 153.21 197.8 153.21C191.914 153.19 187.159 148.183 187.179 142.026C187.2 135.881 191.969 130.914 197.839 130.914ZM197.839 129.793C191.365 129.793 186.08 135.28 186.057 142.023C186.046 145.29 187.255 148.368 189.46 150.69C191.679 153.027 194.64 154.32 197.796 154.33C204.309 154.33 209.594 148.844 209.617 142.101C209.628 138.834 208.419 135.755 206.214 133.433C203.995 131.097 201.034 129.804 197.878 129.793H197.839Z" fill="#325105"/>
<path d="M201.822 137.876C202.36 137.081 201.914 135.841 200.827 135.108C199.739 134.374 198.421 134.424 197.883 135.219C197.345 136.014 197.791 137.254 198.879 137.987C199.966 138.721 201.285 138.671 201.822 137.876Z" fill="#DDEF9C"/>
<path d="M189.343 137.414C189.343 137.324 189.355 137.236 189.356 137.146C188.693 138.518 188.307 140.063 188.302 141.706C188.283 147.339 192.634 151.92 198.019 151.938C198.818 151.94 199.591 151.831 200.334 151.644C194.038 150.261 189.319 144.409 189.343 137.414Z" fill="#759B25"/>
<path d="M139.849 100.268C139.87 94.1108 135.115 89.1038 129.229 89.0843C123.342 89.0648 118.554 94.0401 118.534 100.197C118.513 106.354 123.268 111.361 129.154 111.381C135.041 111.4 139.829 106.425 139.849 100.268Z" fill="#8FA62F"/>
<path d="M129.153 111.94C122.967 111.92 117.951 106.651 117.972 100.195C117.994 93.7593 123.028 88.5239 129.194 88.5239C132.232 88.5338 135.048 89.7644 137.161 91.9889C139.266 94.2062 140.421 97.1466 140.41 100.269C140.389 106.705 135.356 111.94 129.19 111.94H129.153Z" fill="#ABCE3E"/>
<path d="M129.194 89.084C129.206 89.084 129.217 89.084 129.229 89.084C135.115 89.1035 139.87 94.1105 139.849 100.268C139.829 106.412 135.059 111.38 129.189 111.38C129.177 111.38 129.166 111.38 129.154 111.38C123.268 111.361 118.513 106.354 118.534 100.197C118.554 94.0523 123.324 89.0846 129.194 89.084ZM129.194 87.9639C122.719 87.9645 117.434 93.4506 117.412 100.193C117.401 103.46 118.609 106.539 120.815 108.861C123.034 111.197 125.994 112.49 129.151 112.5C135.663 112.5 140.949 107.014 140.971 100.271C140.994 93.5065 135.727 87.9855 129.232 87.964L129.194 87.9639Z" fill="#325105"/>
<path d="M133.177 96.0468C133.715 95.2515 133.269 94.0121 132.181 93.2785C131.093 92.5449 129.775 92.5949 129.237 93.3901C128.699 94.1854 129.145 95.4248 130.233 96.1584C131.321 96.892 132.639 96.842 133.177 96.0468Z" fill="#DDEF9C"/>
<path d="M120.697 95.5848C120.697 95.4941 120.709 95.4066 120.711 95.3164C120.047 96.6883 119.662 98.2335 119.656 99.876C119.638 105.509 123.988 110.09 129.374 110.108C130.172 110.111 130.945 110.002 131.689 109.815C125.392 108.432 120.674 102.58 120.697 95.5848Z" fill="#759B25"/>
<path d="M153.134 83.7936C153.154 77.6367 148.399 72.6297 142.513 72.6102C136.627 72.5907 131.838 77.566 131.818 83.723C131.797 89.8799 136.552 94.8869 142.439 94.9064C148.325 94.926 153.113 89.9506 153.134 83.7936Z" fill="#8FA62F"/>
<path d="M142.437 95.4663C139.435 95.4565 136.619 94.2259 134.506 92.0014C132.401 89.784 131.246 86.8431 131.257 83.7211C131.278 77.2852 136.311 72.0498 142.477 72.0498C148.7 72.0706 153.716 77.3394 153.695 83.795C153.673 90.231 148.639 95.4663 142.474 95.4663H142.437Z" fill="#91B437"/>
<path d="M142.478 72.6099C142.49 72.6099 142.501 72.6099 142.513 72.6099C148.399 72.6294 153.154 77.6364 153.134 83.7934C153.113 89.9378 148.343 94.9062 142.473 94.9062C142.461 94.9062 142.451 94.9062 142.439 94.9062C136.552 94.8867 131.797 89.8796 131.818 83.7227C131.838 77.5782 136.608 72.6105 142.478 72.6099ZM142.478 71.4897C136.004 71.4904 130.718 76.9765 130.696 83.719C130.673 90.4838 135.94 96.0048 142.435 96.0263C148.947 96.0263 154.233 90.5404 154.255 83.7972C154.278 77.0324 149.012 71.5114 142.516 71.4898L142.478 71.4897Z" fill="#325105"/>
<path d="M146.461 79.5722C146.999 78.7769 146.553 77.5375 145.465 76.8039C144.377 76.0703 143.059 76.1202 142.521 76.9155C141.983 77.7108 142.429 78.9502 143.517 79.6838C144.605 80.4174 145.923 80.3674 146.461 79.5722Z" fill="#D1E795"/>
<path d="M133.981 79.1107C133.982 79.02 133.993 78.9325 133.995 78.8423C133.331 80.2141 132.946 81.7594 132.94 83.4019C132.922 89.0349 137.272 93.6161 142.658 93.6339C143.457 93.6366 144.23 93.5275 144.973 93.3404C138.676 91.9578 133.958 86.1057 133.981 79.1107Z" fill="#759B25"/>
<path d="M173.489 76.6394C173.509 70.4824 168.754 65.4754 162.868 65.4559C156.982 65.4364 152.194 70.4117 152.173 76.5687C152.153 82.7256 156.908 87.7326 162.794 87.7521C168.68 87.7717 173.469 82.7963 173.489 76.6394Z" fill="#8FA62F"/>
<path d="M162.792 88.3121C156.607 88.2912 151.592 83.0225 151.612 76.5668C151.634 70.1309 156.667 64.8955 162.833 64.8955C165.873 64.9054 168.688 66.136 170.802 68.3605C172.906 70.5778 174.061 73.5188 174.05 76.6408C174.028 83.0767 168.994 88.3121 162.828 88.3121H162.792Z" fill="#ABCE3E"/>
<path d="M162.834 65.4556C162.845 65.4556 162.856 65.4556 162.868 65.4556C168.754 65.4751 173.51 70.4822 173.489 76.6391C173.469 82.7836 168.699 87.7519 162.829 87.7519C162.817 87.7519 162.806 87.7519 162.794 87.7519C156.908 87.7324 152.153 82.7253 152.173 76.5684C152.194 70.4239 156.964 65.4562 162.834 65.4556ZM162.833 64.3354C156.359 64.3361 151.074 69.8222 151.051 76.5647C151.04 79.8319 152.249 82.9101 154.454 85.2324C156.673 87.569 159.634 88.8616 162.79 88.872C169.303 88.872 174.588 83.3861 174.611 76.6429C174.622 73.3757 173.413 70.2975 171.208 67.9752C168.989 65.6386 166.028 64.346 162.872 64.3356L162.833 64.3354Z" fill="#325105"/>
<path d="M166.817 72.4178C167.355 71.6226 166.909 70.3832 165.821 69.6496C164.733 68.916 163.415 68.966 162.877 69.7612C162.339 70.5565 162.785 71.7959 163.873 72.5295C164.961 73.2631 166.279 73.2131 166.817 72.4178Z" fill="#DDEF9C"/>
<path d="M154.337 71.9564C154.338 71.8656 154.349 71.7782 154.351 71.688C153.687 73.0598 153.302 74.6051 153.296 76.2476C153.278 81.8806 157.628 86.4618 163.014 86.4796C163.813 86.4823 164.586 86.3732 165.329 86.1861C159.032 84.8035 154.314 78.9514 154.337 71.9564Z" fill="#759B25"/>
<path d="M133.453 119.738C133.474 113.581 128.719 108.574 122.833 108.554C116.946 108.535 112.158 113.51 112.138 119.667C112.117 125.824 116.872 130.831 122.758 130.85C128.645 130.87 133.433 125.894 133.453 119.738Z" fill="#8FA62F"/>
<path d="M122.756 131.41C116.571 131.39 111.555 126.121 111.576 119.665C111.598 113.229 116.632 107.994 122.797 107.994C125.837 108.004 128.652 109.235 130.765 111.459C132.87 113.676 134.025 116.617 134.014 119.739C133.992 126.175 128.959 131.41 122.793 131.41H122.756Z" fill="#ABCE3E"/>
<path d="M122.798 108.554C122.81 108.554 122.821 108.554 122.833 108.554C128.719 108.573 133.474 113.58 133.453 119.737C133.433 125.882 128.663 130.85 122.793 130.85C122.781 130.85 122.77 130.85 122.758 130.85C116.872 130.831 112.117 125.824 112.138 119.667C112.158 113.522 116.928 108.554 122.798 108.554ZM122.798 107.434C116.323 107.434 111.038 112.92 111.016 119.663C111.005 122.93 112.213 126.008 114.419 128.331C116.638 130.667 119.598 131.96 122.755 131.97C129.267 131.97 134.553 126.484 134.575 119.741C134.598 112.976 129.331 107.455 122.836 107.434L122.798 107.434Z" fill="#325105"/>
<path d="M126.781 115.516C127.319 114.721 126.873 113.482 125.785 112.748C124.697 112.015 123.379 112.065 122.841 112.86C122.303 113.655 122.749 114.895 123.837 115.628C124.925 116.362 126.243 116.312 126.781 115.516Z" fill="#DDEF9C"/>
<path d="M114.301 115.055C114.301 114.964 114.313 114.876 114.315 114.786C113.651 116.158 113.266 117.703 113.26 119.346C113.242 124.979 117.592 129.56 122.978 129.578C123.776 129.58 124.549 129.471 125.293 129.284C118.996 127.902 114.278 122.05 114.301 115.055Z" fill="#759B25"/>
<path d="M64.5312 210.033C64.5312 210.033 116.692 247.586 135.897 220.992C149.561 202.073 142.834 182 133.16 167.031C131.687 164.753 127.293 164.787 125.501 162.98C119.642 157.078 125.266 156.397 123.664 154.578C117.618 147.715 112.546 143.548 112.546 143.548L109.216 141.151C109.216 141.151 103.654 137.662 95.2224 134.101C92.9884 133.158 94.1169 138.701 86.658 135.015C84.3755 133.888 83.0192 129.715 80.3894 129.039C63.1095 124.602 41.9101 124.57 28.247 143.489C9.04124 170.083 61.2018 207.636 61.2018 207.636L64.5312 210.033Z" fill="#C58948"/>
<path d="M64.5312 210.033C64.5312 210.033 116.692 247.586 135.897 220.992C149.561 202.073 142.834 182 133.16 167.031C131.687 164.753 127.293 164.787 125.501 162.98C119.642 157.078 125.266 156.397 123.664 154.578C117.618 147.715 112.546 143.548 112.546 143.548L109.216 141.151C109.216 141.151 103.654 137.662 95.2224 134.101C92.9884 133.158 94.1169 138.701 86.658 135.015C84.3755 133.888 83.0192 129.715 80.3894 129.039C63.1095 124.602 41.9101 124.57 28.247 143.489C9.04124 170.083 61.2018 207.636 61.2018 207.636L64.5312 210.033Z" stroke="#7C5125" stroke-width="3.6587" stroke-miterlimit="10"/>
<path d="M75.1452 138.019C77.5958 138.809 79.1671 142.497 81.3374 143.647C88.4304 147.407 86.9567 142.561 89.0683 143.549C97.0376 147.278 102.386 150.717 102.386 150.717L105.612 153.04C105.612 153.04 110.569 157.021 116.63 163.393C118.236 165.081 113.166 165.215 118.979 170.747C120.758 172.44 124.759 172.764 126.283 174.836C135.164 186.905 142.244 202.227 136.128 216.094C137.26 215.221 138.29 214.175 139.195 212.922C150.125 197.788 142.384 180.03 132.365 166.415C130.84 164.343 126.839 164.019 125.061 162.326C119.248 156.794 124.318 156.66 122.712 154.972C116.651 148.6 111.694 144.619 111.694 144.619L108.468 142.296C108.468 142.296 103.119 138.858 95.1499 135.128C93.0383 134.14 94.512 138.985 87.419 135.226C85.2487 134.076 83.6774 130.388 81.2269 129.598C65.1244 124.407 45.8044 122.681 34.8744 137.816C33.9695 139.069 33.301 140.376 32.8296 141.723C44.0748 131.549 60.8717 133.418 75.1452 138.019Z" fill="#DB9B4F"/>
<path d="M132.882 166.672C131.2 164.754 127.193 164.685 125.501 162.981C119.642 157.079 125.266 156.397 123.664 154.578C123.605 154.511 123.546 154.447 123.487 154.379C106.987 185.074 98.0039 193.711 98.0039 193.711C98.0039 193.711 119.794 186.478 132.882 166.672Z" fill="#FCDC8D" stroke="#EABC54" stroke-width="1.2196" stroke-linecap="round" stroke-linejoin="round"/>
<path d="M95.2224 134.101C92.9883 133.158 94.1168 138.701 86.6578 135.015C84.4446 133.922 83.0988 129.975 80.622 129.12C65.9717 147.766 65.98 170.655 65.98 170.655C65.98 170.655 71.3459 159.427 95.2759 134.125C95.2577 134.117 95.2406 134.109 95.2224 134.101Z" fill="#FCDC8D" stroke="#EABC54" stroke-width="1.2196" stroke-linecap="round" stroke-linejoin="round"/>
<path d="M64.5312 210.033C64.5312 210.033 116.692 247.586 135.897 220.992C149.561 202.073 142.834 182 133.16 167.031C131.687 164.753 127.293 164.787 125.501 162.98C119.642 157.078 125.266 156.397 123.664 154.578C122.675 153.455 121.667 152.372 120.673 151.346C114.497 144.97 107.248 139.752 99.2383 135.914C97.9495 135.297 96.6021 134.684 95.2224 134.101C92.9884 133.158 94.1169 138.701 86.658 135.015C84.3755 133.888 83.0192 129.715 80.3894 129.039C63.1095 124.602 41.9101 124.57 28.247 143.489C9.04124 170.083 61.2018 207.636 61.2018 207.636L64.5312 210.033Z" stroke="#7C5125" stroke-width="3.6587" stroke-miterlimit="10"/>
<path d="M77.4876 192.56L73.7138 189.843C73.7138 189.843 42.7752 167.565 31.9739 146.503C18.1488 169.567 64.6781 203.071 64.6781 203.071L67.7712 205.298C67.7712 205.298 114.305 238.795 131.856 218.414C108.43 214.833 77.4876 192.56 77.4876 192.56Z" fill="#AA7139"/>
<path d="M203.897 200.304C203.897 200.304 256.345 163.152 237.345 136.411C223.828 117.388 202.629 117.257 185.315 121.562C182.68 122.217 181.292 126.38 179.001 127.49C171.514 131.119 172.685 125.584 170.444 126.51C161.985 130.006 156.396 133.452 156.396 133.452L153.048 135.824C153.048 135.824 147.944 139.952 141.845 146.768C140.229 148.574 145.848 149.299 139.944 155.156C138.137 156.948 133.744 156.882 132.254 159.148C122.465 174.042 115.584 194.063 129.101 213.086C148.102 239.827 200.55 202.675 200.55 202.675L203.897 200.304Z" fill="#C58948"/>
<path d="M203.897 200.304C203.897 200.304 256.345 163.152 237.345 136.411C223.828 117.388 202.629 117.257 185.315 121.562C182.68 122.217 181.292 126.38 179.001 127.49C171.514 131.119 172.685 125.584 170.444 126.51C161.985 130.006 156.396 133.452 156.396 133.452L153.048 135.824C153.048 135.824 147.944 139.952 141.845 146.768C140.229 148.574 145.848 149.299 139.944 155.156C138.137 156.948 133.744 156.882 132.254 159.148C122.465 174.042 115.584 194.063 129.101 213.086C148.102 239.827 200.55 202.675 200.55 202.675L203.897 200.304Z" stroke="#7C5125" stroke-width="3.6587" stroke-miterlimit="10"/>
<path d="M139.07 167.005C140.611 164.945 144.614 164.652 146.406 162.973C152.261 157.485 147.192 157.312 148.811 155.636C154.921 149.311 159.908 145.369 159.908 145.369L163.153 143.071C163.153 143.071 168.527 139.673 176.525 136.005C178.644 135.033 177.133 139.867 184.255 136.162C186.434 135.028 188.034 131.352 190.49 130.581C204.799 126.09 221.61 124.351 232.776 134.611C232.315 133.26 231.657 131.947 230.762 130.687C219.948 115.469 200.616 117.047 184.474 122.114C182.017 122.885 180.418 126.561 178.238 127.695C171.117 131.399 172.628 126.565 170.509 127.537C162.511 131.205 157.136 134.603 157.136 134.603L153.892 136.901C153.892 136.901 148.904 140.844 142.794 147.169C141.176 148.845 146.244 149.018 140.389 154.505C138.598 156.184 134.594 156.477 133.054 158.538C122.931 172.075 115.052 189.773 125.866 204.991C126.761 206.251 127.784 207.305 128.908 208.186C122.899 194.273 130.097 179.005 139.07 167.005Z" fill="#DB9B4F"/>
<path d="M184.885 121.708C182.523 122.678 181.164 126.442 179.001 127.49C171.514 131.118 172.685 125.584 170.444 126.51C170.36 126.545 170.281 126.579 170.198 126.613C193.959 152.123 199.243 163.401 199.243 163.401C199.243 163.401 199.428 140.475 184.885 121.708Z" fill="#FCDC8D" stroke="#EABC54" stroke-width="1.2196" stroke-linecap="round" stroke-linejoin="round"/>
<path d="M141.845 146.768C140.229 148.574 145.848 149.299 139.944 155.156C138.192 156.894 134.017 156.89 132.406 158.954C145.346 178.822 167.042 186.21 167.042 186.21C167.042 186.21 158.134 177.512 141.885 146.725C141.871 146.739 141.858 146.753 141.845 146.768Z" fill="#FCDC8D" stroke="#EABC54" stroke-width="1.2196" stroke-linecap="round" stroke-linejoin="round"/>
<path d="M203.897 200.304C203.897 200.304 256.345 163.152 237.345 136.411C223.828 117.388 202.629 117.257 185.315 121.562C182.68 122.217 181.292 126.38 179.001 127.49C171.514 131.119 172.685 125.584 170.444 126.51C169.059 127.082 167.707 127.685 166.414 128.292C158.375 132.068 151.086 137.231 144.861 143.56C143.859 144.578 142.843 145.653 141.845 146.768C140.229 148.574 145.848 149.299 139.944 155.156C138.137 156.948 133.744 156.882 132.254 159.148C122.465 174.042 115.584 194.063 129.101 213.086C148.102 239.827 200.55 202.675 200.55 202.675L203.897 200.304Z" stroke="#7C5125" stroke-width="3.6587" stroke-miterlimit="10"/>
<path d="M191.523 182.415L187.728 185.103C187.728 185.103 156.615 207.138 133.163 210.539C150.556 231.055 197.346 197.915 197.346 197.915L200.456 195.712C200.456 195.712 247.242 162.566 233.595 139.397C222.632 160.375 191.523 182.415 191.523 182.415Z" fill="#AA7139"/>
<path d="M65.0017 69.6685C64.3433 67.4293 65.6317 65.0731 67.8743 64.4151L83.4207 59.853C83.8108 59.7386 84.2129 59.6807 84.6171 59.6807C86.484 59.6807 88.1559 60.9304 88.6828 62.7195L91.6004 72.6303L67.9203 79.5798L65.0017 69.6685Z" fill="#D8AD23"/>
<path d="M84.6177 61.3604C85.7223 61.3604 86.7409 62.0811 87.0682 63.193L89.5112 71.492L69.0604 77.4935L66.6175 69.1946C66.2196 67.8427 66.9946 66.4245 68.3486 66.0272L83.896 61.4646C84.1365 61.394 84.3791 61.3604 84.6177 61.3604ZM84.6177 58C84.053 58 83.4908 58.0809 82.9468 58.2406L67.3994 62.8032C64.267 63.7224 62.4677 67.0148 63.3884 70.1423L65.8313 78.4413L66.7803 81.6654L70.0094 80.7179L90.4602 74.7164L93.6893 73.7687L92.7403 70.5446L90.2973 62.2456C89.5615 59.746 87.2259 58 84.6177 58Z" fill="#5B3F1D"/>
<path d="M70.435 67.166L68.7658 67.6559C68.335 67.7823 68.0885 68.2334 68.2151 68.6635L69.9711 74.6289C70.0977 75.059 70.5495 75.3051 70.9803 75.1787L72.6495 74.6889C73.0802 74.5625 73.3268 74.1114 73.2002 73.6813L71.4441 67.7159C71.3175 67.2858 70.8657 67.0396 70.435 67.166Z" fill="#A37236"/>
<path d="M84.4277 63.0596L82.7584 63.5494C82.3277 63.6758 82.0811 64.127 82.2078 64.5571L83.9638 70.5225C84.0904 70.9525 84.5422 71.1987 84.9729 71.0723L86.6422 70.5824C87.0729 70.456 87.3195 70.0049 87.1929 69.5749L85.4368 63.6094C85.3102 63.1794 84.8584 62.9332 84.4277 63.0596Z" fill="#63421E"/>
<path d="M94.5372 206.763C90.6336 206.763 87.1309 204.13 86.0223 200.36L65.7703 131.563C65.2641 130.403 60.8938 119.262 72.2002 104.146C75.0532 100.33 73.997 97.8388 73.9499 97.7344L73.9203 97.6666L70.8701 87.3146C70.7913 87.3216 70.7113 87.3249 70.6324 87.3249C69.3965 87.3249 68.29 86.4974 67.9417 85.3133L66.994 82.0896C66.7814 81.3731 66.8625 80.6162 67.2219 79.9587C67.5801 79.3019 68.1739 78.8238 68.8937 78.6132L90.3552 72.3151C90.6138 72.2396 90.88 72.2007 91.1474 72.2007C92.3833 72.2007 93.4898 73.0282 93.8381 74.2124L94.7858 77.436C95.1681 78.734 94.5612 80.0909 93.4087 80.7003L96.4555 91.0529L96.4675 91.1448C96.4817 91.2405 96.9429 93.9057 101.412 95.5734C119.111 102.177 121.472 113.908 121.676 115.157L141.928 183.954C143.174 188.184 141.203 192.615 137.243 194.489L137.138 194.533C123.664 199.309 109.773 203.387 95.8495 206.653L95.6721 206.688C95.2908 206.739 94.9119 206.763 94.5372 206.763Z" fill="#394524"/>
<path d="M91.1471 73.321C91.8745 73.321 92.5453 73.7956 92.7609 74.5278L93.7099 77.7518C93.972 78.6421 93.4616 79.576 92.5699 79.8377L92.0318 79.9956L95.3535 91.2799C95.3535 91.2799 95.7644 94.662 101.019 96.6226C118.915 103.3 120.579 115.401 120.579 115.401L140.851 184.269C141.927 187.924 140.21 191.845 136.762 193.478C123.273 198.26 109.528 202.294 95.5929 205.563L95.5271 205.578C95.1953 205.621 94.8644 205.642 94.5374 205.642C91.1358 205.642 88.0799 203.378 87.0983 200.044L66.8255 131.175C66.8255 131.175 61.667 120.1 73.0982 104.816C76.4545 100.329 74.9673 97.2625 74.9673 97.2625L71.6456 85.9782L71.1074 86.1362C70.949 86.1827 70.7893 86.2048 70.6321 86.2048C69.9048 86.2048 69.234 85.7301 69.0184 84.998L68.0694 81.774C67.8073 80.8837 68.3176 79.9498 69.2093 79.6881L90.6716 73.3897C90.8299 73.3433 90.9899 73.321 91.1471 73.321ZM91.1471 71.0807C90.7725 71.0807 90.3996 71.1345 90.039 71.2403L68.5768 77.5386C67.5705 77.8339 66.7396 78.5028 66.2373 79.422C65.7348 80.3413 65.6211 81.4008 65.9169 82.4056L66.8659 85.6296C67.2954 87.0884 68.5463 88.16 70.0189 88.3962L72.8148 97.8942L72.8898 98.1489L72.9327 98.2152C73.0399 98.5397 73.5366 100.486 71.3006 103.476C59.8622 118.769 64.0288 130.308 64.7119 131.938L84.946 200.676C86.1952 204.919 90.1395 207.883 94.5377 207.883C94.9628 207.883 95.3928 207.855 95.8159 207.8L95.9289 207.785L96.0398 207.759L96.1056 207.744C110.068 204.469 123.999 200.38 137.514 195.589L137.621 195.551L137.724 195.502C142.186 193.389 144.406 188.4 143.004 183.638L122.77 114.9C122.461 113.16 119.712 101.206 101.804 94.524C98.0613 93.1273 97.5835 91.0303 97.5811 91.0101L97.5586 90.826L97.5063 90.6481L94.7112 81.1525C95.0421 80.8573 95.3235 80.5042 95.5423 80.1036C96.0448 79.1844 96.1585 78.1247 95.8627 77.1201L94.9137 73.8961C94.4255 72.2383 92.8766 71.0807 91.1471 71.0807Z" fill="#2B3516"/>
<path d="M102.051 203.668L101.985 203.683C98.2013 204.173 94.6324 201.804 93.5565 198.148L73.2836 129.28C73.2836 129.28 68.1249 118.205 79.5564 102.921C82.9127 98.4332 81.4254 95.367 81.4254 95.367L78.1036 84.0827L77.5655 84.2406C76.6737 84.5023 75.7385 83.9926 75.4764 83.1025L74.5273 79.8783C74.2652 78.988 74.7756 78.0541 75.6673 77.7925L69.2091 79.6877C68.3173 79.9493 67.8071 80.8833 68.0692 81.7735L69.0183 84.9976C69.2804 85.8879 70.2156 86.3976 71.1074 86.1358L71.6455 85.9779L74.9673 97.2622C74.9673 97.2622 76.4546 100.328 73.0982 104.816C61.6668 120.1 66.8255 131.175 66.8255 131.175L87.0983 200.044C88.1743 203.699 91.7433 206.068 95.5271 205.578L95.5927 205.563C103.639 203.676 111.619 201.524 119.525 199.13C113.737 200.774 107.912 202.293 102.051 203.668Z" fill="#566624"/>
<path d="M83.3724 141.497L112.269 133.017C114.383 132.397 116.6 133.605 117.221 135.716L124.462 160.313C125.083 162.424 123.873 164.638 121.76 165.258L92.9417 173.715C90.8385 174.332 88.6319 173.143 87.9986 171.048C86.1277 164.857 82.4449 152.628 80.6607 146.411C80.0565 144.306 81.2684 142.115 83.3724 141.497Z" fill="#BA9F7E"/>
<path d="M83.3724 141.497L112.269 133.017C114.383 132.397 116.6 133.605 117.221 135.716L124.462 160.313C125.083 162.424 123.873 164.638 121.76 165.258L92.9417 173.715C90.8385 174.332 88.6319 173.143 87.9986 171.048C86.1277 164.857 82.4449 152.628 80.6607 146.411C80.0565 144.306 81.2684 142.115 83.3724 141.497Z" stroke="#8C7862" stroke-miterlimit="10"/>
<path d="M97.7736 167.043C96.6795 167.364 95.7331 167.385 94.9328 167.107C94.1326 166.829 93.4474 166.262 92.8769 165.406C92.3054 164.552 91.8129 163.419 91.3978 162.009L88.563 152.38C88.1987 151.142 88.0247 150.03 88.0405 149.048C88.058 148.066 88.3244 147.23 88.8404 146.543C89.3551 145.856 90.1887 145.345 91.3394 145.007C92.204 144.753 92.9619 144.684 93.6115 144.798C94.2615 144.913 94.8269 145.185 95.3079 145.614C95.7892 146.045 96.2064 146.609 96.5589 147.312C96.9114 148.014 97.2251 148.829 97.4983 149.758L100.333 159.387C100.748 160.797 100.953 162.014 100.949 163.037C100.944 164.062 100.688 164.905 100.178 165.568C99.6682 166.23 98.8662 166.722 97.7736 167.043ZM97.0504 164.586C97.4903 164.457 97.7879 164.233 97.9418 163.913C98.0958 163.594 98.1308 163.136 98.0445 162.542C97.9569 161.948 97.7767 161.183 97.5007 160.246L94.6156 150.445C94.2798 149.304 93.9291 148.475 93.5649 147.958C93.1994 147.441 92.6985 147.276 92.0623 147.463C91.4011 147.657 91.0359 148.07 90.9648 148.701C90.8938 149.333 91.0281 150.228 91.3684 151.384L94.2572 161.198C94.5357 162.143 94.7996 162.887 95.0478 163.429C95.2948 163.972 95.5769 164.333 95.8919 164.515C96.207 164.697 96.5926 164.72 97.0504 164.586Z" fill="#534741"/>
<path d="M105.29 164.572L98.958 143.062L101.798 142.229L107.428 161.355L111.479 160.166L112.181 162.55L105.29 164.572Z" fill="#534741"/>
<path d="M114.116 161.982L107.784 140.472L110.636 139.635L116.968 161.145L114.116 161.982Z" fill="#534741"/>
<path d="M130.199 195.407L130.262 195.385C133.71 193.752 135.427 189.832 134.351 186.177L114.078 117.308C114.078 117.308 112.415 105.207 94.5186 98.5298C89.2642 96.5692 88.8532 93.1872 88.8532 93.1872L85.5314 81.9029L86.0696 81.745C86.9614 81.4833 87.4716 80.5493 87.2096 79.6591L86.2604 76.435C85.9984 75.5447 85.0632 75.035 84.1714 75.2968L90.6295 73.4016C91.5213 73.14 92.4565 73.6496 92.7186 74.5398L93.6677 77.764C93.9298 78.6542 93.4194 79.5881 92.5277 79.8498L91.9896 80.0077L95.3114 91.292C95.3114 91.292 95.7223 94.674 100.977 96.6347C118.873 103.312 120.537 115.413 120.537 115.413L140.809 184.282C141.885 187.937 140.168 191.857 136.721 193.49L136.657 193.512C128.867 196.272 120.991 198.774 113.044 201.032C118.803 199.288 124.525 197.418 130.199 195.407Z" fill="#3B4C1C"/>
<path d="M75.6513 77.7972L70.3227 79.3609C69.7135 79.5397 69.3649 80.1776 69.5439 80.7858L70.7937 85.0315C70.9727 85.6397 71.6117 85.9878 72.2208 85.8091L77.5494 84.2453C78.1586 84.0666 78.5072 83.4286 78.3282 82.8204L77.0784 78.5747C76.8994 77.9665 76.2604 77.6184 75.6513 77.7972Z" fill="#798E20"/>
<path d="M80.1695 123.173L74.0425 124.971C72.6212 125.388 71.1303 124.576 70.7126 123.157C68.6843 116.266 72.6344 109.039 79.5354 107.013L82.047 106.276C83.4683 105.859 84.9592 106.672 85.3769 108.091L86.4395 111.701C81.5353 113.14 78.7281 118.276 80.1695 123.173Z" fill="#798E20"/>
<path d="M126.683 177.239L132.81 175.441C134.231 175.024 135.722 175.837 136.14 177.256C138.168 184.146 134.218 191.374 127.317 193.399L124.806 194.136C123.384 194.553 121.893 193.741 121.476 192.322L120.413 188.712C125.317 187.272 128.124 182.136 126.683 177.239Z" fill="#303D12"/>
<path d="M92.6448 79.8154L71.1177 86.1328L71.7504 88.2822L93.2775 81.9648L92.6448 79.8154Z" fill="#2B3516"/>
<path d="M134.293 277.16C96.6833 277.16 70.4888 275.444 56.4367 272.06C46.4121 269.645 41.9662 266.272 41.5718 260.783C41.4085 258.505 42.1711 256.369 43.5394 254.746C39.569 252.983 37.7482 250.605 37.3899 247.068C37.1522 244.698 37.9125 242.453 39.3291 240.753C36.4225 239.54 33.7679 237.411 33.2223 233.395C32.9122 231.111 33.5104 228.842 34.9095 227.008C35.0267 226.854 35.1483 226.705 35.2743 226.561C32.6636 225.349 30.2674 223.27 29.7284 219.512C29.3997 217.218 29.9858 214.933 31.3783 213.077C31.971 212.29 32.6777 211.619 33.472 211.084L29.8762 199.115H30.2992L29.8796 197.716H235.29L234.869 199.115H235.29L231.681 211.12C234.686 213.175 236.187 216.989 235.134 220.668C234.294 223.601 232.442 225.373 229.828 226.55C230.199 226.975 230.531 227.44 230.818 227.941C231.968 229.94 232.268 232.267 231.663 234.492C230.874 237.407 229.16 239.274 225.69 240.636C225.919 240.903 226.133 241.185 226.331 241.482C227.595 243.381 228.044 245.658 227.594 247.894C226.966 251.004 225.173 253.138 221.585 254.757C221.682 254.874 221.779 254.995 221.871 255.118C223.225 256.923 223.794 259.147 223.473 261.379C222.71 266.679 218.43 269.805 208.697 272.172C195.086 275.482 170.053 277.16 134.293 277.16Z" fill="#875A1E"/>
<path d="M132.582 202.196H35.9072L52.7202 258.152C52.7202 258.152 56.9235 270.743 132.582 270.743C208.24 270.743 212.444 258.152 212.444 258.152L229.257 202.196H132.582Z" fill="#B97939"/>
<path d="M132.582 202.196H35.9072L52.7202 258.152C52.7202 258.152 56.9235 270.743 132.582 270.743C208.24 270.743 212.444 258.152 212.444 258.152L229.257 202.196H132.582Z" stroke="#875A1E" stroke-width="3.7466" stroke-linecap="round" stroke-linejoin="round"/>
<path d="M134.38 252.748C66.7297 252.748 52.0478 248.914 49.1816 247.776L51.8816 256.762C62.7917 259.018 85.7665 260.862 134.38 260.862C180.766 260.862 202.753 259.003 213.272 256.792L215.993 247.736C213.348 248.846 199.415 252.748 134.38 252.748Z" fill="#9E5E25"/>
<path d="M134.293 268.952C90.1554 268.952 69.8553 266.577 60.6143 264.615C69.8568 268.114 89.7863 272.142 132.582 272.142C175.72 272.142 195.623 268.049 204.767 264.531C195.856 266.503 176.331 268.952 134.293 268.952Z" fill="#9E5E25"/>
<path d="M224.239 219.135C222.267 219.848 209.048 223.18 134.539 223.18C56.8203 223.18 43.0037 219.887 40.8994 219.158C40.778 219.064 40.6408 218.994 40.5098 218.915L43.315 228.251C45.219 228.552 47.4755 228.828 50.1967 229.103C66.4131 230.743 94.7891 231.573 134.539 231.573C172.356 231.573 199.482 230.741 215.159 229.102C217.834 228.823 220.021 228.538 221.851 228.24L224.662 218.884C224.521 218.967 224.37 219.036 224.239 219.135Z" fill="#9E5E25"/>
<path d="M134.466 237.253C63.9841 237.253 48.1206 234.292 44.8447 233.341L47.548 242.338C49.1684 242.584 51.0326 242.816 53.1847 243.044C68.8169 244.71 96.1638 245.553 134.466 245.553C184.111 245.553 206.97 244.104 217.637 242.268L220.327 233.313C217.25 234.25 202.102 237.253 134.466 237.253Z" fill="#9E5E25"/>
<path d="M224.929 217.999L229.257 203.595H35.9072L39.7766 216.473C46.6078 219.532 54.8069 219.712 64.0963 218.47C97.8783 213.954 115.692 220.948 132.905 220.948C158.125 220.948 169.334 213.954 197.511 218.869C208.022 220.703 217.318 221.125 224.929 217.999Z" fill="#9E5E25"/>
<path d="M132.581 272.732C129.938 272.732 127.787 270.585 127.787 267.946V207.791C127.787 205.152 129.938 203.005 132.581 203.005C135.225 203.005 137.376 205.152 137.376 207.791V267.946C137.376 270.585 135.225 272.732 132.581 272.732ZM176.336 269.936C175.724 269.936 175.126 269.82 174.556 269.591C173.368 269.118 172.435 268.209 171.931 267.034C171.426 265.858 171.41 264.557 171.886 263.37C171.965 263.169 179.95 242.476 179.95 207.791C179.95 205.152 182.101 203.005 184.744 203.005C187.388 203.005 189.539 205.152 189.539 207.791C189.539 244.695 181.146 266.035 180.789 266.925C180.057 268.754 178.309 269.936 176.336 269.936ZM89.4691 269.933C87.4965 269.933 85.7496 268.752 85.0188 266.924C84.6622 266.035 76.27 244.695 76.27 207.791C76.27 205.152 78.4207 203.005 81.0643 203.005C83.7079 203.005 85.8585 205.152 85.8585 207.791C85.8585 242.646 93.8449 263.172 93.9253 263.376C94.8999 265.828 93.6975 268.616 91.2445 269.592C90.6742 269.819 90.0772 269.933 89.4691 269.933Z" fill="#D89651"/>
<path d="M184.744 203.704C187.006 203.704 188.838 205.533 188.838 207.792C188.838 244.528 180.495 265.779 180.139 266.665C179.499 268.263 177.962 269.236 176.336 269.236C175.83 269.236 175.316 269.142 174.818 268.942C172.717 268.105 171.697 265.725 172.537 263.63C172.615 263.43 180.65 242.811 180.65 207.792C180.65 205.533 182.483 203.704 184.744 203.704ZM132.581 203.704C134.843 203.704 136.675 205.533 136.675 207.792V267.945C136.675 270.203 134.843 272.033 132.581 272.033C130.32 272.033 128.488 270.203 128.488 267.945V207.792C128.488 205.533 130.32 203.704 132.581 203.704ZM81.0642 203.704C83.3259 203.704 85.158 205.533 85.158 207.792C85.158 242.811 93.1937 263.43 93.2743 263.634C94.1076 265.731 93.0842 268.108 90.9853 268.942C90.4873 269.141 89.9742 269.235 89.4693 269.235C87.8451 269.235 86.3086 268.263 85.6697 266.665C85.3139 265.778 76.9703 244.528 76.9703 207.792C76.9703 205.533 78.8026 203.704 81.0642 203.704ZM184.744 202.305C181.714 202.305 179.25 204.766 179.25 207.792C179.25 242.223 171.312 262.916 171.232 263.121C170.691 264.47 170.709 265.962 171.287 267.309C171.865 268.656 172.935 269.698 174.298 270.242C174.949 270.502 175.636 270.635 176.337 270.635C178.597 270.635 180.6 269.281 181.44 267.185C181.799 266.29 190.239 244.829 190.239 207.792C190.239 204.766 187.774 202.305 184.744 202.305ZM132.581 202.305C129.551 202.305 127.086 204.766 127.086 207.792V267.945C127.086 270.97 129.551 273.431 132.581 273.431C135.611 273.431 138.076 270.97 138.076 267.945V207.792C138.076 204.766 135.611 202.305 132.581 202.305ZM81.0642 202.305C78.0343 202.305 75.5693 204.766 75.5693 207.792C75.5693 244.825 84.0097 266.29 84.3692 267.185C85.2063 269.279 87.2085 270.633 89.4694 270.633C90.1661 270.633 90.8506 270.502 91.5039 270.242C94.3149 269.124 95.6935 265.928 94.5767 263.118C94.4973 262.916 86.5591 242.372 86.5591 207.791C86.5591 204.766 84.0942 202.305 81.0642 202.305Z" fill="#875A1E"/>
<path d="M131.181 269.235C130.468 269.235 129.889 268.657 129.889 267.945V207.792C129.889 207.08 130.468 206.502 131.181 206.502C131.894 206.502 132.472 207.08 132.472 207.792V267.945C132.472 268.657 131.894 269.235 131.181 269.235ZM174.936 266.438C174.774 266.438 174.614 266.407 174.46 266.345C174.025 266.172 173.829 265.838 173.75 265.655C173.672 265.472 173.565 265.101 173.737 264.669C174.086 263.78 182.052 243.004 182.052 207.792C182.052 207.08 182.631 206.502 183.344 206.502C184.057 206.502 184.635 207.08 184.635 207.792C184.635 244.028 176.483 264.759 176.137 265.624C175.939 266.12 175.468 266.438 174.936 266.438ZM88.0687 266.437C87.5379 266.437 87.0686 266.12 86.8716 265.628C86.524 264.759 78.3721 244.028 78.3721 207.792C78.3721 207.08 78.9508 206.502 79.6637 206.502C80.3765 206.502 80.9553 207.08 80.9553 207.792C80.9553 243.293 89.1853 264.455 89.2688 264.664C89.5329 265.328 89.2086 266.08 88.5478 266.343C88.3918 266.405 88.2303 266.437 88.0687 266.437Z" fill="#EDA861"/>
<path d="M134.54 227.376C94.7893 227.376 66.4133 226.546 50.197 224.907C37.9745 223.672 34.6797 222.432 34.1707 218.876C33.8424 216.583 35.4391 214.457 37.7378 214.129C38.8994 213.967 40.0309 214.292 40.8998 214.961C43.0041 215.691 56.8207 218.983 134.54 218.983C209.049 218.983 222.267 215.651 224.239 214.938C225.257 214.169 226.612 213.874 227.932 214.248C230.164 214.885 231.457 217.208 230.819 219.436C230.021 222.222 227.669 223.598 215.159 224.905C199.482 226.544 172.356 227.376 134.54 227.376ZM134.466 241.356C96.1639 241.356 68.8168 240.513 53.1846 238.847C41.4809 237.602 38.1456 236.299 37.6691 232.793C37.3607 230.521 38.9541 228.431 41.2295 228.123C42.4005 227.958 43.5327 228.311 44.3912 228.999C46.4624 229.742 59.8998 233.056 134.466 233.056C205.949 233.056 218.806 229.701 220.745 228.977C221.744 228.192 223.089 227.874 224.407 228.23C226.624 228.829 227.932 231.108 227.332 233.32C226.464 236.521 225.153 241.356 134.466 241.356ZM134.38 256.666C42.8672 256.666 42.2095 250.129 41.8548 246.616C41.6309 244.386 43.2594 242.397 45.4928 242.173C46.8013 242.036 48.0405 242.552 48.8776 243.45C50.9037 244.387 63.8827 248.551 134.38 248.551C201.951 248.551 214.359 244.339 216.256 243.422C217.187 242.442 218.588 241.945 220.011 242.232C222.212 242.674 223.636 244.814 223.194 247.01C222.563 250.144 221.249 256.666 134.38 256.666ZM215.233 245.379C215.231 245.381 215.231 245.383 215.231 245.386C215.231 245.384 215.231 245.381 215.233 245.379ZM134.293 272.679C46.926 272.679 46.2649 263.483 46.0478 260.462C45.8919 258.281 47.5356 256.384 49.7221 256.227C51.2154 256.111 52.6198 256.877 53.3741 258.083C55.1918 259.271 67.2238 264.755 134.293 264.755C198.624 264.755 210.247 259.018 211.764 258.036C212.579 256.774 214.087 256.026 215.666 256.257C217.836 256.569 219.342 258.577 219.03 260.742C218.606 263.695 217.314 272.679 134.293 272.679Z" fill="#875A1E"/>
<path d="M42.491 217.68V217.681M42.4896 217.667V217.67M42.4883 217.656V217.662M222.738 217.121C222.738 217.124 222.737 217.128 222.735 217.13M222.741 217.111C222.741 217.113 222.739 217.116 222.739 217.118M222.744 217.1C222.744 217.103 222.744 217.106 222.742 217.107M222.748 217.09C222.748 217.091 222.746 217.094 222.746 217.096M222.75 217.08C222.75 217.081 222.749 217.083 222.749 217.084M45.9055 231.667V231.669M45.9041 231.656V231.658M45.9027 231.644V231.65M219.311 231.139C219.31 231.144 219.309 231.146 219.309 231.151M219.314 231.13C219.313 231.133 219.313 231.135 219.311 231.137M219.317 231.119C219.316 231.122 219.316 231.124 219.314 231.127M219.32 231.108C219.32 231.11 219.318 231.113 219.317 231.117M219.323 231.098C219.323 231.101 219.321 231.102 219.321 231.105M219.325 231.09C219.325 231.091 219.324 231.092 219.324 231.094M49.9415 245.795V245.797M49.94 245.787V245.788M215.228 245.399C215.227 245.404 215.227 245.406 215.226 245.411M215.23 245.388C215.23 245.391 215.228 245.394 215.228 245.398M215.235 245.366C215.234 245.369 215.234 245.372 215.233 245.375M215.237 245.356C215.237 245.359 215.237 245.361 215.235 245.362M53.9628 259.887V259.888M53.9628 259.881V259.883M134.54 227.376C94.7893 227.376 66.4133 226.546 50.197 224.907C37.9745 223.672 34.6797 222.432 34.1707 218.876C33.8424 216.583 35.4391 214.457 37.7378 214.129C38.8994 213.967 40.0309 214.292 40.8998 214.961C43.0041 215.691 56.8207 218.983 134.54 218.983C209.049 218.983 222.267 215.651 224.239 214.938C225.257 214.169 226.612 213.874 227.932 214.248C230.164 214.885 231.457 217.208 230.819 219.436C230.021 222.222 227.669 223.598 215.159 224.905C199.482 226.544 172.356 227.376 134.54 227.376ZM134.466 241.356C96.1639 241.356 68.8168 240.513 53.1846 238.847C41.4809 237.602 38.1456 236.299 37.6691 232.793C37.3607 230.521 38.9541 228.431 41.2295 228.123C42.4005 227.958 43.5327 228.311 44.3912 228.999C46.4624 229.742 59.8998 233.056 134.466 233.056C205.949 233.056 218.806 229.701 220.745 228.977C221.744 228.192 223.089 227.874 224.407 228.23C226.624 228.829 227.932 231.108 227.332 233.32C226.464 236.521 225.153 241.356 134.466 241.356ZM134.38 256.666C42.8672 256.666 42.2095 250.129 41.8548 246.616C41.6309 244.386 43.2594 242.397 45.4928 242.173C46.8013 242.036 48.0405 242.552 48.8776 243.45C50.9037 244.387 63.8827 248.551 134.38 248.551C201.951 248.551 214.359 244.339 216.256 243.422C217.187 242.442 218.588 241.945 220.011 242.232C222.212 242.674 223.636 244.814 223.194 247.01C222.563 250.144 221.249 256.666 134.38 256.666ZM215.233 245.379C215.231 245.381 215.231 245.383 215.231 245.386C215.231 245.384 215.231 245.381 215.233 245.379ZM134.293 272.679C46.926 272.679 46.2649 263.483 46.0478 260.462C45.8919 258.281 47.5356 256.384 49.7221 256.227C51.2154 256.111 52.6198 256.877 53.3741 258.083C55.1918 259.271 67.2238 264.755 134.293 264.755C198.624 264.755 210.247 259.018 211.764 258.036C212.579 256.774 214.087 256.026 215.666 256.257C217.836 256.569 219.342 258.577 219.03 260.742C218.606 263.695 217.314 272.679 134.293 272.679Z" stroke="#875A1E" stroke-width="3.7466" stroke-linecap="round" stroke-linejoin="round"/>
<path d="M134.54 227.376C94.7893 227.376 66.4133 226.546 50.197 224.907C37.9745 223.672 34.6797 222.432 34.1707 218.876C33.8424 216.583 35.4391 214.457 37.7378 214.129C38.8994 213.967 40.0309 214.292 40.8998 214.961C43.0041 215.691 56.8207 218.983 134.54 218.983C209.049 218.983 222.267 215.651 224.239 214.938C225.257 214.169 226.612 213.874 227.932 214.248C230.164 214.885 231.457 217.208 230.819 219.436C230.021 222.222 227.669 223.598 215.159 224.905C199.482 226.544 172.356 227.376 134.54 227.376Z" fill="#EDA861"/>
<path d="M134.466 241.356C96.1638 241.356 68.8168 240.513 53.1846 238.847C41.4809 237.602 38.1455 236.299 37.669 232.793C37.3606 230.521 38.9541 228.431 41.2295 228.123C42.4005 227.958 43.5327 228.311 44.3912 228.999C46.4624 229.741 59.8997 233.056 134.466 233.056C205.949 233.056 218.806 229.701 220.745 228.977C221.744 228.192 223.088 227.874 224.407 228.229C226.624 228.829 227.932 231.108 227.332 233.32C226.464 236.521 225.153 241.356 134.466 241.356Z" fill="#EDA861"/>
<path d="M134.38 256.666C42.867 256.666 42.2092 250.129 41.8546 246.616C41.6306 244.386 43.2592 242.397 45.4925 242.173C46.8011 242.036 48.0402 242.552 48.8773 243.45C50.9035 244.387 63.8824 248.551 134.38 248.551C201.95 248.551 214.359 244.339 216.256 243.422C217.186 242.442 218.588 241.945 220.011 242.232C222.212 242.674 223.636 244.814 223.194 247.01C222.562 250.144 221.248 256.666 134.38 256.666ZM215.232 245.379C215.231 245.381 215.231 245.383 215.231 245.386C215.231 245.384 215.231 245.381 215.232 245.379Z" fill="#EDA861"/>
<path d="M134.293 272.679C46.926 272.679 46.2649 263.484 46.0478 260.462C45.892 258.281 47.5357 256.384 49.7221 256.227C51.2154 256.111 52.6198 256.877 53.3742 258.083C55.1918 259.271 67.2238 264.755 134.293 264.755C198.624 264.755 210.247 259.019 211.764 258.036C212.579 256.774 214.087 256.027 215.666 256.257C217.836 256.569 219.342 258.577 219.03 260.742C218.606 263.695 217.314 272.679 134.293 272.679Z" fill="#EDA861"/>
<path d="M134.54 227.376C94.7893 227.376 66.4133 226.546 50.197 224.907C37.9745 223.672 34.6797 222.432 34.1707 218.876C33.8424 216.583 35.4391 214.457 37.7378 214.129C38.8994 213.967 40.0309 214.292 40.8998 214.961C43.0041 215.691 56.8207 218.983 134.54 218.983C209.049 218.983 222.267 215.651 224.239 214.938C225.257 214.169 226.612 213.874 227.932 214.248C230.164 214.885 231.457 217.208 230.819 219.436C230.021 222.222 227.669 223.598 215.159 224.905C199.482 226.544 172.356 227.376 134.54 227.376ZM134.466 241.356C96.1639 241.356 68.8168 240.513 53.1846 238.847C41.4809 237.602 38.1456 236.299 37.6691 232.793C37.3607 230.521 38.9541 228.431 41.2295 228.123C42.4005 227.958 43.5327 228.311 44.3912 228.999C46.4624 229.742 59.8998 233.056 134.466 233.056C205.949 233.056 218.806 229.701 220.745 228.977C221.744 228.192 223.089 227.874 224.407 228.23C226.624 228.829 227.932 231.108 227.332 233.32C226.464 236.521 225.153 241.356 134.466 241.356ZM134.38 256.666C42.8672 256.666 42.2095 250.129 41.8548 246.616C41.6309 244.386 43.2594 242.397 45.4928 242.173C46.8013 242.036 48.0405 242.552 48.8776 243.45C50.9037 244.387 63.8827 248.551 134.38 248.551C201.951 248.551 214.359 244.339 216.256 243.422C217.187 242.442 218.588 241.945 220.011 242.232C222.212 242.674 223.636 244.814 223.194 247.01C222.563 250.144 221.249 256.666 134.38 256.666ZM215.233 245.379C215.231 245.381 215.231 245.383 215.231 245.386C215.231 245.384 215.231 245.381 215.233 245.379ZM134.293 272.679C46.926 272.679 46.2649 263.483 46.0478 260.462C45.8919 258.281 47.5356 256.384 49.7221 256.227C51.2154 256.111 52.6198 256.877 53.3741 258.083C55.1918 259.271 67.2238 264.755 134.293 264.755C198.624 264.755 210.247 259.018 211.764 258.036C212.579 256.774 214.087 256.026 215.666 256.257C217.836 256.569 219.342 258.577 219.03 260.742C218.606 263.695 217.314 272.679 134.293 272.679Z" fill="#EDA861"/>
<path d="M134.292 268.482C53.6217 268.482 48.9573 260.47 48.8424 258.863C48.7973 258.224 49.2816 257.664 49.9233 257.619H49.937C50.4104 257.619 50.7894 257.833 50.9974 258.165L51.3231 258.688L51.8389 259.024C55.1186 261.169 69.7178 266.154 134.292 266.154C197.324 266.154 210.693 260.666 213.289 258.985L213.793 258.658L214.118 258.154C214.333 257.822 214.708 257.616 215.095 257.616C215.15 257.616 215.206 257.619 215.261 257.627C215.685 257.688 215.929 257.938 216.037 258.082C216.145 258.227 216.317 258.53 216.257 258.944C215.935 261.183 209.075 268.482 134.292 268.482ZM134.38 252.47C56.9629 252.47 44.9266 247.75 44.6433 244.937C44.5735 244.245 45.0798 243.628 45.7735 243.558H45.809C46.2688 243.558 46.5917 243.704 46.8257 243.957L47.2006 244.359L47.7001 244.59C50.4187 245.848 64.706 249.95 134.38 249.95C187.409 249.95 206.979 247.335 214.095 245.624C215.412 245.308 216.691 244.863 217.933 244.322L218.29 243.948C218.531 243.695 218.865 243.55 219.207 243.55C219.289 243.55 219.372 243.558 219.457 243.575C220.14 243.713 220.583 244.379 220.446 245.061C219.998 247.288 210.714 252.47 134.38 252.47ZM134.466 237.159C96.2494 237.159 69.0021 236.321 53.4822 234.666C42.8865 233.539 40.6385 232.435 40.4455 231.019C40.3457 230.28 40.8669 229.597 41.6071 229.495C41.6824 229.486 41.7425 229.482 41.8014 229.482C42.0984 229.482 42.3952 229.588 42.6375 229.782L43.0042 230.076L43.4461 230.235C46.2113 231.225 60.9487 234.456 134.466 234.456C204.858 234.456 219.052 231.198 221.726 230.199L222.135 230.046L222.478 229.777C222.719 229.588 223.017 229.484 223.321 229.484C223.44 229.484 223.562 229.5 223.681 229.532C224.146 229.658 224.391 229.982 224.496 230.164C224.6 230.344 224.756 230.72 224.628 231.189C223.889 233.914 207.646 237.159 134.466 237.159ZM134.54 223.18C94.8796 223.18 66.5981 222.353 50.4788 220.724C39.4356 219.609 37.1535 218.543 36.9441 217.081C36.873 216.583 37.081 216.218 37.2109 216.046C37.3409 215.872 37.6338 215.572 38.1344 215.5C38.1947 215.491 38.263 215.487 38.3301 215.487C38.6393 215.487 38.9444 215.59 39.188 215.777L39.5493 216.056L39.9803 216.206C42.8071 217.185 57.9782 220.382 134.54 220.382C207.849 220.382 222.462 217.158 225.194 216.17L225.592 216.026L225.93 215.77C226.172 215.587 226.473 215.486 226.776 215.486C226.906 215.486 227.037 215.504 227.167 215.541C227.647 215.679 227.896 216.016 228.002 216.206C228.107 216.394 228.263 216.785 228.125 217.269C227.829 218.301 226.536 219.504 214.868 220.724C199.282 222.353 172.255 223.18 134.54 223.18Z" fill="#FFC794"/>
<path d="M63.0189 212.308C50.5309 213.952 37.176 213.112 29.2246 206.393C31.7807 200.805 27.5991 185.409 38.4108 186.13C44.054 186.506 43.1727 187.258 44.8326 186.146C49.5278 183.001 56.7261 187.031 59.6146 186.34C70.718 183.685 73.3383 187.753 77.6413 186.316C86.1814 183.465 89.3093 186.881 93.1047 186.097C105.49 183.539 107.744 187.48 112.413 186.171C118.306 184.519 125.996 185.107 131.637 187.641L133.457 187.645C139.087 185.141 146.774 184.592 152.675 186.275C157.35 187.608 159.586 183.679 171.983 186.3C175.782 187.103 178.895 183.704 187.448 186.599C191.757 188.058 194.359 184.003 205.475 186.716C208.366 187.422 215.546 183.429 220.256 186.598C221.921 187.719 221.046 186.508 226.678 186.615C236.799 186.808 233.358 202.19 235.94 207.791C227.264 215.106 212.557 215.116 198.533 212.707C169.912 207.792 158.527 214.786 132.911 214.786C115.426 214.786 97.3324 207.792 63.0189 212.308Z" fill="#DDD3C7"/>
<path d="M63.0189 212.308C50.5309 213.952 37.176 213.112 29.2246 206.393C31.7807 200.805 27.5991 185.409 38.4108 186.13C44.054 186.506 43.1727 187.258 44.8326 186.146C49.5278 183.001 56.7261 187.031 59.6146 186.34C70.718 183.685 73.3383 187.753 77.6413 186.316C86.1814 183.465 89.3093 186.881 93.1047 186.097C105.49 183.539 107.744 187.48 112.413 186.171C118.306 184.519 125.996 185.107 131.637 187.641L133.457 187.645C139.087 185.141 146.774 184.592 152.675 186.275C157.35 187.608 159.586 183.679 171.983 186.3C175.782 187.103 178.895 183.704 187.448 186.599C191.757 188.058 194.359 184.003 205.475 186.716C208.366 187.422 215.546 183.429 220.256 186.598C221.921 187.719 221.046 186.508 226.678 186.615C236.799 186.808 233.358 202.19 235.94 207.791C227.264 215.106 212.557 215.116 198.533 212.707C169.912 207.792 158.527 214.786 132.911 214.786C115.426 214.786 97.3324 207.792 63.0189 212.308Z" stroke="#9E9080" stroke-width="4" stroke-linecap="round" stroke-linejoin="round"/>
<path d="M38.4106 193.691C44.0538 194.067 43.1725 194.819 44.8324 193.708C49.5276 190.562 56.726 194.592 59.6145 193.901C70.7179 191.246 73.3381 195.314 77.6411 193.877C86.1812 191.026 89.3092 194.442 93.1045 193.658C105.49 191.1 107.744 195.041 112.413 193.732C118.306 192.08 125.996 192.668 131.637 195.202L133.457 195.206C139.087 192.702 146.774 192.153 152.675 193.836C157.35 195.169 159.586 191.24 171.983 193.861C175.782 194.664 178.894 191.265 187.447 194.16C191.757 195.619 194.359 191.564 205.474 194.277C208.366 194.983 215.546 190.99 220.256 194.159C221.921 195.28 221.045 194.069 226.678 194.176" stroke="white" stroke-width="2.4977" stroke-linecap="round" stroke-linejoin="round"/>
<defs>
<radialGradient id="paint0_radial_8059_5498" cx="0" cy="0" r="1" gradientUnits="userSpaceOnUse" gradientTransform="translate(133.5 150.5) rotate(90) scale(121.5)">
<stop stop-color="#FFE100"/>
<stop offset="1" stop-color="#FFCC00" stop-opacity="0"/>
</radialGradient>
</defs>
</svg>
