<svg width="246" height="252" viewBox="0 0 246 252" fill="none" xmlns="http://www.w3.org/2000/svg">
<circle cx="127.5" cy="124.399" r="98.5" fill="url(#paint0_radial_8063_3244)"/>
<rect y="116.899" width="138" height="7" rx="3.5" fill="#BAEAFF"/>
<rect x="45" y="127.899" width="96" height="2" rx="1" fill="#92C2D7"/>
<rect x="129" y="89.8994" width="60" height="2" rx="1" fill="#92C2D7"/>
<rect x="149" y="94.8994" width="77" height="7" rx="3.5" fill="#BAEAFF"/>
<rect x="62" y="61.8994" width="29" height="2" rx="1" fill="#92C2D7"/>
<rect x="80" y="66.8994" width="41" height="7" rx="3.5" fill="#BAEAFF"/>
<rect x="235.899" y="115.899" width="14" height="14" transform="rotate(45 235.899 115.899)" fill="#B8E5E6"/>
<circle cx="39.5" cy="86.3994" r="4.5" fill="#B8E5E6"/>
<circle cx="167.5" cy="140.399" r="4.5" fill="#B8E5E6"/>
<circle cx="153.5" cy="38.3994" r="4.5" fill="#B8E5E6"/>
<path d="M128.312 251.366C90.7028 251.366 64.5083 249.65 50.4563 246.266C40.4317 243.851 35.9858 240.478 35.5913 234.989C35.4281 232.711 36.1906 230.575 37.559 228.952C33.5885 227.189 31.7677 224.811 31.4095 221.274C31.1717 218.904 31.9321 216.659 33.3487 214.959C30.4421 213.746 27.7875 211.617 27.2418 207.601C26.9317 205.317 27.5299 203.049 28.929 201.214C29.0462 201.06 29.1678 200.911 29.2938 200.767C26.6831 199.555 24.287 197.476 23.7479 193.718C23.4192 191.424 24.0054 189.139 25.3979 187.283C25.9906 186.496 26.6972 185.825 27.4915 185.29L23.8958 173.321H24.3187L23.8991 171.922H229.309L228.888 173.321H229.309L225.7 185.326C228.705 187.381 230.206 191.195 229.153 194.874C228.313 197.807 226.462 199.579 223.848 200.756C224.219 201.181 224.551 201.646 224.838 202.147C225.987 204.146 226.287 206.473 225.683 208.698C224.894 211.613 223.179 213.48 219.709 214.842C219.938 215.109 220.152 215.391 220.35 215.688C221.615 217.587 222.064 219.864 221.614 222.1C220.986 225.21 219.192 227.344 215.604 228.963C215.702 229.08 215.798 229.201 215.89 229.324C217.244 231.129 217.813 233.353 217.492 235.585C216.729 240.885 212.449 244.011 202.717 246.378C189.105 249.688 164.072 251.366 128.312 251.366Z" fill="#875A1E"/>
<path d="M126.601 176.402H29.9268L46.7398 232.359C46.7398 232.359 50.943 244.949 126.601 244.949C202.26 244.949 206.463 232.359 206.463 232.359L223.276 176.402H126.601Z" fill="#B97939"/>
<path d="M126.602 247.048C53.1489 247.048 45.528 235.364 44.7458 233.022L27.9137 177.005C27.7231 176.37 27.8441 175.682 28.2407 175.15C28.6373 174.618 29.2623 174.304 29.9268 174.304H223.276C223.941 174.304 224.566 174.618 224.963 175.15C225.359 175.682 225.48 176.37 225.29 177.005L208.477 232.962C207.675 235.364 200.054 247.048 126.602 247.048ZM48.6954 231.565C49.3122 232.417 58.3338 242.851 126.602 242.851C194.935 242.851 203.908 232.398 204.509 231.563L220.452 178.501H32.7512L48.6954 231.565ZM48.7172 231.639L48.7474 231.738C48.7386 231.709 48.731 231.677 48.7172 231.639ZM204.492 231.622C204.473 231.669 204.47 231.696 204.47 231.696L204.492 231.622Z" fill="#875A1E"/>
<path d="M128.4 226.954C60.7497 226.954 46.0678 223.12 43.2017 221.982L45.9016 230.968C56.8117 233.224 79.7865 235.069 128.4 235.069C174.786 235.069 196.773 233.209 207.292 230.998L210.013 221.942C207.368 223.052 193.435 226.954 128.4 226.954Z" fill="#9E5E25"/>
<path d="M128.313 243.158C84.1754 243.158 63.8753 240.783 54.6343 238.821C63.8768 242.32 83.8063 246.348 126.602 246.348C169.74 246.348 189.643 242.255 198.787 238.737C189.876 240.709 170.351 243.158 128.313 243.158Z" fill="#9E5E25"/>
<path d="M218.259 193.341C216.287 194.054 203.068 197.386 128.559 197.386C50.8403 197.386 37.0237 194.094 34.9194 193.364C34.798 193.27 34.6608 193.2 34.5298 193.121L37.3351 202.457C39.239 202.758 41.4956 203.034 44.2167 203.309C60.4331 204.949 88.8091 205.779 128.559 205.779C166.376 205.779 193.502 204.947 209.179 203.308C211.854 203.029 214.041 202.744 215.871 202.446L218.682 193.09C218.541 193.173 218.39 193.242 218.259 193.341Z" fill="#9E5E25"/>
<path d="M128.485 211.459C58.0036 211.459 42.1402 208.498 38.8643 207.547L41.5675 216.544C43.1879 216.79 45.0521 217.022 47.2042 217.25C62.8364 218.916 90.1833 219.759 128.485 219.759C178.13 219.759 200.99 218.311 211.656 216.474L214.347 207.52C211.269 208.456 196.121 211.459 128.485 211.459Z" fill="#9E5E25"/>
<path d="M218.948 192.205L223.276 177.801H29.9268L33.7961 190.679C40.6273 193.737 48.8265 193.918 58.1159 192.676C91.8978 188.159 109.712 195.154 126.925 195.154C152.144 195.154 163.353 188.159 191.531 193.075C202.041 194.909 211.338 195.33 218.948 192.205Z" fill="#9E5E25"/>
<path d="M126.601 246.239C124.34 246.239 122.508 244.409 122.508 242.151V181.998C122.508 179.739 124.34 177.91 126.601 177.91C128.863 177.91 130.695 179.739 130.695 181.998V242.151C130.695 244.409 128.863 246.239 126.601 246.239ZM85.0055 243.148C87.1044 242.314 88.1278 239.937 87.2946 237.84C87.2138 237.636 79.1782 217.017 79.1782 181.998C79.1782 179.739 77.3462 177.91 75.0845 177.91C72.8228 177.91 70.9907 179.739 70.9907 181.998C70.9907 218.734 79.3343 239.985 79.69 240.871C80.3291 242.469 81.8656 243.441 83.4896 243.441C83.9945 243.441 84.5075 243.346 85.0055 243.148ZM174.159 240.871C174.515 239.984 182.858 218.734 182.858 181.998C182.858 179.739 181.026 177.91 178.764 177.91C176.503 177.91 174.671 179.739 174.671 181.998C174.671 217.017 166.635 237.636 166.557 237.835C165.717 239.931 166.738 242.311 168.838 243.148C169.336 243.348 169.85 243.442 170.357 243.442C171.982 243.442 173.519 242.469 174.159 240.871Z" fill="#D89651"/>
<path d="M178.764 177.91C181.026 177.91 182.858 179.739 182.858 181.998C182.858 218.734 174.515 239.984 174.159 240.871C173.519 242.469 171.982 243.442 170.356 243.442C169.85 243.442 169.336 243.348 168.838 243.148C166.737 242.311 165.717 239.931 166.557 237.836C166.635 237.636 174.67 217.017 174.67 181.998C174.67 179.74 176.503 177.91 178.764 177.91ZM126.601 177.91C128.863 177.91 130.695 179.739 130.695 181.998V242.151C130.695 244.409 128.863 246.239 126.601 246.239C124.34 246.239 122.508 244.409 122.508 242.151V181.998C122.508 179.739 124.34 177.91 126.601 177.91ZM75.0842 177.91C77.3459 177.91 79.178 179.739 79.178 181.998C79.178 217.017 87.2137 237.636 87.2944 237.84C88.1276 239.937 87.1042 242.314 85.0053 243.148C84.5073 243.346 83.9942 243.441 83.4893 243.441C81.8651 243.441 80.3286 242.469 79.6897 240.871C79.3339 239.984 70.9904 218.734 70.9904 181.998C70.9904 179.739 72.8226 177.91 75.0842 177.91ZM178.764 176.511C175.734 176.511 173.27 178.972 173.27 181.998C173.27 216.425 165.332 237.122 165.252 237.327C164.711 238.676 164.729 240.168 165.307 241.515C165.885 242.862 166.955 243.904 168.318 244.448C168.969 244.708 169.656 244.841 170.357 244.841C172.617 244.841 174.62 243.487 175.46 241.391C175.819 240.496 184.259 219.036 184.259 181.998C184.259 178.973 181.794 176.511 178.764 176.511ZM126.601 176.511C123.571 176.511 121.106 178.972 121.106 181.998V242.151C121.106 245.176 123.571 247.638 126.601 247.638C129.631 247.638 132.096 245.176 132.096 242.151V181.998C132.096 178.972 129.631 176.511 126.601 176.511ZM75.0842 176.511C72.0544 176.511 69.5894 178.972 69.5894 181.998C69.5894 219.032 78.0297 240.496 78.3892 241.391C79.2263 243.485 81.2286 244.84 83.4894 244.84C84.186 244.84 84.8705 244.708 85.5239 244.448C88.335 243.33 89.7135 240.134 88.5968 237.324C88.5173 237.122 80.5791 216.577 80.5791 181.998C80.5791 178.973 78.1142 176.511 75.0842 176.511Z" fill="#875A1E"/>
<path d="M125.2 243.441C124.487 243.441 123.909 242.863 123.909 242.151V181.998C123.909 181.286 124.487 180.708 125.2 180.708C125.913 180.708 126.492 181.286 126.492 181.998V242.151C126.492 242.863 125.913 243.441 125.2 243.441ZM168.955 240.644C168.794 240.644 168.634 240.613 168.479 240.552C168.044 240.378 167.849 240.045 167.769 239.862C167.691 239.679 167.584 239.307 167.757 238.875C168.106 237.986 176.072 217.21 176.072 181.998C176.072 181.286 176.65 180.708 177.363 180.708C178.076 180.708 178.655 181.286 178.655 181.998C178.655 218.234 170.503 238.965 170.157 239.83C169.958 240.326 169.488 240.644 168.955 240.644ZM82.0883 240.643C81.5574 240.643 81.0881 240.326 80.8911 239.834C80.5435 238.965 72.3916 218.234 72.3916 181.998C72.3916 181.286 72.9704 180.708 73.6832 180.708C74.3961 180.708 74.9749 181.286 74.9749 181.998C74.9749 217.499 83.2049 238.661 83.2883 238.87C83.5524 239.534 83.2281 240.286 82.5673 240.549C82.4114 240.612 82.2498 240.643 82.0883 240.643Z" fill="#EDA861"/>
<path d="M128.559 201.583C88.8089 201.583 60.4329 200.752 44.2165 199.113C31.994 197.878 28.6993 196.639 28.1903 193.083C27.8619 190.789 29.4587 188.664 31.7573 188.336C32.9189 188.173 34.0504 188.498 34.9193 189.168C37.0236 189.897 50.8402 193.19 128.559 193.19C203.068 193.19 216.287 189.858 218.259 189.144C219.277 188.375 220.631 188.08 221.952 188.455C224.183 189.091 225.476 191.415 224.839 193.643C224.041 196.429 221.689 197.804 209.179 199.112C193.502 200.751 166.376 201.583 128.559 201.583ZM128.485 215.563C90.1834 215.563 62.8364 214.72 47.2042 213.054C35.5005 211.808 32.1651 210.506 31.6886 206.999C31.3802 204.728 32.9736 202.637 35.249 202.329C36.4201 202.164 37.5523 202.518 38.4107 203.206C40.482 203.948 53.9193 207.263 128.485 207.263C199.969 207.263 212.825 203.908 214.765 203.184C215.763 202.399 217.108 202.081 218.426 202.436C220.643 203.035 221.952 205.314 221.352 207.526C220.484 210.728 219.172 215.563 128.485 215.563ZM128.4 230.872C36.8868 230.872 36.229 224.335 35.8744 220.822C35.6505 218.592 37.279 216.604 39.5123 216.379C40.8209 216.243 42.06 216.758 42.8971 217.657C44.9233 218.594 57.9022 222.758 128.4 222.758C195.97 222.758 208.379 218.545 210.276 217.629C211.206 216.648 212.608 216.151 214.03 216.439C216.232 216.88 217.656 219.02 217.214 221.217C216.582 224.35 215.268 230.872 128.4 230.872ZM209.252 219.585C209.251 219.588 209.251 219.589 209.251 219.592C209.251 219.591 209.251 219.588 209.252 219.585ZM128.312 246.885C40.9455 246.885 40.2844 237.69 40.0673 234.669C39.9115 232.487 41.5551 230.59 43.7416 230.433C45.2349 230.318 46.6393 231.084 47.3937 232.29C49.2113 233.478 61.2433 238.961 128.312 238.961C192.643 238.961 204.266 233.225 205.783 232.242C206.599 230.981 208.106 230.233 209.686 230.464C211.856 230.775 213.362 232.783 213.05 234.948C212.625 237.901 211.334 246.885 128.312 246.885Z" fill="#875A1E"/>
<path d="M128.312 248.983C38.9881 248.983 38.3011 239.416 37.9708 234.819C37.7374 231.553 40.152 228.698 43.3879 228.358C35.9007 226.523 34.1038 224.211 33.7834 221.033C33.4438 217.655 35.9193 214.631 39.3014 214.291C39.6214 214.258 39.9429 214.25 40.2612 214.269C33.3343 213.115 30.1637 211.384 29.606 207.281C29.3814 205.627 29.8152 203.984 30.8276 202.657C31.8399 201.329 33.3097 200.474 34.9668 200.25C35.3333 200.199 35.7025 200.181 36.0701 200.196C29.8383 199.118 26.6885 197.425 26.1095 193.379C25.8712 191.715 26.2969 190.057 27.3076 188.712C28.3183 187.367 29.7929 186.496 31.4605 186.258C33.0047 186.041 34.5922 186.409 35.8756 187.271C38.5977 188.08 53.7765 191.091 128.559 191.091C200.852 191.091 215.135 187.903 217.301 187.25C218.841 186.223 220.722 185.925 222.526 186.436C225.872 187.39 227.814 190.882 226.859 194.219C225.935 197.447 223.617 199.046 216.914 200.211C217.601 200.163 218.297 200.228 218.974 200.41C220.59 200.846 221.937 201.884 222.769 203.332C223.601 204.779 223.818 206.464 223.38 208.075C222.102 212.788 220.78 217.661 128.485 217.661C90.1008 217.661 62.6788 216.813 46.9812 215.14C44.9423 214.923 43.1066 214.702 41.4622 214.457C42.4274 214.709 43.3318 215.193 44.0806 215.875C46.3962 216.746 60.5939 220.659 128.4 220.659C193.353 220.659 206.897 216.722 209.084 215.859C210.535 214.54 212.503 213.987 214.447 214.382C217.778 215.05 219.944 218.302 219.274 221.63C218.842 223.774 218.338 226.275 209.942 228.38C209.958 228.383 209.974 228.385 209.99 228.387C211.59 228.617 213.009 229.457 213.981 230.752C214.953 232.048 215.361 233.644 215.131 235.246C214.489 239.705 213.155 248.983 128.312 248.983ZM44.0376 232.52C43.9927 232.52 43.9483 232.522 43.9034 232.525C42.8653 232.6 42.0902 233.494 42.1636 234.52C42.3849 237.606 51.2236 244.786 128.312 244.786C201.6 244.786 210.531 237.697 210.969 234.65C211.041 234.157 210.915 233.667 210.616 233.269C210.317 232.87 209.881 232.612 209.387 232.541C208.673 232.436 207.946 232.765 207.549 233.38C207.388 233.629 207.176 233.842 206.926 234.003C204.369 235.659 191.143 241.06 128.312 241.06C62.1185 241.06 48.76 235.69 46.2424 234.045C45.9876 233.878 45.7719 233.659 45.6108 233.401C45.2701 232.856 44.6631 232.52 44.0376 232.52ZM48.85 230.709C51.0719 231.862 64.4019 236.863 128.312 236.863C188.986 236.863 202.127 231.811 204.338 230.655C204.781 230.089 205.317 229.613 205.914 229.243C194.166 231.404 171.715 232.971 128.4 232.971C88.1581 232.971 61.7232 231.747 47.5845 229.23C47.3994 229.198 47.2164 229.164 47.0361 229.131C47.7324 229.529 48.3537 230.063 48.85 230.709ZM39.9236 218.456C39.859 218.456 39.7944 218.459 39.7302 218.466C38.6456 218.575 37.8573 219.538 37.9653 220.613C38.0534 221.486 38.237 223.304 48.3218 225.099C62.0216 227.537 88.9638 228.773 128.4 228.773C198.774 228.773 214.42 224.439 215.153 220.803C215.366 219.744 214.677 218.709 213.616 218.496C212.947 218.363 212.271 218.577 211.8 219.073C211.668 219.211 211.518 219.331 211.354 219.43C211.356 219.473 211.358 219.518 211.358 219.563C211.358 219.644 211.353 219.724 211.344 219.804C211.336 219.878 211.324 219.952 211.307 220.025C211.304 220.041 211.301 220.056 211.297 220.072L211.289 220.105C211.261 220.221 211.223 220.336 211.176 220.443C210.719 221.508 209.484 222.003 208.417 221.545C207.989 221.362 207.653 221.054 207.433 220.681C200.043 222.37 180.327 224.856 128.399 224.856C74.1923 224.856 53.6336 222.393 45.9316 220.718C45.6364 221.52 44.8645 222.091 43.959 222.091C42.7982 222.091 41.8572 221.152 41.8572 219.993C41.8572 219.828 41.8769 219.666 41.9131 219.511C41.706 219.401 41.5186 219.258 41.3582 219.086C40.9835 218.684 40.4583 218.456 39.9236 218.456ZM35.8152 204.388C35.7242 204.388 35.6333 204.394 35.5429 204.407C34.9869 204.482 34.5042 204.763 34.1717 205.199C33.8398 205.635 33.6973 206.174 33.7713 206.717C34.0271 208.599 36.2091 209.773 47.4268 210.967C62.977 212.624 90.249 213.465 128.485 213.465C168.425 213.465 194.538 212.549 208.315 210.666C218.708 209.246 219.123 207.714 219.323 206.978C219.467 206.448 219.396 205.896 219.123 205.42C218.849 204.946 218.407 204.605 217.877 204.461C217.242 204.291 216.582 204.425 216.065 204.832C215.894 204.966 215.704 205.073 215.5 205.149C215.481 205.157 215.462 205.163 215.443 205.171C215.445 205.213 215.446 205.257 215.446 205.299C215.446 205.437 215.433 205.574 215.405 205.712C215.398 205.747 215.39 205.782 215.381 205.816C215.375 205.842 215.368 205.869 215.36 205.895C215.122 206.793 214.303 207.455 213.328 207.455C212.434 207.455 211.669 206.897 211.366 206.11C203.491 207.441 182.716 209.361 128.485 209.361C71.871 209.361 50.2129 207.458 42.0102 206.138C41.881 207.173 40.9968 207.974 39.9247 207.974C38.8598 207.974 37.9801 207.184 37.8421 206.158C37.8278 206.06 37.8202 205.958 37.8202 205.856C37.8202 205.646 37.8514 205.443 37.9089 205.252C37.8328 205.227 37.7638 205.203 37.7008 205.181C37.4817 205.102 37.2769 204.988 37.095 204.842C36.7275 204.547 36.2726 204.388 35.8152 204.388ZM39.394 201.321C42.076 202.142 56.8373 205.164 128.485 205.164C197.72 205.164 211.639 201.966 213.782 201.301C214.384 200.888 215.05 200.586 215.747 200.403C213.935 200.685 211.834 200.944 209.397 201.199C193.643 202.846 166.445 203.681 128.559 203.681C88.7371 203.681 60.2885 202.847 44.0047 201.2C41.5753 200.955 39.4125 200.71 37.5029 200.426C38.1735 200.615 38.8144 200.916 39.394 201.321ZM32.3531 190.392C32.2524 190.392 32.1515 190.399 32.0497 190.413C31.498 190.492 31.0067 190.783 30.6698 191.231C30.3329 191.679 30.1909 192.232 30.2704 192.786C30.5465 194.717 32.7355 195.844 44.4275 197.025C60.5721 198.657 88.8778 199.484 128.559 199.484C166.299 199.484 193.35 198.657 208.959 197.024C221.09 195.757 222.412 194.482 222.817 193.066C223.136 191.954 222.488 190.79 221.374 190.472C220.73 190.29 220.057 190.416 219.526 190.818C219.358 190.945 219.172 191.045 218.974 191.117C218.94 191.129 218.904 191.142 218.866 191.155C218.869 191.199 218.87 191.243 218.87 191.288C218.87 191.464 218.849 191.635 218.808 191.799C218.798 191.838 218.788 191.878 218.776 191.916C218.752 191.999 218.723 192.079 218.689 192.157C218.651 192.246 218.606 192.333 218.557 192.416C217.96 193.41 216.669 193.733 215.673 193.136C215.244 192.879 214.94 192.494 214.781 192.059C206.697 193.377 185.195 195.287 128.559 195.287C69.4435 195.287 47.0223 193.394 38.6 192.086C38.4943 193.147 37.5986 193.975 36.5085 193.975C35.4408 193.975 34.5594 193.18 34.4247 192.151C34.4121 192.059 34.4061 191.964 34.4061 191.868C34.4061 191.649 34.4395 191.437 34.5019 191.239C34.4006 191.208 34.3102 191.178 34.2296 191.15C34.0154 191.076 33.8144 190.967 33.6347 190.829C33.2638 190.543 32.8172 190.392 32.3531 190.392Z" fill="#875A1E"/>
<path d="M128.559 201.583C88.8089 201.583 60.4329 200.752 44.2165 199.113C31.994 197.878 28.6993 196.639 28.1903 193.082C27.8619 190.789 29.4587 188.663 31.7573 188.335C32.9189 188.173 34.0504 188.498 34.9193 189.167C37.0236 189.897 50.8402 193.189 128.559 193.189C203.068 193.189 216.287 189.857 218.259 189.144C219.277 188.375 220.631 188.08 221.952 188.454C224.183 189.091 225.476 191.414 224.839 193.643C224.041 196.428 221.689 197.804 209.179 199.111C193.502 200.75 166.376 201.583 128.559 201.583Z" fill="#EDA861"/>
<path d="M128.485 215.562C90.1834 215.562 62.8363 214.719 47.2041 213.053C35.5004 211.808 32.165 210.505 31.6886 206.999C31.3802 204.727 32.9736 202.637 35.249 202.329C36.42 202.164 37.5522 202.517 38.4107 203.205C40.4819 203.947 53.9193 207.262 128.485 207.262C199.969 207.262 212.825 203.907 214.764 203.183C215.763 202.398 217.108 202.08 218.426 202.436C220.643 203.035 221.952 205.314 221.352 207.526C220.484 210.727 219.172 215.562 128.485 215.562Z" fill="#EDA861"/>
<path d="M128.4 230.872C36.8865 230.872 36.2287 224.335 35.8741 220.822C35.6502 218.592 37.2787 216.604 39.512 216.379C40.8206 216.242 42.0597 216.758 42.8969 217.656C44.923 218.593 57.902 222.757 128.4 222.757C195.97 222.757 208.379 218.545 210.275 217.628C211.206 216.648 212.608 216.151 214.03 216.438C216.231 216.88 217.655 219.02 217.213 221.216C216.582 224.35 215.268 230.872 128.4 230.872ZM209.252 219.585C209.25 219.587 209.25 219.589 209.25 219.592C209.25 219.59 209.25 219.587 209.252 219.585Z" fill="#EDA861"/>
<path d="M128.312 246.885C40.9456 246.885 40.2844 237.69 40.0674 234.668C39.9115 232.487 41.5552 230.59 43.7416 230.433C45.235 230.317 46.6394 231.083 47.3937 232.289C49.2114 233.478 61.2434 238.961 128.312 238.961C192.644 238.961 204.266 233.225 205.783 232.242C206.599 230.98 208.106 230.233 209.686 230.463C211.856 230.775 213.362 232.783 213.05 234.948C212.625 237.901 211.334 246.885 128.312 246.885Z" fill="#EDA861"/>
<path d="M128.559 201.583C88.8089 201.583 60.4329 200.752 44.2165 199.113C31.994 197.878 28.6993 196.639 28.1903 193.082C27.8619 190.789 29.4587 188.663 31.7573 188.335C32.9189 188.173 34.0504 188.498 34.9193 189.167C37.0236 189.897 50.8402 193.189 128.559 193.189C203.068 193.189 216.287 189.857 218.259 189.144C219.277 188.375 220.631 188.08 221.952 188.454C224.183 189.091 225.476 191.414 224.839 193.643C224.041 196.428 221.689 197.804 209.179 199.111C193.502 200.75 166.376 201.583 128.559 201.583ZM128.485 215.562C90.1834 215.562 62.8364 214.719 47.2042 213.053C35.5005 211.808 32.1651 210.505 31.6886 206.999C31.3802 204.727 32.9736 202.637 35.249 202.329C36.4201 202.164 37.5523 202.518 38.4107 203.206C40.482 203.948 53.9193 207.262 128.485 207.262C199.969 207.262 212.825 203.907 214.765 203.183C215.763 202.398 217.108 202.081 218.426 202.436C220.643 203.035 221.952 205.314 221.352 207.526C220.484 210.727 219.172 215.562 128.485 215.562ZM128.4 230.872C36.8868 230.872 36.229 224.335 35.8744 220.822C35.6505 218.592 37.279 216.604 39.5123 216.379C40.8209 216.243 42.06 216.758 42.8971 217.656C44.9233 218.593 57.9022 222.757 128.4 222.757C195.97 222.757 208.379 218.545 210.276 217.628C211.206 216.648 212.608 216.151 214.03 216.438C216.232 216.88 217.656 219.02 217.214 221.216C216.582 224.35 215.268 230.872 128.4 230.872ZM209.252 219.585C209.251 219.588 209.251 219.589 209.251 219.592C209.251 219.59 209.251 219.588 209.252 219.585ZM128.312 246.885C40.9455 246.885 40.2844 237.689 40.0673 234.668C39.9115 232.487 41.5551 230.59 43.7416 230.433C45.2349 230.317 46.6393 231.083 47.3937 232.289C49.2113 233.477 61.2433 238.961 128.312 238.961C192.643 238.961 204.266 233.224 205.783 232.242C206.599 230.98 208.106 230.233 209.686 230.463C211.856 230.775 213.362 232.783 213.05 234.948C212.625 237.901 211.334 246.885 128.312 246.885Z" fill="#EDA861"/>
<path d="M128.312 242.688C47.6413 242.688 42.9768 234.676 42.8619 233.069C42.8168 232.43 43.3011 231.87 43.9428 231.825H43.9565C44.43 231.825 44.8089 232.039 45.0169 232.371L45.3426 232.894L45.8585 233.23C49.1382 235.375 63.7374 240.36 128.312 240.36C191.344 240.36 204.713 234.872 207.309 233.191L207.812 232.864L208.138 232.36C208.353 232.028 208.727 231.822 209.115 231.822C209.169 231.822 209.226 231.825 209.28 231.833C209.705 231.894 209.948 232.144 210.056 232.288C210.164 232.433 210.337 232.736 210.276 233.15C209.955 235.389 203.094 242.688 128.312 242.688ZM128.399 226.676C50.9823 226.676 38.946 221.956 38.6627 219.143C38.5929 218.452 39.0992 217.834 39.7929 217.764H39.8284C40.2882 217.764 40.6111 217.911 40.8451 218.163L41.22 218.565L41.7195 218.796C44.4382 220.054 58.7255 224.156 128.399 224.156C181.429 224.156 200.998 221.541 208.115 219.83C209.432 219.514 210.711 219.069 211.952 218.528L212.31 218.154C212.55 217.901 212.884 217.756 213.226 217.756C213.308 217.756 213.392 217.764 213.477 217.781C214.159 217.919 214.603 218.585 214.466 219.267C214.017 221.494 204.733 226.676 128.399 226.676ZM128.485 211.365C90.2689 211.365 63.0216 210.527 47.5017 208.872C36.9061 207.745 34.658 206.641 34.4651 205.225C34.3652 204.486 34.8864 203.803 35.6267 203.702C35.7019 203.692 35.7621 203.688 35.821 203.688C36.1179 203.688 36.4148 203.794 36.657 203.988L37.0237 204.282L37.4656 204.441C40.2309 205.431 54.9683 208.662 128.485 208.662C198.877 208.662 213.072 205.404 215.745 204.405L216.154 204.252L216.498 203.983C216.738 203.794 217.037 203.691 217.341 203.691C217.46 203.691 217.581 203.706 217.701 203.738C218.166 203.864 218.411 204.188 218.516 204.37C218.62 204.55 218.776 204.926 218.647 205.396C217.909 208.12 201.666 211.365 128.485 211.365ZM128.559 197.386C88.8992 197.386 60.6176 196.559 44.4983 194.93C33.4551 193.815 31.173 192.749 30.9637 191.288C30.8925 190.789 31.1005 190.424 31.2304 190.252C31.3605 190.078 31.6533 189.778 32.154 189.706C32.2142 189.697 32.2825 189.693 32.3496 189.693C32.6588 189.693 32.964 189.796 33.2075 189.983L33.5688 190.262L33.9998 190.412C36.8266 191.392 51.9977 194.588 128.559 194.588C201.868 194.588 216.481 191.364 219.214 190.376L219.612 190.232L219.95 189.976C220.192 189.793 220.493 189.692 220.795 189.692C220.925 189.692 221.057 189.71 221.187 189.747C221.667 189.885 221.916 190.222 222.021 190.412C222.127 190.6 222.283 190.991 222.144 191.475C221.849 192.507 220.556 193.71 208.887 194.93C193.302 196.559 166.275 197.386 128.559 197.386Z" fill="#FFC794"/>
<path d="M57.0384 186.514C44.5504 188.158 31.1955 187.318 23.2441 180.599C25.8002 175.011 21.6186 159.615 32.4304 160.336C38.0735 160.712 37.1922 161.465 38.8521 160.353C43.5473 157.207 50.7457 161.237 53.6342 160.546C64.7376 157.891 67.3578 161.959 71.6608 160.522C80.2009 157.671 83.3289 161.087 87.1242 160.303C99.5092 157.745 101.763 161.686 106.432 160.377C112.326 158.725 120.015 159.313 125.657 161.847L127.476 161.851C133.106 159.347 140.794 158.798 146.694 160.481C151.369 161.814 153.606 157.885 166.002 160.506C169.801 161.309 172.914 157.91 181.467 160.805C185.777 162.264 188.379 158.209 199.494 160.922C202.386 161.628 209.566 157.635 214.275 160.804C215.94 161.925 215.065 160.714 220.697 160.821C230.818 161.014 227.378 176.396 229.959 181.998C221.284 189.312 206.576 189.322 192.553 186.913C163.931 181.998 152.547 188.992 126.93 188.992C109.446 188.992 91.3519 181.998 57.0384 186.514Z" fill="#DDD3C7"/>
<path d="M126.93 191.233C120.907 191.233 114.741 190.414 108.214 189.546C94.9053 187.778 79.8229 185.775 57.3309 188.735C46.306 190.187 31.1907 190.249 21.7943 182.309C21.0269 181.661 20.7853 180.581 21.2028 179.668C21.8272 178.303 21.9609 175.67 22.0907 173.124C22.3313 168.395 22.6034 163.035 25.9297 160.082C27.6152 158.585 29.8492 157.915 32.5793 158.101C34.9102 158.256 36.2095 158.477 36.9858 158.609C37.1222 158.632 37.2366 158.654 37.3358 158.67C37.4125 158.62 37.499 158.561 37.6015 158.492C41.4032 155.944 46.1619 157.029 49.6355 157.823C50.8773 158.107 52.5782 158.497 53.1112 158.368C60.2084 156.669 64.1656 157.543 67.0547 158.18C68.9035 158.589 69.8414 158.77 70.949 158.398C76.9238 156.404 80.6477 157.205 83.3659 157.792C84.7398 158.088 85.7351 158.304 86.6691 158.109C94.5671 156.479 98.6653 157.352 101.658 157.99C103.426 158.366 104.491 158.594 105.825 158.22C112.112 156.456 120.024 157.006 126.129 159.608L127.013 159.61C133.11 157.041 141.016 156.533 147.31 158.327C148.646 158.709 149.712 158.486 151.478 158.118C154.468 157.496 158.563 156.644 166.467 158.315C167.404 158.512 168.396 158.303 169.769 158.014C172.485 157.443 176.204 156.659 182.187 158.684C183.298 159.06 184.236 158.885 186.082 158.488C188.969 157.865 192.922 157.012 200.026 158.746C200.562 158.873 202.26 158.497 203.5 158.22C206.969 157.445 211.72 156.385 215.529 158.946C215.551 158.961 215.571 158.975 215.592 158.989C216.348 158.825 217.763 158.524 220.74 158.582C229.706 158.752 230.417 167.792 230.936 174.393C231.14 176.981 231.351 179.659 231.997 181.061C232.419 181.976 232.177 183.059 231.406 183.709C223.462 190.407 210.259 192.227 192.172 189.122C174.907 186.157 163.917 187.626 152.28 189.182C144.739 190.19 136.941 191.233 126.93 191.233ZM79.464 182.762C91.1682 182.762 100.621 184.018 108.806 185.105C115.459 185.989 121.204 186.752 126.93 186.752C136.642 186.752 144.289 185.73 151.684 184.741C163.67 183.138 174.992 181.625 192.933 184.705C208.494 187.378 220.33 186.166 227.317 181.209C226.824 179.334 226.647 177.088 226.462 174.744C225.819 166.571 224.87 163.141 220.654 163.061C218.178 163.014 217.147 163.237 216.532 163.369C215.244 163.647 214.431 163.611 213.021 162.662C210.816 161.178 207.449 161.929 204.48 162.592C202.352 163.068 200.516 163.478 198.961 163.098C192.86 161.609 189.627 162.308 187.03 162.867C185.002 163.306 183.084 163.718 180.746 162.927C175.929 161.297 173.148 161.882 170.695 162.399C169.075 162.739 167.401 163.09 165.537 162.698C158.557 161.223 155.139 161.933 152.393 162.505C150.38 162.924 148.478 163.318 146.077 162.635C140.666 161.092 133.557 161.599 128.389 163.898C128.102 164.025 127.79 164.092 127.476 164.092H127.47L125.651 164.087C125.336 164.087 125.024 164.019 124.736 163.89C119.558 161.564 112.445 161.02 107.038 162.534C104.639 163.207 102.736 162.801 100.721 162.372C97.9727 161.785 94.5523 161.056 87.5783 162.497C85.7142 162.883 84.0396 162.521 82.4187 162.171C79.964 161.643 77.179 161.043 72.3721 162.647C70.0358 163.428 68.1168 163.004 66.0868 162.556C63.4858 161.983 60.2489 161.267 54.1563 162.725C52.6022 163.097 50.7644 162.678 48.6351 162.191C45.6649 161.513 42.2954 160.744 40.1016 162.213C38.5677 163.241 37.8978 163.309 36.2325 163.026C35.4958 162.901 34.3827 162.712 32.2803 162.572C30.7787 162.472 29.676 162.753 28.9114 163.431C26.9902 165.136 26.7683 169.501 26.5722 173.351C26.4533 175.687 26.3394 177.926 25.8722 179.805C32.4036 184.472 43.2751 186.066 56.7448 184.293C65.194 183.181 72.7048 182.762 79.464 182.762Z" fill="#9E9080"/>
<path d="M127.476 170.811H127.472L125.653 170.806C125.456 170.806 125.262 170.763 125.082 170.683C119.735 168.281 112.393 167.72 106.811 169.285C104.613 169.902 102.891 169.534 100.898 169.11C98.0717 168.507 94.5565 167.759 87.4077 169.234C85.7173 169.582 84.2015 169.256 82.5964 168.91C80.0338 168.356 77.1311 167.73 72.105 169.41C69.9899 170.117 68.2649 169.735 66.2683 169.295C63.5835 168.702 60.2409 167.967 53.9605 169.467C52.5981 169.794 50.8485 169.394 48.8232 168.932C45.6843 168.214 42.1265 167.402 39.6323 169.075C38.2858 169.976 37.8427 170.008 36.3746 169.757C35.6214 169.629 34.4825 169.436 32.3368 169.292C31.5644 169.241 30.9805 168.574 31.032 167.803C31.084 167.032 31.7616 166.451 32.5231 166.501C34.8123 166.653 36.0854 166.87 36.8457 166.999C37.1288 167.048 37.4477 167.108 37.5408 167.097C37.595 167.071 37.9286 166.847 38.0711 166.752C41.5726 164.404 45.9397 165.402 49.4477 166.204C50.9886 166.555 52.5817 166.918 53.3074 166.747C60.2145 165.094 64.0622 165.942 66.873 166.563C68.6577 166.957 69.8371 167.217 71.2165 166.756C76.9716 164.835 80.5635 165.61 83.188 166.175C84.6079 166.481 85.7292 166.722 86.8402 166.494C94.563 164.899 98.5624 165.75 101.482 166.374C103.312 166.763 104.52 167.02 106.054 166.591C112.124 164.887 120.077 165.461 125.954 168.009L127.185 168.012C133.052 165.496 141.001 164.963 147.078 166.696C148.616 167.134 149.822 166.884 151.65 166.503C154.568 165.896 158.564 165.064 166.292 166.699C167.404 166.933 168.524 166.697 169.943 166.398C172.564 165.847 176.153 165.09 181.917 167.041C183.299 167.509 184.476 167.255 186.26 166.871C189.067 166.265 192.91 165.437 199.826 167.124C200.552 167.3 202.144 166.946 203.684 166.602C207.19 165.819 211.551 164.845 215.059 167.205C215.367 167.413 215.467 167.453 215.483 167.459C215.492 167.44 215.607 167.407 215.761 167.374C216.532 167.207 217.826 166.932 220.724 166.984C221.498 166.998 222.113 167.637 222.098 168.409C222.083 169.173 221.459 169.781 220.698 169.781C220.689 169.781 220.68 169.781 220.67 169.781C218.092 169.732 217.005 169.968 216.354 170.108C215.302 170.334 214.715 170.348 213.492 169.525C210.985 167.839 207.43 168.633 204.296 169.332C202.271 169.784 200.523 170.175 199.161 169.842C192.871 168.306 189.534 169.028 186.852 169.606C184.856 170.035 183.132 170.408 181.017 169.691C175.982 167.987 173.081 168.598 170.521 169.137C168.917 169.474 167.403 169.795 165.712 169.436C158.559 167.923 155.045 168.654 152.222 169.242C150.23 169.657 148.509 170.015 146.309 169.386C140.722 167.794 133.381 168.317 128.046 170.69C127.867 170.77 127.673 170.811 127.476 170.811Z" fill="white"/>
<rect x="102.899" width="9.68623" height="9.68623" transform="rotate(45 102.899 0)" fill="#B8E5E6"/>
<defs>
<radialGradient id="paint0_radial_8063_3244" cx="0" cy="0" r="1" gradientUnits="userSpaceOnUse" gradientTransform="translate(127.5 124.399) rotate(90) scale(98.5)">
<stop offset="0.269939" stop-color="white"/>
<stop offset="1" stop-color="#A2EEFF" stop-opacity="0"/>
</radialGradient>
</defs>
</svg>
