<svg width="220" height="88" viewBox="0 0 220 88" fill="none" xmlns="http://www.w3.org/2000/svg">
<path d="M76.1123 33.0332C75.9482 35.1606 75.8277 37.5646 75.751 40.2441C75.6732 42.9243 75.6507 45.6313 75.6816 48.3652C75.7125 51.0987 75.7675 53.6239 75.8486 55.9385C75.9299 58.254 76.0245 60.0908 76.1328 61.4502C76.4317 65.1994 76.7373 68.1395 77.0537 70.2695C77.3684 72.4006 77.7169 73.8966 78.0967 74.7578C78.4774 75.6192 78.9356 76.0278 79.4727 75.9854C80.175 75.9296 80.9033 75.4272 81.6592 74.4756C82.4144 73.5245 83.14 72.4609 83.8369 71.2861L89.9346 81.3115C88.7656 82.8135 87.3401 84.2227 85.6582 85.5381C83.9761 86.8529 81.8124 87.6157 79.1699 87.8252C76.8986 88.0053 74.9907 87.6681 73.4482 86.8174C71.9045 85.9652 70.642 84.7281 69.6611 83.1064C68.6803 81.4848 67.9053 79.5983 67.3398 77.4453C66.7726 75.2936 66.3386 72.9758 66.0371 70.4912C65.7347 68.0071 65.4836 65.5083 65.2832 62.9951C65.1092 60.8122 64.9808 58.4077 64.8955 55.7812C64.8113 53.156 64.7539 50.486 64.7246 47.7725C64.6954 45.0604 64.6989 42.4993 64.7363 40.0918C64.7719 37.685 64.8235 35.587 64.8887 33.7988L76.1123 33.0332ZM24.4395 36.7637C29.1701 36.7637 33.2548 37.3272 36.6982 38.4541C40.1394 39.5817 43.4392 41.0632 46.5928 42.8975L39.418 53.749C37.8418 52.6482 36.0402 51.6923 34.0186 50.8789C31.9942 50.0667 29.9704 49.438 27.9473 48.9922C25.923 48.547 24.0457 48.3232 22.3115 48.3232C20.4191 48.3232 18.9334 48.6113 17.8564 49.1875C16.7784 49.765 16.2412 50.5779 16.2412 51.626C16.2413 52.2556 16.9107 52.8448 18.25 53.3955C19.5908 53.9457 22.1532 54.6676 25.9365 55.5586C28.196 56.0832 30.5879 56.6192 33.1113 57.1699C35.6335 57.72 38.0105 58.481 40.2451 59.4502C42.4786 60.4213 44.2915 61.8103 45.6846 63.6191C47.0764 65.4272 47.7743 67.8256 47.7744 70.8135C47.7744 75.8469 45.7512 79.7931 41.7051 82.6494C37.6576 85.5065 32.0337 86.9355 24.834 86.9355C21.2597 86.9355 17.9481 86.515 14.9004 85.6768C11.8514 84.8379 9.09217 83.7627 6.62207 82.4531C4.15206 81.1417 1.94465 79.7531 0 78.2852L7.0957 66.8818C9.30289 68.9264 11.4314 70.4996 13.4805 71.6006C15.531 72.7015 17.6715 73.4627 19.9062 73.8818C22.1397 74.3016 24.5702 74.5107 27.1982 74.5107C29.4578 74.5107 31.2705 74.209 32.6387 73.6055C34.0043 73.0038 34.6874 72.2299 34.6875 71.2861C34.6875 70.5 34.0303 69.884 32.7168 69.4375C31.4021 68.9929 29.7213 68.6003 27.6709 68.2588C25.6217 67.9179 23.4666 67.4856 21.207 66.9609C18.0012 66.1227 15.0047 65.1517 12.2197 64.0508C9.43349 62.9499 7.18763 61.4561 5.47949 59.5684C3.77134 57.6813 2.91699 55.1646 2.91699 52.0195C2.917 49.5029 3.52042 47.2883 4.73047 45.374C5.93812 43.4609 7.55478 41.8625 9.5791 40.5771C11.6021 39.293 13.9017 38.3366 16.4775 37.707C19.0522 37.078 21.7067 36.7637 24.4395 36.7637ZM120.326 37.7998C120.678 37.7865 121.017 37.809 121.341 37.8701C121.666 37.9311 121.939 38.054 122.159 38.2412C122.38 38.4274 122.507 38.7017 122.542 39.0654C122.566 39.3231 122.489 39.6507 122.309 40.0488C122.129 40.4469 121.867 40.8906 121.522 41.3809C121.178 41.8711 120.773 42.3894 120.309 42.9346C119.844 43.4798 119.338 44.029 118.791 44.582C119.314 44.503 119.836 44.4396 120.353 44.3906C121.09 44.3207 121.743 44.2734 122.311 44.249C122.879 44.2234 123.255 44.2263 123.442 44.2568L123.669 46.4912C123.399 46.4967 122.966 46.5212 122.371 46.5635C121.776 46.6046 121.119 46.6595 120.401 46.7275C119.731 46.7911 119.05 46.8634 118.357 46.9443C118.114 46.9724 117.886 46.9994 117.657 47.0273C119.594 47.6664 121.189 48.4861 122.429 49.4932C123.702 50.527 124.675 51.6256 125.345 52.7891C126.014 53.9521 126.467 55.0628 126.705 56.1182C126.941 57.1744 127.062 58.0464 127.062 58.7354C127.062 62.9148 125.301 66.1357 121.781 68.3975C118.26 70.6598 113.282 71.791 106.847 71.791C105.379 71.791 103.985 71.7258 102.668 71.5967C101.35 71.4676 100.13 71.3166 99.0068 71.1436C99.8275 73.2987 101.188 74.8826 103.089 75.8945C104.989 76.907 106.953 77.413 108.984 77.4131C111.921 77.4131 114.513 76.8864 116.76 75.8301C119.005 74.7748 121.122 73.1477 123.109 70.9502L128.876 79.2227C127.493 80.3434 125.948 81.507 124.242 82.7129C122.536 83.9182 120.453 84.9206 117.991 85.7188C115.529 86.5154 112.483 86.9141 108.854 86.9141C104.709 86.914 101.069 86.1059 97.9385 84.4902C94.8055 82.8746 92.3659 80.6238 90.6162 77.7363C88.8676 74.8505 87.9932 71.511 87.9932 67.7188C87.9932 65.4356 88.3815 63.0332 89.1592 60.5127C89.9358 57.9918 91.188 55.6329 92.916 53.4355C94.6432 51.2381 96.9219 49.4508 99.752 48.0713C102.58 46.6929 106.026 46.0029 110.087 46.0029C111.826 46.0029 113.383 46.1306 114.797 46.3574L114.565 45.5605C114.685 45.501 114.829 45.4435 114.998 45.3887C115.277 45.1704 115.596 44.8828 115.953 44.5254C116.309 44.1693 116.676 43.7799 117.052 43.3584C117.427 42.937 117.789 42.5205 118.135 42.1064C118.482 41.6925 118.785 41.3201 119.043 40.9863C119.3 40.6538 119.488 40.3951 119.606 40.2109C119.648 40.1401 119.677 40.0864 119.692 40.0508C119.709 40.0151 119.717 39.9927 119.716 39.9834C119.717 39.9927 119.649 40.0039 119.516 40.0166C119.381 40.0293 119.262 40.0408 119.157 40.0508C118.812 40.0834 118.395 40.1498 117.907 40.249C117.419 40.3483 116.897 40.4764 116.343 40.6348C115.787 40.7946 115.236 40.9902 114.688 41.2256L114.038 38.96C115.006 38.6752 115.934 38.441 116.819 38.2559C117.704 38.0708 118.544 37.9406 119.339 37.8652C119.646 37.8362 119.975 37.8143 120.326 37.7998ZM186.615 48.4834C190.34 48.2663 193.542 48.8391 196.222 50.2021C198.901 51.5654 201.348 53.8235 203.564 56.9766L195.465 63.2832C194.224 61.5326 192.989 60.2168 191.76 59.3359C190.529 58.4562 188.903 58.0744 186.88 58.1924C184.127 58.353 181.956 59.4424 180.368 61.459C178.78 63.4765 178.081 66.0809 178.268 69.2705C178.376 71.1283 178.921 72.6166 179.9 73.7344C180.879 74.853 182.054 75.6552 183.423 76.1426C184.792 76.6304 186.063 76.839 187.237 76.7705C188.451 76.6997 189.617 76.4803 190.733 76.1113C191.848 75.7426 192.881 75.0034 193.832 73.8936C194.781 72.7852 195.599 71.1373 196.284 68.9492L205.677 73.2637C204.593 75.5556 203.357 77.6945 201.971 79.6797C200.584 81.6644 198.821 83.3074 196.685 84.6074C194.547 85.9069 191.777 86.6562 188.377 86.8545C184.976 87.0529 181.797 86.5285 178.84 85.2832C175.882 84.0365 173.456 82.1434 171.561 79.5996C169.665 77.0566 168.609 73.9467 168.394 70.2715C168.152 66.1527 168.75 62.4923 170.188 59.2881C171.624 56.0848 173.751 53.5395 176.564 51.6523C179.379 49.7663 182.73 48.7101 186.615 48.4834ZM60.8232 48.8691C60.6609 50.73 60.5588 53.0255 60.5195 55.7559C60.4782 58.4863 60.459 61.3488 60.459 64.3418C60.459 67.295 60.4782 70.2077 60.5195 73.0791C60.5588 75.9518 60.6104 78.5504 60.6709 80.876C60.7314 83.2016 60.783 84.9918 60.8232 86.2461H50.2383C50.1172 83.7375 50.0365 81.0577 49.9961 78.2061C49.9557 75.3546 49.9355 72.4932 49.9355 69.6211C49.9355 65.8591 49.975 62.198 50.0566 58.6377C50.1382 55.079 50.2384 51.8421 50.3604 48.9297L60.8232 48.8691ZM219.209 48.8691C219.047 50.73 218.945 53.0255 218.905 55.7559C218.864 58.4863 218.845 61.3488 218.845 64.3418C218.845 67.295 218.864 70.2077 218.905 73.0791C218.945 75.9518 218.996 78.5504 219.057 80.876C219.117 83.2016 219.169 84.9918 219.209 86.2461H208.625C208.504 83.7374 208.422 81.0578 208.382 78.2061C208.341 75.3546 208.321 72.4932 208.321 69.6211C208.321 65.8591 208.361 62.198 208.442 58.6377C208.524 55.079 208.625 51.8421 208.747 48.9297L219.209 48.8691ZM152.393 46.9238C154.947 46.9238 157.046 47.3487 158.688 48.1982C160.33 49.0477 161.628 50.2215 162.581 51.7178C163.533 53.2145 164.224 54.924 164.649 56.8447C165.075 58.7664 165.349 60.8299 165.471 63.0342C165.592 65.239 165.653 67.4539 165.653 69.6777C165.653 72.1049 165.612 74.4314 165.531 76.6553C165.45 78.8802 165.369 80.7406 165.288 82.2373C165.206 83.7336 165.145 84.6245 165.105 84.9082H154.887C154.967 83.249 155.048 81.4795 155.13 79.5986C155.211 77.7176 155.291 75.8568 155.373 74.0156C155.454 72.1755 155.495 70.5069 155.495 69.0098C155.495 60.3941 154.096 56.0859 151.298 56.0859C148.987 56.0859 146.888 57.0872 145.002 59.0898C143.116 61.092 141.544 63.6099 140.287 66.6436V67.8574C140.287 69.7987 140.297 71.8114 140.318 73.8945C140.338 75.9781 140.379 77.96 140.44 79.8408C140.501 81.7218 140.552 83.3496 140.592 84.7256L130.798 84.7861C130.677 81.2263 130.586 77.9298 130.524 74.8955C130.464 71.862 130.434 68.8691 130.434 65.916C130.434 62.9637 130.464 59.9993 130.524 57.0264C130.586 54.053 130.696 50.8675 130.859 47.4697H141.14C140.977 49.2902 140.835 51.1314 140.714 52.9912C142.091 51.2526 143.734 49.806 145.641 48.6533C147.546 47.5006 149.796 46.9239 152.393 46.9238ZM119.429 52.8193C118.76 55.1704 117.395 57.4759 115.529 59.0498C110.329 63.5109 98.1689 63.8978 95.8926 56.1367C95.8926 56.1367 94.4252 56.4664 94.3926 56.4736C94.7268 58.0946 95.4468 59.4329 96.4277 60.5205L92.9912 63.7344L94.2412 65.0645L97.5928 61.5898C98.5763 62.3655 99.7098 62.9746 100.934 63.418L99.2148 66.8271L101.66 67.7256L102.595 63.9072C104.232 64.3013 105.944 64.4576 107.581 64.4033L107.742 68.1191L109.905 68.0254L109.261 64.2881C110.848 64.1716 112.389 63.7832 113.833 63.1689L115.365 66.7441L117.205 65.8486L115.326 62.4434C116.917 61.5505 118.343 60.3715 119.532 58.9854L122.612 61.5586L123.779 59.8232L120.551 57.6631C121.372 56.4644 122.029 55.1507 122.469 53.751L119.429 52.8193ZM61.6143 33.7686C61.4923 35.1446 61.3589 36.7027 61.2178 38.4414C61.0756 40.181 60.9847 41.9819 60.9443 43.8418H50.4824C50.4824 43.4776 50.4713 43.1039 50.4512 42.7188C50.43 42.335 50.4209 41.8998 50.4209 41.4141C50.4209 40.12 50.4613 38.7441 50.543 37.2881C50.6237 35.8318 50.7045 34.5987 50.7861 33.5869L61.6143 33.7686ZM220 32.7285C219.878 34.1046 219.746 35.6626 219.604 37.4014C219.462 39.141 219.37 40.9419 219.33 42.8018H208.868C208.868 42.4376 208.858 42.0639 208.838 41.6787C208.817 41.295 208.807 40.8598 208.807 40.374C208.807 39.08 208.847 37.704 208.929 36.248C209.009 34.7917 209.09 33.5586 209.172 32.5469L220 32.7285ZM125.384 34.6416C126.027 34.6389 126.635 34.6595 127.21 34.7031C127.783 34.7465 128.32 34.8156 128.819 34.9102C129.012 34.9468 129.217 34.9917 129.435 35.0449C129.652 35.099 129.855 35.1729 130.042 35.2676C130.23 35.3624 130.375 35.486 130.477 35.6396C130.578 35.7925 130.608 35.9825 130.564 36.2109C130.534 36.3727 130.428 36.5591 130.247 36.7705C130.067 36.9823 129.827 37.2075 129.529 37.4463C129.231 37.685 128.892 37.9305 128.511 38.1816C128.13 38.4328 127.723 38.6785 127.29 38.9199C127.624 38.9642 127.954 39.0176 128.278 39.0791C128.742 39.1669 129.149 39.2534 129.5 39.3389C129.852 39.4238 130.083 39.4922 130.191 39.5439L129.933 40.9502C129.767 40.9059 129.497 40.8441 129.126 40.7646C128.755 40.6844 128.343 40.602 127.893 40.5166C127.471 40.4367 127.042 40.3602 126.604 40.2871C126.167 40.2132 125.764 40.1493 125.396 40.0957C125.03 40.0415 124.743 40.0069 124.533 39.9922L124.532 38.7705C124.616 38.7552 124.714 38.7458 124.827 38.7422C125.036 38.6582 125.282 38.538 125.564 38.3828C125.846 38.2282 126.139 38.0554 126.444 37.8643C126.748 37.6729 127.044 37.4819 127.329 37.29C127.615 37.0984 127.867 36.924 128.084 36.7656C128.3 36.6081 128.461 36.4833 128.565 36.3916C128.604 36.3556 128.632 36.3277 128.647 36.3086C128.663 36.2904 128.672 36.2784 128.673 36.2725C128.67 36.2776 128.627 36.2724 128.545 36.2568C128.46 36.2409 128.385 36.2264 128.319 36.2139C128.103 36.1728 127.836 36.14 127.52 36.1143C127.203 36.0884 126.862 36.0745 126.495 36.0732C126.127 36.0725 125.755 36.0946 125.379 36.1416L125.384 34.6416ZM119.026 28.2998C119.668 28.3421 120.274 28.4046 120.844 28.4883C121.413 28.5718 121.944 28.6782 122.436 28.8076C122.625 28.8576 122.826 28.9169 123.039 28.9854C123.252 29.0544 123.45 29.1424 123.63 29.25C123.811 29.3578 123.947 29.4911 124.037 29.6514C124.128 29.8109 124.144 30.0028 124.084 30.2275C124.042 30.3868 123.924 30.5655 123.729 30.7637C123.534 30.9623 123.279 31.1694 122.965 31.3867C122.651 31.604 122.294 31.8249 121.896 32.0488C121.499 32.2726 121.076 32.4907 120.628 32.7012C120.958 32.7687 121.283 32.8447 121.603 32.9287C122.058 33.0486 122.458 33.1636 122.803 33.2734C123.148 33.3828 123.373 33.4671 123.478 33.5264L123.121 34.9111C122.959 34.8553 122.694 34.7743 122.329 34.6689C121.964 34.563 121.56 34.4527 121.116 34.3359C120.701 34.2268 120.279 34.1202 119.848 34.0166C119.416 33.9123 119.019 33.8194 118.656 33.7402C118.295 33.6605 118.01 33.6064 117.802 33.5771L117.887 32.3584C117.971 32.349 118.07 32.3462 118.184 32.3506C118.398 32.2813 118.652 32.1791 118.944 32.0439C119.236 31.9094 119.54 31.7571 119.857 31.5879C120.174 31.4184 120.482 31.2486 120.78 31.0771C121.079 30.9059 121.342 30.7502 121.57 30.6074C121.797 30.4651 121.967 30.3517 122.078 30.2676C122.119 30.2344 122.148 30.2092 122.165 30.1914C122.183 30.1739 122.192 30.1621 122.193 30.1562C122.191 30.1617 122.148 30.1533 122.066 30.1318C121.983 30.11 121.91 30.0904 121.845 30.0732C121.632 30.0172 121.367 29.9658 121.054 29.918C120.74 29.8702 120.401 29.8326 120.035 29.8057C119.668 29.7792 119.295 29.7752 118.916 29.7959L119.026 28.2998ZM69.4248 6.98047C69.3718 7.38628 69.3272 7.8181 69.292 8.27637C69.9279 7.85352 70.6125 7.54493 71.3457 7.35059C72.079 7.1566 72.8259 7.05958 73.5859 7.05957C74.5576 7.05957 75.5029 7.21431 76.4219 7.52246C77.3409 7.83118 78.1719 8.31556 78.9141 8.97656C79.6562 9.63764 80.2436 10.4887 80.6768 11.5283C81.1099 12.5689 81.3262 13.8203 81.3262 15.2832C81.3262 16.7292 81.1045 17.9893 80.6631 19.0645C80.2212 20.1395 79.6297 21.0253 78.8877 21.7217C78.1457 22.4177 77.314 22.9386 76.3955 23.2822C75.4767 23.6258 74.531 23.7968 73.5596 23.7969C71.7747 23.7969 70.2013 23.2685 68.8408 22.2109C68.876 23.339 68.9293 24.4277 69 25.4766C69.0707 26.5254 69.1589 27.5959 69.2646 28.6895L64.7852 29.0332C64.6614 27.6227 64.5736 26.2034 64.5205 24.7754C64.4679 23.3479 64.4404 21.6994 64.4404 19.8311C64.4404 17.5573 64.4758 15.2919 64.5469 13.0352C64.6171 10.7793 64.7235 8.71719 64.8652 6.84863L69.4248 6.98047ZM176.142 6.98047C176.089 7.38627 176.044 7.81811 176.009 8.27637C176.645 7.85355 177.329 7.54493 178.062 7.35059C178.796 7.15661 179.543 7.0596 180.303 7.05957C181.274 7.05957 182.22 7.21436 183.139 7.52246C184.058 7.83117 184.889 8.31559 185.631 8.97656C186.373 9.63765 186.96 10.4886 187.394 11.5283C187.827 12.5689 188.043 13.8202 188.043 15.2832C188.043 16.7291 187.822 17.9894 187.381 19.0645C186.939 20.1396 186.346 21.0253 185.604 21.7217C184.862 22.4177 184.031 22.9386 183.112 23.2822C182.193 23.6258 181.248 23.7969 180.276 23.7969C178.491 23.7969 176.918 23.2685 175.558 22.2109C175.593 23.339 175.646 24.4277 175.717 25.4766C175.787 26.5254 175.877 27.5959 175.982 28.6895L171.502 29.0332C171.378 27.6227 171.29 26.2034 171.237 24.7754C171.185 23.3479 171.157 21.6994 171.157 19.8311C171.157 17.5573 171.193 15.2919 171.264 13.0352C171.334 10.7793 171.44 8.71719 171.582 6.84863L176.142 6.98047ZM54.6865 6.84863C56.2769 6.84863 57.6509 7.03789 58.8086 7.41699C59.9658 7.79605 61.0747 8.29443 62.1348 8.91113L59.7227 12.5596C59.1926 12.1893 58.5873 11.8683 57.9072 11.5947C57.227 11.3216 56.5463 11.1102 55.8662 10.96C55.1859 10.8107 54.554 10.7354 53.9707 10.7354C53.3351 10.7354 52.8356 10.8326 52.4736 11.0264C52.1111 11.2203 51.9297 11.4933 51.9297 11.8457C51.9297 12.0571 52.155 12.2553 52.6055 12.4404C53.0562 12.6256 53.9182 12.8686 55.1904 13.168C55.9501 13.3444 56.7543 13.5248 57.6025 13.71C58.4506 13.8951 59.2499 14.1506 60.001 14.4766C60.7517 14.8026 61.3613 15.27 61.8301 15.8779C62.2978 16.486 62.5332 17.2932 62.5332 18.2979C62.5331 19.9901 61.8524 21.3169 60.4922 22.2773C59.1313 23.2377 57.2399 23.7177 54.8193 23.7178C53.6174 23.7178 52.5042 23.5769 51.4795 23.2949C50.4543 23.0126 49.5266 22.6517 48.6963 22.2109C47.8652 21.7702 47.1231 21.3033 46.4697 20.8096L48.8555 16.9756C49.5974 17.6628 50.3131 18.1913 51.002 18.5615C51.6913 18.9319 52.4109 19.1881 53.1621 19.3291C53.9129 19.4701 54.7304 19.54 55.6143 19.54C56.3739 19.54 56.9834 19.439 57.4434 19.2363C57.9024 19.0336 58.1328 18.7735 58.1328 18.4561C58.1328 18.1917 57.9112 17.9846 57.4697 17.835C57.0277 17.6852 56.4624 17.5532 55.7734 17.4385C55.084 17.3238 54.3592 17.1784 53.5996 17.002C52.5214 16.7205 51.5146 16.3933 50.5781 16.0234C49.6411 15.6531 48.8856 15.1508 48.3115 14.5166C47.7371 13.8818 47.4502 13.0352 47.4502 11.9775C47.4503 11.1316 47.6529 10.3875 48.0596 9.74414C48.4659 9.10075 49.0089 8.56337 49.6895 8.13086C50.3696 7.69929 51.1434 7.3774 52.0098 7.16602C52.8751 6.95457 53.7676 6.84863 54.6865 6.84863ZM147.36 7.21875C147.237 7.55359 147.113 8.05604 146.989 8.72559C146.866 9.39582 146.764 10.1455 146.685 10.9736C146.605 11.8022 146.539 12.6304 146.486 13.459C146.433 14.2877 146.406 15.0372 146.406 15.707C146.406 16.2533 146.446 16.7867 146.525 17.3066C146.605 17.8267 146.778 18.2491 147.043 18.5752C147.308 18.9013 147.714 19.0644 148.262 19.0645H148.633L147.97 23.665C146.804 23.665 145.84 23.4669 145.081 23.0703C144.321 22.6737 143.711 22.1404 143.252 21.4707C142.492 22.3169 141.626 22.8856 140.654 23.1768C139.682 23.4674 138.675 23.6123 137.633 23.6123C136.308 23.6123 135.105 23.2728 134.027 22.5947C132.95 21.9158 132.097 20.9995 131.47 19.8447C130.842 18.6904 130.528 17.3982 130.528 15.9707C130.528 14.6313 130.776 13.4192 131.271 12.335C131.765 11.251 132.441 10.3221 133.299 9.5459C134.156 8.77064 135.131 8.17483 136.228 7.76074C137.323 7.34655 138.472 7.13965 139.674 7.13965C140.681 7.13967 141.671 7.28107 142.643 7.5625C142.713 7.19272 142.776 6.82235 142.828 6.45215L147.36 7.21875ZM37.2969 6.90137C38.4984 6.90137 39.5105 7.03347 40.332 7.29785C41.1539 7.56223 41.8253 7.90584 42.3467 8.3291C42.8676 8.75198 43.2657 9.20194 43.54 9.67773C43.8136 10.1538 43.9997 10.6072 44.0967 11.0391C44.1936 11.4712 44.2422 11.8289 44.2422 12.1104C44.2421 13.8202 43.5218 15.1381 42.082 16.0635C40.6412 16.9888 38.6044 17.4512 35.9717 17.4512C35.3711 17.4512 34.801 17.425 34.2627 17.3721C33.7234 17.3191 33.224 17.2574 32.7646 17.1865C33.1003 18.0682 33.6566 18.7162 34.4346 19.1299C35.2118 19.5445 36.0159 19.752 36.8467 19.752C38.0482 19.7519 39.1084 19.5364 40.0273 19.1045C40.9463 18.6728 41.8127 18.0065 42.626 17.1074L44.9844 20.4922C44.4187 20.951 43.7866 21.4266 43.0889 21.9199C42.3907 22.4132 41.5383 22.8233 40.5312 23.1494C39.5242 23.4756 38.2784 23.6386 36.7939 23.6387C35.0978 23.6387 33.6081 23.3084 32.3271 22.6475C31.0457 21.9865 30.0478 21.0649 29.332 19.8838C28.6163 18.7031 28.2578 17.3366 28.2578 15.7852C28.2579 14.8511 28.4177 13.8677 28.7354 12.8369C29.0535 11.8058 29.5666 10.8405 30.2734 9.94141C30.9799 9.04294 31.9118 8.31128 33.0693 7.74707C34.226 7.18324 35.636 6.90142 37.2969 6.90137ZM91.7705 6.90137C92.9718 6.9014 93.9833 7.03351 94.8047 7.29785C95.6266 7.56222 96.298 7.90585 96.8193 8.3291C97.3403 8.75198 97.7384 9.20194 98.0127 9.67773C98.2864 10.1538 98.4724 10.6072 98.5693 11.0391C98.6664 11.4712 98.7148 11.8289 98.7148 12.1104C98.7147 13.8202 97.9945 15.1381 96.5547 16.0635C95.1139 16.9888 93.077 17.4512 90.4443 17.4512C89.8438 17.4512 89.2736 17.425 88.7354 17.3721C88.1961 17.3191 87.6967 17.2574 87.2373 17.1865C87.573 18.0681 88.1292 18.7162 88.9072 19.1299C89.6844 19.5445 90.4886 19.7519 91.3193 19.752C92.5208 19.752 93.5811 19.5364 94.5 19.1045C95.419 18.6728 96.2854 18.0065 97.0986 17.1074L99.457 20.4922C98.8913 20.951 98.2593 21.4266 97.5615 21.9199C96.8633 22.4132 96.011 22.8233 95.0039 23.1494C93.9968 23.4756 92.7511 23.6386 91.2666 23.6387C89.5705 23.6387 88.0808 23.3084 86.7998 22.6475C85.5183 21.9865 84.5205 21.0649 83.8047 19.8838C83.0889 18.7031 82.7305 17.3366 82.7305 15.7852C82.7305 14.8511 82.8903 13.8677 83.208 12.8369C83.5262 11.8058 84.0392 10.8405 84.7461 9.94141C85.4526 9.04294 86.3846 8.31128 87.542 7.74707C88.6988 7.18319 90.1094 6.90137 91.7705 6.90137ZM198.487 6.90137C199.689 6.90139 200.7 7.03352 201.521 7.29785C202.344 7.56226 203.016 7.90578 203.537 8.3291C204.058 8.75193 204.455 9.20201 204.729 9.67773C205.003 10.1538 205.189 10.6071 205.286 11.0391C205.383 11.4712 205.432 11.8289 205.432 12.1104C205.432 13.8202 204.711 15.1381 203.271 16.0635C201.831 16.9888 199.794 17.4512 197.161 17.4512C196.561 17.4512 195.99 17.425 195.452 17.3721C194.913 17.3191 194.414 17.2575 193.954 17.1865C194.29 18.0681 194.846 18.7162 195.624 19.1299C196.401 19.5445 197.205 19.7519 198.036 19.752C199.238 19.752 200.298 19.5364 201.217 19.1045C202.136 18.6728 203.002 18.0065 203.815 17.1074L206.174 20.4922C205.608 20.951 204.976 21.4266 204.278 21.9199C203.58 22.4132 202.728 22.8233 201.721 23.1494C200.714 23.4756 199.468 23.6387 197.983 23.6387C196.287 23.6387 194.798 23.3085 193.517 22.6475C192.235 21.9865 191.237 21.0649 190.521 19.8838C189.806 18.7031 189.448 17.3365 189.448 15.7852C189.448 14.8511 189.607 13.8677 189.925 12.8369C190.243 11.8057 190.756 10.8405 191.463 9.94141C192.169 9.04292 193.101 8.3113 194.259 7.74707C195.416 7.18319 196.826 6.90137 198.487 6.90137ZM14.1309 0C15.2616 2.59096e-05 16.4103 0.118831 17.5762 0.356445C18.7426 0.594648 19.8607 0.982909 20.9297 1.52051C21.9986 2.05851 22.9536 2.77623 23.793 3.6748C24.6321 4.574 25.294 5.67644 25.7803 6.98047C26.266 8.28548 26.5098 9.82804 26.5098 11.6084C26.5097 14.1113 26.1072 16.248 25.3037 18.0195C24.4993 19.7911 23.3327 21.1444 21.8047 22.0781C20.2757 23.0123 18.433 23.4805 16.2773 23.4805C14.846 23.4804 13.432 23.2162 12.0361 22.6875C12.0006 23.0396 11.9657 23.3481 11.9307 23.6123L7.47656 23.2158L8.45801 5.0498C7.99855 5.15571 7.57387 5.28 7.18555 5.4209L6.39062 0.925781C7.32718 0.731801 8.48501 0.529194 9.86328 0.317383C11.2413 0.105935 12.6638 0 14.1309 0ZM124.855 1.50684C124.644 2.42406 124.459 3.33668 124.3 4.24414C124.141 5.15246 123.998 6.0289 123.875 6.875C124.865 6.875 125.797 6.89675 126.672 6.94043C127.546 6.98471 128.355 7.06056 129.097 7.16602L128.566 11.3174C127.948 11.2474 127.308 11.1982 126.646 11.1719C125.983 11.1452 125.315 11.1318 124.644 11.1318C124.237 11.1318 123.83 11.1407 123.424 11.1582C123.318 12.4453 123.252 13.5476 123.226 14.4639C123.199 15.3805 123.186 16.0331 123.186 16.4209C123.186 17.3901 123.243 18.0859 123.358 18.5088C123.473 18.9319 123.663 19.1433 123.928 19.1436C124.228 19.1436 124.565 19.0424 124.936 18.8398C125.307 18.6372 125.673 18.3597 126.035 18.0068C126.397 17.6545 126.702 17.2758 126.95 16.8701L128.991 21.127C127.242 22.7837 125.368 23.6122 123.372 23.6123C122.312 23.6123 121.471 23.3881 120.853 22.9385C120.234 22.4889 119.784 21.8673 119.501 21.0742C119.218 20.2809 119.037 19.3732 118.958 18.3506C118.879 17.3285 118.839 16.2531 118.839 15.125C118.839 13.9614 118.882 12.754 118.971 11.502C117.787 11.6603 116.647 11.864 115.552 12.1104L114.73 7.95898C116.197 7.57165 117.76 7.28871 119.422 7.1123C119.545 6.21376 119.678 5.26633 119.819 4.27051C119.961 3.27461 120.12 2.22096 120.297 1.11035L124.855 1.50684ZM159.739 1.50684C159.527 2.42406 159.341 3.33668 159.183 4.24414C159.023 5.1524 158.882 6.02894 158.759 6.875C159.748 6.875 160.681 6.89676 161.556 6.94043C162.43 6.98472 163.238 7.06056 163.98 7.16602L163.45 11.3174C162.832 11.2474 162.192 11.1982 161.529 11.1719C160.867 11.1452 160.199 11.1318 159.527 11.1318C159.121 11.1318 158.714 11.1407 158.308 11.1582C158.202 12.4453 158.136 13.5476 158.109 14.4639C158.083 15.3805 158.069 16.0331 158.069 16.4209C158.069 17.3902 158.127 18.0859 158.242 18.5088C158.357 18.9319 158.547 19.1434 158.812 19.1436C159.112 19.1436 159.449 19.0424 159.819 18.8398C160.191 18.6372 160.557 18.3596 160.919 18.0068C161.281 17.6545 161.586 17.2758 161.834 16.8701L163.875 21.127C162.125 22.7838 160.251 23.6123 158.255 23.6123C157.195 23.6122 156.355 23.388 155.736 22.9385C155.118 22.4889 154.667 21.8673 154.385 21.0742C154.102 20.2809 153.921 19.3732 153.842 18.3506C153.762 17.3285 153.723 16.2531 153.723 15.125C153.723 13.9614 153.766 12.754 153.854 11.502C152.671 11.6603 151.531 11.864 150.436 12.1104L149.614 7.95898C151.081 7.57165 152.644 7.28871 154.306 7.1123C154.429 6.21376 154.561 5.26633 154.703 4.27051C154.844 3.27461 155.004 2.22096 155.181 1.11035L159.739 1.50684ZM213.94 0.211914C213.799 1.11047 213.666 2.12851 213.543 3.26562C213.419 4.40248 213.318 5.55271 213.238 6.71582C213.159 7.8793 213.097 8.95483 213.053 9.94141C213.008 10.9289 212.986 11.7131 212.986 12.2949C212.986 13.8993 213.017 15.1599 213.079 16.0762C213.141 16.9932 213.239 17.6408 213.371 18.0195C213.504 18.3991 213.684 18.5879 213.914 18.5879C214.215 18.5879 214.541 18.399 214.895 18.0195C215.248 17.6409 215.593 17.2136 215.929 16.7373L218.182 21.2061C217.634 21.8052 216.98 22.356 216.221 22.8584C215.461 23.3606 214.515 23.6123 213.384 23.6123C212.412 23.6123 211.612 23.4048 210.985 22.9912C210.358 22.5766 209.863 22.0079 209.501 21.2852C209.139 20.5629 208.873 19.734 208.705 18.7998C208.537 17.8657 208.431 16.8651 208.387 15.7988C208.342 14.7325 208.321 13.6615 208.321 12.5859C208.321 11.6523 208.348 10.6256 208.4 9.50586C208.454 8.3869 208.52 7.2491 208.6 6.09473C208.679 4.94043 208.767 3.85159 208.864 2.8291C208.961 1.80737 209.054 0.916424 209.143 0.158203L213.94 0.211914ZM110.484 6.7959C110.856 6.79594 111.332 6.84827 111.915 6.9541C112.498 7.06011 113.09 7.26313 113.691 7.5625L113.188 12.0312C112.746 11.7668 112.273 11.5766 111.77 11.4619C111.266 11.3472 110.846 11.29 110.511 11.29C109.379 11.29 108.421 11.7972 107.635 12.8105C106.848 13.8244 106.313 15.2305 106.031 17.0283C106.031 18.2624 106.018 19.4392 105.991 20.5586C105.964 21.6778 105.915 22.6873 105.845 23.5859H101.392C101.462 22.1225 101.515 20.6593 101.551 19.1963C101.586 17.7335 101.604 16.2882 101.604 14.8604C101.587 13.5558 101.564 12.2647 101.537 10.9863C101.511 9.70865 101.462 8.47053 101.392 7.27148L105.845 7.13867C105.862 7.79095 105.889 8.46118 105.925 9.14844C106.49 8.44381 107.148 7.87543 107.899 7.44336C108.65 7.01169 109.512 6.7959 110.484 6.7959ZM72.8701 11.4492C71.1206 11.4493 69.8042 12.3045 68.9209 14.0137C68.8678 15.0714 68.8321 16.1476 68.8145 17.2402C69.2389 17.8044 69.7866 18.294 70.458 18.708C71.1294 19.1221 71.9868 19.3291 73.0293 19.3291C75.5211 19.329 76.7666 17.9098 76.7666 15.0713C76.7666 14.3137 76.6253 13.6964 76.3428 13.2207C76.0602 12.7448 75.7067 12.3787 75.2822 12.123C74.8584 11.8679 74.4248 11.6919 73.9834 11.5947C73.5415 11.498 73.1703 11.4492 72.8701 11.4492ZM179.587 11.4492C177.837 11.4493 176.521 12.3045 175.638 14.0137C175.585 15.0714 175.549 16.1476 175.531 17.2402C175.956 17.8044 176.503 18.2939 177.175 18.708C177.846 19.1221 178.704 19.3291 179.746 19.3291C182.238 19.3291 183.484 17.9098 183.484 15.0713C183.484 14.3137 183.342 13.6964 183.06 13.2207C182.777 12.7448 182.423 12.3787 181.999 12.123C181.575 11.8681 181.142 11.6919 180.701 11.5947C180.259 11.4979 179.887 11.4492 179.587 11.4492ZM139.806 11.4229C138.851 11.4229 137.999 11.6122 137.248 11.9912C136.497 12.3703 135.91 12.8948 135.485 13.5645C135.061 14.2346 134.85 15.0105 134.85 15.8916V16.209C134.85 16.3148 134.858 16.4121 134.876 16.5C134.964 17.3461 135.313 18.0199 135.923 18.5225C136.532 19.025 137.305 19.2764 138.242 19.2764C139.144 19.2763 139.894 19.0339 140.495 18.5488C141.096 18.0642 141.59 17.3984 141.979 16.5527C141.962 16.2708 141.953 15.98 141.953 15.6797C141.953 15.063 141.97 14.4286 142.006 13.7764C142.041 13.1241 142.086 12.4804 142.139 11.8457C141.397 11.5643 140.618 11.4229 139.806 11.4229ZM13.1768 4.44238C12.9999 7.72109 12.8405 10.5102 12.6992 12.8105C12.558 15.1109 12.4339 17.0281 12.3281 18.5615C12.8582 18.738 13.4457 18.8922 14.0908 19.0244C14.7354 19.1566 15.4112 19.2226 16.1182 19.2227C17.5497 19.2227 18.7035 18.8615 19.5781 18.1387C20.4525 17.4161 21.0839 16.46 21.4727 15.2705C21.8611 14.0807 22.0566 12.7885 22.0566 11.3955C22.0566 10.2857 21.8883 9.34301 21.5527 8.56738C21.217 7.79167 20.7792 7.14848 20.2402 6.63672C19.7009 6.12587 19.1135 5.7247 18.4775 5.43359C17.8413 5.14294 17.218 4.92658 16.6084 4.78516C15.9991 4.64431 15.4553 4.552 14.9785 4.50781C14.5016 4.46407 14.1562 4.44238 13.9443 4.44238H13.1768ZM37.377 10.8672C36.3343 10.8672 35.4157 11.1315 34.6201 11.6602C33.8249 12.189 33.2414 12.8859 32.8701 13.749C33.3116 13.8195 33.7494 13.8771 34.1826 13.9209C34.6157 13.9651 35.044 13.9873 35.4678 13.9873C35.8565 13.9873 36.3029 13.9523 36.8066 13.8818C37.3104 13.8118 37.8058 13.7059 38.292 13.5645C38.7776 13.4236 39.179 13.243 39.4971 13.0225C39.8153 12.8023 39.9746 12.5421 39.9746 12.2422C39.9746 12.1014 39.9038 11.9252 39.7627 11.7139C39.6214 11.5025 39.3649 11.3082 38.9941 11.1318C38.6229 10.9559 38.0834 10.8672 37.377 10.8672ZM91.8496 10.8672C90.8069 10.8672 89.8884 11.1315 89.0928 11.6602C88.2978 12.1889 87.7151 12.886 87.3438 13.749C87.7851 13.8195 88.2222 13.8771 88.6553 13.9209C89.0883 13.9651 89.5167 13.9873 89.9404 13.9873C90.3292 13.9873 90.7756 13.9523 91.2793 13.8818C91.7831 13.8118 92.2783 13.7059 92.7646 13.5645C93.2503 13.4236 93.6516 13.243 93.9697 13.0225C94.2879 12.8023 94.4473 12.5421 94.4473 12.2422C94.4473 12.1014 94.3765 11.9252 94.2354 11.7139C94.0941 11.5025 93.8375 11.3082 93.4668 11.1318C93.0955 10.9559 92.5561 10.8672 91.8496 10.8672ZM198.566 10.8672C197.524 10.8672 196.605 11.1314 195.81 11.6602C195.015 12.1889 194.432 12.886 194.061 13.749C194.502 13.8195 194.939 13.8771 195.372 13.9209C195.805 13.9651 196.234 13.9873 196.658 13.9873C197.047 13.9873 197.493 13.9523 197.996 13.8818C198.5 13.8118 198.995 13.7059 199.481 13.5645C199.967 13.4236 200.368 13.243 200.687 13.0225C201.005 12.8023 201.164 12.5421 201.164 12.2422C201.164 12.1014 201.093 11.9252 200.952 11.7139C200.811 11.5025 200.554 11.3082 200.184 11.1318C199.812 10.9559 199.273 10.8672 198.566 10.8672Z" fill="white"/>
</svg>
