<svg width="192" height="192" viewBox="0 0 192 192" fill="none" xmlns="http://www.w3.org/2000/svg">
<g clip-path="url(#clip0_8024_770)">
<path d="M96.2344 184C92.082 184 87.926 183.531 83.8788 182.602L62.8592 177.785C59.402 176.992 55.8476 176.59 52.2968 176.59C48.7812 176.59 45.2576 176.984 41.832 177.766L18.6524 183.02C17.7736 183.219 16.8752 183.316 15.9844 183.316C9.3752 183.316 4 177.934 4 171.312V27.1287C4 21.4879 7.8436 16.6715 13.3436 15.4215L40.0624 9.36671C44.0624 8.46031 48.1756 7.99951 52.2852 7.99951C56.4376 7.99951 60.5976 8.46831 64.6484 9.39791L85.668 14.2143C89.1288 15.0071 92.6836 15.4059 96.2344 15.4059C99.7852 15.4059 103.34 15.0075 106.805 14.2143L127.762 9.40951C131.809 8.48391 135.965 8.01511 140.118 8.01511C144.27 8.01511 148.426 8.48391 152.469 9.40951L178.68 15.4135C184.168 16.6751 188 21.4839 188 27.1127V171.288C188 174.53 186.731 177.566 184.426 179.835C182.16 182.062 179.176 183.292 176.02 183.292C175.117 183.292 174.207 183.187 173.32 182.984L150.684 177.8C147.223 177.008 143.668 176.609 140.117 176.609C136.566 176.609 133.012 177.007 129.547 177.8L108.59 182.601C104.543 183.531 100.387 184 96.2344 184Z" fill="#F2E1D1"/>
<path d="M52.2913 11.9999C56.1365 11.9999 59.9821 12.4315 63.7541 13.2959L84.7745 18.1115C88.5461 18.9759 92.3909 19.4075 96.2353 19.4075C100.08 19.4075 103.925 18.9759 107.697 18.1115L128.657 13.3099C132.428 12.4455 136.273 12.0139 140.118 12.0139C143.962 12.0139 147.808 12.4455 151.579 13.3099L177.787 19.3147C181.423 20.1467 184 23.3819 184 27.1127V171.29C184 175.807 180.311 179.293 176.017 179.293C175.424 179.293 174.82 179.227 174.214 179.088L151.579 173.902C147.808 173.038 143.963 172.606 140.118 172.606C136.272 172.606 132.428 173.038 128.657 173.902L107.697 178.704C103.925 179.568 100.08 180.001 96.2353 180.001C92.3901 180.001 88.5457 179.568 84.7745 178.704L63.7541 173.888C59.9821 173.024 56.1385 172.592 52.2933 172.592C48.4881 172.592 44.6821 173.016 40.9477 173.862L17.7689 179.115C17.1673 179.252 16.5697 179.316 15.9833 179.316C11.6885 179.316 8.00049 175.828 8.00049 171.313V27.1267C8.00049 23.3903 10.5873 20.1511 14.2321 19.3251L40.9481 13.2695C44.6825 12.4227 48.4869 11.9999 52.2913 11.9999ZM52.2917 3.99991C47.8865 3.99991 43.4745 4.49311 39.1785 5.46751L12.4633 11.5231C5.12529 13.1863 0.000488281 19.6031 0.000488281 27.1267V171.313C0.000488281 180.138 7.17049 187.316 15.9833 187.316C17.1729 187.316 18.3685 187.182 19.5373 186.916L42.7157 181.664C45.8545 180.953 49.0765 180.591 52.2933 180.591C55.5441 180.591 58.7985 180.959 61.9673 181.686L82.9881 186.502C87.3269 187.496 91.7845 188.001 96.2361 188.001C100.688 188.001 105.145 187.496 109.484 186.502L130.444 181.7C133.612 180.974 136.868 180.605 140.118 180.605C143.368 180.605 146.624 180.974 149.792 181.7L172.427 186.886C173.608 187.156 174.815 187.293 176.017 187.293C184.831 187.293 192 180.114 192 171.29V27.1123C192 19.6043 186.89 13.1903 179.572 11.5155L153.366 5.51151C149.027 4.51751 144.57 4.01351 140.118 4.01351C135.666 4.01351 131.21 4.51751 126.871 5.51151L105.91 10.3131C102.742 11.0387 99.4865 11.4067 96.2361 11.4067C92.9857 11.4067 89.7301 11.0387 86.5613 10.3131L65.5409 5.49751C61.2005 4.50351 56.7429 3.99991 52.2917 3.99991Z" fill="#A59586"/>
<path d="M83.7853 147.058C82.3949 147.058 80.9309 146.974 79.3857 146.796C75.7965 146.386 63.6305 144.178 57.7245 133.076C52.8657 123.945 54.1073 112.175 61.4149 98.0919C62.8729 95.2799 63.4669 88.7067 60.7197 84.1887C58.9349 81.2555 55.9709 79.8283 51.6585 79.8283C42.2001 79.8283 38.5689 84.3743 32.9673 92.4111C27.9341 99.6315 21.3549 108.617 8.00049 108.617V94.2039C13.5853 94.2039 16.4181 90.9471 21.1441 84.1687C26.6613 76.2531 34.2197 65.4155 51.6585 65.4155C61.0209 65.4155 68.6129 69.4239 73.0353 76.7035C78.6005 85.8579 77.8377 97.7311 74.2065 104.729C69.2861 114.216 67.9853 121.678 70.4485 126.306C72.5233 130.205 77.4437 132.068 81.0273 132.479C90.6293 133.563 92.8981 129.436 97.5229 119.134C102.246 108.614 108.715 94.2043 130.188 94.2043C134.168 94.2043 137.394 97.4303 137.394 101.411C137.394 105.391 134.168 108.617 130.188 108.617C118.584 108.617 115.516 114.247 110.672 125.037C106.449 134.442 100.785 147.058 83.7853 147.058Z" fill="#16C5D8"/>
<path d="M136.739 153.564C133.572 153.564 130.667 151.455 129.792 148.252C128.745 144.412 131.008 140.448 134.847 139.401C139.427 138.151 140.354 135.7 141.601 126.613C142.583 119.46 143.808 110.559 151.419 104.434C160.162 97.396 167.963 100.49 173.663 102.748C177.109 104.113 179.8 105.402 184 105.402V119.815C177.05 119.815 172.261 117.695 168.357 116.147C162.862 113.974 162.403 114.089 160.455 115.66C157.517 118.024 156.768 122.118 155.881 128.575C154.741 136.862 153.021 149.384 138.642 153.308C138.006 153.479 137.367 153.564 136.739 153.564Z" fill="#16C5D8"/>
<path d="M68 42.3741L58 32.3743L48.0001 42.3742L58.0001 52.3741L68 42.3741Z" fill="#8C3AAA"/>
<path d="M93.9999 80.3746L84 90.3745L93.9999 100.374L104 90.3745L93.9999 80.3746Z" fill="#8C3AAA"/>
<path d="M172 154.374L162 144.375L152 154.374L162 164.374L172 154.374Z" fill="#8C3AAA"/>
<path d="M37.9999 136.375L28 146.375L37.9999 156.374L47.9998 146.375L37.9999 136.375Z" fill="#8C3AAA"/>
<g opacity="0.45">
<path d="M140 12.02C136.194 12.0288 132.39 12.4544 128.656 13.31L107.698 18.1116C103.848 18.9936 99.9241 19.4124 96.0005 19.394V179.987C99.9245 180.004 103.848 179.586 107.698 178.704L128.656 173.902C132.39 173.046 136.194 172.621 140 172.612V12.02Z" fill="white"/>
<path d="M17.7683 179.116L40.9471 173.862C44.5859 173.036 48.2919 172.632 51.9999 172.611V12.0193C48.2919 12.0409 44.5859 12.4449 40.9471 13.2693L14.2311 19.3249C10.5867 20.1509 7.99951 23.3905 7.99951 27.1265V171.314C7.99951 176.445 12.7635 180.25 17.7683 179.116Z" fill="white"/>
</g>
<path d="M132 34.3745C117.641 34.3745 106 46.0153 106 60.3745C106 77.0493 124.422 94.1625 130.253 99.1617C131.261 100.026 132.739 100.026 133.747 99.1617C139.578 94.1625 158 77.0493 158 60.3745C158 46.0153 146.359 34.3745 132 34.3745ZM132 70.3745C126.476 70.3745 122 65.8969 122 60.3745C122 54.8521 126.476 50.3745 132 50.3745C137.524 50.3745 142 54.8509 142 60.3745C142 65.8981 137.524 70.3745 132 70.3745Z" fill="#6EAF56"/>
<path d="M154 60.3745C154 48.2244 144.15 38.3745 132 38.3745C119.85 38.3745 110 48.2245 110 60.3745C110 67.3636 113.936 74.9263 119.121 81.7183C123.742 87.771 128.969 92.7086 132 95.3745C135.031 92.7087 140.258 87.771 144.879 81.7183C150.064 74.9263 154 67.3636 154 60.3745ZM138 60.3745C138 57.0601 135.314 54.3745 132 54.3745C128.686 54.3745 126 57.0609 126 60.3745C126 63.6881 128.686 66.3745 132 66.3745C135.314 66.3745 138 63.689 138 60.3745ZM146 60.3745C146 68.1073 139.733 74.3745 132 74.3745C124.267 74.3745 118 68.1057 118 60.3745C118 52.6433 124.267 46.3745 132 46.3745C139.733 46.3745 146 52.6418 146 60.3745ZM162 60.3745C162 70.0602 156.722 79.3906 151.238 86.5737C145.664 93.8749 139.37 99.611 136.352 102.199C133.845 104.349 130.154 104.348 127.648 102.199C124.63 99.6112 118.336 93.8751 112.762 86.5737C107.278 79.3906 102 70.0602 102 60.3745C102 43.8062 115.432 30.3745 132 30.3745C148.568 30.3745 162 43.8063 162 60.3745Z" fill="#2C7013"/>
</g>
<defs>
<clipPath id="clip0_8024_770">
<rect width="192" height="192" fill="white"/>
</clipPath>
</defs>
</svg>
