<svg width="158" height="67" viewBox="0 0 158 67" fill="none" xmlns="http://www.w3.org/2000/svg">
<g clip-path="url(#clip0_10191_1699)">
<path d="M118.229 9.07428H122.215V29.3747H118.229V9.07428ZM111.044 22.1811C110.371 22.7787 108.968 22.8066 107.732 23.034C106.497 23.2899 105.374 23.7167 105.374 25.1952C105.374 26.7019 106.526 27.0716 107.816 27.0716C110.932 27.0716 111.044 24.5697 111.044 23.6882V22.1811ZM101.838 19.1955C102.062 15.4146 105.403 14.2771 108.658 14.2771C111.549 14.2771 115.029 14.931 115.029 18.457V26.1053C115.029 27.4408 115.171 28.7774 115.534 29.3747H111.493C111.352 28.9193 111.241 28.436 111.212 27.9531C109.949 29.2889 108.097 29.7723 106.329 29.7723C103.578 29.7723 101.388 28.3798 101.388 25.3654C101.388 22.0388 103.859 21.2428 106.329 20.9017C108.771 20.5321 111.044 20.6172 111.044 18.9685C111.044 17.2345 109.865 16.9782 108.462 16.9782C106.946 16.9782 105.963 17.6038 105.824 19.1955H101.838ZM94.8774 14.6754H98.8636V29.3747H94.8774V14.6754ZM98.8636 12.4012H94.8774V9.07428H98.8636V12.4012ZM83.8468 14.6754H87.6361V17.4046C88.4211 15.5565 90.3873 14.2771 92.3232 14.2771C92.6041 14.2771 92.9415 14.3343 93.1935 14.4194V18.1724C92.8286 18.0874 92.2392 18.0302 91.7615 18.0302C88.8424 18.0302 87.833 20.1625 87.833 22.7498V29.3747H83.8468V14.6754ZM73.743 26.7302C76.4652 26.7302 77.2803 24.3705 77.2803 22.0388C77.2803 19.6792 76.4652 17.3196 73.743 17.3196C71.0483 17.3196 70.2346 19.6792 70.2346 22.0388C70.2346 24.3705 71.0483 26.7302 73.743 26.7302ZM73.743 14.2771C78.3185 14.2771 81.2651 17.3478 81.2651 22.0388C81.2651 26.7019 78.3185 29.7723 73.743 29.7723C69.195 29.7723 66.2483 26.7019 66.2483 22.0388C66.2483 17.3478 69.195 14.2771 73.743 14.2771ZM34.9404 20.447C34.5755 18.3998 33.7053 17.3196 31.768 17.3196C29.242 17.3196 28.5122 19.3099 28.4558 20.447H34.9404ZM28.4558 23.0057C28.5687 25.5648 29.8031 26.7302 32.0206 26.7302C33.6213 26.7302 34.9115 25.735 35.1648 24.8259H38.6732C37.551 28.2938 35.1648 29.7723 31.8802 29.7723C27.3054 29.7723 24.4703 26.5879 24.4703 22.0388C24.4703 17.632 27.4734 14.2771 31.8802 14.2771C36.8213 14.2771 39.2061 18.4849 38.9252 23.0057H28.4558ZM0 14.6754H3.76109V16.6657C4.85574 15.1584 6.37168 14.2771 8.25193 14.2771C10.077 14.2771 11.7046 14.9599 12.4908 16.7225C13.3321 15.4426 14.8481 14.2771 16.8694 14.2771C19.9565 14.2771 22.1733 15.7267 22.1733 19.5373V29.3747H18.1885V21.0437C18.1885 19.0825 18.0192 17.4618 15.7459 17.4618C13.5007 17.4618 13.0794 19.3378 13.0794 21.1859V29.3747H9.0939V21.1294C9.0939 19.4236 9.2068 17.4618 6.68014 17.4618C5.89394 17.4618 3.98554 17.9733 3.98554 20.8449V29.3747H0V14.6754ZM14.9137 40.2891C12.3031 40.2891 11.4053 42.564 11.4053 44.9801C11.4053 47.2829 12.4435 49.6997 14.9137 49.6997C17.5519 49.6997 18.3381 47.3683 18.3381 44.9522C18.3381 42.564 17.4955 40.2891 14.9137 40.2891ZM18.3939 50.4672C17.4115 52.06 15.7839 52.7417 13.9306 52.7417C9.55201 52.7417 7.41909 48.9325 7.41909 44.8664C7.41909 40.9146 9.58084 37.247 13.8466 37.247C15.5595 37.247 17.2435 37.9856 18.1695 39.4358L18.1977 32.0438H22.1832V52.3445H18.3939V50.4672ZM28.4696 45.9753C28.5818 48.534 29.8169 49.6997 32.0344 49.6997C33.6344 49.6997 34.926 48.7042 35.178 47.7954H38.6864C37.5642 51.2636 35.178 52.7417 31.894 52.7417C27.3191 52.7417 24.4841 49.5574 24.4841 45.0084C24.4841 40.6018 27.4871 37.247 31.894 37.247C36.8344 37.247 39.2206 41.4544 38.9397 45.9753H28.4696ZM34.9535 43.4165C34.5886 41.3693 33.7184 40.2891 31.7818 40.2891C29.2558 40.2891 28.526 42.2791 28.4696 43.4165H34.9535ZM59.5978 44.0135V52.3445H63.576V66.9973L41.4125 67V52.3445H45.3948V43.8144C45.3948 40.9432 47.3032 40.4314 48.0894 40.4314C50.6147 40.4314 50.5032 42.3928 50.5032 44.099V52.3445H54.488V44.1557C54.488 42.3073 54.9093 40.4314 57.1551 40.4314C59.4284 40.4314 59.5978 42.0521 59.5978 44.0135ZM45.1717 16.6657V14.6754H41.4125V0.00299524L63.576 0V19.3199C63.4907 15.6762 61.3054 14.2771 58.2787 14.2771C56.2586 14.2771 54.7427 15.4426 53.9 16.7225C53.1138 14.9599 51.4863 14.2771 49.6618 14.2771C47.7822 14.2771 46.2663 15.1584 45.2268 16.6657H45.1717ZM59.5978 29.3747H63.576V42.3216C63.5025 38.6533 61.3132 37.247 58.2773 37.247C56.2574 37.247 54.7413 38.4124 53.8987 39.6921C53.1138 37.9298 51.4849 37.247 49.6605 37.247C47.781 37.247 46.265 38.1279 45.2268 39.6349L45.1703 37.6452H41.4125V29.3747H45.3961V20.8449C45.3961 17.9733 47.3045 17.4618 48.0907 17.4618C50.616 17.4618 50.5045 19.4236 50.5045 21.1294V29.3747H54.4893V21.1859C54.4893 19.3378 54.9107 17.4618 57.1564 17.4618C59.4298 17.4618 59.5978 19.0825 59.5978 21.0437V29.3747ZM73.7719 37.247C78.346 37.247 81.2927 40.317 81.2927 45.0084C81.2927 49.6718 78.346 52.7417 73.7719 52.7417C69.2239 52.7417 66.2759 49.6718 66.2759 45.0084C66.2759 40.317 69.2239 37.247 73.7719 37.247ZM73.7719 49.6997C76.494 49.6997 77.3078 47.3404 77.3078 45.0084C77.3078 42.6487 76.494 40.2891 73.7719 40.2891C71.0758 40.2891 70.2621 42.6487 70.2621 45.0084C70.2621 47.3404 71.0758 49.6997 73.7719 49.6997ZM93.7552 42.8199C93.5019 41.1702 92.4637 40.2891 90.8073 40.2891C88.2531 40.2891 87.4117 42.9053 87.4117 45.0655C87.4117 47.1699 88.2255 49.6997 90.7233 49.6997C92.5752 49.6997 93.6423 48.5061 93.8957 46.7141H97.7401C97.2361 50.6094 94.569 52.7417 90.7508 52.7417C86.3735 52.7417 83.4255 49.6146 83.4255 45.2078C83.4255 40.6304 86.1202 37.247 90.8361 37.247C94.2592 37.247 97.4041 39.0665 97.6561 42.8199H93.7552ZM99.9845 37.6452H103.775V40.3742C104.56 38.526 106.526 37.247 108.462 37.247C108.742 37.247 109.079 37.3035 109.332 37.3893V41.1423C108.968 41.0569 108.377 41 107.9 41C104.981 41 103.971 43.1323 103.971 45.719V52.3445H99.9845V37.6452ZM110.736 42.1651C110.96 38.3838 114.299 37.247 117.555 37.247C120.447 37.247 123.928 37.9005 123.928 41.4262V49.0745C123.928 50.4103 124.068 51.7469 124.432 52.3445H120.391C120.25 51.8888 120.137 51.4055 120.11 50.9229C118.847 52.2581 116.994 52.7417 115.226 52.7417C112.476 52.7417 110.285 51.349 110.285 48.3349C110.285 45.0084 112.755 44.2123 115.226 43.8709C117.667 43.5016 119.942 43.5867 119.942 41.9377C119.942 40.204 118.762 39.9477 117.359 39.9477C115.843 39.9477 114.861 40.5733 114.72 42.1651H110.736ZM119.942 45.1503C119.267 45.7486 117.864 45.7765 116.629 46.0035C115.394 46.2598 114.271 46.6862 114.271 48.1647C114.271 49.6718 115.421 50.0411 116.714 50.0411C119.829 50.0411 119.942 47.5395 119.942 46.6574V45.1503ZM112.476 31.7878H116.882L119.577 35.8254H116.798L112.476 31.7878ZM132.066 37.6452H134.986V40.3459H132.066V47.6243C132.066 48.9888 132.403 49.3304 133.75 49.3304C134.171 49.3304 134.565 49.3025 134.986 49.2167V52.3725C134.311 52.4864 133.441 52.5147 132.655 52.5147C130.214 52.5147 128.081 51.946 128.081 49.0176V40.3459H125.667V37.6452H128.081V33.2384H132.066V37.6452ZM140.991 35.3704H137.006V32.0438H140.991V35.3704ZM137.006 37.6452H140.991V52.3445H137.006V37.6452ZM154.015 42.8199C153.762 41.1702 152.724 40.2891 151.067 40.2891C148.513 40.2891 147.67 42.9053 147.67 45.0655C147.67 47.1699 148.485 49.6997 150.983 49.6997C152.836 49.6997 153.902 48.5061 154.154 46.7141H158C157.495 50.6094 154.829 52.7417 151.011 52.7417C146.632 52.7417 143.685 49.6146 143.685 45.2078C143.685 40.6304 146.38 37.247 151.096 37.247C154.519 37.247 157.663 39.0665 157.916 42.8199H154.015Z" fill="#C4053F"/>
<path d="M0 14.6753H3.76109V16.6657H3.81754C4.85574 15.1583 6.37168 14.2771 8.25193 14.2771C10.077 14.2771 11.7046 14.9599 12.4908 16.7225C13.3321 15.4425 14.8481 14.2771 16.8694 14.2771C19.9565 14.2771 22.1733 15.7267 22.1733 19.5372V29.3747H18.1885V21.0436C18.1885 19.0825 18.0192 17.4618 15.7459 17.4618C13.5007 17.4618 13.0794 19.3378 13.0794 21.1859V29.3747H9.0939V21.1294C9.0939 19.4235 9.2068 17.4618 6.68014 17.4618C5.89394 17.4618 3.98554 17.9733 3.98554 20.8448V29.3747H0V14.6753Z" fill="#C4053F"/>
<path d="M28.4557 23.0057C28.5686 25.5648 29.803 26.7301 32.0206 26.7301C33.6212 26.7301 34.9114 25.735 35.1647 24.8259H38.6731C37.5509 28.2937 35.1647 29.7722 31.8801 29.7722C27.3053 29.7722 24.4702 26.5879 24.4702 22.0388C24.4702 17.632 27.4733 14.2771 31.8801 14.2771C36.8212 14.2771 39.206 18.4849 38.9251 23.0057H28.4557ZM34.9403 20.4469C34.5754 18.3998 33.7052 17.3195 31.7679 17.3195C29.242 17.3195 28.5121 19.3098 28.4557 20.4469H34.9403Z" fill="#C4053F"/>
<path d="M73.7432 14.2771C78.3187 14.2771 81.2653 17.3478 81.2653 22.0388C81.2653 26.7019 78.3187 29.7722 73.7432 29.7722C69.1952 29.7722 66.2485 26.7019 66.2485 22.0388C66.2485 17.3478 69.1952 14.2771 73.7432 14.2771ZM73.7432 26.7301C76.4654 26.7301 77.2805 24.3705 77.2805 22.0388C77.2805 19.6791 76.4654 17.3195 73.7432 17.3195C71.0485 17.3195 70.2348 19.6791 70.2348 22.0388C70.2348 24.3705 71.0485 26.7301 73.7432 26.7301Z" fill="#C4053F"/>
<path d="M83.8467 14.6753H87.636V17.4046H87.6924C88.4209 15.5565 90.3871 14.2771 92.3231 14.2771C92.604 14.2771 92.9413 14.3343 93.1933 14.4194V18.1724C92.8284 18.0873 92.2391 18.0301 91.7613 18.0301C88.8422 18.0301 87.8329 20.1625 87.8329 22.7497V29.3747H83.8467V14.6753Z" fill="#C4053F"/>
<path d="M98.8637 12.4011H94.8774V9.07422H98.8637V12.4011ZM94.8774 14.6753H98.8637V29.3746H94.8774V14.6753Z" fill="#C4053F"/>
<path d="M101.838 19.1955C102.062 15.4145 105.403 14.2771 108.658 14.2771C111.549 14.2771 115.029 14.9309 115.029 18.457V26.1052C115.029 27.4408 115.171 28.7773 115.534 29.3747H111.493C111.352 28.9193 111.241 28.436 111.212 27.953C109.949 29.2889 108.097 29.7722 106.329 29.7722C103.578 29.7722 101.388 28.3798 101.388 25.3653C101.388 22.0388 103.859 21.2427 106.329 20.9017C108.771 20.532 111.044 20.6171 111.044 18.9685C111.044 17.2344 109.865 16.9781 108.462 16.9781C106.946 16.9781 105.963 17.6037 105.824 19.1955H101.838ZM111.044 22.1811C110.371 22.7787 108.968 22.8066 107.732 23.0339C106.497 23.2899 105.374 23.7167 105.374 25.1951C105.374 26.7019 106.526 27.0715 107.816 27.0715C110.932 27.0715 111.044 24.5696 111.044 23.6881V22.1811Z" fill="#C4053F"/>
<path d="M118.229 9.07422H122.215V29.3746H118.229V9.07422Z" fill="#C4053F"/>
<path d="M18.3938 50.4671H18.338C17.4113 52.0599 15.7838 52.7416 13.9305 52.7416C9.55187 52.7416 7.41895 48.9324 7.41895 44.8663C7.41895 40.9145 9.5807 37.2469 13.8465 37.2469C15.5593 37.2469 17.2433 37.9855 18.1693 39.4357H18.1411H18.1975V32.0437H22.1831V52.3444H18.3938V50.4671ZM14.9136 40.289C12.3029 40.289 11.4052 42.5639 11.4052 44.98C11.4052 47.2828 12.4434 49.6996 14.9136 49.6996C17.5518 49.6996 18.338 47.3682 18.338 44.9521C18.338 42.5639 17.4953 40.289 14.9136 40.289Z" fill="#C4053F"/>
<path d="M28.4694 45.9753C28.5816 48.5341 29.8167 49.6998 32.0342 49.6998C33.6342 49.6998 34.9258 48.7043 35.1778 47.7955H38.6862C37.564 51.2637 35.1778 52.7418 31.8938 52.7418C27.3189 52.7418 24.4839 49.5575 24.4839 45.0084C24.4839 40.6019 27.4869 37.2471 31.8938 37.2471C36.8342 37.2471 39.2204 41.4545 38.9395 45.9753H28.4694ZM34.9533 43.4166C34.5884 41.3694 33.7182 40.2891 31.7816 40.2891C29.2556 40.2891 28.5258 42.2791 28.4694 43.4166H34.9533Z" fill="#C4053F"/>
<path d="M59.5978 44.0136C59.5978 42.0521 59.4285 40.4314 57.1552 40.4314C54.9094 40.4314 54.4881 42.3074 54.4881 44.1558V52.3445H50.5033V44.099C50.5033 42.3928 50.6148 40.4314 48.0895 40.4314C47.3032 40.4314 45.3948 40.9432 45.3948 43.8144V52.3445H41.4126V67L63.5761 66.9973V52.3445H59.5978V44.0136Z" fill="#C4053F"/>
<path d="M45.1717 16.6657H45.2268C46.2664 15.1584 47.7823 14.2771 49.6619 14.2771C51.4864 14.2771 53.1139 14.9599 53.9001 16.7225C54.7428 15.4426 56.2587 14.2771 58.2787 14.2771C61.3054 14.2771 63.4908 15.6762 63.5761 19.3199V0L41.4126 0.00299524V14.6754H45.1717V16.6657Z" fill="#C4053F"/>
<path d="M59.5978 29.3748V21.0437C59.5978 19.0826 59.4298 17.4619 57.1565 17.4619C54.9108 17.4619 54.4894 19.3379 54.4894 21.186V29.3748H50.5045V21.1295C50.5045 19.4237 50.6161 17.4619 48.0908 17.4619C47.3046 17.4619 45.3962 17.9734 45.3962 20.845V29.3748H41.4126V37.6453H45.1704V39.635H45.2268C46.265 38.128 47.7811 37.2471 49.6606 37.2471C51.485 37.2471 53.1139 37.9299 53.8988 39.6922C54.7414 38.4124 56.2574 37.2471 58.2774 37.2471C61.3133 37.2471 63.5026 38.6534 63.5761 42.3217V29.3748H59.5978Z" fill="#C4053F"/>
<path d="M73.7718 37.2471C78.3459 37.2471 81.2926 40.3171 81.2926 45.0084C81.2926 49.6719 78.3459 52.7418 73.7718 52.7418C69.2238 52.7418 66.2759 49.6719 66.2759 45.0084C66.2759 40.3171 69.2238 37.2471 73.7718 37.2471ZM73.7718 49.6998C76.4939 49.6998 77.3077 47.3405 77.3077 45.0084C77.3077 42.6488 76.4939 40.2891 73.7718 40.2891C71.0758 40.2891 70.262 42.6488 70.262 45.0084C70.262 47.3405 71.0758 49.6998 73.7718 49.6998Z" fill="#C4053F"/>
<path d="M93.7555 42.8199C93.5021 41.1703 92.4639 40.2891 90.8075 40.2891C88.2533 40.2891 87.4119 42.9053 87.4119 45.0656C87.4119 47.17 88.2257 49.6998 90.7235 49.6998C92.5755 49.6998 93.6426 48.5062 93.8959 46.7142H97.7403C97.2363 50.6095 94.5692 52.7418 90.7511 52.7418C86.3737 52.7418 83.4258 49.6147 83.4258 45.2079C83.4258 40.6305 86.1204 37.2471 90.8363 37.2471C94.2595 37.2471 97.4043 39.0666 97.6563 42.8199H93.7555Z" fill="#C4053F"/>
<path d="M99.9844 37.6453H103.775V40.3742H103.83C104.56 38.5261 106.526 37.2471 108.462 37.2471C108.742 37.2471 109.079 37.3036 109.332 37.3893V41.1424C108.967 41.0569 108.377 41.0001 107.9 41.0001C104.981 41.0001 103.971 43.1324 103.971 45.719V52.3446H99.9844V37.6453Z" fill="#C4053F"/>
<path d="M110.735 42.165C110.96 38.3838 114.299 37.247 117.555 37.247C120.447 37.247 123.928 37.9005 123.928 41.4262V49.0745C123.928 50.4103 124.068 51.7469 124.432 52.3445H120.39C120.25 51.8888 120.137 51.4055 120.11 50.9229C118.847 52.2581 116.994 52.7417 115.226 52.7417C112.476 52.7417 110.285 51.349 110.285 48.3349C110.285 45.0083 112.755 44.2123 115.226 43.8709C117.667 43.5016 119.942 43.5867 119.942 41.9377C119.942 40.204 118.762 39.9477 117.358 39.9477C115.842 39.9477 114.861 40.5733 114.72 42.165H110.735ZM112.476 31.7878H116.882L119.577 35.8254H116.798L112.476 31.7878ZM119.942 45.1503C119.267 45.7486 117.864 45.7765 116.629 46.0035C115.394 46.2598 114.271 46.6862 114.271 48.1647C114.271 49.6718 115.421 50.0411 116.714 50.0411C119.829 50.0411 119.942 47.5395 119.942 46.6574V45.1503Z" fill="#C4053F"/>
<path d="M132.066 37.6452H134.986V40.3458H132.066V47.6242C132.066 48.9887 132.403 49.3303 133.75 49.3303C134.171 49.3303 134.565 49.3024 134.986 49.2167V52.3724C134.311 52.4864 133.441 52.5146 132.655 52.5146C130.214 52.5146 128.081 51.9459 128.081 49.0175V40.3458H125.667V37.6452H128.081V33.2383H132.066V37.6452Z" fill="#C4053F"/>
<path d="M140.991 35.3703H137.006V32.0437H140.991V35.3703ZM137.006 37.6451H140.991V52.3444H137.006V37.6451Z" fill="#C4053F"/>
<path d="M154.015 42.8199C153.762 41.1703 152.724 40.2891 151.067 40.2891C148.513 40.2891 147.67 42.9053 147.67 45.0656C147.67 47.17 148.486 49.6998 150.983 49.6998C152.837 49.6998 153.902 48.5062 154.154 46.7142H158C157.495 50.6095 154.829 52.7418 151.011 52.7418C146.632 52.7418 143.686 49.6147 143.686 45.2079C143.686 40.6305 146.38 37.2471 151.096 37.2471C154.519 37.2471 157.663 39.0666 157.916 42.8199H154.015Z" fill="#C4053F"/>
</g>
<defs>
<clipPath id="clip0_10191_1699">
<rect width="158" height="67" fill="white"/>
</clipPath>
</defs>
</svg>
