<svg width="209" height="52" viewBox="0 0 209 52" fill="none" xmlns="http://www.w3.org/2000/svg">
<g clip-path="url(#clip0_10190_1593)">
<path d="M20.7601 0.199463C9.50957 0.199463 0.388672 10.7339 0.388672 23.7278C0.388672 36.7218 9.50965 47.256 20.7602 47.256C32.0108 47.256 41.1316 36.7216 41.1316 23.7278C41.1316 10.7341 32.0107 0.199463 20.7601 0.199463Z" fill="#C01718"/>
<path d="M6.53654 35.4468C4.5801 32.1243 3.43213 28.0852 3.43213 23.7279C3.43213 19.3706 4.5801 15.3316 6.53654 12.0093V35.4468Z" fill="white"/>
<path d="M10.9121 6.84681C12.04 5.92245 13.2645 5.15317 14.5648 4.56372V42.8927C13.2645 42.303 12.04 41.5336 10.9121 40.6096V6.84681Z" fill="white"/>
<path d="M18.9404 3.32391C19.5388 3.25019 20.1457 3.21167 20.7604 3.21167C21.3795 3.21167 21.9906 3.25102 22.5929 3.32582V44.1301C21.9906 44.2052 21.3795 44.2444 20.7604 44.2444C20.1457 44.2444 19.5388 44.2059 18.9404 44.1323V3.32391Z" fill="white"/>
<path d="M26.9688 4.56934C28.2693 5.16053 29.4936 5.93147 30.6212 6.85724V40.5989C29.4936 41.5246 28.2693 42.2957 26.9688 42.8867V4.56934Z" fill="white"/>
<path d="M34.9966 12.0312C36.9455 15.3493 38.0884 19.3803 38.0884 23.7279C38.0884 28.0755 36.9455 32.1063 34.9966 35.4247V12.0312Z" fill="white"/>
<path d="M2.09521 23.728C2.09521 18.3342 3.76755 13.3979 6.53657 9.5874V10.8738C4.21005 14.4334 2.826 18.8902 2.826 23.728C2.826 28.5659 4.21005 33.0226 6.53657 36.5823V37.8685C3.76755 34.0582 2.09521 29.1217 2.09521 23.728Z" fill="white"/>
<path d="M34.9966 36.5627C37.3156 33.0062 38.695 28.5569 38.695 23.7279C38.695 18.899 37.3156 14.4495 34.9966 10.8932V9.60522C37.7585 13.4128 39.425 18.3422 39.425 23.7279C39.425 29.1136 37.7585 34.0429 34.9966 37.8507V36.5627Z" fill="white"/>
<path d="M40.6141 44.7916C40.7532 44.2006 41.0358 43.5956 41.3634 43.1123C40.9426 42.9077 40.5874 42.7533 40.2214 42.4389C41.0289 41.2312 41.2299 40.4036 41.3624 38.9491L41.3053 30.7253C40.7724 33.1169 39.4833 36.2539 38.3705 37.8928C38.0453 38.3721 37.9025 38.6763 37.7013 38.996C37.5856 39.1808 36.9314 40.2488 36.948 41.5559C36.4917 41.6479 36.073 41.6311 35.5428 41.5915C35.6082 42.1615 35.6429 42.2415 35.4928 43.1741C33.4795 43.3291 32.8935 44.5243 30.5079 45.8022C29.3423 46.4266 28.5861 46.7117 26.8423 47.3423C30.8968 47.294 33.8743 47.8651 36.4229 46.1673C36.7124 46.5476 36.9284 46.9168 37.1189 47.3633C37.4703 47.0902 38.158 46.754 38.7307 46.6077C39.3866 47.2478 40.2653 47.4994 41.3906 47.399C41.5498 46.5016 41.3249 45.3986 40.6141 44.7916Z" fill="#C01718"/>
<path d="M40.9201 43.2728C40.606 43.4 39.1263 43.9404 39.1263 43.9404L39.1063 43.9615C39.0989 43.833 39.0674 43.7058 39.0129 43.5867L39.0049 43.5589C39.5753 43.222 39.934 42.7433 39.9422 42.6695C39.9377 42.6635 39.9352 42.6594 39.939 42.6606C39.9417 42.6613 39.9427 42.6647 39.9422 42.6695C39.9909 42.7347 40.4768 43.1824 40.9201 43.2728Z" fill="white"/>
<path d="M39.6971 36.3246C41.1804 33.0744 40.8312 33.2158 41.1591 31.8667C41.1163 32.5165 41.0742 33.3365 40.9809 33.9297C40.3343 37.4716 39.406 40.0952 38.2887 42.9901C38.2887 42.9901 37.9827 42.9644 37.8285 42.9936C37.5581 42.6846 37.473 42.2575 37.473 42.2575C36.954 40.1232 38.5699 38.7941 39.6971 36.3246Z" fill="white"/>
<path d="M35.9848 42.0294L37.3693 43.1744L37.3738 43.1853C37.3317 43.216 37.2909 43.2501 37.2524 43.2882C37.1824 43.3571 37.1244 43.4333 37.0778 43.5143L37.0699 43.5346C36.3644 43.1946 35.8926 43.1807 35.8926 43.1807C36.0705 42.4246 35.9848 42.0294 35.9848 42.0294Z" fill="white"/>
<path d="M29.6982 46.9642C29.0019 47.1223 28.4399 47.1145 28.001 47.134L29.4749 46.6818C32.6699 45.4948 33.483 43.6577 35.6404 43.6152C36.1453 43.62 36.5595 43.7513 36.9338 43.9593L36.9374 44.0165C36.9227 44.1534 36.9354 44.2929 36.9755 44.426L36.9764 44.447C35.4865 45.1792 32.0799 46.4238 29.6982 46.9642Z" fill="white"/>
<path d="M37.2902 46.8689C37.2045 46.6428 37.0858 46.2765 36.7554 45.915C37.2 45.5416 37.2915 45.3401 37.4403 44.9751L37.4515 44.98C37.5914 45.0622 37.7463 45.1101 37.9033 45.1229L37.9217 45.1198L37.2902 46.8689Z" fill="white"/>
<path d="M37.5745 44.4883C37.3292 44.2438 37.3299 43.8477 37.577 43.6047C37.8238 43.3612 38.2231 43.3624 38.4688 43.6072C38.7142 43.8515 38.7133 44.2472 38.4664 44.4903C38.2195 44.7338 37.8201 44.7326 37.5745 44.4883Z" fill="white"/>
<path d="M38.9467 46.2402C38.6209 45.8647 38.481 45.5741 38.3574 45.0654C38.5187 45.019 38.7092 44.9215 38.8234 44.7639L41.0343 46.9889C40.1948 47.0659 39.4684 46.8699 38.9467 46.2402Z" fill="white"/>
<path d="M41.3906 0.0215523C40.2653 -0.0794019 39.3866 0.172651 38.7307 0.812664C38.158 0.66638 37.4703 0.329728 37.1189 0.0567534C36.9283 0.503243 36.7124 0.872273 36.4229 1.25276C33.8742 -0.444779 30.8967 0.125993 26.8423 0.0777578C28.5861 0.708223 29.3423 0.993568 30.5079 1.61822C32.8935 2.89567 33.4795 4.09093 35.4928 4.2461C35.6429 5.1786 35.6081 5.25846 35.5428 5.82849C36.0729 5.78881 36.4917 5.7722 36.948 5.86411C36.9314 7.17111 37.5856 8.23918 37.7013 8.42399C37.9026 8.74404 38.0454 9.04781 38.3705 9.52726C39.4833 11.1664 40.7724 14.303 41.3053 16.6947L41.3624 8.47106C41.2299 7.01636 41.0288 6.18913 40.2214 4.98109C40.5875 4.6666 40.9426 4.51218 41.3634 4.30762C41.0358 3.82435 40.7532 3.21937 40.6141 2.62834C41.3249 2.02137 41.5498 0.918433 41.3906 0.0215523Z" fill="#C01718"/>
<path d="M40.9201 4.14708C40.606 4.01989 39.1263 3.4795 39.1263 3.4795L39.1063 3.4585C39.0989 3.58676 39.0674 3.71395 39.0129 3.83317L39.0049 3.86098C39.5753 4.19822 39.934 4.67692 39.9422 4.75073C39.9377 4.75695 39.9352 4.76102 39.939 4.75928C39.9417 4.75845 39.9427 4.75521 39.9422 4.75073C39.9909 4.68514 40.4768 4.23749 40.9201 4.14708Z" fill="white"/>
<path d="M39.6971 11.0953C41.1804 14.3455 40.8312 14.2041 41.1591 15.5536C41.1163 14.9034 41.0742 14.0833 40.9809 13.4906C40.3343 9.94886 39.406 7.32505 38.2887 4.42984C38.2887 4.42984 37.9827 4.45549 37.8285 4.42627C37.5581 4.73536 37.473 5.16242 37.473 5.16242C36.954 7.29674 38.5699 8.62608 39.6971 11.0953Z" fill="white"/>
<path d="M35.9848 5.39043L37.3693 4.24557L37.3738 4.23486C37.3317 4.20414 37.2909 4.16969 37.2524 4.13166C37.1824 4.06275 37.1244 3.98654 37.0778 3.90609L37.0699 3.88525C36.3644 4.22523 35.8926 4.23901 35.8926 4.23901C36.0705 4.99517 35.9848 5.39043 35.9848 5.39043Z" fill="white"/>
<path d="M29.6982 0.455668C29.0019 0.297761 28.4399 0.305316 28.001 0.285889L29.4749 0.738024C32.6699 1.92506 33.483 3.76208 35.6404 3.80467C36.1453 3.79977 36.5595 3.66893 36.9338 3.46063L36.9374 3.40343C36.9227 3.26653 36.9354 3.12722 36.9755 2.99388L36.9764 2.97321C35.4865 2.24063 32.0799 0.996054 29.6982 0.455668Z" fill="white"/>
<path d="M37.2902 0.551025C37.2045 0.776927 37.0858 1.14313 36.7554 1.50469C37.2 1.87829 37.2915 2.07953 37.4403 2.44466L37.4515 2.43976C37.5914 2.35757 37.7463 2.31008 37.9033 2.2968L37.9217 2.29996L37.2902 0.551025Z" fill="white"/>
<path d="M37.5745 2.93209C37.3292 3.17692 37.3299 3.57235 37.577 3.81535C37.8238 4.05885 38.2231 4.05769 38.4688 3.81344C38.7142 3.56861 38.7133 3.17285 38.4664 2.92976C38.2195 2.68668 37.8201 2.68751 37.5745 2.93209Z" fill="white"/>
<path d="M38.9467 1.17978C38.6209 1.55562 38.481 1.84619 38.3574 2.35478C38.5187 2.40086 38.7092 2.49849 38.8234 2.65623L41.0343 0.431006C40.1948 0.35446 39.4684 0.550059 38.9467 1.17978Z" fill="white"/>
<path d="M0.0484238 47.399C1.17402 47.4994 2.05297 47.2478 2.70891 46.6077C3.28106 46.754 3.9691 47.0902 4.32058 47.3633C4.51132 46.9168 4.72687 46.5477 5.01675 46.1673C7.56536 47.8651 10.5428 47.294 14.597 47.3423C12.8534 46.7117 12.0973 46.4266 10.9313 45.8022C8.54572 44.5243 7.96 43.3291 5.94624 43.1741C5.79656 42.2414 5.83143 42.1615 5.89646 41.5915C5.36672 41.6312 4.94795 41.648 4.49154 41.5559C4.50822 40.2489 3.85395 39.1808 3.73771 38.996C3.537 38.6763 3.39428 38.3721 3.06878 37.8927C1.95634 36.2539 0.667244 33.1169 0.133989 30.7253L0.0770015 38.9491C0.209498 40.4036 0.410799 41.2312 1.21801 42.4389C0.851532 42.7534 0.497119 42.9078 0.0761635 43.1123C0.403508 43.5956 0.686436 44.2006 0.825553 44.7916C0.11463 45.3986 -0.11022 46.5016 0.0484238 47.399Z" fill="#C01718"/>
<path d="M0.519043 43.2728C0.832895 43.4 2.31282 43.9404 2.31282 43.9404L2.33301 43.9615C2.34039 43.833 2.37148 43.7058 2.42621 43.5867L2.434 43.5589C1.86379 43.222 1.50485 42.7433 1.49689 42.6695C1.5015 42.6635 1.50384 42.6594 1.50024 42.6606C1.49731 42.6613 1.49647 42.6647 1.49689 42.6695C1.44778 42.7347 0.962374 43.1824 0.519043 43.2728Z" fill="white"/>
<path d="M1.74226 36.3246C0.258903 33.0744 0.608205 33.2158 0.280273 31.8667C0.322763 32.5165 0.364833 33.3365 0.458528 33.9297C1.10509 37.4716 2.0334 40.0952 3.1507 42.9901C3.1507 42.9901 3.45634 42.9644 3.61054 42.9936C3.88073 42.6846 3.96596 42.2575 3.96596 42.2575C4.48538 40.1232 2.86945 38.7941 1.74226 36.3246Z" fill="white"/>
<path d="M5.45434 42.0294L4.07046 43.1744L4.06543 43.1853C4.108 43.216 4.14848 43.2501 4.18686 43.2882C4.25684 43.3571 4.315 43.4333 4.3616 43.5143L4.36973 43.5346C5.07487 43.1946 5.54728 43.1807 5.54728 43.1807C5.36894 42.4246 5.45434 42.0294 5.45434 42.0294Z" fill="white"/>
<path d="M11.7411 46.9642C12.4371 47.1223 12.9994 47.1145 13.4384 47.134L11.9644 46.6818C8.76941 45.4948 7.95641 43.6577 5.79867 43.6152C5.29399 43.62 4.87974 43.7513 4.50546 43.9593L4.50178 44.0165C4.51611 44.1534 4.50354 44.2929 4.46373 44.426L4.46289 44.447C5.95253 45.1792 9.35948 46.4238 11.7411 46.9642Z" fill="white"/>
<path d="M4.14905 46.8689C4.23462 46.6428 4.35371 46.2765 4.68407 45.915C4.2394 45.5416 4.14754 45.3401 3.99896 44.9751L3.98756 44.98C3.84802 45.0622 3.69315 45.1101 3.5361 45.1229L3.51758 45.1198L4.14905 46.8689Z" fill="white"/>
<path d="M3.86461 44.4883C4.11024 44.2438 4.10915 43.8477 3.86243 43.6047C3.61554 43.3612 3.21595 43.3624 2.97057 43.6072C2.72511 43.8515 2.72603 44.2472 2.97292 44.4903C3.21989 44.7338 3.61914 44.7326 3.86461 44.4883Z" fill="white"/>
<path d="M2.4923 46.2402C2.8183 45.8647 2.95809 45.5741 3.08153 45.0654C2.92038 45.019 2.72989 44.9215 2.61574 44.7639L0.404785 46.9889C1.24452 47.0659 1.97069 46.8699 2.4923 46.2402Z" fill="white"/>
<path d="M0.825553 2.6282C0.686436 3.21923 0.403508 3.82421 0.0761635 4.30748C0.497119 4.51213 0.851616 4.66655 1.21801 4.98095C0.410715 6.18899 0.209498 7.01622 0.0770015 8.47092L0.133989 16.6945C0.667244 14.3028 1.95642 11.1663 3.06878 9.52712C3.39436 9.04767 3.53708 8.7439 3.73771 8.42385C3.85395 8.23904 4.50822 7.17106 4.49154 5.86397C4.94795 5.77214 5.36664 5.78875 5.89646 5.82835C5.83134 5.25832 5.79656 5.17837 5.94624 4.24596C7.96 4.09079 8.54572 2.89553 10.9313 1.61808C12.0973 0.993428 12.8534 0.708083 14.597 0.0776183C10.5427 0.125854 7.56528 -0.444919 5.01675 1.25262C4.72687 0.872217 4.51124 0.503103 4.32058 0.0566138C3.96902 0.329588 3.28106 0.66624 2.70892 0.812524C2.0528 0.172678 1.17393 -0.0794584 0.04834 0.0215788C-0.110304 0.91846 0.11463 2.02123 0.825553 2.6282Z" fill="#C01718"/>
<path d="M0.519043 4.14708C0.832895 4.01989 2.31282 3.4795 2.31282 3.4795L2.33301 3.4585C2.34039 3.58676 2.37148 3.71395 2.42621 3.83317L2.434 3.86098C1.86379 4.19822 1.50485 4.67692 1.49689 4.75073C1.5015 4.75695 1.50384 4.76102 1.50024 4.75928C1.49731 4.75845 1.49647 4.75521 1.49689 4.75073C1.44778 4.68514 0.962374 4.23749 0.519043 4.14708Z" fill="white"/>
<path d="M1.74226 11.0953C0.258903 14.3455 0.608205 14.2041 0.280273 15.5536C0.322763 14.9034 0.364833 14.0833 0.458528 13.4906C1.10509 9.94886 2.0334 7.32505 3.1507 4.42984C3.1507 4.42984 3.45634 4.45549 3.61054 4.42627C3.88073 4.73536 3.96596 5.16242 3.96596 5.16242C4.48538 7.29674 2.86945 8.62608 1.74226 11.0953Z" fill="white"/>
<path d="M5.45434 5.39043L4.07046 4.24557L4.06543 4.23486C4.108 4.20414 4.14848 4.16969 4.18686 4.13166C4.25684 4.06275 4.315 3.98654 4.3616 3.90609L4.36973 3.88525C5.07487 4.22523 5.54728 4.23901 5.54728 4.23901C5.36894 4.99517 5.45434 5.39043 5.45434 5.39043Z" fill="white"/>
<path d="M11.7411 0.455668C12.4371 0.297761 12.9994 0.305316 13.4384 0.285889L11.9644 0.738024C8.76941 1.92506 7.95641 3.76208 5.79867 3.80467C5.29399 3.79977 4.87974 3.66893 4.50546 3.46063L4.50178 3.40343C4.51611 3.26653 4.50354 3.12722 4.46373 2.99388L4.46289 2.97321C5.95253 2.24063 9.35948 0.996054 11.7411 0.455668Z" fill="white"/>
<path d="M4.14905 0.551025C4.23462 0.776927 4.35371 1.14313 4.68407 1.50469C4.2394 1.87829 4.14754 2.07953 3.99896 2.44466L3.98756 2.43976C3.84802 2.35757 3.69315 2.31008 3.5361 2.2968L3.51758 2.29996L4.14905 0.551025Z" fill="white"/>
<path d="M3.86461 2.93209C4.11024 3.17692 4.10915 3.57235 3.86243 3.81535C3.61554 4.05885 3.21595 4.05769 2.97057 3.81344C2.72511 3.56861 2.72603 3.17285 2.97292 2.92976C3.21989 2.68668 3.61914 2.68751 3.86461 2.93209Z" fill="white"/>
<path d="M2.4923 1.17978C2.8183 1.55562 2.95809 1.84619 3.08153 2.35478C2.92038 2.40086 2.72989 2.49849 2.61574 2.65623L0.404785 0.431006C1.24452 0.35446 1.97069 0.550059 2.4923 1.17978Z" fill="white"/>
<path d="M30.6212 5.18292V6.09873C29.4872 5.21837 28.2631 4.48462 26.9688 3.92257V3.12598C28.2573 3.65765 29.4802 4.35079 30.6212 5.18292Z" fill="white"/>
<path d="M20.7604 1.88672C21.3787 1.88672 21.9902 1.92333 22.5929 1.99174V2.73188C21.9906 2.66006 21.3792 2.62304 20.7604 2.62304C20.1461 2.62304 19.5388 2.65981 18.9404 2.73071V1.99058C19.5395 1.9225 20.1461 1.88672 20.7604 1.88672Z" fill="white"/>
<path d="M14.5648 3.12036V3.91695C13.2704 4.4776 12.0466 5.20985 10.9121 6.08863V5.17282C12.0531 4.34186 13.2769 3.65103 14.5648 3.12036Z" fill="white"/>
<path d="M10.9121 42.283V41.3674C12.0466 42.2462 13.2704 42.9786 14.5648 43.5394V44.3354C13.2769 43.8048 12.0531 43.114 10.9121 42.283Z" fill="white"/>
<path d="M20.7604 45.5693C20.1461 45.5693 19.5395 45.5337 18.9404 45.4657V44.7255C19.5388 44.7967 20.1461 44.8332 20.7604 44.8332C21.3792 44.8332 21.9906 44.7962 22.5929 44.7241V45.4645C21.9902 45.5333 21.3787 45.5693 20.7604 45.5693Z" fill="white"/>
<path d="M26.9688 44.3298V43.5332C28.2631 42.9714 29.4872 42.238 30.6212 41.3577V42.2728C29.4802 43.1054 28.2573 43.7983 26.9688 44.3298Z" fill="white"/>
<path d="M67.7554 20.5435C66.3731 22.3118 64.5627 22.9839 62.8285 22.9839C57.2723 22.9839 54.0044 18.8746 54.0044 13.7441C54.0044 8.46405 57.2723 4.35474 62.8285 4.35474C66.4991 4.35474 69.9683 6.59648 70.3956 10.6308H66.6243C66.1718 8.66355 64.6888 7.64239 62.8285 7.64239C59.2831 7.64239 57.9508 10.6308 57.9508 13.7441C57.9508 16.7078 59.2831 19.6967 62.8285 19.6967C65.3927 19.6967 66.8756 18.3269 67.1023 15.861H63.1297V12.9471H70.6722V22.5607H68.1581L67.7554 20.5435Z" fill="#1D1D1B"/>
<path d="M76.4302 16.9819C76.5309 19.2232 77.6366 20.2444 79.6229 20.2444C81.056 20.2444 82.2123 19.3728 82.4391 18.5758H85.5818C84.576 21.6141 82.4391 22.9093 79.4977 22.9093C75.3991 22.9093 72.8604 20.1198 72.8604 16.135C72.8604 12.2746 75.5505 9.33594 79.4977 9.33594C83.922 9.33594 86.0589 13.0217 85.8076 16.9818L76.4302 16.9819ZM82.2377 14.7406C81.9112 12.9471 81.1312 12.001 79.397 12.001C77.1341 12.001 76.4802 13.7441 76.4303 14.7406H82.2377Z" fill="#1D1D1B"/>
<path d="M87.9196 9.68454H91.3136V11.4776H91.3888C92.294 10.0332 93.8523 9.33594 95.3614 9.33594C99.1572 9.33594 100.112 11.4528 100.112 14.6407V22.5606H96.5423V15.2881C96.5423 13.1712 95.9137 12.1253 94.2548 12.1253C92.3192 12.1253 91.4894 13.1959 91.4894 15.811V22.5606H87.9194L87.9196 9.68454Z" fill="#1D1D1B"/>
<path d="M105.77 16.9819C105.871 19.2232 106.976 20.2444 108.963 20.2444C110.396 20.2444 111.552 19.3728 111.779 18.5758H114.922C113.916 21.6141 111.779 22.9093 108.838 22.9093C104.739 22.9093 102.2 20.1198 102.2 16.135C102.2 12.2746 104.89 9.33594 108.838 9.33594C113.262 9.33594 115.399 13.0217 115.147 16.9818L105.77 16.9819ZM111.577 14.7406C111.251 12.9471 110.471 12.001 108.737 12.001C106.474 12.001 105.82 13.7441 105.77 14.7406H111.577Z" fill="#1D1D1B"/>
<path d="M117.26 9.68454H120.654V12.0755H120.704C121.358 10.4564 123.117 9.33594 124.852 9.33594C125.103 9.33594 125.405 9.38583 125.631 9.46039V12.748C125.305 12.6731 124.777 12.6232 124.349 12.6232C121.735 12.6232 120.83 14.4912 120.83 16.7576V22.5606H117.26V9.68454Z" fill="#1D1D1B"/>
<path d="M126.888 13.6443C127.089 10.332 130.081 9.33594 132.997 9.33594C135.587 9.33594 138.704 9.9087 138.704 12.9969V19.6966C138.704 20.867 138.83 22.0376 139.156 22.5606H135.537C135.411 22.1621 135.31 21.7389 135.285 21.3153C134.154 22.486 132.495 22.9092 130.911 22.9092C128.447 22.9092 126.486 21.689 126.486 19.0488C126.486 16.1349 128.698 15.4377 130.911 15.1389C133.098 14.815 135.134 14.8896 135.134 13.4453C135.134 11.9259 134.078 11.7017 132.821 11.7017C131.463 11.7017 130.584 12.2498 130.458 13.6443L126.888 13.6443ZM135.134 16.2594C134.531 16.7828 133.274 16.8075 132.167 17.0065C131.062 17.2307 130.056 17.6045 130.056 18.8997C130.056 20.2196 131.087 20.5435 132.243 20.5435C135.033 20.5435 135.134 18.3517 135.134 17.5798L135.134 16.2594Z" fill="#1D1D1B"/>
<path d="M141.571 4.77832H145.141V22.5606H141.571V4.77832Z" fill="#1D1D1B"/>
<path d="M151.628 7.69221H148.058V4.77832H151.628V7.69221ZM148.058 9.68464H151.628V22.5607H148.058V9.68464Z" fill="#1D1D1B"/>
<path d="M158.968 9.68455H161.583V12.0503H158.968V18.4261C158.968 19.6216 159.27 19.9208 160.477 19.9208C160.854 19.9208 161.206 19.8956 161.583 19.8211V22.5853C160.98 22.685 160.2 22.7102 159.496 22.7102C157.31 22.7102 155.399 22.212 155.399 19.6468V12.0504H153.236V9.68463H155.399V5.82422H158.969L158.968 9.68455Z" fill="#1D1D1B"/>
<path d="M163.142 13.6443C163.343 10.332 166.335 9.33594 169.251 9.33594C171.84 9.33594 174.958 9.9087 174.958 12.9969V19.6966C174.958 20.867 175.084 22.0376 175.41 22.5606H171.791C171.665 22.1621 171.564 21.7389 171.539 21.3153C170.407 22.486 168.749 22.9092 167.165 22.9092C164.701 22.9092 162.74 21.689 162.74 19.0488C162.74 16.1349 164.952 15.4377 167.165 15.1389C169.352 14.815 171.388 14.8896 171.388 13.4453C171.388 11.9259 170.332 11.7017 169.075 11.7017C167.717 11.7017 166.838 12.2498 166.712 13.6443L163.142 13.6443ZM171.388 16.2594C170.785 16.7828 169.528 16.8075 168.421 17.0065C167.316 17.2307 166.31 17.6045 166.31 18.8997C166.31 20.2196 167.341 20.5435 168.497 20.5435C171.287 20.5435 171.388 18.3517 171.388 17.5798L171.388 16.2594Z" fill="#1D1D1B"/>
<path d="M182.249 9.68455H184.864V12.0503H182.249V18.4261C182.249 19.6216 182.551 19.9208 183.758 19.9208C184.135 19.9208 184.487 19.8956 184.864 19.8211V22.5853C184.261 22.685 183.481 22.7102 182.777 22.7102C180.59 22.7102 178.679 22.212 178.679 19.6468V12.0504H176.517V9.68463H178.679V5.82422H182.249L182.249 9.68455Z" fill="#1D1D1B"/>
<path d="M63.6832 45.8234H63.6332C62.8034 47.2183 61.3449 47.8158 59.686 47.8158C55.7641 47.8158 53.8535 44.4783 53.8535 40.917C53.8535 37.4551 55.7895 34.2424 59.6106 34.2424C61.1435 34.2424 62.6527 34.8898 63.4571 36.1599H63.5071V29.6848H67.077V47.4671H63.6831L63.6832 45.8234ZM60.5658 36.9075C58.2277 36.9075 57.4231 38.8995 57.4231 41.0168C57.4231 43.034 58.3537 45.1509 60.5658 45.1509C62.9286 45.1509 63.6333 43.1086 63.6333 40.9917C63.6333 38.8995 62.8787 36.9075 60.5658 36.9075Z" fill="#1D1D1B"/>
<path d="M72.7095 41.8884C72.8102 44.1297 73.9159 45.1509 75.9022 45.1509C77.3352 45.1509 78.4916 44.2793 78.7184 43.4823H81.8611C80.8552 46.5206 78.7184 47.8158 75.777 47.8158C71.6784 47.8158 69.1396 45.0263 69.1396 41.0415C69.1396 37.1811 71.8298 34.2424 75.777 34.2424C80.2013 34.2424 82.3382 37.9282 82.0869 41.8883L72.7095 41.8884ZM78.517 39.647C78.1905 37.8536 77.4105 36.9075 75.6763 36.9075C73.4134 36.9075 72.7595 38.6506 72.7096 39.647H78.517Z" fill="#1D1D1B"/>
<path d="M103.532 35.6622C103.281 33.8939 101.572 32.5489 99.6105 32.5489C96.0651 32.5489 94.7328 35.5373 94.7328 38.6506C94.7328 41.6143 96.0651 44.6032 99.6105 44.6032C102.024 44.6032 103.381 42.9594 103.683 40.6183H107.504C107.102 45.0515 104.01 47.8904 99.6106 47.8904C94.0544 47.8904 90.7856 43.7811 90.7856 38.6506C90.7856 33.3705 94.0544 29.2612 99.6106 29.2612C103.557 29.2612 106.876 31.5525 107.354 35.6622H103.532Z" fill="#1D1D1B"/>
<path d="M109.667 38.5508C109.868 35.2385 112.86 34.2424 115.776 34.2424C118.365 34.2424 121.483 34.8152 121.483 37.9034V44.6031C121.483 45.7734 121.609 46.9441 121.935 47.4671H118.315C118.189 47.0686 118.089 46.6454 118.064 46.2218C116.932 47.3925 115.273 47.8157 113.69 47.8157C111.226 47.8157 109.265 46.5955 109.265 43.9553C109.265 41.0414 111.477 40.3442 113.69 40.0454C115.877 39.7215 117.913 39.7961 117.913 38.3517C117.913 36.8324 116.857 36.6082 115.6 36.6082C114.242 36.6082 113.362 37.1563 113.237 38.5507L109.667 38.5508ZM117.913 41.1659C117.31 41.6893 116.053 41.714 114.946 41.913C113.84 42.1372 112.835 42.511 112.835 43.8062C112.835 45.126 113.866 45.45 115.022 45.45C117.812 45.45 117.913 43.2581 117.913 42.4863L117.913 41.1659Z" fill="#1D1D1B"/>
<path d="M128.774 34.591H131.389V36.9568H128.774V43.3326C128.774 44.5281 129.076 44.8273 130.282 44.8273C130.66 44.8273 131.012 44.8021 131.389 44.7276V47.4918C130.786 47.5915 130.006 47.6167 129.302 47.6167C127.115 47.6167 125.204 47.1185 125.204 44.5533V36.9569H123.042V34.5911H125.204V30.7307H128.774L128.774 34.591Z" fill="#1D1D1B"/>
<path d="M132.947 38.5508C133.149 35.2385 136.141 34.2424 139.057 34.2424C141.646 34.2424 144.764 34.8152 144.764 37.9034V44.6031C144.764 45.7734 144.89 46.9441 145.216 47.4671H141.596C141.47 47.0686 141.37 46.6454 141.345 46.2218C140.213 47.3925 138.554 47.8157 136.971 47.8157C134.506 47.8157 132.545 46.5955 132.545 43.9553C132.545 41.0414 134.758 40.3442 136.971 40.0454C139.157 39.7215 141.194 39.7961 141.194 38.3517C141.194 36.8324 140.138 36.6082 138.881 36.6082C137.523 36.6082 136.643 37.1563 136.518 38.5507L132.947 38.5508ZM141.194 41.1659C140.59 41.6893 139.333 41.714 138.227 41.913C137.121 42.1372 136.115 42.511 136.115 43.8062C136.115 45.126 137.147 45.45 138.303 45.45C141.093 45.45 141.194 43.2581 141.194 42.4863L141.194 41.1659Z" fill="#1D1D1B"/>
<path d="M147.63 29.6848H151.2V47.4671H147.63V29.6848Z" fill="#1D1D1B"/>
<path d="M166.209 47.4671H162.815V45.6741H162.74C161.835 47.1184 160.277 47.8157 158.768 47.8157C154.972 47.8157 154.017 45.6988 154.017 42.511V34.5911H157.587V41.8636C157.587 43.9805 158.215 45.0264 159.874 45.0264C161.81 45.0264 162.639 43.9554 162.639 41.3403V34.5911H166.209L166.209 47.4671Z" fill="#1D1D1B"/>
<path d="M168.925 34.591H172.319V36.3841H172.395C173.3 34.9397 174.858 34.2424 176.367 34.2424C180.163 34.2424 181.118 36.3593 181.118 39.5472V47.4671H177.548V40.1946C177.548 38.0777 176.92 37.0318 175.261 37.0318C173.325 37.0318 172.495 38.1024 172.495 40.7175V47.4671H168.925L168.925 34.591Z" fill="#1D1D1B"/>
<path d="M190.244 49.0858C189.465 51.1532 188.233 52.0001 185.769 52.0001C185.04 52.0001 184.311 51.9502 183.582 51.8752V48.9613C184.261 49.0112 184.965 49.1109 185.668 49.0858C186.9 48.9613 187.303 47.6913 186.9 46.6701L182.325 34.5911H186.146L189.088 43.4076H189.138L191.979 34.5911H195.674L190.244 49.0858Z" fill="#1D1D1B"/>
<path d="M196.731 38.5508C196.932 35.2385 199.924 34.2424 202.84 34.2424C205.43 34.2424 208.547 34.8152 208.547 37.9034V44.6031C208.547 45.7734 208.673 46.9441 209 47.4671H205.38C205.254 47.0686 205.153 46.6454 205.129 46.2218C203.997 47.3925 202.338 47.8157 200.754 47.8157C198.29 47.8157 196.329 46.5955 196.329 43.9553C196.329 41.0414 198.541 40.3442 200.754 40.0454C202.941 39.7215 204.977 39.7961 204.977 38.3517C204.977 36.8324 203.922 36.6082 202.664 36.6082C201.307 36.6082 200.427 37.1563 200.302 38.5507L196.731 38.5508ZM204.977 41.1659C204.374 41.6893 203.117 41.714 202.011 41.913C200.905 42.1372 199.899 42.511 199.899 43.8062C199.899 45.126 200.93 45.45 202.087 45.45C204.877 45.45 204.977 43.2581 204.977 42.4863L204.977 41.1659Z" fill="#1D1D1B"/>
</g>
<defs>
<clipPath id="clip0_10190_1593">
<rect width="209" height="52" fill="white"/>
</clipPath>
</defs>
</svg>
