<svg width="130" height="105" viewBox="0 0 130 105" fill="none" xmlns="http://www.w3.org/2000/svg">
<g clip-path="url(#clip0_10190_1665)">
<path d="M115.54 101.782H14.8091V105H115.54V101.782Z" fill="#00614C"/>
<path d="M37.5952 54.1691L64.8767 26.9329L92.1518 54.1691H37.5952Z" fill="#00614C"/>
<path d="M66.6115 34.2856C66.9217 34.2856 67.2003 34.5638 67.2003 34.8863V44.6541H68.4159V37.6301C68.4159 37.314 68.6944 37.0358 69.0173 37.0358H71.8537C72.1703 37.0358 72.4489 37.314 72.4489 37.6301V51.0396C72.4489 51.3557 72.1703 51.6339 71.8537 51.6339H57.4438C57.1272 51.6339 56.8486 51.3621 56.8486 51.0396V37.6301C56.8486 37.314 57.1272 37.0358 57.4438 37.0358H60.2802C60.6031 37.0358 60.8817 37.314 60.8817 37.6301V44.6541H62.0973V34.8863C62.0973 34.5638 62.3758 34.2856 62.6924 34.2856H66.6051H66.6115Z" fill="white"/>
<path d="M9.79395 97.3252C9.79385 98.5324 9.41432 99.3604 8.51562 100.163L7.21094 99.3857C7.92004 98.8357 8.24316 98.2161 8.24316 97.3184V90.7373H9.79395V97.3252ZM13.0742 94.543C13.0742 94.8717 13.0745 95.5928 13.752 95.5928C14.8515 95.5926 15.055 94.4267 15.0557 94.4229V90.7373H16.6074V94.2969C16.6075 95.1944 16.936 95.8206 17.6387 96.3643L16.335 97.1416C16.1337 97.0034 15.5632 96.2541 15.5557 96.2441C15.5332 96.2675 14.6056 97.2236 13.5361 97.2236C12.5485 97.2235 11.5234 96.4332 11.5234 95.2764V90.7373H13.0742V94.543ZM93.8672 94.543C93.8672 94.8717 93.8676 95.5927 94.5449 95.5928C95.6521 95.5928 95.8552 94.4245 95.8555 94.4229V90.7373H97.4072V94.2969C97.4073 95.1944 97.7295 95.8206 98.4385 96.3643L97.1348 97.1416C96.9336 97.0035 96.3637 96.255 96.3555 96.2441C96.3335 96.267 95.406 97.2235 94.3301 97.2236C93.3361 97.2236 92.3232 96.4333 92.3232 95.2764V90.7373H93.8672V94.543ZM28.0283 90.7305H29.25V92.2861H28.0352V92.2793L28.0283 92.2861H28.0352V94.3721C28.0352 95.2697 28.3639 95.8958 29.0664 96.4395L27.7627 97.2178C26.8574 96.4149 26.4776 95.5863 26.4775 94.3789V92.2861H25.3252V90.7305H26.4775V88.8281H28.0283V90.7305ZM62.8945 90.7305H64.1162V92.2861H62.8945V94.3721C62.8945 95.2698 63.224 95.8957 63.9268 96.4395L62.6221 97.2178C61.7294 96.4149 61.3438 95.5863 61.3438 94.3789V92.2861H60.1846V90.7305H61.3438V88.8281H62.8945V90.7305ZM7.1543 96.8252L5.5459 97.1924L5.00781 95.5039H2.15918L1.5957 97.1924L0 96.8252L2.91895 88.834H4.22949L7.1543 96.8252ZM32.2891 90.5342C33.9732 90.5342 34.835 91.6095 34.835 92.9814V94.2969C34.8351 95.1943 35.1579 95.8197 35.873 96.3633L34.5625 97.1416C34.3029 96.9583 33.9861 96.5214 33.8975 96.3887C33.8975 96.3887 33.2899 97.1923 32.1504 97.1924C31.0108 97.1924 29.8644 96.3196 29.8643 95.0869C29.8643 93.7403 31.0927 92.9122 32.5615 92.9121H33.2832C33.2832 92.3305 32.9475 91.9639 32.2891 91.9639C32.0041 91.9639 31.5419 92.0455 31.1875 92.292L30.624 91.0527C30.624 91.0527 31.2826 90.5343 32.2891 90.5342ZM49.8145 90.5283C51.1756 90.5283 52.0303 91.2807 52.4102 92.4756C51.7074 93.9423 50.5172 94.7197 48.8838 94.7197H48.6562L48.6494 94.7139C48.7065 94.8912 48.9472 95.6931 49.8076 95.6934C50.7636 95.6934 51.1943 95.1621 51.1943 95.1621L52.0684 96.0352C52.0597 96.0473 51.2377 97.1924 49.8145 97.1924C48.0861 97.1924 46.9845 95.5863 46.9844 93.8604C46.9844 92.1344 48.1113 90.5283 49.8145 90.5283ZM74.0322 94.2969C74.0323 95.1944 74.3608 95.8206 75.0635 96.3643L73.7598 97.1416C73.5164 96.9671 73.0637 96.3563 73.0508 96.3389C73.05 96.3398 72.328 97.1923 71.0752 97.1924C69.3278 97.1924 68.1055 95.6116 68.1055 93.8604C68.1055 92.1091 69.3278 90.5283 71.0752 90.5283C71.8088 90.5284 72.468 91.0928 72.4805 91.1035V87.6074H74.0322V94.2969ZM78.501 90.5283C79.8622 90.5283 80.7173 91.2807 81.1035 92.4756C80.3881 93.9423 79.2101 94.7197 77.5703 94.7197H77.3428L77.3359 94.7139C77.393 94.8911 77.6343 95.6934 78.4951 95.6934C79.4509 95.6932 79.8877 95.1621 79.8877 95.1621L80.7549 96.0352C80.7427 96.0522 79.9211 97.1924 78.501 97.1924C76.7727 97.1923 75.671 95.5862 75.6709 93.8604C75.6709 92.1344 76.798 90.5284 78.501 90.5283ZM88.5303 88.6191C89.6572 88.6192 90.4609 88.9482 91.208 89.7764L90.2012 90.9453C89.777 90.402 89.2328 90.1992 88.5303 90.1992C87.2768 90.1992 86.7891 91.6535 86.7891 92.9053C86.7891 94.1571 87.2767 95.6113 88.5303 95.6113C89.2393 95.6113 89.7833 95.4089 90.2012 94.8652L91.208 96.0352C90.461 96.8695 89.6571 97.1924 88.5303 97.1924C86.403 97.1924 85.1554 95.03 85.1553 92.9121V92.8994C85.1553 90.7815 86.4726 88.6191 88.5303 88.6191ZM101.408 91.1035C101.424 91.09 102.088 90.5283 102.813 90.5283C104.561 90.5284 105.783 92.1091 105.783 93.8604C105.783 95.6116 104.555 97.1924 102.813 97.1924C101.561 97.1924 100.847 96.3491 100.838 96.3389C100.827 96.3537 100.398 96.9355 100.136 97.1416L98.8252 96.3643C99.5341 95.8206 99.8563 95.1944 99.8564 94.2969V87.6074H101.408V91.1035ZM109.43 90.5283C110.791 90.5283 111.646 91.2807 112.025 92.4756C111.316 93.9423 110.132 94.7197 108.499 94.7197H108.271L108.265 94.7139C108.322 94.8912 108.563 95.6934 109.424 95.6934C110.38 95.6932 110.816 95.1621 110.816 95.1621L111.684 96.0352C111.673 96.0505 110.851 97.1924 109.43 97.1924C107.701 97.1923 106.6 95.5862 106.6 93.8604C106.6 92.1344 107.727 90.5284 109.43 90.5283ZM122.421 90.5283C123.782 90.5283 124.637 91.2808 125.017 92.4756C124.307 93.9422 123.124 94.7197 121.49 94.7197H121.263L121.256 94.7139C121.307 94.8911 121.554 95.6934 122.415 95.6934C123.371 95.6933 123.802 95.1621 123.802 95.1621L124.675 96.0352C124.66 96.0556 123.839 97.1924 122.421 97.1924C120.693 97.1922 119.591 95.5861 119.591 93.8604C119.591 92.1345 120.712 90.5285 122.421 90.5283ZM127.892 90.5283C128.778 90.5283 129.462 90.901 129.867 91.2803L128.98 92.4375C128.708 92.1659 128.392 91.964 127.962 91.9639C127.557 91.9639 127.215 92.0962 127.215 92.4375C127.215 92.8042 127.822 92.9688 128.164 93.1143L128.778 93.3857C129.456 93.6892 130 94.132 130 95.1562C130 96.3195 128.841 97.1924 127.619 97.1924C126.872 97.1923 126.113 96.9069 125.512 96.3633L126.397 95.0869C126.67 95.4662 127.284 95.7949 127.689 95.7949C128.234 95.7949 128.506 95.5546 128.506 95.2197C128.506 94.8846 127.961 94.6254 127.619 94.4736V94.4668L127.006 94.2012C126.328 93.8977 125.714 93.4493 125.714 92.4316C125.714 91.2811 126.803 90.5284 127.892 90.5283ZM22.1914 90.5029C23.3055 90.5032 24.2861 91.2935 24.2861 92.4502V96.9834H22.7354V93.1777C22.7354 92.672 22.653 92.1279 21.9756 92.1279C21.1399 92.128 20.6084 93.2979 20.6084 93.2979V96.9834H19.0635V93.4307C19.0635 92.5331 18.7342 91.9069 18.0254 91.3633L19.3359 90.585C19.6335 90.8063 20.1211 91.5088 20.1211 91.5088C20.1211 91.5088 21.0771 90.5029 22.1914 90.5029ZM40.2031 90.5029C41.2351 90.5029 41.7672 91.4139 41.7988 91.4834C41.7988 91.4834 42.7171 90.5029 43.6035 90.5029C44.6924 90.503 45.6484 91.2684 45.6484 92.4189V96.9834H44.0967V93.1582C44.0967 92.6904 44.1096 92.1338 43.4639 92.1338C42.8208 92.134 42.2469 93.2002 42.2422 93.209V96.9834H40.6914V93.1582C40.6914 92.6905 40.7225 92.134 40.0645 92.1338C39.406 92.1338 38.8418 93.209 38.8418 93.209V96.9834H37.2852V93.4307C37.2852 92.533 36.9555 91.9069 36.2529 91.3633L37.5566 90.585C37.9513 90.8665 38.3405 91.507 38.3486 91.5205C38.3697 91.4984 39.3207 90.5029 40.1973 90.5029H40.2031ZM57.0508 90.5029C58.1714 90.5029 59.1464 91.2933 59.1465 92.4502V96.9834H57.5957V93.1777C57.5957 92.672 57.5133 92.128 56.8359 92.1279C56.0065 92.1279 55.4746 93.2979 55.4746 93.2979V96.9834H53.9238V93.4307C53.9238 92.533 53.5942 91.9069 52.8916 91.3633L54.1953 90.585C54.4929 90.8062 54.9873 91.5088 54.9873 91.5088C54.9873 91.5088 55.9303 90.5031 57.0508 90.5029ZM114.817 96.9834H113.241V87.6074H114.817V96.9834ZM118.249 96.9834H116.673V87.6074H118.249V96.9834ZM32.5684 94.1064C31.5997 94.1064 31.4473 94.7202 31.4473 95.0869C31.4474 95.5167 31.8531 95.751 32.2139 95.751C32.8507 95.7507 33.3681 95.1608 33.3721 95.1562C33.3721 95.1562 33.29 94.6312 33.29 94.1064H32.5684ZM71.0752 92.084C70.1888 92.084 69.6885 92.9752 69.6885 93.8604C69.6885 94.7454 70.1889 95.6436 71.0752 95.6436C71.9614 95.6435 72.4804 94.7454 72.4805 93.8604C72.4805 92.9816 71.9615 92.0841 71.0752 92.084ZM102.813 92.084C101.927 92.084 101.408 92.9752 101.408 93.8604C101.408 94.7454 101.927 95.6436 102.813 95.6436C103.7 95.6435 104.2 94.7391 104.2 93.8604C104.2 92.9816 103.7 92.084 102.813 92.084ZM2.67773 93.9043H4.48242L3.58398 91.1543L2.67773 93.9043ZM49.8076 92.0518C48.7317 92.0522 48.5674 93.5381 48.5674 93.5381C49.8017 93.538 50.3269 93.1709 50.7891 92.4756C50.7817 92.4659 50.4652 92.0518 49.8145 92.0518H49.8076ZM78.4883 92.0518C77.4121 92.0519 77.2539 93.5381 77.2539 93.5381C78.4822 93.5381 79.0144 93.171 79.4766 92.4756C79.4766 92.4756 79.1534 92.0519 78.4951 92.0518H78.4883ZM109.424 92.0518C108.348 92.0518 108.188 93.5381 108.188 93.5381C109.417 93.5381 109.949 93.171 110.411 92.4756C110.411 92.4756 110.082 92.0518 109.43 92.0518H109.424ZM122.415 92.0518C121.339 92.0518 121.174 93.5381 121.174 93.5381C122.408 93.5381 122.934 93.171 123.396 92.4756C123.396 92.4756 123.079 92.0518 122.421 92.0518H122.415ZM9.01562 87.8418C9.53474 87.8419 9.95215 88.2653 9.95215 88.7773C9.95199 89.2893 9.52831 89.7128 9.01562 89.7129C8.50289 89.7129 8.08512 89.2956 8.08496 88.7773C8.08496 88.2589 8.50279 87.8418 9.01562 87.8418Z" fill="#1D1D1C"/>
<path d="M61.6533 79.8691L55.9814 74.2041V55.8125H61.6533V79.8691ZM73.7656 74.1914L68.0859 79.8564V55.8066H73.7656V74.1914ZM49.5488 67.7744L43.876 62.1094V55.8066H49.5488V67.7744ZM85.8711 62.1035L80.1982 67.7686V55.8066H85.8711V62.1035ZM65.1357 16.0967C73.0688 16.0967 80.1601 17.7148 84.8516 20.25H45.4141C50.1182 17.7148 57.2028 16.0967 65.1357 16.0967ZM41.0264 5.66504C43.1345 5.66504 44.8504 7.37782 44.8506 9.48926C44.8506 11.6009 43.1347 13.3145 41.0264 13.3145C38.9181 13.3144 37.2021 11.6008 37.2021 9.48926C37.2024 7.37786 38.9183 5.66511 41.0264 5.66504ZM89.3213 5.66504C91.4358 5.66504 93.1453 7.37782 93.1455 9.48926C93.1455 11.6009 91.4359 13.3145 89.3213 13.3145C87.2069 13.3142 85.4912 11.6007 85.4912 9.48926C85.4914 7.37797 87.207 5.66529 89.3213 5.66504ZM53.1006 1.24512C55.2088 1.2452 56.9306 2.95879 56.9307 5.07031C56.9307 7.18189 55.2215 8.89542 53.1006 8.89551C50.9796 8.89551 49.2764 7.18195 49.2764 5.07031C49.2764 2.95873 50.9923 1.24512 53.1006 1.24512ZM77.2412 1.24512C79.3495 1.24512 81.0722 2.95873 81.0723 5.07031C81.0723 7.18195 79.3559 8.89551 77.2412 8.89551C75.1267 8.89536 73.417 7.18185 73.417 5.07031C73.4171 2.95883 75.1331 1.24527 77.2412 1.24512ZM65.1738 0C67.2885 0 69.0039 1.71356 69.0039 3.8252C69.0038 5.93672 67.2947 7.65039 65.1738 7.65039C63.053 7.65036 61.3439 5.9367 61.3438 3.8252C61.3438 1.71358 63.0592 3.26434e-05 65.1738 0Z" fill="#EE7309"/>
</g>
<defs>
<clipPath id="clip0_10190_1665">
<rect width="130" height="105" fill="white"/>
</clipPath>
</defs>
</svg>
